G04 #@! TF.FileFunction,Soldermask,Top*
%FSLAX46Y46*%
G04 Gerber Fmt 4.6, Leading zero omitted, Abs format (unit mm)*
G04 Created by KiCad (PCBNEW 4.0.7-e1-6374~58~ubuntu14.04.1) date Tue Aug 29 09:34:13 2017*
%MOMM*%
%LPD*%
G01*
G04 APERTURE LIST*
%ADD10C,0.100000*%
%ADD11R,1.524000X2.032000*%
%ADD12R,1.143000X0.635000*%
%ADD13R,0.635000X1.143000*%
%ADD14R,1.950720X2.499360*%
%ADD15R,1.849120X5.499100*%
%ADD16R,2.499360X1.950720*%
%ADD17R,1.100000X0.800000*%
%ADD18R,1.100000X2.000000*%
%ADD19R,2.159000X1.778000*%
%ADD20O,3.048000X1.524000*%
%ADD21C,1.300480*%
%ADD22R,1.300000X1.300000*%
%ADD23C,1.300000*%
%ADD24R,5.000000X4.000000*%
%ADD25R,1.699260X1.198880*%
%ADD26O,1.699260X1.198880*%
%ADD27R,10.800080X8.150860*%
%ADD28R,0.899160X3.200400*%
%ADD29R,1.000000X3.200000*%
%ADD30R,1.300480X0.300000*%
%ADD31R,0.300000X1.300480*%
%ADD32R,2.032000X3.657600*%
%ADD33R,2.032000X1.016000*%
%ADD34R,0.299720X1.501140*%
%ADD35R,7.000240X3.599180*%
%ADD36R,0.400000X1.350000*%
%ADD37O,1.050000X1.250000*%
%ADD38O,1.500000X2.200000*%
%ADD39R,4.100000X2.000000*%
%ADD40R,1.198880X1.800860*%
%ADD41R,0.800000X0.800000*%
%ADD42C,4.500000*%
%ADD43C,2.200000*%
%ADD44R,2.400000X2.400000*%
%ADD45C,2.400000*%
%ADD46C,0.254000*%
G04 APERTURE END LIST*
D10*
D11*
X89916000Y-65405000D03*
X86614000Y-65405000D03*
D12*
X106045000Y-78613000D03*
X106045000Y-80137000D03*
X95885000Y-81788000D03*
X95885000Y-83312000D03*
X102870000Y-81788000D03*
X102870000Y-83312000D03*
X100330000Y-81788000D03*
X100330000Y-83312000D03*
D11*
X89916000Y-68580000D03*
X86614000Y-68580000D03*
X60579000Y-68580000D03*
X63881000Y-68580000D03*
D13*
X110490000Y-80264000D03*
X108966000Y-80264000D03*
D12*
X68580000Y-76708000D03*
X68580000Y-78232000D03*
D13*
X77597000Y-80010000D03*
X76073000Y-80010000D03*
X72263000Y-76835000D03*
X73787000Y-76835000D03*
X82677000Y-74930000D03*
X81153000Y-74930000D03*
D12*
X41910000Y-65278000D03*
X41910000Y-66802000D03*
D14*
X45466000Y-66675000D03*
X48514000Y-66675000D03*
D12*
X70485000Y-76708000D03*
X70485000Y-78232000D03*
D13*
X69342000Y-61595000D03*
X67818000Y-61595000D03*
X77978000Y-60960000D03*
X79502000Y-60960000D03*
X81153000Y-60960000D03*
X82677000Y-60960000D03*
X108966000Y-72136000D03*
X110490000Y-72136000D03*
D11*
X60579000Y-65405000D03*
X63881000Y-65405000D03*
D12*
X106045000Y-64643000D03*
X106045000Y-66167000D03*
D13*
X43688000Y-40640000D03*
X45212000Y-40640000D03*
X67818000Y-35560000D03*
X69342000Y-35560000D03*
X91948000Y-35560000D03*
X93472000Y-35560000D03*
D15*
X59019440Y-60325000D03*
X64170560Y-60325000D03*
D13*
X77597000Y-78105000D03*
X76073000Y-78105000D03*
X62992000Y-71120000D03*
X61468000Y-71120000D03*
D16*
X52705000Y-58166000D03*
X52705000Y-61214000D03*
D13*
X83947000Y-64770000D03*
X82423000Y-64770000D03*
X83947000Y-66675000D03*
X82423000Y-66675000D03*
X83947000Y-68580000D03*
X82423000Y-68580000D03*
X83947000Y-70485000D03*
X82423000Y-70485000D03*
X83947000Y-72390000D03*
X82423000Y-72390000D03*
D17*
X61595000Y-47010000D03*
D18*
X61595000Y-48910000D03*
D17*
X85725000Y-47010000D03*
D18*
X85725000Y-48910000D03*
D17*
X109855000Y-45740000D03*
D18*
X109855000Y-47640000D03*
D19*
X46990000Y-47117000D03*
X46990000Y-43053000D03*
X41910000Y-43053000D03*
X41910000Y-47117000D03*
X71120000Y-42037000D03*
X71120000Y-37973000D03*
X66040000Y-37973000D03*
X66040000Y-42037000D03*
X95250000Y-42672000D03*
X95250000Y-38608000D03*
X90170000Y-38608000D03*
X90170000Y-42672000D03*
D17*
X55880000Y-60305000D03*
D18*
X55880000Y-58405000D03*
D20*
X119380000Y-69850000D03*
X119380000Y-67310000D03*
X119380000Y-64770000D03*
D21*
X112999240Y-84000000D03*
X115000760Y-84000000D03*
X116999740Y-84000000D03*
X119001260Y-84000000D03*
X111000260Y-84000000D03*
X108998740Y-84000000D03*
X125000000Y-63500760D03*
X125000000Y-61499240D03*
X125000000Y-59500260D03*
X125000000Y-57498740D03*
X125000000Y-65499740D03*
X125000000Y-67501260D03*
D22*
X125000000Y-40995440D03*
D23*
X125000000Y-44998480D03*
X125000000Y-42996960D03*
X125000000Y-46997460D03*
X125000000Y-48998980D03*
X125000000Y-51000500D03*
X125000000Y-52999480D03*
D24*
X112395000Y-35560000D03*
X119380000Y-35560000D03*
X102870000Y-35560000D03*
X78740000Y-35560000D03*
X54610000Y-35560000D03*
D25*
X125000000Y-71997720D03*
D26*
X125000000Y-76000760D03*
X125000000Y-73999240D03*
X125000000Y-77999740D03*
D27*
X54610000Y-50985420D03*
D28*
X58420000Y-40383460D03*
X57150000Y-40383460D03*
X55880000Y-40383460D03*
X53340000Y-40383460D03*
X52070000Y-40383460D03*
X50800000Y-40383460D03*
D27*
X78740000Y-50985420D03*
D28*
X82550000Y-40383460D03*
X81280000Y-40383460D03*
X80010000Y-40383460D03*
X77470000Y-40383460D03*
X76200000Y-40383460D03*
X74930000Y-40383460D03*
D27*
X102870000Y-50985420D03*
D28*
X106680000Y-40383460D03*
X105410000Y-40383460D03*
X104140000Y-40383460D03*
X101600000Y-40383460D03*
X100330000Y-40383460D03*
X99060000Y-40383460D03*
D12*
X109855000Y-64643000D03*
X109855000Y-66167000D03*
X107950000Y-64643000D03*
X107950000Y-66167000D03*
X81280000Y-78867000D03*
X81280000Y-77343000D03*
X98425000Y-83312000D03*
X98425000Y-81788000D03*
X104775000Y-83312000D03*
X104775000Y-81788000D03*
X93980000Y-83312000D03*
X93980000Y-81788000D03*
D29*
X47550000Y-50800000D03*
X41350000Y-50800000D03*
X71680000Y-45720000D03*
X65480000Y-45720000D03*
D13*
X61468000Y-74930000D03*
X62992000Y-74930000D03*
X62992000Y-73025000D03*
X61468000Y-73025000D03*
X117602000Y-62865000D03*
X116078000Y-62865000D03*
X90297000Y-49530000D03*
X88773000Y-49530000D03*
X66167000Y-49530000D03*
X64643000Y-49530000D03*
D12*
X61595000Y-43688000D03*
X61595000Y-45212000D03*
D13*
X41148000Y-53975000D03*
X42672000Y-53975000D03*
D12*
X85725000Y-43688000D03*
X85725000Y-45212000D03*
D13*
X117602000Y-60960000D03*
X116078000Y-60960000D03*
X117602000Y-59055000D03*
X116078000Y-59055000D03*
D29*
X95810000Y-46355000D03*
X89610000Y-46355000D03*
D12*
X109855000Y-42418000D03*
X109855000Y-43942000D03*
D13*
X89662000Y-60960000D03*
X88138000Y-60960000D03*
X85852000Y-60960000D03*
X84328000Y-60960000D03*
D12*
X85090000Y-77343000D03*
X85090000Y-78867000D03*
X86995000Y-77343000D03*
X86995000Y-78867000D03*
D30*
X105445560Y-75275440D03*
X105445560Y-74775060D03*
X105445560Y-74274680D03*
X105445560Y-73774300D03*
X105445560Y-73273920D03*
X105445560Y-76774040D03*
X105445560Y-76276200D03*
X105445560Y-75775820D03*
D31*
X103444040Y-67274440D03*
X102946200Y-67274440D03*
X102445820Y-67274440D03*
X101945440Y-67274440D03*
X101445060Y-67274440D03*
X100944680Y-67274440D03*
X100444300Y-67274440D03*
X99943920Y-67274440D03*
D30*
X93944440Y-69275960D03*
X93944440Y-69773800D03*
X93944440Y-70274180D03*
X93944440Y-70774560D03*
X93944440Y-71274940D03*
X93944440Y-71775320D03*
X93944440Y-72275700D03*
X93944440Y-72776080D03*
D31*
X95945960Y-78775560D03*
X96443800Y-78775560D03*
X96944180Y-78775560D03*
X97444560Y-78775560D03*
X97944940Y-78775560D03*
X98445320Y-78775560D03*
X98945700Y-78775560D03*
X99446080Y-78775560D03*
D30*
X105445560Y-72776080D03*
X105445560Y-72275700D03*
X105445560Y-71775320D03*
D31*
X99446080Y-67274440D03*
X98945700Y-67274440D03*
X98445320Y-67274440D03*
D30*
X93944440Y-73273920D03*
X93944440Y-73774300D03*
X93944440Y-74274680D03*
D31*
X99943920Y-78775560D03*
X100444300Y-78775560D03*
X100944680Y-78775560D03*
D30*
X105445560Y-71274940D03*
X105445560Y-70774560D03*
X105445560Y-70274180D03*
X105445560Y-69773800D03*
X105445560Y-69275960D03*
D31*
X97944940Y-67274440D03*
X97444560Y-67274440D03*
X96944180Y-67274440D03*
X96443800Y-67274440D03*
X95945960Y-67274440D03*
D30*
X93944440Y-74775060D03*
X93944440Y-75275440D03*
X93944440Y-75775820D03*
X93944440Y-76276200D03*
X93944440Y-76774040D03*
D31*
X101445060Y-78775560D03*
X101945440Y-78775560D03*
X102445820Y-78775560D03*
X102946200Y-78775560D03*
X103444040Y-78775560D03*
D32*
X42418000Y-60325000D03*
D33*
X49022000Y-60325000D03*
X49022000Y-58039000D03*
X49022000Y-62611000D03*
D34*
X75328780Y-63944500D03*
X74828400Y-63944500D03*
X74328020Y-63944500D03*
X73827640Y-63944500D03*
X73327260Y-63944500D03*
X72829420Y-63944500D03*
X72329040Y-63944500D03*
X71828660Y-63944500D03*
X71328280Y-63944500D03*
X70827900Y-63944500D03*
X70327520Y-63944500D03*
X79827120Y-63944500D03*
X79329280Y-63944500D03*
X78828900Y-63944500D03*
X74328020Y-71945500D03*
X77828140Y-63944500D03*
X77327760Y-63944500D03*
X76827380Y-63944500D03*
X76329540Y-63944500D03*
X75829160Y-63944500D03*
X71828660Y-71945500D03*
X72329040Y-71945500D03*
X72829420Y-71945500D03*
X73327260Y-71945500D03*
X73827640Y-71945500D03*
X78328520Y-63944500D03*
X74828400Y-71945500D03*
X75328780Y-71945500D03*
X75829160Y-71945500D03*
X76329540Y-71945500D03*
X76827380Y-71945500D03*
X77327760Y-71945500D03*
X77828140Y-71945500D03*
X66329560Y-71945500D03*
X66827400Y-71945500D03*
X67327780Y-71945500D03*
X67828160Y-71945500D03*
X68328540Y-71945500D03*
X68828920Y-71945500D03*
X69329300Y-71945500D03*
X69827140Y-71945500D03*
X70327520Y-71945500D03*
X70827900Y-71945500D03*
X71328280Y-71945500D03*
X78328520Y-71945500D03*
X78828900Y-71945500D03*
X79329280Y-71945500D03*
X79827120Y-71945500D03*
X69827140Y-63944500D03*
X69329300Y-63944500D03*
X68828920Y-63944500D03*
X68328540Y-63944500D03*
X67828160Y-63944500D03*
X67327780Y-63944500D03*
X66827400Y-63944500D03*
X66329560Y-63944500D03*
D35*
X73025000Y-67945000D03*
D36*
X85060000Y-81555000D03*
X85710000Y-81555000D03*
X86360000Y-81555000D03*
X87010000Y-81555000D03*
X87660000Y-81555000D03*
D37*
X83935000Y-81455000D03*
X88785000Y-81455000D03*
D38*
X82760000Y-84455000D03*
X89960000Y-84455000D03*
D39*
X86360000Y-84455000D03*
D40*
X108605320Y-78099920D03*
X111104680Y-78099920D03*
X111104680Y-74300080D03*
X108605320Y-74300080D03*
D41*
X119215000Y-60960000D03*
X120815000Y-60960000D03*
X119215000Y-59055000D03*
X120815000Y-59055000D03*
X119215000Y-62865000D03*
X120815000Y-62865000D03*
D12*
X61595000Y-40513000D03*
X61595000Y-42037000D03*
X85725000Y-40513000D03*
X85725000Y-42037000D03*
X109855000Y-39243000D03*
X109855000Y-40767000D03*
D42*
X125010000Y-36000000D03*
X42010000Y-36000000D03*
X125010000Y-83000000D03*
X42010000Y-83000000D03*
D13*
X115443000Y-46355000D03*
X116967000Y-46355000D03*
X115443000Y-48895000D03*
X116967000Y-48895000D03*
D43*
X64135000Y-34925000D03*
X61595000Y-34925000D03*
X51435000Y-72390000D03*
X48895000Y-72390000D03*
D44*
X113665000Y-40005000D03*
D45*
X118665000Y-40005000D03*
D44*
X113665000Y-43180000D03*
D45*
X118665000Y-43180000D03*
D46*
G36*
X115697000Y-44371510D02*
X115259204Y-44590408D01*
X115219485Y-44621454D01*
X115194974Y-44665507D01*
X115189000Y-44704000D01*
X115189000Y-50239394D01*
X110437394Y-54991000D01*
X108712000Y-54991000D01*
X108662590Y-55001006D01*
X108622197Y-55028197D01*
X108405394Y-55245000D01*
X92000606Y-55245000D01*
X91783803Y-55028197D01*
X91741789Y-55000334D01*
X91694000Y-54991000D01*
X77470000Y-54991000D01*
X77420590Y-55001006D01*
X77380197Y-55028197D01*
X77163394Y-55245000D01*
X73712606Y-55245000D01*
X73495803Y-55028197D01*
X73453789Y-55000334D01*
X73406000Y-54991000D01*
X70104000Y-54991000D01*
X70054590Y-55001006D01*
X70014197Y-55028197D01*
X69797394Y-55245000D01*
X49149000Y-55245000D01*
X49149000Y-49403000D01*
X59891394Y-49403000D01*
X61632197Y-51143803D01*
X61674211Y-51171666D01*
X61722000Y-51181000D01*
X69850000Y-51181000D01*
X69899410Y-51170994D01*
X69939803Y-51143803D01*
X73204606Y-47879000D01*
X84201000Y-47879000D01*
X84201000Y-49784000D01*
X84211006Y-49833410D01*
X84238197Y-49873803D01*
X85508197Y-51143803D01*
X85550211Y-51171666D01*
X85598000Y-51181000D01*
X94488000Y-51181000D01*
X94537410Y-51170994D01*
X94577803Y-51143803D01*
X97371803Y-48349803D01*
X97399666Y-48307789D01*
X97409000Y-48260000D01*
X97409000Y-48133000D01*
X108405394Y-48133000D01*
X109384197Y-49111803D01*
X109426211Y-49139666D01*
X109474000Y-49149000D01*
X110236000Y-49149000D01*
X110285410Y-49138994D01*
X110325803Y-49111803D01*
X111341803Y-48095803D01*
X111369666Y-48053789D01*
X111379000Y-48006000D01*
X111379000Y-47042606D01*
X111849803Y-46571803D01*
X111877666Y-46529789D01*
X111887000Y-46482000D01*
X111887000Y-39878000D01*
X111876994Y-39828590D01*
X111849803Y-39788197D01*
X109855000Y-37793394D01*
X109855000Y-33655000D01*
X115697000Y-33655000D01*
X115697000Y-44371510D01*
X115697000Y-44371510D01*
G37*
X115697000Y-44371510D02*
X115259204Y-44590408D01*
X115219485Y-44621454D01*
X115194974Y-44665507D01*
X115189000Y-44704000D01*
X115189000Y-50239394D01*
X110437394Y-54991000D01*
X108712000Y-54991000D01*
X108662590Y-55001006D01*
X108622197Y-55028197D01*
X108405394Y-55245000D01*
X92000606Y-55245000D01*
X91783803Y-55028197D01*
X91741789Y-55000334D01*
X91694000Y-54991000D01*
X77470000Y-54991000D01*
X77420590Y-55001006D01*
X77380197Y-55028197D01*
X77163394Y-55245000D01*
X73712606Y-55245000D01*
X73495803Y-55028197D01*
X73453789Y-55000334D01*
X73406000Y-54991000D01*
X70104000Y-54991000D01*
X70054590Y-55001006D01*
X70014197Y-55028197D01*
X69797394Y-55245000D01*
X49149000Y-55245000D01*
X49149000Y-49403000D01*
X59891394Y-49403000D01*
X61632197Y-51143803D01*
X61674211Y-51171666D01*
X61722000Y-51181000D01*
X69850000Y-51181000D01*
X69899410Y-51170994D01*
X69939803Y-51143803D01*
X73204606Y-47879000D01*
X84201000Y-47879000D01*
X84201000Y-49784000D01*
X84211006Y-49833410D01*
X84238197Y-49873803D01*
X85508197Y-51143803D01*
X85550211Y-51171666D01*
X85598000Y-51181000D01*
X94488000Y-51181000D01*
X94537410Y-51170994D01*
X94577803Y-51143803D01*
X97371803Y-48349803D01*
X97399666Y-48307789D01*
X97409000Y-48260000D01*
X97409000Y-48133000D01*
X108405394Y-48133000D01*
X109384197Y-49111803D01*
X109426211Y-49139666D01*
X109474000Y-49149000D01*
X110236000Y-49149000D01*
X110285410Y-49138994D01*
X110325803Y-49111803D01*
X111341803Y-48095803D01*
X111369666Y-48053789D01*
X111379000Y-48006000D01*
X111379000Y-47042606D01*
X111849803Y-46571803D01*
X111877666Y-46529789D01*
X111887000Y-46482000D01*
X111887000Y-39878000D01*
X111876994Y-39828590D01*
X111849803Y-39788197D01*
X109855000Y-37793394D01*
X109855000Y-33655000D01*
X115697000Y-33655000D01*
X115697000Y-44371510D01*
G36*
X108055566Y-37320244D02*
X107126961Y-38481000D01*
X105918000Y-38481000D01*
X105868590Y-38491006D01*
X105826965Y-38519447D01*
X105799685Y-38561841D01*
X105791000Y-38608000D01*
X105791000Y-42037000D01*
X97409000Y-42037000D01*
X97409000Y-38126952D01*
X99396534Y-33655000D01*
X106345119Y-33655000D01*
X108055566Y-37320244D01*
X108055566Y-37320244D01*
G37*
X108055566Y-37320244D02*
X107126961Y-38481000D01*
X105918000Y-38481000D01*
X105868590Y-38491006D01*
X105826965Y-38519447D01*
X105799685Y-38561841D01*
X105791000Y-38608000D01*
X105791000Y-42037000D01*
X97409000Y-42037000D01*
X97409000Y-38126952D01*
X99396534Y-33655000D01*
X106345119Y-33655000D01*
X108055566Y-37320244D01*
G36*
X83921297Y-37311097D02*
X82995387Y-38237007D01*
X81763093Y-38483466D01*
X81716605Y-38502968D01*
X81681366Y-38539020D01*
X81661000Y-38608000D01*
X81661000Y-42037000D01*
X73279000Y-42037000D01*
X73279000Y-38126952D01*
X75266534Y-33655000D01*
X82215119Y-33655000D01*
X83921297Y-37311097D01*
X83921297Y-37311097D01*
G37*
X83921297Y-37311097D02*
X82995387Y-38237007D01*
X81763093Y-38483466D01*
X81716605Y-38502968D01*
X81681366Y-38539020D01*
X81661000Y-38608000D01*
X81661000Y-42037000D01*
X73279000Y-42037000D01*
X73279000Y-38126952D01*
X75266534Y-33655000D01*
X82215119Y-33655000D01*
X83921297Y-37311097D01*
G36*
X59795566Y-37320244D02*
X58866961Y-38481000D01*
X57658000Y-38481000D01*
X57608590Y-38491006D01*
X57566965Y-38519447D01*
X57539685Y-38561841D01*
X57531000Y-38608000D01*
X57531000Y-42037000D01*
X49149000Y-42037000D01*
X49149000Y-38126952D01*
X51136534Y-33655000D01*
X58085119Y-33655000D01*
X59795566Y-37320244D01*
X59795566Y-37320244D01*
G37*
X59795566Y-37320244D02*
X58866961Y-38481000D01*
X57658000Y-38481000D01*
X57608590Y-38491006D01*
X57566965Y-38519447D01*
X57539685Y-38561841D01*
X57531000Y-38608000D01*
X57531000Y-42037000D01*
X49149000Y-42037000D01*
X49149000Y-38126952D01*
X51136534Y-33655000D01*
X58085119Y-33655000D01*
X59795566Y-37320244D01*
G36*
X121793000Y-37465000D02*
X121412000Y-37465000D01*
X121362590Y-37475006D01*
X121320965Y-37503447D01*
X121293685Y-37545841D01*
X121285000Y-37592000D01*
X121285000Y-37793394D01*
X120306197Y-38772197D01*
X120278334Y-38814211D01*
X120269000Y-38862000D01*
X120269000Y-53287394D01*
X113231394Y-60325000D01*
X100584000Y-60325000D01*
X100534590Y-60335006D01*
X100494197Y-60362197D01*
X99515394Y-61341000D01*
X99112606Y-61341000D01*
X98895803Y-61124197D01*
X98853789Y-61096334D01*
X98806000Y-61087000D01*
X98552000Y-61087000D01*
X98495204Y-61100408D01*
X98014020Y-61341000D01*
X95302606Y-61341000D01*
X94361000Y-60399394D01*
X94361000Y-57277000D01*
X96467394Y-57277000D01*
X96684197Y-57493803D01*
X96726211Y-57521666D01*
X96774000Y-57531000D01*
X97536000Y-57531000D01*
X97585410Y-57520994D01*
X97625803Y-57493803D01*
X98096606Y-57023000D01*
X109982000Y-57023000D01*
X110031410Y-57012994D01*
X110071803Y-56985803D01*
X117437803Y-49619803D01*
X117465666Y-49577789D01*
X117475000Y-49530000D01*
X117475000Y-44704000D01*
X117464994Y-44654590D01*
X117436553Y-44612965D01*
X117388161Y-44583517D01*
X116713000Y-44358463D01*
X116713000Y-33655000D01*
X121793000Y-33655000D01*
X121793000Y-37465000D01*
X121793000Y-37465000D01*
G37*
X121793000Y-37465000D02*
X121412000Y-37465000D01*
X121362590Y-37475006D01*
X121320965Y-37503447D01*
X121293685Y-37545841D01*
X121285000Y-37592000D01*
X121285000Y-37793394D01*
X120306197Y-38772197D01*
X120278334Y-38814211D01*
X120269000Y-38862000D01*
X120269000Y-53287394D01*
X113231394Y-60325000D01*
X100584000Y-60325000D01*
X100534590Y-60335006D01*
X100494197Y-60362197D01*
X99515394Y-61341000D01*
X99112606Y-61341000D01*
X98895803Y-61124197D01*
X98853789Y-61096334D01*
X98806000Y-61087000D01*
X98552000Y-61087000D01*
X98495204Y-61100408D01*
X98014020Y-61341000D01*
X95302606Y-61341000D01*
X94361000Y-60399394D01*
X94361000Y-57277000D01*
X96467394Y-57277000D01*
X96684197Y-57493803D01*
X96726211Y-57521666D01*
X96774000Y-57531000D01*
X97536000Y-57531000D01*
X97585410Y-57520994D01*
X97625803Y-57493803D01*
X98096606Y-57023000D01*
X109982000Y-57023000D01*
X110031410Y-57012994D01*
X110071803Y-56985803D01*
X117437803Y-49619803D01*
X117465666Y-49577789D01*
X117475000Y-49530000D01*
X117475000Y-44704000D01*
X117464994Y-44654590D01*
X117436553Y-44612965D01*
X117388161Y-44583517D01*
X116713000Y-44358463D01*
X116713000Y-33655000D01*
X121793000Y-33655000D01*
X121793000Y-37465000D01*
M02*
