M48
;DRILL file {KiCad 4.0.7-e1-6374~58~ubuntu14.04.1} date Tue Aug 22 11:21:37 2017
;FORMAT={3:3/ absolute / metric / suppress leading zeros}
FMAT,2
METRIC,TZ
T1C0.400
T2C0.650
T3C0.701
T4C0.800
T5C1.000
T6C1.016
T7C1.200
T8C3.100
%
G90
G05
M71
T1
X40386Y-55372
X42164Y-57404
X43434Y-53848
X44450Y-47244
X44704Y-51562
X45720Y-70358
X49276Y-70358
X50546Y-67310
X51308Y-34290
X51308Y-35306
X51308Y-36322
X51308Y-37338
X54356Y-68580
X54638Y-61110
X56388Y-68580
X57912Y-34290
X57912Y-35306
X57912Y-36322
X57912Y-37338
X58674Y-55880
X58674Y-72898
X58928Y-67056
X59182Y-71628
X60198Y-70358
X62230Y-79502
X62484Y-45212
X64008Y-81280
X64516Y-56642
X65024Y-55880
X65143Y-69596
X65143Y-66040
X65278Y-50546
X65532Y-67564
X65786Y-83058
X65790Y-70640
X67056Y-46482
X67056Y-66040
X67056Y-67564
X67818Y-50038
X67818Y-81026
X68072Y-73914
X68580Y-44450
X68580Y-68326
X69295Y-73336
X69342Y-79248
X69850Y-74168
X70104Y-70612
X70109Y-62699
X70358Y-55626
X71260Y-74982
X71363Y-62032
X71374Y-56134
X71406Y-65153
X71628Y-78740
X71667Y-70444
X71882Y-81026
X72174Y-56134
X72297Y-62593
X72390Y-60843
X72390Y-67564
X73152Y-55626
X73152Y-67564
X73442Y-60086
X73736Y-74976
X73914Y-67564
X74365Y-73644
X74422Y-82042
X74688Y-60453
X74865Y-74269
X74930Y-65532
X75184Y-84582
X75438Y-34290
X75438Y-35306
X75438Y-36322
X75438Y-37338
X75483Y-74776
X76200Y-75438
X76454Y-76962
X76733Y-74504
X77015Y-73753
X77216Y-75438
X78486Y-84582
X78740Y-67564
X78740Y-70612
X79502Y-73914
X80264Y-74422
X80264Y-75946
X80320Y-61468
X80518Y-71374
X80518Y-81534
X81280Y-62992
X82042Y-34290
X82042Y-35306
X82042Y-36322
X82042Y-37338
X82042Y-60198
X82042Y-82042
X82296Y-62192
X83312Y-73406
X84068Y-56075
X84843Y-55878
X85598Y-74168
X86106Y-55626
X87122Y-45466
X87122Y-44196
X87376Y-56388
X87630Y-70866
X88392Y-65278
X88392Y-66802
X88392Y-68580
X88401Y-55567
X89137Y-73900
X89154Y-77470
X89408Y-50546
X89662Y-63246
X89916Y-74930
X89916Y-62484
X89916Y-72644
X90170Y-79248
X90331Y-78318
X90678Y-80010
X90932Y-71628
X90932Y-72644
X91186Y-81788
X91247Y-70673
X91440Y-46736
X91440Y-55626
X91440Y-62738
X91768Y-72666
X91948Y-50292
X91948Y-69088
X92202Y-66294
X92456Y-76454
X92456Y-80518
X92710Y-44450
X92964Y-83312
X93299Y-78498
X94234Y-79248
X94499Y-77973
X94996Y-57658
X94996Y-58420
X94996Y-59182
X94996Y-59944
X94996Y-60706
X94996Y-66040
X94996Y-67310
X95250Y-71120
X95250Y-74676
X95250Y-75946
X95264Y-76746
X95264Y-79420
X95758Y-57912
X95758Y-58674
X95758Y-59436
X95758Y-60198
X95758Y-72898
X96520Y-62484
X97028Y-71882
X97086Y-69838
X97282Y-56896
X97282Y-83312
X97601Y-64297
X98290Y-71237
X98488Y-69451
X98552Y-61841
X98552Y-65786
X99060Y-74422
X99060Y-76962
X99568Y-34290
X99568Y-35306
X99568Y-36322
X99568Y-37338
X99789Y-80136
X100330Y-71374
X100330Y-72390
X100330Y-74422
X100330Y-76962
X100838Y-77625
X101600Y-61828
X101600Y-62738
X102105Y-68831
X102111Y-77626
X102328Y-80586
X102616Y-61828
X102870Y-65532
X102997Y-70358
X103384Y-62081
X103632Y-75438
X103730Y-80950
X103769Y-77752
X103886Y-70104
X103886Y-72898
X104140Y-71882
X104394Y-84074
X105156Y-77470
X106172Y-34290
X106172Y-35306
X106172Y-36322
X106172Y-37338
X106172Y-67818
X106426Y-82042
X106934Y-73152
X107442Y-79756
X107625Y-68869
X107625Y-69669
X107696Y-68072
X107696Y-71882
X108204Y-82550
X108966Y-55626
X108966Y-70104
X109982Y-55626
X109982Y-67564
X110617Y-68834
X110744Y-75946
X110998Y-43942
X110998Y-65278
X112268Y-67564
X112268Y-76708
X112522Y-72644
X113030Y-80772
X115062Y-77978
X115062Y-79502
X117348Y-73152
X117348Y-75184
X119888Y-80772
X120142Y-77724
X122174Y-70358
X122428Y-71882
T3
X108999Y-84000
X111000Y-84000
X112999Y-84000
X115001Y-84000
X117000Y-84000
X119001Y-84000
X125000Y-57499
X125000Y-59500
X125000Y-61499
X125000Y-63501
X125000Y-65500
X125000Y-67501
X125000Y-71998
X125000Y-73999
X125000Y-76001
X125000Y-78000
T4
X125000Y-40995
X125000Y-42997
X125000Y-44998
X125000Y-46997
X125000Y-48999
X125000Y-51000
X125000Y-52999
T6
X119380Y-64770
X119380Y-67310
X119380Y-69850
T7
X48895Y-72390
X51435Y-72390
X61595Y-34925
X64135Y-34925
X113665Y-40005
X113665Y-43180
X118665Y-40005
X118665Y-43180
T8
X42010Y-36000
X42010Y-83000
X125010Y-36000
X125010Y-83000
T2
X83935Y-81355G85X83935Y-81555
G05
X88785Y-81355G85X88785Y-81555
G05
T5
X82760Y-84105G85X82760Y-84805
G05
X89960Y-84105G85X89960Y-84805
G05
T0
M30
