G04 #@! TF.FileFunction,Legend,Bot*
%FSLAX46Y46*%
G04 Gerber Fmt 4.6, Leading zero omitted, Abs format (unit mm)*
G04 Created by KiCad (PCBNEW 4.0.7-e1-6374~58~ubuntu14.04.1) date Tue Aug 29 09:34:13 2017*
%MOMM*%
%LPD*%
G01*
G04 APERTURE LIST*
%ADD10C,0.100000*%
%ADD11C,0.200000*%
%ADD12C,0.381000*%
%ADD13C,0.119380*%
%ADD14C,0.127000*%
%ADD15C,0.150000*%
%ADD16C,0.120000*%
%ADD17R,2.438400X5.588000*%
%ADD18R,2.438400X0.889000*%
%ADD19R,0.635000X1.143000*%
%ADD20R,1.143000X0.635000*%
%ADD21R,2.499360X1.950720*%
%ADD22R,1.849120X5.499100*%
%ADD23R,1.524000X2.032000*%
%ADD24R,1.100000X1.100000*%
%ADD25R,1.699260X2.100580*%
%ADD26R,1.100000X0.800000*%
%ADD27R,1.100000X2.000000*%
%ADD28R,2.159000X1.778000*%
%ADD29O,3.048000X1.524000*%
%ADD30R,2.997200X7.498080*%
%ADD31C,1.300480*%
%ADD32R,1.300000X1.300000*%
%ADD33C,1.300000*%
%ADD34R,1.699260X1.198880*%
%ADD35O,1.699260X1.198880*%
%ADD36R,10.800080X8.150860*%
%ADD37R,0.899160X3.200400*%
%ADD38R,1.000000X3.200000*%
%ADD39R,1.399540X0.599440*%
%ADD40O,1.050000X1.250000*%
%ADD41O,1.500000X2.200000*%
%ADD42C,4.500000*%
%ADD43C,2.200000*%
%ADD44R,2.400000X2.400000*%
%ADD45C,2.400000*%
%ADD46C,0.254000*%
G04 APERTURE END LIST*
D10*
D11*
X44704000Y-52832000D02*
X43942000Y-52070000D01*
X109474000Y-55880000D02*
X109474000Y-54610000D01*
X69342000Y-49784000D02*
X69850000Y-50292000D01*
X110998000Y-64262000D02*
X106934000Y-64262000D01*
X111506000Y-58166000D02*
X111506000Y-63754000D01*
X106934000Y-57658000D02*
X110998000Y-57658000D01*
X106426000Y-63754000D02*
X106426000Y-58166000D01*
X93472000Y-49784000D02*
X93980000Y-50292000D01*
X106680000Y-64262000D02*
X105410000Y-65532000D01*
X107188000Y-77978000D02*
X101092000Y-77978000D01*
X107188000Y-77978000D02*
G75*
G03X107696000Y-77470000I0J508000D01*
G01*
X107696000Y-66040000D02*
X107696000Y-77470000D01*
X100584000Y-66040000D02*
X100584000Y-77470000D01*
X107188000Y-65532000D02*
X101092000Y-65532000D01*
X107696000Y-66040000D02*
G75*
G03X107188000Y-65532000I-508000J0D01*
G01*
X100584000Y-77470000D02*
G75*
G03X101092000Y-77978000I508000J0D01*
G01*
X101092000Y-65532000D02*
G75*
G03X100584000Y-66040000I0J-508000D01*
G01*
X111506000Y-58166000D02*
G75*
G03X110998000Y-57658000I-508000J0D01*
G01*
X110998000Y-64262000D02*
G75*
G03X111506000Y-63754000I0J508000D01*
G01*
X106426000Y-63754000D02*
G75*
G03X106934000Y-64262000I508000J0D01*
G01*
X106934000Y-57658000D02*
G75*
G03X106426000Y-58166000I0J-508000D01*
G01*
D12*
X93091000Y-62992000D02*
X93091000Y-56388000D01*
X93091000Y-56388000D02*
X99949000Y-56388000D01*
X99949000Y-56388000D02*
X99949000Y-62992000D01*
X99949000Y-62992000D02*
X93091000Y-62992000D01*
D13*
X83319620Y-75580240D02*
X82621120Y-75580240D01*
X84320380Y-75580240D02*
X85018880Y-75580240D01*
X83319620Y-74279760D02*
X82621120Y-74279760D01*
X85018880Y-74279760D02*
X84320380Y-74279760D01*
X82621120Y-74295000D02*
X82621120Y-75565000D01*
X85018880Y-75565000D02*
X85018880Y-74295000D01*
X105544620Y-72405240D02*
X104846120Y-72405240D01*
X106545380Y-72405240D02*
X107243880Y-72405240D01*
X105544620Y-71104760D02*
X104846120Y-71104760D01*
X107243880Y-71104760D02*
X106545380Y-71104760D01*
X104846120Y-71120000D02*
X104846120Y-72390000D01*
X107243880Y-72390000D02*
X107243880Y-71120000D01*
X116855240Y-66540380D02*
X116855240Y-67238880D01*
X116855240Y-65539620D02*
X116855240Y-64841120D01*
X115554760Y-66540380D02*
X115554760Y-67238880D01*
X115554760Y-64841120D02*
X115554760Y-65539620D01*
X115570000Y-67238880D02*
X116840000Y-67238880D01*
X116840000Y-64841120D02*
X115570000Y-64841120D01*
X102735380Y-76184760D02*
X103433880Y-76184760D01*
X101734620Y-76184760D02*
X101036120Y-76184760D01*
X102735380Y-77485240D02*
X103433880Y-77485240D01*
X101036120Y-77485240D02*
X101734620Y-77485240D01*
X103433880Y-77470000D02*
X103433880Y-76200000D01*
X101036120Y-76200000D02*
X101036120Y-77470000D01*
X102735380Y-73644760D02*
X103433880Y-73644760D01*
X101734620Y-73644760D02*
X101036120Y-73644760D01*
X102735380Y-74945240D02*
X103433880Y-74945240D01*
X101036120Y-74945240D02*
X101734620Y-74945240D01*
X103433880Y-74930000D02*
X103433880Y-73660000D01*
X101036120Y-73660000D02*
X101036120Y-74930000D01*
X96654620Y-77485240D02*
X95956120Y-77485240D01*
X97655380Y-77485240D02*
X98353880Y-77485240D01*
X96654620Y-76184760D02*
X95956120Y-76184760D01*
X98353880Y-76184760D02*
X97655380Y-76184760D01*
X95956120Y-76200000D02*
X95956120Y-77470000D01*
X98353880Y-77470000D02*
X98353880Y-76200000D01*
X102735380Y-66024760D02*
X103433880Y-66024760D01*
X101734620Y-66024760D02*
X101036120Y-66024760D01*
X102735380Y-67325240D02*
X103433880Y-67325240D01*
X101036120Y-67325240D02*
X101734620Y-67325240D01*
X103433880Y-67310000D02*
X103433880Y-66040000D01*
X101036120Y-66040000D02*
X101036120Y-67310000D01*
X96019620Y-68595240D02*
X95321120Y-68595240D01*
X97020380Y-68595240D02*
X97718880Y-68595240D01*
X96019620Y-67294760D02*
X95321120Y-67294760D01*
X97718880Y-67294760D02*
X97020380Y-67294760D01*
X95321120Y-67310000D02*
X95321120Y-68580000D01*
X97718880Y-68580000D02*
X97718880Y-67310000D01*
X97020380Y-65389760D02*
X97718880Y-65389760D01*
X96019620Y-65389760D02*
X95321120Y-65389760D01*
X97020380Y-66690240D02*
X97718880Y-66690240D01*
X95321120Y-66690240D02*
X96019620Y-66690240D01*
X97718880Y-66675000D02*
X97718880Y-65405000D01*
X95321120Y-65405000D02*
X95321120Y-66675000D01*
X97655380Y-73644760D02*
X98353880Y-73644760D01*
X96654620Y-73644760D02*
X95956120Y-73644760D01*
X97655380Y-74945240D02*
X98353880Y-74945240D01*
X95956120Y-74945240D02*
X96654620Y-74945240D01*
X98353880Y-74930000D02*
X98353880Y-73660000D01*
X95956120Y-73660000D02*
X95956120Y-74930000D01*
X63365380Y-69199760D02*
X64063880Y-69199760D01*
X62364620Y-69199760D02*
X61666120Y-69199760D01*
X63365380Y-70500240D02*
X64063880Y-70500240D01*
X61666120Y-70500240D02*
X62364620Y-70500240D01*
X64063880Y-70485000D02*
X64063880Y-69215000D01*
X61666120Y-69215000D02*
X61666120Y-70485000D01*
X62245240Y-72890380D02*
X62245240Y-73588880D01*
X62245240Y-71889620D02*
X62245240Y-71191120D01*
X60944760Y-72890380D02*
X60944760Y-73588880D01*
X60944760Y-71191120D02*
X60944760Y-71889620D01*
X60960000Y-73588880D02*
X62230000Y-73588880D01*
X62230000Y-71191120D02*
X60960000Y-71191120D01*
X43830240Y-51935380D02*
X43830240Y-52633880D01*
X43830240Y-50934620D02*
X43830240Y-50236120D01*
X42529760Y-51935380D02*
X42529760Y-52633880D01*
X42529760Y-50236120D02*
X42529760Y-50934620D01*
X42545000Y-52633880D02*
X43815000Y-52633880D01*
X43815000Y-50236120D02*
X42545000Y-50236120D01*
X69230240Y-52570380D02*
X69230240Y-53268880D01*
X69230240Y-51569620D02*
X69230240Y-50871120D01*
X67929760Y-52570380D02*
X67929760Y-53268880D01*
X67929760Y-50871120D02*
X67929760Y-51569620D01*
X67945000Y-53268880D02*
X69215000Y-53268880D01*
X69215000Y-50871120D02*
X67945000Y-50871120D01*
X93360240Y-52570380D02*
X93360240Y-53268880D01*
X93360240Y-51569620D02*
X93360240Y-50871120D01*
X92059760Y-52570380D02*
X92059760Y-53268880D01*
X92059760Y-50871120D02*
X92059760Y-51569620D01*
X92075000Y-53268880D02*
X93345000Y-53268880D01*
X93345000Y-50871120D02*
X92075000Y-50871120D01*
X102735380Y-71104760D02*
X103433880Y-71104760D01*
X101734620Y-71104760D02*
X101036120Y-71104760D01*
X102735380Y-72405240D02*
X103433880Y-72405240D01*
X101036120Y-72405240D02*
X101734620Y-72405240D01*
X103433880Y-72390000D02*
X103433880Y-71120000D01*
X101036120Y-71120000D02*
X101036120Y-72390000D01*
X106545380Y-73644760D02*
X107243880Y-73644760D01*
X105544620Y-73644760D02*
X104846120Y-73644760D01*
X106545380Y-74945240D02*
X107243880Y-74945240D01*
X104846120Y-74945240D02*
X105544620Y-74945240D01*
X107243880Y-74930000D02*
X107243880Y-73660000D01*
X104846120Y-73660000D02*
X104846120Y-74930000D01*
D14*
X54102000Y-63563500D02*
X51308000Y-63563500D01*
X54102000Y-62992000D02*
X54102000Y-66548000D01*
X54102000Y-66548000D02*
X51308000Y-66548000D01*
X51308000Y-66548000D02*
X51308000Y-62992000D01*
X51308000Y-62992000D02*
X54102000Y-62992000D01*
D13*
X102735380Y-68564760D02*
X103433880Y-68564760D01*
X101734620Y-68564760D02*
X101036120Y-68564760D01*
X102735380Y-69865240D02*
X103433880Y-69865240D01*
X101036120Y-69865240D02*
X101734620Y-69865240D01*
X103433880Y-69850000D02*
X103433880Y-68580000D01*
X101036120Y-68580000D02*
X101036120Y-69850000D01*
D14*
X85979000Y-69850000D02*
X85979000Y-64770000D01*
X81661000Y-69850000D02*
X81661000Y-64770000D01*
X81026000Y-69850000D02*
X86614000Y-69850000D01*
X86614000Y-69850000D02*
X86614000Y-64770000D01*
X86614000Y-64770000D02*
X81026000Y-64770000D01*
X81026000Y-64770000D02*
X81026000Y-69850000D01*
X71120000Y-68072000D02*
X71120000Y-70358000D01*
X71120000Y-70358000D02*
X69469000Y-70358000D01*
X67691000Y-68072000D02*
X66040000Y-68072000D01*
X66040000Y-68072000D02*
X66040000Y-70358000D01*
X66040000Y-70358000D02*
X67691000Y-70358000D01*
X69469000Y-68072000D02*
X71120000Y-68072000D01*
X81280000Y-73533000D02*
X81280000Y-71247000D01*
X81280000Y-71247000D02*
X82931000Y-71247000D01*
X84709000Y-73533000D02*
X86360000Y-73533000D01*
X86360000Y-73533000D02*
X86360000Y-71247000D01*
X86360000Y-71247000D02*
X84709000Y-71247000D01*
X82931000Y-73533000D02*
X81280000Y-73533000D01*
X77470000Y-68072000D02*
X77470000Y-70358000D01*
X77470000Y-70358000D02*
X75819000Y-70358000D01*
X74041000Y-68072000D02*
X72390000Y-68072000D01*
X72390000Y-68072000D02*
X72390000Y-70358000D01*
X72390000Y-70358000D02*
X74041000Y-70358000D01*
X75819000Y-68072000D02*
X77470000Y-68072000D01*
D13*
X47490380Y-50149760D02*
X48188880Y-50149760D01*
X46489620Y-50149760D02*
X45791120Y-50149760D01*
X47490380Y-51450240D02*
X48188880Y-51450240D01*
X45791120Y-51450240D02*
X46489620Y-51450240D01*
X48188880Y-51435000D02*
X48188880Y-50165000D01*
X45791120Y-50165000D02*
X45791120Y-51435000D01*
X71620380Y-50149760D02*
X72318880Y-50149760D01*
X70619620Y-50149760D02*
X69921120Y-50149760D01*
X71620380Y-51450240D02*
X72318880Y-51450240D01*
X69921120Y-51450240D02*
X70619620Y-51450240D01*
X72318880Y-51435000D02*
X72318880Y-50165000D01*
X69921120Y-50165000D02*
X69921120Y-51435000D01*
D14*
X77470000Y-64897000D02*
X77470000Y-67183000D01*
X77470000Y-67183000D02*
X75819000Y-67183000D01*
X74041000Y-64897000D02*
X72390000Y-64897000D01*
X72390000Y-64897000D02*
X72390000Y-67183000D01*
X72390000Y-67183000D02*
X74041000Y-67183000D01*
X75819000Y-64897000D02*
X77470000Y-64897000D01*
D13*
X95750380Y-50149760D02*
X96448880Y-50149760D01*
X94749620Y-50149760D02*
X94051120Y-50149760D01*
X95750380Y-51450240D02*
X96448880Y-51450240D01*
X94051120Y-51450240D02*
X94749620Y-51450240D01*
X96448880Y-51435000D02*
X96448880Y-50165000D01*
X94051120Y-50165000D02*
X94051120Y-51435000D01*
X41925240Y-51935380D02*
X41925240Y-52633880D01*
X41925240Y-50934620D02*
X41925240Y-50236120D01*
X40624760Y-51935380D02*
X40624760Y-52633880D01*
X40624760Y-50236120D02*
X40624760Y-50934620D01*
X40640000Y-52633880D02*
X41910000Y-52633880D01*
X41910000Y-50236120D02*
X40640000Y-50236120D01*
X67325240Y-52570380D02*
X67325240Y-53268880D01*
X67325240Y-51569620D02*
X67325240Y-50871120D01*
X66024760Y-52570380D02*
X66024760Y-53268880D01*
X66024760Y-50871120D02*
X66024760Y-51569620D01*
X66040000Y-53268880D02*
X67310000Y-53268880D01*
X67310000Y-50871120D02*
X66040000Y-50871120D01*
X91455240Y-52570380D02*
X91455240Y-53268880D01*
X91455240Y-51569620D02*
X91455240Y-50871120D01*
X90154760Y-52570380D02*
X90154760Y-53268880D01*
X90154760Y-50871120D02*
X90154760Y-51569620D01*
X90170000Y-53268880D02*
X91440000Y-53268880D01*
X91440000Y-50871120D02*
X90170000Y-50871120D01*
X113045240Y-75430380D02*
X113045240Y-76128880D01*
X113045240Y-74429620D02*
X113045240Y-73731120D01*
X111744760Y-75430380D02*
X111744760Y-76128880D01*
X111744760Y-73731120D02*
X111744760Y-74429620D01*
X111760000Y-76128880D02*
X113030000Y-76128880D01*
X113030000Y-73731120D02*
X111760000Y-73731120D01*
D15*
X39236000Y-59562000D02*
X39236000Y-55812000D01*
X39236000Y-55812000D02*
X41536000Y-55812000D01*
X41536000Y-55812000D02*
X41536000Y-59562000D01*
D14*
X55115460Y-62669420D02*
X57914540Y-62669420D01*
X57914540Y-62771020D02*
X55115460Y-62771020D01*
X55115460Y-62870080D02*
X57914540Y-62870080D01*
X57914540Y-62969140D02*
X55115460Y-62969140D01*
X57914540Y-63070740D02*
X55115460Y-63070740D01*
X57914540Y-62570360D02*
X57914540Y-66969640D01*
X57914540Y-66969640D02*
X55115460Y-66969640D01*
X55115460Y-66969640D02*
X55115460Y-62570360D01*
X55115460Y-62570360D02*
X57914540Y-62570360D01*
D16*
X62700000Y-51455000D02*
X62700000Y-54505000D01*
X62700000Y-54505000D02*
X64300000Y-54505000D01*
X64300000Y-54505000D02*
X64300000Y-51455000D01*
X86830000Y-51455000D02*
X86830000Y-54505000D01*
X86830000Y-54505000D02*
X88430000Y-54505000D01*
X88430000Y-54505000D02*
X88430000Y-51455000D01*
X110960000Y-51455000D02*
X110960000Y-54505000D01*
X110960000Y-54505000D02*
X112560000Y-54505000D01*
X112560000Y-54505000D02*
X112560000Y-51455000D01*
D15*
X45275500Y-48958500D02*
X45275500Y-43307000D01*
X45275500Y-43307000D02*
X48704500Y-43307000D01*
X48704500Y-43307000D02*
X48704500Y-48958500D01*
X43624500Y-43751500D02*
X43624500Y-49403000D01*
X43624500Y-49403000D02*
X40195500Y-49403000D01*
X40195500Y-49403000D02*
X40195500Y-43751500D01*
X69405500Y-48958500D02*
X69405500Y-43307000D01*
X69405500Y-43307000D02*
X72834500Y-43307000D01*
X72834500Y-43307000D02*
X72834500Y-48958500D01*
X67754500Y-43751500D02*
X67754500Y-49403000D01*
X67754500Y-49403000D02*
X64325500Y-49403000D01*
X64325500Y-49403000D02*
X64325500Y-43751500D01*
X93535500Y-48958500D02*
X93535500Y-43307000D01*
X93535500Y-43307000D02*
X96964500Y-43307000D01*
X96964500Y-43307000D02*
X96964500Y-48958500D01*
X91884500Y-43751500D02*
X91884500Y-49403000D01*
X91884500Y-49403000D02*
X88455500Y-49403000D01*
X88455500Y-49403000D02*
X88455500Y-43751500D01*
D12*
X49354740Y-62230000D02*
G75*
G03X49354740Y-62230000I-2999740J0D01*
G01*
X48656240Y-59029600D02*
X48656240Y-65430400D01*
X44053760Y-65430400D02*
X44053760Y-59029600D01*
X50355500Y-62230000D02*
G75*
G03X50355500Y-62230000I-4000500J0D01*
G01*
X49410620Y-47558960D02*
X59809380Y-47558960D01*
X59809380Y-47558960D02*
X59809380Y-39761160D01*
X59809380Y-39761160D02*
X57409080Y-38460680D01*
X57409080Y-38460680D02*
X51810920Y-38460680D01*
X51810920Y-38460680D02*
X49410620Y-39761160D01*
X49410620Y-39761160D02*
X49410620Y-47558960D01*
X73540620Y-47558960D02*
X83939380Y-47558960D01*
X83939380Y-47558960D02*
X83939380Y-39761160D01*
X83939380Y-39761160D02*
X81539080Y-38460680D01*
X81539080Y-38460680D02*
X75940920Y-38460680D01*
X75940920Y-38460680D02*
X73540620Y-39761160D01*
X73540620Y-39761160D02*
X73540620Y-47558960D01*
X97670620Y-47558960D02*
X108069380Y-47558960D01*
X108069380Y-47558960D02*
X108069380Y-39761160D01*
X108069380Y-39761160D02*
X105669080Y-38460680D01*
X105669080Y-38460680D02*
X100070920Y-38460680D01*
X100070920Y-38460680D02*
X97670620Y-39761160D01*
X97670620Y-39761160D02*
X97670620Y-47558960D01*
D14*
X106545380Y-65976500D02*
X107251500Y-65976500D01*
X107251500Y-65976500D02*
X107251500Y-67373500D01*
X107251500Y-67373500D02*
X106545380Y-67373500D01*
X104838500Y-65976500D02*
X105544620Y-65976500D01*
X104838500Y-65976500D02*
X104838500Y-67373500D01*
X104838500Y-67373500D02*
X105544620Y-67373500D01*
X106545380Y-68516500D02*
X107251500Y-68516500D01*
X107251500Y-68516500D02*
X107251500Y-69913500D01*
X107251500Y-69913500D02*
X106545380Y-69913500D01*
X104838500Y-68516500D02*
X105544620Y-68516500D01*
X104838500Y-68516500D02*
X104838500Y-69913500D01*
X104838500Y-69913500D02*
X105544620Y-69913500D01*
X116903500Y-70350380D02*
X116903500Y-71056500D01*
X116903500Y-71056500D02*
X115506500Y-71056500D01*
X115506500Y-71056500D02*
X115506500Y-70350380D01*
X116903500Y-68643500D02*
X116903500Y-69349620D01*
X116903500Y-68643500D02*
X115506500Y-68643500D01*
X115506500Y-68643500D02*
X115506500Y-69349620D01*
X97020380Y-83756500D02*
X97726500Y-83756500D01*
X97726500Y-83756500D02*
X97726500Y-85153500D01*
X97726500Y-85153500D02*
X97020380Y-85153500D01*
X95313500Y-83756500D02*
X96019620Y-83756500D01*
X95313500Y-83756500D02*
X95313500Y-85153500D01*
X95313500Y-85153500D02*
X96019620Y-85153500D01*
X93845380Y-83756500D02*
X94551500Y-83756500D01*
X94551500Y-83756500D02*
X94551500Y-85153500D01*
X94551500Y-85153500D02*
X93845380Y-85153500D01*
X92138500Y-83756500D02*
X92844620Y-83756500D01*
X92138500Y-83756500D02*
X92138500Y-85153500D01*
X92138500Y-85153500D02*
X92844620Y-85153500D01*
X97020380Y-81216500D02*
X97726500Y-81216500D01*
X97726500Y-81216500D02*
X97726500Y-82613500D01*
X97726500Y-82613500D02*
X97020380Y-82613500D01*
X95313500Y-81216500D02*
X96019620Y-81216500D01*
X95313500Y-81216500D02*
X95313500Y-82613500D01*
X95313500Y-82613500D02*
X96019620Y-82613500D01*
X93845380Y-81216500D02*
X94551500Y-81216500D01*
X94551500Y-81216500D02*
X94551500Y-82613500D01*
X94551500Y-82613500D02*
X93845380Y-82613500D01*
X92138500Y-81216500D02*
X92844620Y-81216500D01*
X92138500Y-81216500D02*
X92138500Y-82613500D01*
X92138500Y-82613500D02*
X92844620Y-82613500D01*
D16*
X41850000Y-42460000D02*
X47050000Y-42460000D01*
X47050000Y-38820000D02*
X41850000Y-38820000D01*
D14*
X63634620Y-72453500D02*
X62928500Y-72453500D01*
X62928500Y-72453500D02*
X62928500Y-71056500D01*
X62928500Y-71056500D02*
X63634620Y-71056500D01*
X65341500Y-72453500D02*
X64635380Y-72453500D01*
X65341500Y-72453500D02*
X65341500Y-71056500D01*
X65341500Y-71056500D02*
X64635380Y-71056500D01*
X65905380Y-73596500D02*
X66611500Y-73596500D01*
X66611500Y-73596500D02*
X66611500Y-74993500D01*
X66611500Y-74993500D02*
X65905380Y-74993500D01*
X64198500Y-73596500D02*
X64904620Y-73596500D01*
X64198500Y-73596500D02*
X64198500Y-74993500D01*
X64198500Y-74993500D02*
X64904620Y-74993500D01*
X62364620Y-68643500D02*
X61658500Y-68643500D01*
X61658500Y-68643500D02*
X61658500Y-67246500D01*
X61658500Y-67246500D02*
X62364620Y-67246500D01*
X64071500Y-68643500D02*
X63365380Y-68643500D01*
X64071500Y-68643500D02*
X64071500Y-67246500D01*
X64071500Y-67246500D02*
X63365380Y-67246500D01*
X94749620Y-53403500D02*
X94043500Y-53403500D01*
X94043500Y-53403500D02*
X94043500Y-52006500D01*
X94043500Y-52006500D02*
X94749620Y-52006500D01*
X96456500Y-53403500D02*
X95750380Y-53403500D01*
X96456500Y-53403500D02*
X96456500Y-52006500D01*
X96456500Y-52006500D02*
X95750380Y-52006500D01*
X69715380Y-65976500D02*
X70421500Y-65976500D01*
X70421500Y-65976500D02*
X70421500Y-67373500D01*
X70421500Y-67373500D02*
X69715380Y-67373500D01*
X68008500Y-65976500D02*
X68714620Y-65976500D01*
X68008500Y-65976500D02*
X68008500Y-67373500D01*
X68008500Y-67373500D02*
X68714620Y-67373500D01*
X70619620Y-53403500D02*
X69913500Y-53403500D01*
X69913500Y-53403500D02*
X69913500Y-52006500D01*
X69913500Y-52006500D02*
X70619620Y-52006500D01*
X72326500Y-53403500D02*
X71620380Y-53403500D01*
X72326500Y-53403500D02*
X72326500Y-52006500D01*
X72326500Y-52006500D02*
X71620380Y-52006500D01*
X60261500Y-52839620D02*
X60261500Y-52133500D01*
X60261500Y-52133500D02*
X61658500Y-52133500D01*
X61658500Y-52133500D02*
X61658500Y-52839620D01*
X60261500Y-54546500D02*
X60261500Y-53840380D01*
X60261500Y-54546500D02*
X61658500Y-54546500D01*
X61658500Y-54546500D02*
X61658500Y-53840380D01*
X60261500Y-49664620D02*
X60261500Y-48958500D01*
X60261500Y-48958500D02*
X61658500Y-48958500D01*
X61658500Y-48958500D02*
X61658500Y-49664620D01*
X60261500Y-51371500D02*
X60261500Y-50665380D01*
X60261500Y-51371500D02*
X61658500Y-51371500D01*
X61658500Y-51371500D02*
X61658500Y-50665380D01*
D16*
X65980000Y-42460000D02*
X71180000Y-42460000D01*
X71180000Y-38820000D02*
X65980000Y-38820000D01*
D14*
X41409620Y-54673500D02*
X40703500Y-54673500D01*
X40703500Y-54673500D02*
X40703500Y-53276500D01*
X40703500Y-53276500D02*
X41409620Y-53276500D01*
X43116500Y-54673500D02*
X42410380Y-54673500D01*
X43116500Y-54673500D02*
X43116500Y-53276500D01*
X43116500Y-53276500D02*
X42410380Y-53276500D01*
X84391500Y-52839620D02*
X84391500Y-52133500D01*
X84391500Y-52133500D02*
X85788500Y-52133500D01*
X85788500Y-52133500D02*
X85788500Y-52839620D01*
X84391500Y-54546500D02*
X84391500Y-53840380D01*
X84391500Y-54546500D02*
X85788500Y-54546500D01*
X85788500Y-54546500D02*
X85788500Y-53840380D01*
X85788500Y-50665380D02*
X85788500Y-51371500D01*
X85788500Y-51371500D02*
X84391500Y-51371500D01*
X84391500Y-51371500D02*
X84391500Y-50665380D01*
X85788500Y-48958500D02*
X85788500Y-49664620D01*
X85788500Y-48958500D02*
X84391500Y-48958500D01*
X84391500Y-48958500D02*
X84391500Y-49664620D01*
D16*
X90110000Y-41952000D02*
X95310000Y-41952000D01*
X95310000Y-38312000D02*
X90110000Y-38312000D01*
D14*
X108521500Y-52839620D02*
X108521500Y-52133500D01*
X108521500Y-52133500D02*
X109918500Y-52133500D01*
X109918500Y-52133500D02*
X109918500Y-52839620D01*
X108521500Y-54546500D02*
X108521500Y-53840380D01*
X108521500Y-54546500D02*
X109918500Y-54546500D01*
X109918500Y-54546500D02*
X109918500Y-53840380D01*
X108521500Y-49664620D02*
X108521500Y-48958500D01*
X108521500Y-48958500D02*
X109918500Y-48958500D01*
X109918500Y-48958500D02*
X109918500Y-49664620D01*
X108521500Y-51371500D02*
X108521500Y-50665380D01*
X108521500Y-51371500D02*
X109918500Y-51371500D01*
X109918500Y-51371500D02*
X109918500Y-50665380D01*
X61729620Y-65468500D02*
X61023500Y-65468500D01*
X61023500Y-65468500D02*
X61023500Y-64071500D01*
X61023500Y-64071500D02*
X61729620Y-64071500D01*
X63436500Y-65468500D02*
X62730380Y-65468500D01*
X63436500Y-65468500D02*
X63436500Y-64071500D01*
X63436500Y-64071500D02*
X62730380Y-64071500D01*
X69984620Y-61658500D02*
X69278500Y-61658500D01*
X69278500Y-61658500D02*
X69278500Y-60261500D01*
X69278500Y-60261500D02*
X69984620Y-60261500D01*
X71691500Y-61658500D02*
X70985380Y-61658500D01*
X71691500Y-61658500D02*
X71691500Y-60261500D01*
X71691500Y-60261500D02*
X70985380Y-60261500D01*
D12*
X60706000Y-62992000D02*
X60706000Y-56388000D01*
X60706000Y-56388000D02*
X67564000Y-56388000D01*
X67564000Y-56388000D02*
X67564000Y-62992000D01*
X67564000Y-62992000D02*
X60706000Y-62992000D01*
D14*
X123253500Y-74795380D02*
X123253500Y-75501500D01*
X123253500Y-75501500D02*
X121856500Y-75501500D01*
X121856500Y-75501500D02*
X121856500Y-74795380D01*
X123253500Y-73088500D02*
X123253500Y-73794620D01*
X123253500Y-73088500D02*
X121856500Y-73088500D01*
X121856500Y-73088500D02*
X121856500Y-73794620D01*
X117975380Y-78041500D02*
X118681500Y-78041500D01*
X118681500Y-78041500D02*
X118681500Y-79438500D01*
X118681500Y-79438500D02*
X117975380Y-79438500D01*
X116268500Y-78041500D02*
X116974620Y-78041500D01*
X116268500Y-78041500D02*
X116268500Y-79438500D01*
X116268500Y-79438500D02*
X116974620Y-79438500D01*
X115697000Y-76962000D02*
X115570000Y-76962000D01*
X115570000Y-76962000D02*
X115570000Y-71628000D01*
X119380000Y-71628000D02*
X119380000Y-76962000D01*
X119380000Y-76962000D02*
X115697000Y-76962000D01*
X117983000Y-76962000D02*
X117983000Y-76454000D01*
X117983000Y-76454000D02*
X116967000Y-76454000D01*
X116967000Y-76454000D02*
X116967000Y-76962000D01*
X119380000Y-71628000D02*
X115570000Y-71628000D01*
X62293500Y-47490380D02*
X62293500Y-48196500D01*
X62293500Y-48196500D02*
X60896500Y-48196500D01*
X60896500Y-48196500D02*
X60896500Y-47490380D01*
X62293500Y-45783500D02*
X62293500Y-46489620D01*
X62293500Y-45783500D02*
X60896500Y-45783500D01*
X60896500Y-45783500D02*
X60896500Y-46489620D01*
X86423500Y-47490380D02*
X86423500Y-48196500D01*
X86423500Y-48196500D02*
X85026500Y-48196500D01*
X85026500Y-48196500D02*
X85026500Y-47490380D01*
X86423500Y-45783500D02*
X86423500Y-46489620D01*
X86423500Y-45783500D02*
X85026500Y-45783500D01*
X85026500Y-45783500D02*
X85026500Y-46489620D01*
X110553500Y-46220380D02*
X110553500Y-46926500D01*
X110553500Y-46926500D02*
X109156500Y-46926500D01*
X109156500Y-46926500D02*
X109156500Y-46220380D01*
X110553500Y-44513500D02*
X110553500Y-45219620D01*
X110553500Y-44513500D02*
X109156500Y-44513500D01*
X109156500Y-44513500D02*
X109156500Y-45219620D01*
D13*
X79240380Y-71104760D02*
X79938880Y-71104760D01*
X78239620Y-71104760D02*
X77541120Y-71104760D01*
X79240380Y-72405240D02*
X79938880Y-72405240D01*
X77541120Y-72405240D02*
X78239620Y-72405240D01*
X79938880Y-72390000D02*
X79938880Y-71120000D01*
X77541120Y-71120000D02*
X77541120Y-72390000D01*
D15*
X99796143Y-64347286D02*
X100046143Y-63990143D01*
X100224715Y-64347286D02*
X100224715Y-63597286D01*
X99939000Y-63597286D01*
X99867572Y-63633000D01*
X99831857Y-63668714D01*
X99796143Y-63740143D01*
X99796143Y-63847286D01*
X99831857Y-63918714D01*
X99867572Y-63954429D01*
X99939000Y-63990143D01*
X100224715Y-63990143D01*
X99117572Y-63597286D02*
X99474715Y-63597286D01*
X99510429Y-63954429D01*
X99474715Y-63918714D01*
X99403286Y-63883000D01*
X99224715Y-63883000D01*
X99153286Y-63918714D01*
X99117572Y-63954429D01*
X99081857Y-64025857D01*
X99081857Y-64204429D01*
X99117572Y-64275857D01*
X99153286Y-64311571D01*
X99224715Y-64347286D01*
X99403286Y-64347286D01*
X99474715Y-64311571D01*
X99510429Y-64275857D01*
X98439000Y-63847286D02*
X98439000Y-64347286D01*
X98617571Y-63561571D02*
X98796143Y-64097286D01*
X98331857Y-64097286D01*
X84302143Y-76721857D02*
X84337857Y-76757571D01*
X84445000Y-76793286D01*
X84516429Y-76793286D01*
X84623572Y-76757571D01*
X84695000Y-76686143D01*
X84730715Y-76614714D01*
X84766429Y-76471857D01*
X84766429Y-76364714D01*
X84730715Y-76221857D01*
X84695000Y-76150429D01*
X84623572Y-76079000D01*
X84516429Y-76043286D01*
X84445000Y-76043286D01*
X84337857Y-76079000D01*
X84302143Y-76114714D01*
X83623572Y-76043286D02*
X83980715Y-76043286D01*
X84016429Y-76400429D01*
X83980715Y-76364714D01*
X83909286Y-76329000D01*
X83730715Y-76329000D01*
X83659286Y-76364714D01*
X83623572Y-76400429D01*
X83587857Y-76471857D01*
X83587857Y-76650429D01*
X83623572Y-76721857D01*
X83659286Y-76757571D01*
X83730715Y-76793286D01*
X83909286Y-76793286D01*
X83980715Y-76757571D01*
X84016429Y-76721857D01*
X83337857Y-76043286D02*
X82837857Y-76043286D01*
X83159286Y-76793286D01*
X110107000Y-61227857D02*
X110142714Y-61263571D01*
X110249857Y-61299286D01*
X110321286Y-61299286D01*
X110428429Y-61263571D01*
X110499857Y-61192143D01*
X110535572Y-61120714D01*
X110571286Y-60977857D01*
X110571286Y-60870714D01*
X110535572Y-60727857D01*
X110499857Y-60656429D01*
X110428429Y-60585000D01*
X110321286Y-60549286D01*
X110249857Y-60549286D01*
X110142714Y-60585000D01*
X110107000Y-60620714D01*
X109821286Y-60620714D02*
X109785572Y-60585000D01*
X109714143Y-60549286D01*
X109535572Y-60549286D01*
X109464143Y-60585000D01*
X109428429Y-60620714D01*
X109392714Y-60692143D01*
X109392714Y-60763571D01*
X109428429Y-60870714D01*
X109857000Y-61299286D01*
X109392714Y-61299286D01*
X115075857Y-65915000D02*
X115111571Y-65879286D01*
X115147286Y-65772143D01*
X115147286Y-65700714D01*
X115111571Y-65593571D01*
X115040143Y-65522143D01*
X114968714Y-65486428D01*
X114825857Y-65450714D01*
X114718714Y-65450714D01*
X114575857Y-65486428D01*
X114504429Y-65522143D01*
X114433000Y-65593571D01*
X114397286Y-65700714D01*
X114397286Y-65772143D01*
X114433000Y-65879286D01*
X114468714Y-65915000D01*
X114397286Y-66165000D02*
X114397286Y-66629286D01*
X114683000Y-66379286D01*
X114683000Y-66486428D01*
X114718714Y-66557857D01*
X114754429Y-66593571D01*
X114825857Y-66629286D01*
X115004429Y-66629286D01*
X115075857Y-66593571D01*
X115111571Y-66557857D01*
X115147286Y-66486428D01*
X115147286Y-66272143D01*
X115111571Y-66200714D01*
X115075857Y-66165000D01*
X108178143Y-63767857D02*
X108213857Y-63803571D01*
X108321000Y-63839286D01*
X108392429Y-63839286D01*
X108499572Y-63803571D01*
X108571000Y-63732143D01*
X108606715Y-63660714D01*
X108642429Y-63517857D01*
X108642429Y-63410714D01*
X108606715Y-63267857D01*
X108571000Y-63196429D01*
X108499572Y-63125000D01*
X108392429Y-63089286D01*
X108321000Y-63089286D01*
X108213857Y-63125000D01*
X108178143Y-63160714D01*
X107463857Y-63839286D02*
X107892429Y-63839286D01*
X107678143Y-63839286D02*
X107678143Y-63089286D01*
X107749572Y-63196429D01*
X107821000Y-63267857D01*
X107892429Y-63303571D01*
X106999571Y-63089286D02*
X106928143Y-63089286D01*
X106856714Y-63125000D01*
X106821000Y-63160714D01*
X106785286Y-63232143D01*
X106749571Y-63375000D01*
X106749571Y-63553571D01*
X106785286Y-63696429D01*
X106821000Y-63767857D01*
X106856714Y-63803571D01*
X106928143Y-63839286D01*
X106999571Y-63839286D01*
X107071000Y-63803571D01*
X107106714Y-63767857D01*
X107142429Y-63696429D01*
X107178143Y-63553571D01*
X107178143Y-63375000D01*
X107142429Y-63232143D01*
X107106714Y-63160714D01*
X107071000Y-63125000D01*
X106999571Y-63089286D01*
X108178143Y-62497857D02*
X108213857Y-62533571D01*
X108321000Y-62569286D01*
X108392429Y-62569286D01*
X108499572Y-62533571D01*
X108571000Y-62462143D01*
X108606715Y-62390714D01*
X108642429Y-62247857D01*
X108642429Y-62140714D01*
X108606715Y-61997857D01*
X108571000Y-61926429D01*
X108499572Y-61855000D01*
X108392429Y-61819286D01*
X108321000Y-61819286D01*
X108213857Y-61855000D01*
X108178143Y-61890714D01*
X107463857Y-62569286D02*
X107892429Y-62569286D01*
X107678143Y-62569286D02*
X107678143Y-61819286D01*
X107749572Y-61926429D01*
X107821000Y-61997857D01*
X107892429Y-62033571D01*
X106749571Y-62569286D02*
X107178143Y-62569286D01*
X106963857Y-62569286D02*
X106963857Y-61819286D01*
X107035286Y-61926429D01*
X107106714Y-61997857D01*
X107178143Y-62033571D01*
X97764143Y-78753857D02*
X97799857Y-78789571D01*
X97907000Y-78825286D01*
X97978429Y-78825286D01*
X98085572Y-78789571D01*
X98157000Y-78718143D01*
X98192715Y-78646714D01*
X98228429Y-78503857D01*
X98228429Y-78396714D01*
X98192715Y-78253857D01*
X98157000Y-78182429D01*
X98085572Y-78111000D01*
X97978429Y-78075286D01*
X97907000Y-78075286D01*
X97799857Y-78111000D01*
X97764143Y-78146714D01*
X97049857Y-78825286D02*
X97478429Y-78825286D01*
X97264143Y-78825286D02*
X97264143Y-78075286D01*
X97335572Y-78182429D01*
X97407000Y-78253857D01*
X97478429Y-78289571D01*
X96764143Y-78146714D02*
X96728429Y-78111000D01*
X96657000Y-78075286D01*
X96478429Y-78075286D01*
X96407000Y-78111000D01*
X96371286Y-78146714D01*
X96335571Y-78218143D01*
X96335571Y-78289571D01*
X96371286Y-78396714D01*
X96799857Y-78825286D01*
X96335571Y-78825286D01*
X108178143Y-58687857D02*
X108213857Y-58723571D01*
X108321000Y-58759286D01*
X108392429Y-58759286D01*
X108499572Y-58723571D01*
X108571000Y-58652143D01*
X108606715Y-58580714D01*
X108642429Y-58437857D01*
X108642429Y-58330714D01*
X108606715Y-58187857D01*
X108571000Y-58116429D01*
X108499572Y-58045000D01*
X108392429Y-58009286D01*
X108321000Y-58009286D01*
X108213857Y-58045000D01*
X108178143Y-58080714D01*
X107463857Y-58759286D02*
X107892429Y-58759286D01*
X107678143Y-58759286D02*
X107678143Y-58009286D01*
X107749572Y-58116429D01*
X107821000Y-58187857D01*
X107892429Y-58223571D01*
X107213857Y-58009286D02*
X106749571Y-58009286D01*
X106999571Y-58295000D01*
X106892429Y-58295000D01*
X106821000Y-58330714D01*
X106785286Y-58366429D01*
X106749571Y-58437857D01*
X106749571Y-58616429D01*
X106785286Y-58687857D01*
X106821000Y-58723571D01*
X106892429Y-58759286D01*
X107106714Y-58759286D01*
X107178143Y-58723571D01*
X107213857Y-58687857D01*
X97002143Y-69609857D02*
X97037857Y-69645571D01*
X97145000Y-69681286D01*
X97216429Y-69681286D01*
X97323572Y-69645571D01*
X97395000Y-69574143D01*
X97430715Y-69502714D01*
X97466429Y-69359857D01*
X97466429Y-69252714D01*
X97430715Y-69109857D01*
X97395000Y-69038429D01*
X97323572Y-68967000D01*
X97216429Y-68931286D01*
X97145000Y-68931286D01*
X97037857Y-68967000D01*
X97002143Y-69002714D01*
X96287857Y-69681286D02*
X96716429Y-69681286D01*
X96502143Y-69681286D02*
X96502143Y-68931286D01*
X96573572Y-69038429D01*
X96645000Y-69109857D01*
X96716429Y-69145571D01*
X95645000Y-69181286D02*
X95645000Y-69681286D01*
X95823571Y-68895571D02*
X96002143Y-69431286D01*
X95537857Y-69431286D01*
X97002143Y-65037857D02*
X97037857Y-65073571D01*
X97145000Y-65109286D01*
X97216429Y-65109286D01*
X97323572Y-65073571D01*
X97395000Y-65002143D01*
X97430715Y-64930714D01*
X97466429Y-64787857D01*
X97466429Y-64680714D01*
X97430715Y-64537857D01*
X97395000Y-64466429D01*
X97323572Y-64395000D01*
X97216429Y-64359286D01*
X97145000Y-64359286D01*
X97037857Y-64395000D01*
X97002143Y-64430714D01*
X96287857Y-65109286D02*
X96716429Y-65109286D01*
X96502143Y-65109286D02*
X96502143Y-64359286D01*
X96573572Y-64466429D01*
X96645000Y-64537857D01*
X96716429Y-64573571D01*
X95645000Y-64359286D02*
X95787857Y-64359286D01*
X95859286Y-64395000D01*
X95895000Y-64430714D01*
X95966429Y-64537857D01*
X96002143Y-64680714D01*
X96002143Y-64966429D01*
X95966429Y-65037857D01*
X95930714Y-65073571D01*
X95859286Y-65109286D01*
X95716429Y-65109286D01*
X95645000Y-65073571D01*
X95609286Y-65037857D01*
X95573571Y-64966429D01*
X95573571Y-64787857D01*
X95609286Y-64716429D01*
X95645000Y-64680714D01*
X95716429Y-64645000D01*
X95859286Y-64645000D01*
X95930714Y-64680714D01*
X95966429Y-64716429D01*
X96002143Y-64787857D01*
X97764143Y-73165857D02*
X97799857Y-73201571D01*
X97907000Y-73237286D01*
X97978429Y-73237286D01*
X98085572Y-73201571D01*
X98157000Y-73130143D01*
X98192715Y-73058714D01*
X98228429Y-72915857D01*
X98228429Y-72808714D01*
X98192715Y-72665857D01*
X98157000Y-72594429D01*
X98085572Y-72523000D01*
X97978429Y-72487286D01*
X97907000Y-72487286D01*
X97799857Y-72523000D01*
X97764143Y-72558714D01*
X97049857Y-73237286D02*
X97478429Y-73237286D01*
X97264143Y-73237286D02*
X97264143Y-72487286D01*
X97335572Y-72594429D01*
X97407000Y-72665857D01*
X97478429Y-72701571D01*
X96799857Y-72487286D02*
X96299857Y-72487286D01*
X96621286Y-73237286D01*
X60934143Y-69863857D02*
X60969857Y-69899571D01*
X61077000Y-69935286D01*
X61148429Y-69935286D01*
X61255572Y-69899571D01*
X61327000Y-69828143D01*
X61362715Y-69756714D01*
X61398429Y-69613857D01*
X61398429Y-69506714D01*
X61362715Y-69363857D01*
X61327000Y-69292429D01*
X61255572Y-69221000D01*
X61148429Y-69185286D01*
X61077000Y-69185286D01*
X60969857Y-69221000D01*
X60934143Y-69256714D01*
X60219857Y-69935286D02*
X60648429Y-69935286D01*
X60434143Y-69935286D02*
X60434143Y-69185286D01*
X60505572Y-69292429D01*
X60577000Y-69363857D01*
X60648429Y-69399571D01*
X59862714Y-69935286D02*
X59719857Y-69935286D01*
X59648429Y-69899571D01*
X59612714Y-69863857D01*
X59541286Y-69756714D01*
X59505571Y-69613857D01*
X59505571Y-69328143D01*
X59541286Y-69256714D01*
X59577000Y-69221000D01*
X59648429Y-69185286D01*
X59791286Y-69185286D01*
X59862714Y-69221000D01*
X59898429Y-69256714D01*
X59934143Y-69328143D01*
X59934143Y-69506714D01*
X59898429Y-69578143D01*
X59862714Y-69613857D01*
X59791286Y-69649571D01*
X59648429Y-69649571D01*
X59577000Y-69613857D01*
X59541286Y-69578143D01*
X59505571Y-69506714D01*
X60465857Y-71907857D02*
X60501571Y-71872143D01*
X60537286Y-71765000D01*
X60537286Y-71693571D01*
X60501571Y-71586428D01*
X60430143Y-71515000D01*
X60358714Y-71479285D01*
X60215857Y-71443571D01*
X60108714Y-71443571D01*
X59965857Y-71479285D01*
X59894429Y-71515000D01*
X59823000Y-71586428D01*
X59787286Y-71693571D01*
X59787286Y-71765000D01*
X59823000Y-71872143D01*
X59858714Y-71907857D01*
X59858714Y-72193571D02*
X59823000Y-72229285D01*
X59787286Y-72300714D01*
X59787286Y-72479285D01*
X59823000Y-72550714D01*
X59858714Y-72586428D01*
X59930143Y-72622143D01*
X60001571Y-72622143D01*
X60108714Y-72586428D01*
X60537286Y-72157857D01*
X60537286Y-72622143D01*
X60537286Y-73336429D02*
X60537286Y-72907857D01*
X60537286Y-73122143D02*
X59787286Y-73122143D01*
X59894429Y-73050714D01*
X59965857Y-72979286D01*
X60001571Y-72907857D01*
X45479857Y-52603857D02*
X45515571Y-52568143D01*
X45551286Y-52461000D01*
X45551286Y-52389571D01*
X45515571Y-52282428D01*
X45444143Y-52211000D01*
X45372714Y-52175285D01*
X45229857Y-52139571D01*
X45122714Y-52139571D01*
X44979857Y-52175285D01*
X44908429Y-52211000D01*
X44837000Y-52282428D01*
X44801286Y-52389571D01*
X44801286Y-52461000D01*
X44837000Y-52568143D01*
X44872714Y-52603857D01*
X44872714Y-52889571D02*
X44837000Y-52925285D01*
X44801286Y-52996714D01*
X44801286Y-53175285D01*
X44837000Y-53246714D01*
X44872714Y-53282428D01*
X44944143Y-53318143D01*
X45015571Y-53318143D01*
X45122714Y-53282428D01*
X45551286Y-52853857D01*
X45551286Y-53318143D01*
X45122714Y-53746714D02*
X45087000Y-53675286D01*
X45051286Y-53639571D01*
X44979857Y-53603857D01*
X44944143Y-53603857D01*
X44872714Y-53639571D01*
X44837000Y-53675286D01*
X44801286Y-53746714D01*
X44801286Y-53889571D01*
X44837000Y-53961000D01*
X44872714Y-53996714D01*
X44944143Y-54032429D01*
X44979857Y-54032429D01*
X45051286Y-53996714D01*
X45087000Y-53961000D01*
X45122714Y-53889571D01*
X45122714Y-53746714D01*
X45158429Y-53675286D01*
X45194143Y-53639571D01*
X45265571Y-53603857D01*
X45408429Y-53603857D01*
X45479857Y-53639571D01*
X45515571Y-53675286D01*
X45551286Y-53746714D01*
X45551286Y-53889571D01*
X45515571Y-53961000D01*
X45479857Y-53996714D01*
X45408429Y-54032429D01*
X45265571Y-54032429D01*
X45194143Y-53996714D01*
X45158429Y-53961000D01*
X45122714Y-53889571D01*
X68847857Y-53873857D02*
X68883571Y-53838143D01*
X68919286Y-53731000D01*
X68919286Y-53659571D01*
X68883571Y-53552428D01*
X68812143Y-53481000D01*
X68740714Y-53445285D01*
X68597857Y-53409571D01*
X68490714Y-53409571D01*
X68347857Y-53445285D01*
X68276429Y-53481000D01*
X68205000Y-53552428D01*
X68169286Y-53659571D01*
X68169286Y-53731000D01*
X68205000Y-53838143D01*
X68240714Y-53873857D01*
X68240714Y-54159571D02*
X68205000Y-54195285D01*
X68169286Y-54266714D01*
X68169286Y-54445285D01*
X68205000Y-54516714D01*
X68240714Y-54552428D01*
X68312143Y-54588143D01*
X68383571Y-54588143D01*
X68490714Y-54552428D01*
X68919286Y-54123857D01*
X68919286Y-54588143D01*
X68919286Y-54945286D02*
X68919286Y-55088143D01*
X68883571Y-55159571D01*
X68847857Y-55195286D01*
X68740714Y-55266714D01*
X68597857Y-55302429D01*
X68312143Y-55302429D01*
X68240714Y-55266714D01*
X68205000Y-55231000D01*
X68169286Y-55159571D01*
X68169286Y-55016714D01*
X68205000Y-54945286D01*
X68240714Y-54909571D01*
X68312143Y-54873857D01*
X68490714Y-54873857D01*
X68562143Y-54909571D01*
X68597857Y-54945286D01*
X68633571Y-55016714D01*
X68633571Y-55159571D01*
X68597857Y-55231000D01*
X68562143Y-55266714D01*
X68490714Y-55302429D01*
X92977857Y-53873857D02*
X93013571Y-53838143D01*
X93049286Y-53731000D01*
X93049286Y-53659571D01*
X93013571Y-53552428D01*
X92942143Y-53481000D01*
X92870714Y-53445285D01*
X92727857Y-53409571D01*
X92620714Y-53409571D01*
X92477857Y-53445285D01*
X92406429Y-53481000D01*
X92335000Y-53552428D01*
X92299286Y-53659571D01*
X92299286Y-53731000D01*
X92335000Y-53838143D01*
X92370714Y-53873857D01*
X92299286Y-54123857D02*
X92299286Y-54588143D01*
X92585000Y-54338143D01*
X92585000Y-54445285D01*
X92620714Y-54516714D01*
X92656429Y-54552428D01*
X92727857Y-54588143D01*
X92906429Y-54588143D01*
X92977857Y-54552428D01*
X93013571Y-54516714D01*
X93049286Y-54445285D01*
X93049286Y-54231000D01*
X93013571Y-54159571D01*
X92977857Y-54123857D01*
X92299286Y-55052429D02*
X92299286Y-55123857D01*
X92335000Y-55195286D01*
X92370714Y-55231000D01*
X92442143Y-55266714D01*
X92585000Y-55302429D01*
X92763571Y-55302429D01*
X92906429Y-55266714D01*
X92977857Y-55231000D01*
X93013571Y-55195286D01*
X93049286Y-55123857D01*
X93049286Y-55052429D01*
X93013571Y-54981000D01*
X92977857Y-54945286D01*
X92906429Y-54909571D01*
X92763571Y-54873857D01*
X92585000Y-54873857D01*
X92442143Y-54909571D01*
X92370714Y-54945286D01*
X92335000Y-54981000D01*
X92299286Y-55052429D01*
X108178143Y-61227857D02*
X108213857Y-61263571D01*
X108321000Y-61299286D01*
X108392429Y-61299286D01*
X108499572Y-61263571D01*
X108571000Y-61192143D01*
X108606715Y-61120714D01*
X108642429Y-60977857D01*
X108642429Y-60870714D01*
X108606715Y-60727857D01*
X108571000Y-60656429D01*
X108499572Y-60585000D01*
X108392429Y-60549286D01*
X108321000Y-60549286D01*
X108213857Y-60585000D01*
X108178143Y-60620714D01*
X107928143Y-60549286D02*
X107463857Y-60549286D01*
X107713857Y-60835000D01*
X107606715Y-60835000D01*
X107535286Y-60870714D01*
X107499572Y-60906429D01*
X107463857Y-60977857D01*
X107463857Y-61156429D01*
X107499572Y-61227857D01*
X107535286Y-61263571D01*
X107606715Y-61299286D01*
X107821000Y-61299286D01*
X107892429Y-61263571D01*
X107928143Y-61227857D01*
X106749571Y-61299286D02*
X107178143Y-61299286D01*
X106963857Y-61299286D02*
X106963857Y-60549286D01*
X107035286Y-60656429D01*
X107106714Y-60727857D01*
X107178143Y-60763571D01*
X110718143Y-62497857D02*
X110753857Y-62533571D01*
X110861000Y-62569286D01*
X110932429Y-62569286D01*
X111039572Y-62533571D01*
X111111000Y-62462143D01*
X111146715Y-62390714D01*
X111182429Y-62247857D01*
X111182429Y-62140714D01*
X111146715Y-61997857D01*
X111111000Y-61926429D01*
X111039572Y-61855000D01*
X110932429Y-61819286D01*
X110861000Y-61819286D01*
X110753857Y-61855000D01*
X110718143Y-61890714D01*
X110468143Y-61819286D02*
X110003857Y-61819286D01*
X110253857Y-62105000D01*
X110146715Y-62105000D01*
X110075286Y-62140714D01*
X110039572Y-62176429D01*
X110003857Y-62247857D01*
X110003857Y-62426429D01*
X110039572Y-62497857D01*
X110075286Y-62533571D01*
X110146715Y-62569286D01*
X110361000Y-62569286D01*
X110432429Y-62533571D01*
X110468143Y-62497857D01*
X109718143Y-61890714D02*
X109682429Y-61855000D01*
X109611000Y-61819286D01*
X109432429Y-61819286D01*
X109361000Y-61855000D01*
X109325286Y-61890714D01*
X109289571Y-61962143D01*
X109289571Y-62033571D01*
X109325286Y-62140714D01*
X109753857Y-62569286D01*
X109289571Y-62569286D01*
X53099857Y-60223857D02*
X53135571Y-60188143D01*
X53171286Y-60081000D01*
X53171286Y-60009571D01*
X53135571Y-59902428D01*
X53064143Y-59831000D01*
X52992714Y-59795285D01*
X52849857Y-59759571D01*
X52742714Y-59759571D01*
X52599857Y-59795285D01*
X52528429Y-59831000D01*
X52457000Y-59902428D01*
X52421286Y-60009571D01*
X52421286Y-60081000D01*
X52457000Y-60188143D01*
X52492714Y-60223857D01*
X52421286Y-60473857D02*
X52421286Y-60938143D01*
X52707000Y-60688143D01*
X52707000Y-60795285D01*
X52742714Y-60866714D01*
X52778429Y-60902428D01*
X52849857Y-60938143D01*
X53028429Y-60938143D01*
X53099857Y-60902428D01*
X53135571Y-60866714D01*
X53171286Y-60795285D01*
X53171286Y-60581000D01*
X53135571Y-60509571D01*
X53099857Y-60473857D01*
X52421286Y-61188143D02*
X52421286Y-61652429D01*
X52707000Y-61402429D01*
X52707000Y-61509571D01*
X52742714Y-61581000D01*
X52778429Y-61616714D01*
X52849857Y-61652429D01*
X53028429Y-61652429D01*
X53099857Y-61616714D01*
X53135571Y-61581000D01*
X53171286Y-61509571D01*
X53171286Y-61295286D01*
X53135571Y-61223857D01*
X53099857Y-61188143D01*
X108178143Y-59957857D02*
X108213857Y-59993571D01*
X108321000Y-60029286D01*
X108392429Y-60029286D01*
X108499572Y-59993571D01*
X108571000Y-59922143D01*
X108606715Y-59850714D01*
X108642429Y-59707857D01*
X108642429Y-59600714D01*
X108606715Y-59457857D01*
X108571000Y-59386429D01*
X108499572Y-59315000D01*
X108392429Y-59279286D01*
X108321000Y-59279286D01*
X108213857Y-59315000D01*
X108178143Y-59350714D01*
X107928143Y-59279286D02*
X107463857Y-59279286D01*
X107713857Y-59565000D01*
X107606715Y-59565000D01*
X107535286Y-59600714D01*
X107499572Y-59636429D01*
X107463857Y-59707857D01*
X107463857Y-59886429D01*
X107499572Y-59957857D01*
X107535286Y-59993571D01*
X107606715Y-60029286D01*
X107821000Y-60029286D01*
X107892429Y-59993571D01*
X107928143Y-59957857D01*
X106785286Y-59279286D02*
X107142429Y-59279286D01*
X107178143Y-59636429D01*
X107142429Y-59600714D01*
X107071000Y-59565000D01*
X106892429Y-59565000D01*
X106821000Y-59600714D01*
X106785286Y-59636429D01*
X106749571Y-59707857D01*
X106749571Y-59886429D01*
X106785286Y-59957857D01*
X106821000Y-59993571D01*
X106892429Y-60029286D01*
X107071000Y-60029286D01*
X107142429Y-59993571D01*
X107178143Y-59957857D01*
X84302143Y-70879857D02*
X84337857Y-70915571D01*
X84445000Y-70951286D01*
X84516429Y-70951286D01*
X84623572Y-70915571D01*
X84695000Y-70844143D01*
X84730715Y-70772714D01*
X84766429Y-70629857D01*
X84766429Y-70522714D01*
X84730715Y-70379857D01*
X84695000Y-70308429D01*
X84623572Y-70237000D01*
X84516429Y-70201286D01*
X84445000Y-70201286D01*
X84337857Y-70237000D01*
X84302143Y-70272714D01*
X84052143Y-70201286D02*
X83587857Y-70201286D01*
X83837857Y-70487000D01*
X83730715Y-70487000D01*
X83659286Y-70522714D01*
X83623572Y-70558429D01*
X83587857Y-70629857D01*
X83587857Y-70808429D01*
X83623572Y-70879857D01*
X83659286Y-70915571D01*
X83730715Y-70951286D01*
X83945000Y-70951286D01*
X84016429Y-70915571D01*
X84052143Y-70879857D01*
X83337857Y-70201286D02*
X82837857Y-70201286D01*
X83159286Y-70951286D01*
X69062143Y-71387857D02*
X69097857Y-71423571D01*
X69205000Y-71459286D01*
X69276429Y-71459286D01*
X69383572Y-71423571D01*
X69455000Y-71352143D01*
X69490715Y-71280714D01*
X69526429Y-71137857D01*
X69526429Y-71030714D01*
X69490715Y-70887857D01*
X69455000Y-70816429D01*
X69383572Y-70745000D01*
X69276429Y-70709286D01*
X69205000Y-70709286D01*
X69097857Y-70745000D01*
X69062143Y-70780714D01*
X68812143Y-70709286D02*
X68347857Y-70709286D01*
X68597857Y-70995000D01*
X68490715Y-70995000D01*
X68419286Y-71030714D01*
X68383572Y-71066429D01*
X68347857Y-71137857D01*
X68347857Y-71316429D01*
X68383572Y-71387857D01*
X68419286Y-71423571D01*
X68490715Y-71459286D01*
X68705000Y-71459286D01*
X68776429Y-71423571D01*
X68812143Y-71387857D01*
X67990714Y-71459286D02*
X67847857Y-71459286D01*
X67776429Y-71423571D01*
X67740714Y-71387857D01*
X67669286Y-71280714D01*
X67633571Y-71137857D01*
X67633571Y-70852143D01*
X67669286Y-70780714D01*
X67705000Y-70745000D01*
X67776429Y-70709286D01*
X67919286Y-70709286D01*
X67990714Y-70745000D01*
X68026429Y-70780714D01*
X68062143Y-70852143D01*
X68062143Y-71030714D01*
X68026429Y-71102143D01*
X67990714Y-71137857D01*
X67919286Y-71173571D01*
X67776429Y-71173571D01*
X67705000Y-71137857D01*
X67669286Y-71102143D01*
X67633571Y-71030714D01*
X88366143Y-73419857D02*
X88401857Y-73455571D01*
X88509000Y-73491286D01*
X88580429Y-73491286D01*
X88687572Y-73455571D01*
X88759000Y-73384143D01*
X88794715Y-73312714D01*
X88830429Y-73169857D01*
X88830429Y-73062714D01*
X88794715Y-72919857D01*
X88759000Y-72848429D01*
X88687572Y-72777000D01*
X88580429Y-72741286D01*
X88509000Y-72741286D01*
X88401857Y-72777000D01*
X88366143Y-72812714D01*
X87723286Y-72991286D02*
X87723286Y-73491286D01*
X87901857Y-72705571D02*
X88080429Y-73241286D01*
X87616143Y-73241286D01*
X87401857Y-72741286D02*
X86937571Y-72741286D01*
X87187571Y-73027000D01*
X87080429Y-73027000D01*
X87009000Y-73062714D01*
X86973286Y-73098429D01*
X86937571Y-73169857D01*
X86937571Y-73348429D01*
X86973286Y-73419857D01*
X87009000Y-73455571D01*
X87080429Y-73491286D01*
X87294714Y-73491286D01*
X87366143Y-73455571D01*
X87401857Y-73419857D01*
X75412143Y-71387857D02*
X75447857Y-71423571D01*
X75555000Y-71459286D01*
X75626429Y-71459286D01*
X75733572Y-71423571D01*
X75805000Y-71352143D01*
X75840715Y-71280714D01*
X75876429Y-71137857D01*
X75876429Y-71030714D01*
X75840715Y-70887857D01*
X75805000Y-70816429D01*
X75733572Y-70745000D01*
X75626429Y-70709286D01*
X75555000Y-70709286D01*
X75447857Y-70745000D01*
X75412143Y-70780714D01*
X74769286Y-70959286D02*
X74769286Y-71459286D01*
X74947857Y-70673571D02*
X75126429Y-71209286D01*
X74662143Y-71209286D01*
X74055000Y-70959286D02*
X74055000Y-71459286D01*
X74233571Y-70673571D02*
X74412143Y-71209286D01*
X73947857Y-71209286D01*
X47472143Y-52591857D02*
X47507857Y-52627571D01*
X47615000Y-52663286D01*
X47686429Y-52663286D01*
X47793572Y-52627571D01*
X47865000Y-52556143D01*
X47900715Y-52484714D01*
X47936429Y-52341857D01*
X47936429Y-52234714D01*
X47900715Y-52091857D01*
X47865000Y-52020429D01*
X47793572Y-51949000D01*
X47686429Y-51913286D01*
X47615000Y-51913286D01*
X47507857Y-51949000D01*
X47472143Y-51984714D01*
X46829286Y-52163286D02*
X46829286Y-52663286D01*
X47007857Y-51877571D02*
X47186429Y-52413286D01*
X46722143Y-52413286D01*
X46079286Y-51913286D02*
X46436429Y-51913286D01*
X46472143Y-52270429D01*
X46436429Y-52234714D01*
X46365000Y-52199000D01*
X46186429Y-52199000D01*
X46115000Y-52234714D01*
X46079286Y-52270429D01*
X46043571Y-52341857D01*
X46043571Y-52520429D01*
X46079286Y-52591857D01*
X46115000Y-52627571D01*
X46186429Y-52663286D01*
X46365000Y-52663286D01*
X46436429Y-52627571D01*
X46472143Y-52591857D01*
X69101857Y-49047857D02*
X69137571Y-49012143D01*
X69173286Y-48905000D01*
X69173286Y-48833571D01*
X69137571Y-48726428D01*
X69066143Y-48655000D01*
X68994714Y-48619285D01*
X68851857Y-48583571D01*
X68744714Y-48583571D01*
X68601857Y-48619285D01*
X68530429Y-48655000D01*
X68459000Y-48726428D01*
X68423286Y-48833571D01*
X68423286Y-48905000D01*
X68459000Y-49012143D01*
X68494714Y-49047857D01*
X68673286Y-49690714D02*
X69173286Y-49690714D01*
X68387571Y-49512143D02*
X68923286Y-49333571D01*
X68923286Y-49797857D01*
X68423286Y-50012143D02*
X68423286Y-50512143D01*
X69173286Y-50190714D01*
X75412143Y-64529857D02*
X75447857Y-64565571D01*
X75555000Y-64601286D01*
X75626429Y-64601286D01*
X75733572Y-64565571D01*
X75805000Y-64494143D01*
X75840715Y-64422714D01*
X75876429Y-64279857D01*
X75876429Y-64172714D01*
X75840715Y-64029857D01*
X75805000Y-63958429D01*
X75733572Y-63887000D01*
X75626429Y-63851286D01*
X75555000Y-63851286D01*
X75447857Y-63887000D01*
X75412143Y-63922714D01*
X74769286Y-64101286D02*
X74769286Y-64601286D01*
X74947857Y-63815571D02*
X75126429Y-64351286D01*
X74662143Y-64351286D01*
X74340714Y-64601286D02*
X74197857Y-64601286D01*
X74126429Y-64565571D01*
X74090714Y-64529857D01*
X74019286Y-64422714D01*
X73983571Y-64279857D01*
X73983571Y-63994143D01*
X74019286Y-63922714D01*
X74055000Y-63887000D01*
X74126429Y-63851286D01*
X74269286Y-63851286D01*
X74340714Y-63887000D01*
X74376429Y-63922714D01*
X74412143Y-63994143D01*
X74412143Y-64172714D01*
X74376429Y-64244143D01*
X74340714Y-64279857D01*
X74269286Y-64315571D01*
X74126429Y-64315571D01*
X74055000Y-64279857D01*
X74019286Y-64244143D01*
X73983571Y-64172714D01*
X93231857Y-49047857D02*
X93267571Y-49012143D01*
X93303286Y-48905000D01*
X93303286Y-48833571D01*
X93267571Y-48726428D01*
X93196143Y-48655000D01*
X93124714Y-48619285D01*
X92981857Y-48583571D01*
X92874714Y-48583571D01*
X92731857Y-48619285D01*
X92660429Y-48655000D01*
X92589000Y-48726428D01*
X92553286Y-48833571D01*
X92553286Y-48905000D01*
X92589000Y-49012143D01*
X92624714Y-49047857D01*
X92553286Y-49726428D02*
X92553286Y-49369285D01*
X92910429Y-49333571D01*
X92874714Y-49369285D01*
X92839000Y-49440714D01*
X92839000Y-49619285D01*
X92874714Y-49690714D01*
X92910429Y-49726428D01*
X92981857Y-49762143D01*
X93160429Y-49762143D01*
X93231857Y-49726428D01*
X93267571Y-49690714D01*
X93303286Y-49619285D01*
X93303286Y-49440714D01*
X93267571Y-49369285D01*
X93231857Y-49333571D01*
X92553286Y-50226429D02*
X92553286Y-50297857D01*
X92589000Y-50369286D01*
X92624714Y-50405000D01*
X92696143Y-50440714D01*
X92839000Y-50476429D01*
X93017571Y-50476429D01*
X93160429Y-50440714D01*
X93231857Y-50405000D01*
X93267571Y-50369286D01*
X93303286Y-50297857D01*
X93303286Y-50226429D01*
X93267571Y-50155000D01*
X93231857Y-50119286D01*
X93160429Y-50083571D01*
X93017571Y-50047857D01*
X92839000Y-50047857D01*
X92696143Y-50083571D01*
X92624714Y-50119286D01*
X92589000Y-50155000D01*
X92553286Y-50226429D01*
X40145857Y-50825857D02*
X40181571Y-50790143D01*
X40217286Y-50683000D01*
X40217286Y-50611571D01*
X40181571Y-50504428D01*
X40110143Y-50433000D01*
X40038714Y-50397285D01*
X39895857Y-50361571D01*
X39788714Y-50361571D01*
X39645857Y-50397285D01*
X39574429Y-50433000D01*
X39503000Y-50504428D01*
X39467286Y-50611571D01*
X39467286Y-50683000D01*
X39503000Y-50790143D01*
X39538714Y-50825857D01*
X39467286Y-51504428D02*
X39467286Y-51147285D01*
X39824429Y-51111571D01*
X39788714Y-51147285D01*
X39753000Y-51218714D01*
X39753000Y-51397285D01*
X39788714Y-51468714D01*
X39824429Y-51504428D01*
X39895857Y-51540143D01*
X40074429Y-51540143D01*
X40145857Y-51504428D01*
X40181571Y-51468714D01*
X40217286Y-51397285D01*
X40217286Y-51218714D01*
X40181571Y-51147285D01*
X40145857Y-51111571D01*
X39467286Y-51790143D02*
X39467286Y-52254429D01*
X39753000Y-52004429D01*
X39753000Y-52111571D01*
X39788714Y-52183000D01*
X39824429Y-52218714D01*
X39895857Y-52254429D01*
X40074429Y-52254429D01*
X40145857Y-52218714D01*
X40181571Y-52183000D01*
X40217286Y-52111571D01*
X40217286Y-51897286D01*
X40181571Y-51825857D01*
X40145857Y-51790143D01*
X67069857Y-53873857D02*
X67105571Y-53838143D01*
X67141286Y-53731000D01*
X67141286Y-53659571D01*
X67105571Y-53552428D01*
X67034143Y-53481000D01*
X66962714Y-53445285D01*
X66819857Y-53409571D01*
X66712714Y-53409571D01*
X66569857Y-53445285D01*
X66498429Y-53481000D01*
X66427000Y-53552428D01*
X66391286Y-53659571D01*
X66391286Y-53731000D01*
X66427000Y-53838143D01*
X66462714Y-53873857D01*
X66391286Y-54552428D02*
X66391286Y-54195285D01*
X66748429Y-54159571D01*
X66712714Y-54195285D01*
X66677000Y-54266714D01*
X66677000Y-54445285D01*
X66712714Y-54516714D01*
X66748429Y-54552428D01*
X66819857Y-54588143D01*
X66998429Y-54588143D01*
X67069857Y-54552428D01*
X67105571Y-54516714D01*
X67141286Y-54445285D01*
X67141286Y-54266714D01*
X67105571Y-54195285D01*
X67069857Y-54159571D01*
X66641286Y-55231000D02*
X67141286Y-55231000D01*
X66355571Y-55052429D02*
X66891286Y-54873857D01*
X66891286Y-55338143D01*
X91199857Y-53873857D02*
X91235571Y-53838143D01*
X91271286Y-53731000D01*
X91271286Y-53659571D01*
X91235571Y-53552428D01*
X91164143Y-53481000D01*
X91092714Y-53445285D01*
X90949857Y-53409571D01*
X90842714Y-53409571D01*
X90699857Y-53445285D01*
X90628429Y-53481000D01*
X90557000Y-53552428D01*
X90521286Y-53659571D01*
X90521286Y-53731000D01*
X90557000Y-53838143D01*
X90592714Y-53873857D01*
X90521286Y-54552428D02*
X90521286Y-54195285D01*
X90878429Y-54159571D01*
X90842714Y-54195285D01*
X90807000Y-54266714D01*
X90807000Y-54445285D01*
X90842714Y-54516714D01*
X90878429Y-54552428D01*
X90949857Y-54588143D01*
X91128429Y-54588143D01*
X91199857Y-54552428D01*
X91235571Y-54516714D01*
X91271286Y-54445285D01*
X91271286Y-54266714D01*
X91235571Y-54195285D01*
X91199857Y-54159571D01*
X90521286Y-55266714D02*
X90521286Y-54909571D01*
X90878429Y-54873857D01*
X90842714Y-54909571D01*
X90807000Y-54981000D01*
X90807000Y-55159571D01*
X90842714Y-55231000D01*
X90878429Y-55266714D01*
X90949857Y-55302429D01*
X91128429Y-55302429D01*
X91199857Y-55266714D01*
X91235571Y-55231000D01*
X91271286Y-55159571D01*
X91271286Y-54981000D01*
X91235571Y-54909571D01*
X91199857Y-54873857D01*
X111265857Y-73328714D02*
X111301571Y-73293000D01*
X111337286Y-73185857D01*
X111337286Y-73114428D01*
X111301571Y-73007285D01*
X111230143Y-72935857D01*
X111158714Y-72900142D01*
X111015857Y-72864428D01*
X110908714Y-72864428D01*
X110765857Y-72900142D01*
X110694429Y-72935857D01*
X110623000Y-73007285D01*
X110587286Y-73114428D01*
X110587286Y-73185857D01*
X110623000Y-73293000D01*
X110658714Y-73328714D01*
X110837286Y-73971571D02*
X111337286Y-73971571D01*
X110551571Y-73793000D02*
X111087286Y-73614428D01*
X111087286Y-74078714D01*
X110587286Y-74507286D02*
X110587286Y-74578714D01*
X110623000Y-74650143D01*
X110658714Y-74685857D01*
X110730143Y-74721571D01*
X110873000Y-74757286D01*
X111051571Y-74757286D01*
X111194429Y-74721571D01*
X111265857Y-74685857D01*
X111301571Y-74650143D01*
X111337286Y-74578714D01*
X111337286Y-74507286D01*
X111301571Y-74435857D01*
X111265857Y-74400143D01*
X111194429Y-74364428D01*
X111051571Y-74328714D01*
X110873000Y-74328714D01*
X110730143Y-74364428D01*
X110658714Y-74400143D01*
X110623000Y-74435857D01*
X110587286Y-74507286D01*
X111337286Y-75471572D02*
X111337286Y-75043000D01*
X111337286Y-75257286D02*
X110587286Y-75257286D01*
X110694429Y-75185857D01*
X110765857Y-75114429D01*
X110801571Y-75043000D01*
X40725286Y-60660428D02*
X39975286Y-60660428D01*
X39975286Y-60839000D01*
X40011000Y-60946143D01*
X40082429Y-61017571D01*
X40153857Y-61053286D01*
X40296714Y-61089000D01*
X40403857Y-61089000D01*
X40546714Y-61053286D01*
X40618143Y-61017571D01*
X40689571Y-60946143D01*
X40725286Y-60839000D01*
X40725286Y-60660428D01*
X40225286Y-61731857D02*
X40725286Y-61731857D01*
X39939571Y-61553286D02*
X40475286Y-61374714D01*
X40475286Y-61839000D01*
X56981286Y-60406428D02*
X56231286Y-60406428D01*
X56231286Y-60585000D01*
X56267000Y-60692143D01*
X56338429Y-60763571D01*
X56409857Y-60799286D01*
X56552714Y-60835000D01*
X56659857Y-60835000D01*
X56802714Y-60799286D01*
X56874143Y-60763571D01*
X56945571Y-60692143D01*
X56981286Y-60585000D01*
X56981286Y-60406428D01*
X56231286Y-61513571D02*
X56231286Y-61156428D01*
X56588429Y-61120714D01*
X56552714Y-61156428D01*
X56517000Y-61227857D01*
X56517000Y-61406428D01*
X56552714Y-61477857D01*
X56588429Y-61513571D01*
X56659857Y-61549286D01*
X56838429Y-61549286D01*
X56909857Y-61513571D01*
X56945571Y-61477857D01*
X56981286Y-61406428D01*
X56981286Y-61227857D01*
X56945571Y-61156428D01*
X56909857Y-61120714D01*
X65363286Y-52278428D02*
X64613286Y-52278428D01*
X64613286Y-52457000D01*
X64649000Y-52564143D01*
X64720429Y-52635571D01*
X64791857Y-52671286D01*
X64934714Y-52707000D01*
X65041857Y-52707000D01*
X65184714Y-52671286D01*
X65256143Y-52635571D01*
X65327571Y-52564143D01*
X65363286Y-52457000D01*
X65363286Y-52278428D01*
X64613286Y-52957000D02*
X64613286Y-53457000D01*
X65363286Y-53135571D01*
X89493286Y-52278428D02*
X88743286Y-52278428D01*
X88743286Y-52457000D01*
X88779000Y-52564143D01*
X88850429Y-52635571D01*
X88921857Y-52671286D01*
X89064714Y-52707000D01*
X89171857Y-52707000D01*
X89314714Y-52671286D01*
X89386143Y-52635571D01*
X89457571Y-52564143D01*
X89493286Y-52457000D01*
X89493286Y-52278428D01*
X89493286Y-53064143D02*
X89493286Y-53207000D01*
X89457571Y-53278428D01*
X89421857Y-53314143D01*
X89314714Y-53385571D01*
X89171857Y-53421286D01*
X88886143Y-53421286D01*
X88814714Y-53385571D01*
X88779000Y-53349857D01*
X88743286Y-53278428D01*
X88743286Y-53135571D01*
X88779000Y-53064143D01*
X88814714Y-53028428D01*
X88886143Y-52992714D01*
X89064714Y-52992714D01*
X89136143Y-53028428D01*
X89171857Y-53064143D01*
X89207571Y-53135571D01*
X89207571Y-53278428D01*
X89171857Y-53349857D01*
X89136143Y-53385571D01*
X89064714Y-53421286D01*
X113699286Y-51794285D02*
X112949286Y-51794285D01*
X112949286Y-51972857D01*
X112985000Y-52080000D01*
X113056429Y-52151428D01*
X113127857Y-52187143D01*
X113270714Y-52222857D01*
X113377857Y-52222857D01*
X113520714Y-52187143D01*
X113592143Y-52151428D01*
X113663571Y-52080000D01*
X113699286Y-51972857D01*
X113699286Y-51794285D01*
X113699286Y-52937143D02*
X113699286Y-52508571D01*
X113699286Y-52722857D02*
X112949286Y-52722857D01*
X113056429Y-52651428D01*
X113127857Y-52580000D01*
X113163571Y-52508571D01*
X113699286Y-53651429D02*
X113699286Y-53222857D01*
X113699286Y-53437143D02*
X112949286Y-53437143D01*
X113056429Y-53365714D01*
X113127857Y-53294286D01*
X113163571Y-53222857D01*
X45043286Y-48365285D02*
X44293286Y-48365285D01*
X44293286Y-48543857D01*
X44329000Y-48651000D01*
X44400429Y-48722428D01*
X44471857Y-48758143D01*
X44614714Y-48793857D01*
X44721857Y-48793857D01*
X44864714Y-48758143D01*
X44936143Y-48722428D01*
X45007571Y-48651000D01*
X45043286Y-48543857D01*
X45043286Y-48365285D01*
X45043286Y-49508143D02*
X45043286Y-49079571D01*
X45043286Y-49293857D02*
X44293286Y-49293857D01*
X44400429Y-49222428D01*
X44471857Y-49151000D01*
X44507571Y-49079571D01*
X44543286Y-50151000D02*
X45043286Y-50151000D01*
X44257571Y-49972429D02*
X44793286Y-49793857D01*
X44793286Y-50258143D01*
X40217286Y-41507285D02*
X39467286Y-41507285D01*
X39467286Y-41685857D01*
X39503000Y-41793000D01*
X39574429Y-41864428D01*
X39645857Y-41900143D01*
X39788714Y-41935857D01*
X39895857Y-41935857D01*
X40038714Y-41900143D01*
X40110143Y-41864428D01*
X40181571Y-41793000D01*
X40217286Y-41685857D01*
X40217286Y-41507285D01*
X40217286Y-42650143D02*
X40217286Y-42221571D01*
X40217286Y-42435857D02*
X39467286Y-42435857D01*
X39574429Y-42364428D01*
X39645857Y-42293000D01*
X39681571Y-42221571D01*
X39467286Y-43328714D02*
X39467286Y-42971571D01*
X39824429Y-42935857D01*
X39788714Y-42971571D01*
X39753000Y-43043000D01*
X39753000Y-43221571D01*
X39788714Y-43293000D01*
X39824429Y-43328714D01*
X39895857Y-43364429D01*
X40074429Y-43364429D01*
X40145857Y-43328714D01*
X40181571Y-43293000D01*
X40217286Y-43221571D01*
X40217286Y-43043000D01*
X40181571Y-42971571D01*
X40145857Y-42935857D01*
X69173286Y-45063285D02*
X68423286Y-45063285D01*
X68423286Y-45241857D01*
X68459000Y-45349000D01*
X68530429Y-45420428D01*
X68601857Y-45456143D01*
X68744714Y-45491857D01*
X68851857Y-45491857D01*
X68994714Y-45456143D01*
X69066143Y-45420428D01*
X69137571Y-45349000D01*
X69173286Y-45241857D01*
X69173286Y-45063285D01*
X69173286Y-46206143D02*
X69173286Y-45777571D01*
X69173286Y-45991857D02*
X68423286Y-45991857D01*
X68530429Y-45920428D01*
X68601857Y-45849000D01*
X68637571Y-45777571D01*
X68744714Y-46634714D02*
X68709000Y-46563286D01*
X68673286Y-46527571D01*
X68601857Y-46491857D01*
X68566143Y-46491857D01*
X68494714Y-46527571D01*
X68459000Y-46563286D01*
X68423286Y-46634714D01*
X68423286Y-46777571D01*
X68459000Y-46849000D01*
X68494714Y-46884714D01*
X68566143Y-46920429D01*
X68601857Y-46920429D01*
X68673286Y-46884714D01*
X68709000Y-46849000D01*
X68744714Y-46777571D01*
X68744714Y-46634714D01*
X68780429Y-46563286D01*
X68816143Y-46527571D01*
X68887571Y-46491857D01*
X69030429Y-46491857D01*
X69101857Y-46527571D01*
X69137571Y-46563286D01*
X69173286Y-46634714D01*
X69173286Y-46777571D01*
X69137571Y-46849000D01*
X69101857Y-46884714D01*
X69030429Y-46920429D01*
X68887571Y-46920429D01*
X68816143Y-46884714D01*
X68780429Y-46849000D01*
X68744714Y-46777571D01*
X64347286Y-41507285D02*
X63597286Y-41507285D01*
X63597286Y-41685857D01*
X63633000Y-41793000D01*
X63704429Y-41864428D01*
X63775857Y-41900143D01*
X63918714Y-41935857D01*
X64025857Y-41935857D01*
X64168714Y-41900143D01*
X64240143Y-41864428D01*
X64311571Y-41793000D01*
X64347286Y-41685857D01*
X64347286Y-41507285D01*
X64347286Y-42650143D02*
X64347286Y-42221571D01*
X64347286Y-42435857D02*
X63597286Y-42435857D01*
X63704429Y-42364428D01*
X63775857Y-42293000D01*
X63811571Y-42221571D01*
X64347286Y-43007286D02*
X64347286Y-43150143D01*
X64311571Y-43221571D01*
X64275857Y-43257286D01*
X64168714Y-43328714D01*
X64025857Y-43364429D01*
X63740143Y-43364429D01*
X63668714Y-43328714D01*
X63633000Y-43293000D01*
X63597286Y-43221571D01*
X63597286Y-43078714D01*
X63633000Y-43007286D01*
X63668714Y-42971571D01*
X63740143Y-42935857D01*
X63918714Y-42935857D01*
X63990143Y-42971571D01*
X64025857Y-43007286D01*
X64061571Y-43078714D01*
X64061571Y-43221571D01*
X64025857Y-43293000D01*
X63990143Y-43328714D01*
X63918714Y-43364429D01*
X93303286Y-45063285D02*
X92553286Y-45063285D01*
X92553286Y-45241857D01*
X92589000Y-45349000D01*
X92660429Y-45420428D01*
X92731857Y-45456143D01*
X92874714Y-45491857D01*
X92981857Y-45491857D01*
X93124714Y-45456143D01*
X93196143Y-45420428D01*
X93267571Y-45349000D01*
X93303286Y-45241857D01*
X93303286Y-45063285D01*
X92624714Y-45777571D02*
X92589000Y-45813285D01*
X92553286Y-45884714D01*
X92553286Y-46063285D01*
X92589000Y-46134714D01*
X92624714Y-46170428D01*
X92696143Y-46206143D01*
X92767571Y-46206143D01*
X92874714Y-46170428D01*
X93303286Y-45741857D01*
X93303286Y-46206143D01*
X92624714Y-46491857D02*
X92589000Y-46527571D01*
X92553286Y-46599000D01*
X92553286Y-46777571D01*
X92589000Y-46849000D01*
X92624714Y-46884714D01*
X92696143Y-46920429D01*
X92767571Y-46920429D01*
X92874714Y-46884714D01*
X93303286Y-46456143D01*
X93303286Y-46920429D01*
X88477286Y-41507285D02*
X87727286Y-41507285D01*
X87727286Y-41685857D01*
X87763000Y-41793000D01*
X87834429Y-41864428D01*
X87905857Y-41900143D01*
X88048714Y-41935857D01*
X88155857Y-41935857D01*
X88298714Y-41900143D01*
X88370143Y-41864428D01*
X88441571Y-41793000D01*
X88477286Y-41685857D01*
X88477286Y-41507285D01*
X87798714Y-42221571D02*
X87763000Y-42257285D01*
X87727286Y-42328714D01*
X87727286Y-42507285D01*
X87763000Y-42578714D01*
X87798714Y-42614428D01*
X87870143Y-42650143D01*
X87941571Y-42650143D01*
X88048714Y-42614428D01*
X88477286Y-42185857D01*
X88477286Y-42650143D01*
X87727286Y-42900143D02*
X87727286Y-43364429D01*
X88013000Y-43114429D01*
X88013000Y-43221571D01*
X88048714Y-43293000D01*
X88084429Y-43328714D01*
X88155857Y-43364429D01*
X88334429Y-43364429D01*
X88405857Y-43328714D01*
X88441571Y-43293000D01*
X88477286Y-43221571D01*
X88477286Y-43007286D01*
X88441571Y-42935857D01*
X88405857Y-42900143D01*
X46353000Y-67649286D02*
X46710143Y-67649286D01*
X46710143Y-66899286D01*
X45710142Y-67649286D02*
X46138714Y-67649286D01*
X45924428Y-67649286D02*
X45924428Y-66899286D01*
X45995857Y-67006429D01*
X46067285Y-67077857D01*
X46138714Y-67113571D01*
X110107000Y-58759286D02*
X110357000Y-58402143D01*
X110535572Y-58759286D02*
X110535572Y-58009286D01*
X110249857Y-58009286D01*
X110178429Y-58045000D01*
X110142714Y-58080714D01*
X110107000Y-58152143D01*
X110107000Y-58259286D01*
X110142714Y-58330714D01*
X110178429Y-58366429D01*
X110249857Y-58402143D01*
X110535572Y-58402143D01*
X109857000Y-58009286D02*
X109392714Y-58009286D01*
X109642714Y-58295000D01*
X109535572Y-58295000D01*
X109464143Y-58330714D01*
X109428429Y-58366429D01*
X109392714Y-58437857D01*
X109392714Y-58616429D01*
X109428429Y-58687857D01*
X109464143Y-58723571D01*
X109535572Y-58759286D01*
X109749857Y-58759286D01*
X109821286Y-58723571D01*
X109857000Y-58687857D01*
X110107000Y-60029286D02*
X110357000Y-59672143D01*
X110535572Y-60029286D02*
X110535572Y-59279286D01*
X110249857Y-59279286D01*
X110178429Y-59315000D01*
X110142714Y-59350714D01*
X110107000Y-59422143D01*
X110107000Y-59529286D01*
X110142714Y-59600714D01*
X110178429Y-59636429D01*
X110249857Y-59672143D01*
X110535572Y-59672143D01*
X109464143Y-59529286D02*
X109464143Y-60029286D01*
X109642714Y-59243571D02*
X109821286Y-59779286D01*
X109357000Y-59779286D01*
X115147286Y-69979000D02*
X114790143Y-69729000D01*
X115147286Y-69550428D02*
X114397286Y-69550428D01*
X114397286Y-69836143D01*
X114433000Y-69907571D01*
X114468714Y-69943286D01*
X114540143Y-69979000D01*
X114647286Y-69979000D01*
X114718714Y-69943286D01*
X114754429Y-69907571D01*
X114790143Y-69836143D01*
X114790143Y-69550428D01*
X114397286Y-70657571D02*
X114397286Y-70300428D01*
X114754429Y-70264714D01*
X114718714Y-70300428D01*
X114683000Y-70371857D01*
X114683000Y-70550428D01*
X114718714Y-70621857D01*
X114754429Y-70657571D01*
X114825857Y-70693286D01*
X115004429Y-70693286D01*
X115075857Y-70657571D01*
X115111571Y-70621857D01*
X115147286Y-70550428D01*
X115147286Y-70371857D01*
X115111571Y-70300428D01*
X115075857Y-70264714D01*
X98891286Y-84457000D02*
X98534143Y-84207000D01*
X98891286Y-84028428D02*
X98141286Y-84028428D01*
X98141286Y-84314143D01*
X98177000Y-84385571D01*
X98212714Y-84421286D01*
X98284143Y-84457000D01*
X98391286Y-84457000D01*
X98462714Y-84421286D01*
X98498429Y-84385571D01*
X98534143Y-84314143D01*
X98534143Y-84028428D01*
X98141286Y-84707000D02*
X98141286Y-85207000D01*
X98891286Y-84885571D01*
X91779286Y-84099857D02*
X91422143Y-83849857D01*
X91779286Y-83671285D02*
X91029286Y-83671285D01*
X91029286Y-83957000D01*
X91065000Y-84028428D01*
X91100714Y-84064143D01*
X91172143Y-84099857D01*
X91279286Y-84099857D01*
X91350714Y-84064143D01*
X91386429Y-84028428D01*
X91422143Y-83957000D01*
X91422143Y-83671285D01*
X91779286Y-84814143D02*
X91779286Y-84385571D01*
X91779286Y-84599857D02*
X91029286Y-84599857D01*
X91136429Y-84528428D01*
X91207857Y-84457000D01*
X91243571Y-84385571D01*
X91779286Y-85528429D02*
X91779286Y-85099857D01*
X91779286Y-85314143D02*
X91029286Y-85314143D01*
X91136429Y-85242714D01*
X91207857Y-85171286D01*
X91243571Y-85099857D01*
X98891286Y-81559857D02*
X98534143Y-81309857D01*
X98891286Y-81131285D02*
X98141286Y-81131285D01*
X98141286Y-81417000D01*
X98177000Y-81488428D01*
X98212714Y-81524143D01*
X98284143Y-81559857D01*
X98391286Y-81559857D01*
X98462714Y-81524143D01*
X98498429Y-81488428D01*
X98534143Y-81417000D01*
X98534143Y-81131285D01*
X98891286Y-82274143D02*
X98891286Y-81845571D01*
X98891286Y-82059857D02*
X98141286Y-82059857D01*
X98248429Y-81988428D01*
X98319857Y-81917000D01*
X98355571Y-81845571D01*
X98212714Y-82559857D02*
X98177000Y-82595571D01*
X98141286Y-82667000D01*
X98141286Y-82845571D01*
X98177000Y-82917000D01*
X98212714Y-82952714D01*
X98284143Y-82988429D01*
X98355571Y-82988429D01*
X98462714Y-82952714D01*
X98891286Y-82524143D01*
X98891286Y-82988429D01*
X91779286Y-79781857D02*
X91422143Y-79531857D01*
X91779286Y-79353285D02*
X91029286Y-79353285D01*
X91029286Y-79639000D01*
X91065000Y-79710428D01*
X91100714Y-79746143D01*
X91172143Y-79781857D01*
X91279286Y-79781857D01*
X91350714Y-79746143D01*
X91386429Y-79710428D01*
X91422143Y-79639000D01*
X91422143Y-79353285D01*
X91779286Y-80496143D02*
X91779286Y-80067571D01*
X91779286Y-80281857D02*
X91029286Y-80281857D01*
X91136429Y-80210428D01*
X91207857Y-80139000D01*
X91243571Y-80067571D01*
X91029286Y-80746143D02*
X91029286Y-81210429D01*
X91315000Y-80960429D01*
X91315000Y-81067571D01*
X91350714Y-81139000D01*
X91386429Y-81174714D01*
X91457857Y-81210429D01*
X91636429Y-81210429D01*
X91707857Y-81174714D01*
X91743571Y-81139000D01*
X91779286Y-81067571D01*
X91779286Y-80853286D01*
X91743571Y-80781857D01*
X91707857Y-80746143D01*
X46964143Y-38439286D02*
X47214143Y-38082143D01*
X47392715Y-38439286D02*
X47392715Y-37689286D01*
X47107000Y-37689286D01*
X47035572Y-37725000D01*
X46999857Y-37760714D01*
X46964143Y-37832143D01*
X46964143Y-37939286D01*
X46999857Y-38010714D01*
X47035572Y-38046429D01*
X47107000Y-38082143D01*
X47392715Y-38082143D01*
X46249857Y-38439286D02*
X46678429Y-38439286D01*
X46464143Y-38439286D02*
X46464143Y-37689286D01*
X46535572Y-37796429D01*
X46607000Y-37867857D01*
X46678429Y-37903571D01*
X45571286Y-37689286D02*
X45928429Y-37689286D01*
X45964143Y-38046429D01*
X45928429Y-38010714D01*
X45857000Y-37975000D01*
X45678429Y-37975000D01*
X45607000Y-38010714D01*
X45571286Y-38046429D01*
X45535571Y-38117857D01*
X45535571Y-38296429D01*
X45571286Y-38367857D01*
X45607000Y-38403571D01*
X45678429Y-38439286D01*
X45857000Y-38439286D01*
X45928429Y-38403571D01*
X45964143Y-38367857D01*
X66633286Y-71399857D02*
X66276143Y-71149857D01*
X66633286Y-70971285D02*
X65883286Y-70971285D01*
X65883286Y-71257000D01*
X65919000Y-71328428D01*
X65954714Y-71364143D01*
X66026143Y-71399857D01*
X66133286Y-71399857D01*
X66204714Y-71364143D01*
X66240429Y-71328428D01*
X66276143Y-71257000D01*
X66276143Y-70971285D01*
X66633286Y-72114143D02*
X66633286Y-71685571D01*
X66633286Y-71899857D02*
X65883286Y-71899857D01*
X65990429Y-71828428D01*
X66061857Y-71757000D01*
X66097571Y-71685571D01*
X66633286Y-72471286D02*
X66633286Y-72614143D01*
X66597571Y-72685571D01*
X66561857Y-72721286D01*
X66454714Y-72792714D01*
X66311857Y-72828429D01*
X66026143Y-72828429D01*
X65954714Y-72792714D01*
X65919000Y-72757000D01*
X65883286Y-72685571D01*
X65883286Y-72542714D01*
X65919000Y-72471286D01*
X65954714Y-72435571D01*
X66026143Y-72399857D01*
X66204714Y-72399857D01*
X66276143Y-72435571D01*
X66311857Y-72471286D01*
X66347571Y-72542714D01*
X66347571Y-72685571D01*
X66311857Y-72757000D01*
X66276143Y-72792714D01*
X66204714Y-72828429D01*
X63839286Y-73939857D02*
X63482143Y-73689857D01*
X63839286Y-73511285D02*
X63089286Y-73511285D01*
X63089286Y-73797000D01*
X63125000Y-73868428D01*
X63160714Y-73904143D01*
X63232143Y-73939857D01*
X63339286Y-73939857D01*
X63410714Y-73904143D01*
X63446429Y-73868428D01*
X63482143Y-73797000D01*
X63482143Y-73511285D01*
X63160714Y-74225571D02*
X63125000Y-74261285D01*
X63089286Y-74332714D01*
X63089286Y-74511285D01*
X63125000Y-74582714D01*
X63160714Y-74618428D01*
X63232143Y-74654143D01*
X63303571Y-74654143D01*
X63410714Y-74618428D01*
X63839286Y-74189857D01*
X63839286Y-74654143D01*
X63089286Y-75118429D02*
X63089286Y-75189857D01*
X63125000Y-75261286D01*
X63160714Y-75297000D01*
X63232143Y-75332714D01*
X63375000Y-75368429D01*
X63553571Y-75368429D01*
X63696429Y-75332714D01*
X63767857Y-75297000D01*
X63803571Y-75261286D01*
X63839286Y-75189857D01*
X63839286Y-75118429D01*
X63803571Y-75047000D01*
X63767857Y-75011286D01*
X63696429Y-74975571D01*
X63553571Y-74939857D01*
X63375000Y-74939857D01*
X63232143Y-74975571D01*
X63160714Y-75011286D01*
X63125000Y-75047000D01*
X63089286Y-75118429D01*
X60934143Y-68411286D02*
X61184143Y-68054143D01*
X61362715Y-68411286D02*
X61362715Y-67661286D01*
X61077000Y-67661286D01*
X61005572Y-67697000D01*
X60969857Y-67732714D01*
X60934143Y-67804143D01*
X60934143Y-67911286D01*
X60969857Y-67982714D01*
X61005572Y-68018429D01*
X61077000Y-68054143D01*
X61362715Y-68054143D01*
X60648429Y-67732714D02*
X60612715Y-67697000D01*
X60541286Y-67661286D01*
X60362715Y-67661286D01*
X60291286Y-67697000D01*
X60255572Y-67732714D01*
X60219857Y-67804143D01*
X60219857Y-67875571D01*
X60255572Y-67982714D01*
X60684143Y-68411286D01*
X60219857Y-68411286D01*
X59505571Y-68411286D02*
X59934143Y-68411286D01*
X59719857Y-68411286D02*
X59719857Y-67661286D01*
X59791286Y-67768429D01*
X59862714Y-67839857D01*
X59934143Y-67875571D01*
X95732143Y-54441286D02*
X95982143Y-54084143D01*
X96160715Y-54441286D02*
X96160715Y-53691286D01*
X95875000Y-53691286D01*
X95803572Y-53727000D01*
X95767857Y-53762714D01*
X95732143Y-53834143D01*
X95732143Y-53941286D01*
X95767857Y-54012714D01*
X95803572Y-54048429D01*
X95875000Y-54084143D01*
X96160715Y-54084143D01*
X95446429Y-53762714D02*
X95410715Y-53727000D01*
X95339286Y-53691286D01*
X95160715Y-53691286D01*
X95089286Y-53727000D01*
X95053572Y-53762714D01*
X95017857Y-53834143D01*
X95017857Y-53905571D01*
X95053572Y-54012714D01*
X95482143Y-54441286D01*
X95017857Y-54441286D01*
X94767857Y-53691286D02*
X94303571Y-53691286D01*
X94553571Y-53977000D01*
X94446429Y-53977000D01*
X94375000Y-54012714D01*
X94339286Y-54048429D01*
X94303571Y-54119857D01*
X94303571Y-54298429D01*
X94339286Y-54369857D01*
X94375000Y-54405571D01*
X94446429Y-54441286D01*
X94660714Y-54441286D01*
X94732143Y-54405571D01*
X94767857Y-54369857D01*
X71459286Y-66319857D02*
X71102143Y-66069857D01*
X71459286Y-65891285D02*
X70709286Y-65891285D01*
X70709286Y-66177000D01*
X70745000Y-66248428D01*
X70780714Y-66284143D01*
X70852143Y-66319857D01*
X70959286Y-66319857D01*
X71030714Y-66284143D01*
X71066429Y-66248428D01*
X71102143Y-66177000D01*
X71102143Y-65891285D01*
X70780714Y-66605571D02*
X70745000Y-66641285D01*
X70709286Y-66712714D01*
X70709286Y-66891285D01*
X70745000Y-66962714D01*
X70780714Y-66998428D01*
X70852143Y-67034143D01*
X70923571Y-67034143D01*
X71030714Y-66998428D01*
X71459286Y-66569857D01*
X71459286Y-67034143D01*
X70709286Y-67712714D02*
X70709286Y-67355571D01*
X71066429Y-67319857D01*
X71030714Y-67355571D01*
X70995000Y-67427000D01*
X70995000Y-67605571D01*
X71030714Y-67677000D01*
X71066429Y-67712714D01*
X71137857Y-67748429D01*
X71316429Y-67748429D01*
X71387857Y-67712714D01*
X71423571Y-67677000D01*
X71459286Y-67605571D01*
X71459286Y-67427000D01*
X71423571Y-67355571D01*
X71387857Y-67319857D01*
X71602143Y-54441286D02*
X71852143Y-54084143D01*
X72030715Y-54441286D02*
X72030715Y-53691286D01*
X71745000Y-53691286D01*
X71673572Y-53727000D01*
X71637857Y-53762714D01*
X71602143Y-53834143D01*
X71602143Y-53941286D01*
X71637857Y-54012714D01*
X71673572Y-54048429D01*
X71745000Y-54084143D01*
X72030715Y-54084143D01*
X71316429Y-53762714D02*
X71280715Y-53727000D01*
X71209286Y-53691286D01*
X71030715Y-53691286D01*
X70959286Y-53727000D01*
X70923572Y-53762714D01*
X70887857Y-53834143D01*
X70887857Y-53905571D01*
X70923572Y-54012714D01*
X71352143Y-54441286D01*
X70887857Y-54441286D01*
X70245000Y-53691286D02*
X70387857Y-53691286D01*
X70459286Y-53727000D01*
X70495000Y-53762714D01*
X70566429Y-53869857D01*
X70602143Y-54012714D01*
X70602143Y-54298429D01*
X70566429Y-54369857D01*
X70530714Y-54405571D01*
X70459286Y-54441286D01*
X70316429Y-54441286D01*
X70245000Y-54405571D01*
X70209286Y-54369857D01*
X70173571Y-54298429D01*
X70173571Y-54119857D01*
X70209286Y-54048429D01*
X70245000Y-54012714D01*
X70316429Y-53977000D01*
X70459286Y-53977000D01*
X70530714Y-54012714D01*
X70566429Y-54048429D01*
X70602143Y-54119857D01*
X61442143Y-55457286D02*
X61692143Y-55100143D01*
X61870715Y-55457286D02*
X61870715Y-54707286D01*
X61585000Y-54707286D01*
X61513572Y-54743000D01*
X61477857Y-54778714D01*
X61442143Y-54850143D01*
X61442143Y-54957286D01*
X61477857Y-55028714D01*
X61513572Y-55064429D01*
X61585000Y-55100143D01*
X61870715Y-55100143D01*
X61156429Y-54778714D02*
X61120715Y-54743000D01*
X61049286Y-54707286D01*
X60870715Y-54707286D01*
X60799286Y-54743000D01*
X60763572Y-54778714D01*
X60727857Y-54850143D01*
X60727857Y-54921571D01*
X60763572Y-55028714D01*
X61192143Y-55457286D01*
X60727857Y-55457286D01*
X60370714Y-55457286D02*
X60227857Y-55457286D01*
X60156429Y-55421571D01*
X60120714Y-55385857D01*
X60049286Y-55278714D01*
X60013571Y-55135857D01*
X60013571Y-54850143D01*
X60049286Y-54778714D01*
X60085000Y-54743000D01*
X60156429Y-54707286D01*
X60299286Y-54707286D01*
X60370714Y-54743000D01*
X60406429Y-54778714D01*
X60442143Y-54850143D01*
X60442143Y-55028714D01*
X60406429Y-55100143D01*
X60370714Y-55135857D01*
X60299286Y-55171571D01*
X60156429Y-55171571D01*
X60085000Y-55135857D01*
X60049286Y-55100143D01*
X60013571Y-55028714D01*
X62823286Y-49047857D02*
X62466143Y-48797857D01*
X62823286Y-48619285D02*
X62073286Y-48619285D01*
X62073286Y-48905000D01*
X62109000Y-48976428D01*
X62144714Y-49012143D01*
X62216143Y-49047857D01*
X62323286Y-49047857D01*
X62394714Y-49012143D01*
X62430429Y-48976428D01*
X62466143Y-48905000D01*
X62466143Y-48619285D01*
X62073286Y-49297857D02*
X62073286Y-49762143D01*
X62359000Y-49512143D01*
X62359000Y-49619285D01*
X62394714Y-49690714D01*
X62430429Y-49726428D01*
X62501857Y-49762143D01*
X62680429Y-49762143D01*
X62751857Y-49726428D01*
X62787571Y-49690714D01*
X62823286Y-49619285D01*
X62823286Y-49405000D01*
X62787571Y-49333571D01*
X62751857Y-49297857D01*
X62073286Y-50226429D02*
X62073286Y-50297857D01*
X62109000Y-50369286D01*
X62144714Y-50405000D01*
X62216143Y-50440714D01*
X62359000Y-50476429D01*
X62537571Y-50476429D01*
X62680429Y-50440714D01*
X62751857Y-50405000D01*
X62787571Y-50369286D01*
X62823286Y-50297857D01*
X62823286Y-50226429D01*
X62787571Y-50155000D01*
X62751857Y-50119286D01*
X62680429Y-50083571D01*
X62537571Y-50047857D01*
X62359000Y-50047857D01*
X62216143Y-50083571D01*
X62144714Y-50119286D01*
X62109000Y-50155000D01*
X62073286Y-50226429D01*
X69062143Y-38379286D02*
X69312143Y-38022143D01*
X69490715Y-38379286D02*
X69490715Y-37629286D01*
X69205000Y-37629286D01*
X69133572Y-37665000D01*
X69097857Y-37700714D01*
X69062143Y-37772143D01*
X69062143Y-37879286D01*
X69097857Y-37950714D01*
X69133572Y-37986429D01*
X69205000Y-38022143D01*
X69490715Y-38022143D01*
X68812143Y-37629286D02*
X68347857Y-37629286D01*
X68597857Y-37915000D01*
X68490715Y-37915000D01*
X68419286Y-37950714D01*
X68383572Y-37986429D01*
X68347857Y-38057857D01*
X68347857Y-38236429D01*
X68383572Y-38307857D01*
X68419286Y-38343571D01*
X68490715Y-38379286D01*
X68705000Y-38379286D01*
X68776429Y-38343571D01*
X68812143Y-38307857D01*
X67633571Y-38379286D02*
X68062143Y-38379286D01*
X67847857Y-38379286D02*
X67847857Y-37629286D01*
X67919286Y-37736429D01*
X67990714Y-37807857D01*
X68062143Y-37843571D01*
X44281286Y-53619857D02*
X43924143Y-53369857D01*
X44281286Y-53191285D02*
X43531286Y-53191285D01*
X43531286Y-53477000D01*
X43567000Y-53548428D01*
X43602714Y-53584143D01*
X43674143Y-53619857D01*
X43781286Y-53619857D01*
X43852714Y-53584143D01*
X43888429Y-53548428D01*
X43924143Y-53477000D01*
X43924143Y-53191285D01*
X43531286Y-53869857D02*
X43531286Y-54334143D01*
X43817000Y-54084143D01*
X43817000Y-54191285D01*
X43852714Y-54262714D01*
X43888429Y-54298428D01*
X43959857Y-54334143D01*
X44138429Y-54334143D01*
X44209857Y-54298428D01*
X44245571Y-54262714D01*
X44281286Y-54191285D01*
X44281286Y-53977000D01*
X44245571Y-53905571D01*
X44209857Y-53869857D01*
X43602714Y-54619857D02*
X43567000Y-54655571D01*
X43531286Y-54727000D01*
X43531286Y-54905571D01*
X43567000Y-54977000D01*
X43602714Y-55012714D01*
X43674143Y-55048429D01*
X43745571Y-55048429D01*
X43852714Y-55012714D01*
X44281286Y-54584143D01*
X44281286Y-55048429D01*
X85318143Y-55457286D02*
X85568143Y-55100143D01*
X85746715Y-55457286D02*
X85746715Y-54707286D01*
X85461000Y-54707286D01*
X85389572Y-54743000D01*
X85353857Y-54778714D01*
X85318143Y-54850143D01*
X85318143Y-54957286D01*
X85353857Y-55028714D01*
X85389572Y-55064429D01*
X85461000Y-55100143D01*
X85746715Y-55100143D01*
X85068143Y-54707286D02*
X84603857Y-54707286D01*
X84853857Y-54993000D01*
X84746715Y-54993000D01*
X84675286Y-55028714D01*
X84639572Y-55064429D01*
X84603857Y-55135857D01*
X84603857Y-55314429D01*
X84639572Y-55385857D01*
X84675286Y-55421571D01*
X84746715Y-55457286D01*
X84961000Y-55457286D01*
X85032429Y-55421571D01*
X85068143Y-55385857D01*
X83925286Y-54707286D02*
X84282429Y-54707286D01*
X84318143Y-55064429D01*
X84282429Y-55028714D01*
X84211000Y-54993000D01*
X84032429Y-54993000D01*
X83961000Y-55028714D01*
X83925286Y-55064429D01*
X83889571Y-55135857D01*
X83889571Y-55314429D01*
X83925286Y-55385857D01*
X83961000Y-55421571D01*
X84032429Y-55457286D01*
X84211000Y-55457286D01*
X84282429Y-55421571D01*
X84318143Y-55385857D01*
X86953286Y-49301857D02*
X86596143Y-49051857D01*
X86953286Y-48873285D02*
X86203286Y-48873285D01*
X86203286Y-49159000D01*
X86239000Y-49230428D01*
X86274714Y-49266143D01*
X86346143Y-49301857D01*
X86453286Y-49301857D01*
X86524714Y-49266143D01*
X86560429Y-49230428D01*
X86596143Y-49159000D01*
X86596143Y-48873285D01*
X86203286Y-49551857D02*
X86203286Y-50016143D01*
X86489000Y-49766143D01*
X86489000Y-49873285D01*
X86524714Y-49944714D01*
X86560429Y-49980428D01*
X86631857Y-50016143D01*
X86810429Y-50016143D01*
X86881857Y-49980428D01*
X86917571Y-49944714D01*
X86953286Y-49873285D01*
X86953286Y-49659000D01*
X86917571Y-49587571D01*
X86881857Y-49551857D01*
X86203286Y-50659000D02*
X86203286Y-50516143D01*
X86239000Y-50444714D01*
X86274714Y-50409000D01*
X86381857Y-50337571D01*
X86524714Y-50301857D01*
X86810429Y-50301857D01*
X86881857Y-50337571D01*
X86917571Y-50373286D01*
X86953286Y-50444714D01*
X86953286Y-50587571D01*
X86917571Y-50659000D01*
X86881857Y-50694714D01*
X86810429Y-50730429D01*
X86631857Y-50730429D01*
X86560429Y-50694714D01*
X86524714Y-50659000D01*
X86489000Y-50587571D01*
X86489000Y-50444714D01*
X86524714Y-50373286D01*
X86560429Y-50337571D01*
X86631857Y-50301857D01*
X93192143Y-37871286D02*
X93442143Y-37514143D01*
X93620715Y-37871286D02*
X93620715Y-37121286D01*
X93335000Y-37121286D01*
X93263572Y-37157000D01*
X93227857Y-37192714D01*
X93192143Y-37264143D01*
X93192143Y-37371286D01*
X93227857Y-37442714D01*
X93263572Y-37478429D01*
X93335000Y-37514143D01*
X93620715Y-37514143D01*
X92549286Y-37371286D02*
X92549286Y-37871286D01*
X92727857Y-37085571D02*
X92906429Y-37621286D01*
X92442143Y-37621286D01*
X92013571Y-37121286D02*
X91942143Y-37121286D01*
X91870714Y-37157000D01*
X91835000Y-37192714D01*
X91799286Y-37264143D01*
X91763571Y-37407000D01*
X91763571Y-37585571D01*
X91799286Y-37728429D01*
X91835000Y-37799857D01*
X91870714Y-37835571D01*
X91942143Y-37871286D01*
X92013571Y-37871286D01*
X92085000Y-37835571D01*
X92120714Y-37799857D01*
X92156429Y-37728429D01*
X92192143Y-37585571D01*
X92192143Y-37407000D01*
X92156429Y-37264143D01*
X92120714Y-37192714D01*
X92085000Y-37157000D01*
X92013571Y-37121286D01*
X109956143Y-56981286D02*
X110206143Y-56624143D01*
X110384715Y-56981286D02*
X110384715Y-56231286D01*
X110099000Y-56231286D01*
X110027572Y-56267000D01*
X109991857Y-56302714D01*
X109956143Y-56374143D01*
X109956143Y-56481286D01*
X109991857Y-56552714D01*
X110027572Y-56588429D01*
X110099000Y-56624143D01*
X110384715Y-56624143D01*
X109313286Y-56481286D02*
X109313286Y-56981286D01*
X109491857Y-56195571D02*
X109670429Y-56731286D01*
X109206143Y-56731286D01*
X108991857Y-56231286D02*
X108527571Y-56231286D01*
X108777571Y-56517000D01*
X108670429Y-56517000D01*
X108599000Y-56552714D01*
X108563286Y-56588429D01*
X108527571Y-56659857D01*
X108527571Y-56838429D01*
X108563286Y-56909857D01*
X108599000Y-56945571D01*
X108670429Y-56981286D01*
X108884714Y-56981286D01*
X108956143Y-56945571D01*
X108991857Y-56909857D01*
X111083286Y-49047857D02*
X110726143Y-48797857D01*
X111083286Y-48619285D02*
X110333286Y-48619285D01*
X110333286Y-48905000D01*
X110369000Y-48976428D01*
X110404714Y-49012143D01*
X110476143Y-49047857D01*
X110583286Y-49047857D01*
X110654714Y-49012143D01*
X110690429Y-48976428D01*
X110726143Y-48905000D01*
X110726143Y-48619285D01*
X110583286Y-49690714D02*
X111083286Y-49690714D01*
X110297571Y-49512143D02*
X110833286Y-49333571D01*
X110833286Y-49797857D01*
X110333286Y-50405000D02*
X110333286Y-50262143D01*
X110369000Y-50190714D01*
X110404714Y-50155000D01*
X110511857Y-50083571D01*
X110654714Y-50047857D01*
X110940429Y-50047857D01*
X111011857Y-50083571D01*
X111047571Y-50119286D01*
X111083286Y-50190714D01*
X111083286Y-50333571D01*
X111047571Y-50405000D01*
X111011857Y-50440714D01*
X110940429Y-50476429D01*
X110761857Y-50476429D01*
X110690429Y-50440714D01*
X110654714Y-50405000D01*
X110619000Y-50333571D01*
X110619000Y-50190714D01*
X110654714Y-50119286D01*
X110690429Y-50083571D01*
X110761857Y-50047857D01*
X62712143Y-66633286D02*
X62962143Y-66276143D01*
X63140715Y-66633286D02*
X63140715Y-65883286D01*
X62855000Y-65883286D01*
X62783572Y-65919000D01*
X62747857Y-65954714D01*
X62712143Y-66026143D01*
X62712143Y-66133286D01*
X62747857Y-66204714D01*
X62783572Y-66240429D01*
X62855000Y-66276143D01*
X63140715Y-66276143D01*
X62033572Y-65883286D02*
X62390715Y-65883286D01*
X62426429Y-66240429D01*
X62390715Y-66204714D01*
X62319286Y-66169000D01*
X62140715Y-66169000D01*
X62069286Y-66204714D01*
X62033572Y-66240429D01*
X61997857Y-66311857D01*
X61997857Y-66490429D01*
X62033572Y-66561857D01*
X62069286Y-66597571D01*
X62140715Y-66633286D01*
X62319286Y-66633286D01*
X62390715Y-66597571D01*
X62426429Y-66561857D01*
X61533571Y-65883286D02*
X61462143Y-65883286D01*
X61390714Y-65919000D01*
X61355000Y-65954714D01*
X61319286Y-66026143D01*
X61283571Y-66169000D01*
X61283571Y-66347571D01*
X61319286Y-66490429D01*
X61355000Y-66561857D01*
X61390714Y-66597571D01*
X61462143Y-66633286D01*
X61533571Y-66633286D01*
X61605000Y-66597571D01*
X61640714Y-66561857D01*
X61676429Y-66490429D01*
X61712143Y-66347571D01*
X61712143Y-66169000D01*
X61676429Y-66026143D01*
X61640714Y-65954714D01*
X61605000Y-65919000D01*
X61533571Y-65883286D01*
X73380143Y-62061286D02*
X73630143Y-61704143D01*
X73808715Y-62061286D02*
X73808715Y-61311286D01*
X73523000Y-61311286D01*
X73451572Y-61347000D01*
X73415857Y-61382714D01*
X73380143Y-61454143D01*
X73380143Y-61561286D01*
X73415857Y-61632714D01*
X73451572Y-61668429D01*
X73523000Y-61704143D01*
X73808715Y-61704143D01*
X72701572Y-61311286D02*
X73058715Y-61311286D01*
X73094429Y-61668429D01*
X73058715Y-61632714D01*
X72987286Y-61597000D01*
X72808715Y-61597000D01*
X72737286Y-61632714D01*
X72701572Y-61668429D01*
X72665857Y-61739857D01*
X72665857Y-61918429D01*
X72701572Y-61989857D01*
X72737286Y-62025571D01*
X72808715Y-62061286D01*
X72987286Y-62061286D01*
X73058715Y-62025571D01*
X73094429Y-61989857D01*
X71951571Y-62061286D02*
X72380143Y-62061286D01*
X72165857Y-62061286D02*
X72165857Y-61311286D01*
X72237286Y-61418429D01*
X72308714Y-61489857D01*
X72380143Y-61525571D01*
X66268143Y-64347286D02*
X66518143Y-63990143D01*
X66696715Y-64347286D02*
X66696715Y-63597286D01*
X66411000Y-63597286D01*
X66339572Y-63633000D01*
X66303857Y-63668714D01*
X66268143Y-63740143D01*
X66268143Y-63847286D01*
X66303857Y-63918714D01*
X66339572Y-63954429D01*
X66411000Y-63990143D01*
X66696715Y-63990143D01*
X65589572Y-63597286D02*
X65946715Y-63597286D01*
X65982429Y-63954429D01*
X65946715Y-63918714D01*
X65875286Y-63883000D01*
X65696715Y-63883000D01*
X65625286Y-63918714D01*
X65589572Y-63954429D01*
X65553857Y-64025857D01*
X65553857Y-64204429D01*
X65589572Y-64275857D01*
X65625286Y-64311571D01*
X65696715Y-64347286D01*
X65875286Y-64347286D01*
X65946715Y-64311571D01*
X65982429Y-64275857D01*
X65303857Y-63597286D02*
X64839571Y-63597286D01*
X65089571Y-63883000D01*
X64982429Y-63883000D01*
X64911000Y-63918714D01*
X64875286Y-63954429D01*
X64839571Y-64025857D01*
X64839571Y-64204429D01*
X64875286Y-64275857D01*
X64911000Y-64311571D01*
X64982429Y-64347286D01*
X65196714Y-64347286D01*
X65268143Y-64311571D01*
X65303857Y-64275857D01*
X123021286Y-76376714D02*
X122664143Y-76126714D01*
X123021286Y-75948142D02*
X122271286Y-75948142D01*
X122271286Y-76233857D01*
X122307000Y-76305285D01*
X122342714Y-76341000D01*
X122414143Y-76376714D01*
X122521286Y-76376714D01*
X122592714Y-76341000D01*
X122628429Y-76305285D01*
X122664143Y-76233857D01*
X122664143Y-75948142D01*
X122521286Y-77019571D02*
X123021286Y-77019571D01*
X122235571Y-76841000D02*
X122771286Y-76662428D01*
X122771286Y-77126714D01*
X122271286Y-77555286D02*
X122271286Y-77626714D01*
X122307000Y-77698143D01*
X122342714Y-77733857D01*
X122414143Y-77769571D01*
X122557000Y-77805286D01*
X122735571Y-77805286D01*
X122878429Y-77769571D01*
X122949857Y-77733857D01*
X122985571Y-77698143D01*
X123021286Y-77626714D01*
X123021286Y-77555286D01*
X122985571Y-77483857D01*
X122949857Y-77448143D01*
X122878429Y-77412428D01*
X122735571Y-77376714D01*
X122557000Y-77376714D01*
X122414143Y-77412428D01*
X122342714Y-77448143D01*
X122307000Y-77483857D01*
X122271286Y-77555286D01*
X123021286Y-78519572D02*
X123021286Y-78091000D01*
X123021286Y-78305286D02*
X122271286Y-78305286D01*
X122378429Y-78233857D01*
X122449857Y-78162429D01*
X122485571Y-78091000D01*
X117933286Y-80603286D02*
X118183286Y-80246143D01*
X118361858Y-80603286D02*
X118361858Y-79853286D01*
X118076143Y-79853286D01*
X118004715Y-79889000D01*
X117969000Y-79924714D01*
X117933286Y-79996143D01*
X117933286Y-80103286D01*
X117969000Y-80174714D01*
X118004715Y-80210429D01*
X118076143Y-80246143D01*
X118361858Y-80246143D01*
X117290429Y-80103286D02*
X117290429Y-80603286D01*
X117469000Y-79817571D02*
X117647572Y-80353286D01*
X117183286Y-80353286D01*
X116754714Y-79853286D02*
X116683286Y-79853286D01*
X116611857Y-79889000D01*
X116576143Y-79924714D01*
X116540429Y-79996143D01*
X116504714Y-80139000D01*
X116504714Y-80317571D01*
X116540429Y-80460429D01*
X116576143Y-80531857D01*
X116611857Y-80567571D01*
X116683286Y-80603286D01*
X116754714Y-80603286D01*
X116826143Y-80567571D01*
X116861857Y-80531857D01*
X116897572Y-80460429D01*
X116933286Y-80317571D01*
X116933286Y-80139000D01*
X116897572Y-79996143D01*
X116861857Y-79924714D01*
X116826143Y-79889000D01*
X116754714Y-79853286D01*
X116219000Y-79924714D02*
X116183286Y-79889000D01*
X116111857Y-79853286D01*
X115933286Y-79853286D01*
X115861857Y-79889000D01*
X115826143Y-79924714D01*
X115790428Y-79996143D01*
X115790428Y-80067571D01*
X115826143Y-80174714D01*
X116254714Y-80603286D01*
X115790428Y-80603286D01*
X114569715Y-77313286D02*
X114569715Y-77920429D01*
X114534000Y-77991857D01*
X114498286Y-78027571D01*
X114426857Y-78063286D01*
X114284000Y-78063286D01*
X114212572Y-78027571D01*
X114176857Y-77991857D01*
X114141143Y-77920429D01*
X114141143Y-77313286D01*
X113462572Y-77563286D02*
X113462572Y-78063286D01*
X113641143Y-77277571D02*
X113819715Y-77813286D01*
X113355429Y-77813286D01*
X112926857Y-77313286D02*
X112855429Y-77313286D01*
X112784000Y-77349000D01*
X112748286Y-77384714D01*
X112712572Y-77456143D01*
X112676857Y-77599000D01*
X112676857Y-77777571D01*
X112712572Y-77920429D01*
X112748286Y-77991857D01*
X112784000Y-78027571D01*
X112855429Y-78063286D01*
X112926857Y-78063286D01*
X112998286Y-78027571D01*
X113034000Y-77991857D01*
X113069715Y-77920429D01*
X113105429Y-77777571D01*
X113105429Y-77599000D01*
X113069715Y-77456143D01*
X113034000Y-77384714D01*
X112998286Y-77349000D01*
X112926857Y-77313286D01*
X111962571Y-78063286D02*
X112391143Y-78063286D01*
X112176857Y-78063286D02*
X112176857Y-77313286D01*
X112248286Y-77420429D01*
X112319714Y-77491857D01*
X112391143Y-77527571D01*
X63331286Y-46507857D02*
X62974143Y-46257857D01*
X63331286Y-46079285D02*
X62581286Y-46079285D01*
X62581286Y-46365000D01*
X62617000Y-46436428D01*
X62652714Y-46472143D01*
X62724143Y-46507857D01*
X62831286Y-46507857D01*
X62902714Y-46472143D01*
X62938429Y-46436428D01*
X62974143Y-46365000D01*
X62974143Y-46079285D01*
X62831286Y-47150714D02*
X63331286Y-47150714D01*
X62545571Y-46972143D02*
X63081286Y-46793571D01*
X63081286Y-47257857D01*
X62831286Y-47865000D02*
X63331286Y-47865000D01*
X62545571Y-47686429D02*
X63081286Y-47507857D01*
X63081286Y-47972143D01*
X86334143Y-45551286D02*
X86584143Y-45194143D01*
X86762715Y-45551286D02*
X86762715Y-44801286D01*
X86477000Y-44801286D01*
X86405572Y-44837000D01*
X86369857Y-44872714D01*
X86334143Y-44944143D01*
X86334143Y-45051286D01*
X86369857Y-45122714D01*
X86405572Y-45158429D01*
X86477000Y-45194143D01*
X86762715Y-45194143D01*
X85691286Y-45051286D02*
X85691286Y-45551286D01*
X85869857Y-44765571D02*
X86048429Y-45301286D01*
X85584143Y-45301286D01*
X85369857Y-44801286D02*
X84869857Y-44801286D01*
X85191286Y-45551286D01*
X111591286Y-45491857D02*
X111234143Y-45241857D01*
X111591286Y-45063285D02*
X110841286Y-45063285D01*
X110841286Y-45349000D01*
X110877000Y-45420428D01*
X110912714Y-45456143D01*
X110984143Y-45491857D01*
X111091286Y-45491857D01*
X111162714Y-45456143D01*
X111198429Y-45420428D01*
X111234143Y-45349000D01*
X111234143Y-45063285D01*
X110841286Y-46170428D02*
X110841286Y-45813285D01*
X111198429Y-45777571D01*
X111162714Y-45813285D01*
X111127000Y-45884714D01*
X111127000Y-46063285D01*
X111162714Y-46134714D01*
X111198429Y-46170428D01*
X111269857Y-46206143D01*
X111448429Y-46206143D01*
X111519857Y-46170428D01*
X111555571Y-46134714D01*
X111591286Y-46063285D01*
X111591286Y-45884714D01*
X111555571Y-45813285D01*
X111519857Y-45777571D01*
X110841286Y-46884714D02*
X110841286Y-46527571D01*
X111198429Y-46491857D01*
X111162714Y-46527571D01*
X111127000Y-46599000D01*
X111127000Y-46777571D01*
X111162714Y-46849000D01*
X111198429Y-46884714D01*
X111269857Y-46920429D01*
X111448429Y-46920429D01*
X111519857Y-46884714D01*
X111555571Y-46849000D01*
X111591286Y-46777571D01*
X111591286Y-46599000D01*
X111555571Y-46527571D01*
X111519857Y-46491857D01*
X79222143Y-73419857D02*
X79257857Y-73455571D01*
X79365000Y-73491286D01*
X79436429Y-73491286D01*
X79543572Y-73455571D01*
X79615000Y-73384143D01*
X79650715Y-73312714D01*
X79686429Y-73169857D01*
X79686429Y-73062714D01*
X79650715Y-72919857D01*
X79615000Y-72848429D01*
X79543572Y-72777000D01*
X79436429Y-72741286D01*
X79365000Y-72741286D01*
X79257857Y-72777000D01*
X79222143Y-72812714D01*
X78579286Y-72741286D02*
X78722143Y-72741286D01*
X78793572Y-72777000D01*
X78829286Y-72812714D01*
X78900715Y-72919857D01*
X78936429Y-73062714D01*
X78936429Y-73348429D01*
X78900715Y-73419857D01*
X78865000Y-73455571D01*
X78793572Y-73491286D01*
X78650715Y-73491286D01*
X78579286Y-73455571D01*
X78543572Y-73419857D01*
X78507857Y-73348429D01*
X78507857Y-73169857D01*
X78543572Y-73098429D01*
X78579286Y-73062714D01*
X78650715Y-73027000D01*
X78793572Y-73027000D01*
X78865000Y-73062714D01*
X78900715Y-73098429D01*
X78936429Y-73169857D01*
X77865000Y-72991286D02*
X77865000Y-73491286D01*
X78043571Y-72705571D02*
X78222143Y-73241286D01*
X77757857Y-73241286D01*
%LPC*%
D17*
X93281500Y-58547000D03*
X99758500Y-58547000D03*
D18*
X93281500Y-62674500D03*
X99758500Y-62674500D03*
D19*
X84582000Y-74930000D03*
X83058000Y-74930000D03*
X106807000Y-71755000D03*
X105283000Y-71755000D03*
D20*
X116205000Y-65278000D03*
X116205000Y-66802000D03*
D19*
X101473000Y-76835000D03*
X102997000Y-76835000D03*
X101473000Y-74295000D03*
X102997000Y-74295000D03*
X97917000Y-76835000D03*
X96393000Y-76835000D03*
X101473000Y-66675000D03*
X102997000Y-66675000D03*
X97282000Y-67945000D03*
X95758000Y-67945000D03*
X95758000Y-66040000D03*
X97282000Y-66040000D03*
X96393000Y-74295000D03*
X97917000Y-74295000D03*
X62103000Y-69850000D03*
X63627000Y-69850000D03*
D20*
X61595000Y-71628000D03*
X61595000Y-73152000D03*
X43180000Y-50673000D03*
X43180000Y-52197000D03*
X68580000Y-51308000D03*
X68580000Y-52832000D03*
X92710000Y-51308000D03*
X92710000Y-52832000D03*
D19*
X101473000Y-71755000D03*
X102997000Y-71755000D03*
X105283000Y-74295000D03*
X106807000Y-74295000D03*
D21*
X52705000Y-63246000D03*
X52705000Y-66294000D03*
D19*
X101473000Y-69215000D03*
X102997000Y-69215000D03*
D22*
X86395560Y-67310000D03*
X81244440Y-67310000D03*
D23*
X70231000Y-69215000D03*
X66929000Y-69215000D03*
X82169000Y-72390000D03*
X85471000Y-72390000D03*
X76581000Y-69215000D03*
X73279000Y-69215000D03*
D19*
X46228000Y-50800000D03*
X47752000Y-50800000D03*
X70358000Y-50800000D03*
X71882000Y-50800000D03*
D23*
X76581000Y-66040000D03*
X73279000Y-66040000D03*
D19*
X94488000Y-50800000D03*
X96012000Y-50800000D03*
D20*
X41275000Y-50673000D03*
X41275000Y-52197000D03*
X66675000Y-51308000D03*
X66675000Y-52832000D03*
X90805000Y-51308000D03*
X90805000Y-52832000D03*
X112395000Y-74168000D03*
X112395000Y-75692000D03*
D24*
X40386000Y-56462000D03*
X40386000Y-59362000D03*
D25*
X56515000Y-63040260D03*
X56515000Y-66499740D03*
D26*
X63500000Y-51455000D03*
D27*
X63500000Y-53355000D03*
D26*
X87630000Y-51455000D03*
D27*
X87630000Y-53355000D03*
D26*
X111760000Y-51455000D03*
D27*
X111760000Y-53355000D03*
D28*
X46990000Y-44323000D03*
X46990000Y-48387000D03*
X41910000Y-48387000D03*
X41910000Y-44323000D03*
X71120000Y-44323000D03*
X71120000Y-48387000D03*
X66040000Y-48387000D03*
X66040000Y-44323000D03*
X95250000Y-44323000D03*
X95250000Y-48387000D03*
X90170000Y-48387000D03*
X90170000Y-44323000D03*
D29*
X119380000Y-69850000D03*
X119380000Y-67310000D03*
X119380000Y-64770000D03*
D30*
X43855640Y-62230000D03*
X48854360Y-62230000D03*
D31*
X112999240Y-84000000D03*
X115000760Y-84000000D03*
X116999740Y-84000000D03*
X119001260Y-84000000D03*
X111000260Y-84000000D03*
X108998740Y-84000000D03*
X125000000Y-63500760D03*
X125000000Y-61499240D03*
X125000000Y-59500260D03*
X125000000Y-57498740D03*
X125000000Y-65499740D03*
X125000000Y-67501260D03*
D32*
X125000000Y-40995440D03*
D33*
X125000000Y-44998480D03*
X125000000Y-42996960D03*
X125000000Y-46997460D03*
X125000000Y-48998980D03*
X125000000Y-51000500D03*
X125000000Y-52999480D03*
D34*
X125000000Y-71997720D03*
D35*
X125000000Y-76000760D03*
X125000000Y-73999240D03*
X125000000Y-77999740D03*
D36*
X54610000Y-42359580D03*
D37*
X58420000Y-52961540D03*
X57150000Y-52961540D03*
X55880000Y-52961540D03*
X53340000Y-52961540D03*
X52070000Y-52961540D03*
X50800000Y-52961540D03*
D36*
X78740000Y-42359580D03*
D37*
X82550000Y-52961540D03*
X81280000Y-52961540D03*
X80010000Y-52961540D03*
X77470000Y-52961540D03*
X76200000Y-52961540D03*
X74930000Y-52961540D03*
D36*
X102870000Y-42359580D03*
D37*
X106680000Y-52961540D03*
X105410000Y-52961540D03*
X104140000Y-52961540D03*
X101600000Y-52961540D03*
X100330000Y-52961540D03*
X99060000Y-52961540D03*
D19*
X106807000Y-66675000D03*
X105283000Y-66675000D03*
X106807000Y-69215000D03*
X105283000Y-69215000D03*
D20*
X116205000Y-70612000D03*
X116205000Y-69088000D03*
D19*
X97282000Y-84455000D03*
X95758000Y-84455000D03*
X94107000Y-84455000D03*
X92583000Y-84455000D03*
X97282000Y-81915000D03*
X95758000Y-81915000D03*
X94107000Y-81915000D03*
X92583000Y-81915000D03*
D38*
X47550000Y-40640000D03*
X41350000Y-40640000D03*
D19*
X63373000Y-71755000D03*
X64897000Y-71755000D03*
X66167000Y-74295000D03*
X64643000Y-74295000D03*
X62103000Y-67945000D03*
X63627000Y-67945000D03*
X94488000Y-52705000D03*
X96012000Y-52705000D03*
X69977000Y-66675000D03*
X68453000Y-66675000D03*
X70358000Y-52705000D03*
X71882000Y-52705000D03*
D20*
X60960000Y-52578000D03*
X60960000Y-54102000D03*
X60960000Y-49403000D03*
X60960000Y-50927000D03*
D38*
X71680000Y-40640000D03*
X65480000Y-40640000D03*
D19*
X41148000Y-53975000D03*
X42672000Y-53975000D03*
D20*
X85090000Y-52578000D03*
X85090000Y-54102000D03*
X85090000Y-50927000D03*
X85090000Y-49403000D03*
D38*
X95810000Y-40132000D03*
X89610000Y-40132000D03*
D20*
X109220000Y-52578000D03*
X109220000Y-54102000D03*
X109220000Y-49403000D03*
X109220000Y-50927000D03*
D19*
X61468000Y-64770000D03*
X62992000Y-64770000D03*
X69723000Y-60960000D03*
X71247000Y-60960000D03*
D17*
X60896500Y-58547000D03*
X67373500Y-58547000D03*
D18*
X60896500Y-62674500D03*
X67373500Y-62674500D03*
D20*
X122555000Y-75057000D03*
X122555000Y-73533000D03*
D19*
X118237000Y-78740000D03*
X116713000Y-78740000D03*
D39*
X120142000Y-76200000D03*
X114808000Y-76200000D03*
X120142000Y-74930000D03*
X120142000Y-73660000D03*
X120142000Y-72390000D03*
X114808000Y-74930000D03*
X114808000Y-73660000D03*
X114808000Y-72390000D03*
D40*
X83935000Y-81455000D03*
X88785000Y-81455000D03*
D41*
X82760000Y-84455000D03*
X89960000Y-84455000D03*
D20*
X61595000Y-47752000D03*
X61595000Y-46228000D03*
X85725000Y-47752000D03*
X85725000Y-46228000D03*
X109855000Y-46482000D03*
X109855000Y-44958000D03*
D19*
X77978000Y-71755000D03*
X79502000Y-71755000D03*
D42*
X125010000Y-36000000D03*
X42010000Y-36000000D03*
X125010000Y-83000000D03*
X42010000Y-83000000D03*
D43*
X64135000Y-34925000D03*
X61595000Y-34925000D03*
X51435000Y-72390000D03*
X48895000Y-72390000D03*
D44*
X113665000Y-40005000D03*
D45*
X118665000Y-40005000D03*
D44*
X113665000Y-43180000D03*
D45*
X118665000Y-43180000D03*
D46*
G36*
X57531000Y-54864000D02*
X57541006Y-54913410D01*
X57569447Y-54955035D01*
X57611841Y-54982315D01*
X57658000Y-54991000D01*
X58039000Y-54991000D01*
X58039000Y-56134000D01*
X58049006Y-56183410D01*
X58076197Y-56223803D01*
X58330197Y-56477803D01*
X58372211Y-56505666D01*
X58420000Y-56515000D01*
X58928000Y-56515000D01*
X58977410Y-56504994D01*
X59017803Y-56477803D01*
X59742606Y-55753000D01*
X62103000Y-55753000D01*
X62103000Y-61341000D01*
X59488606Y-61341000D01*
X58255803Y-60108197D01*
X58213789Y-60080334D01*
X58166000Y-60071000D01*
X56690285Y-60071000D01*
X54440374Y-58071079D01*
X54396797Y-58045731D01*
X54356000Y-58039000D01*
X52630606Y-58039000D01*
X49149000Y-54557394D01*
X49149000Y-51435000D01*
X57531000Y-51435000D01*
X57531000Y-54864000D01*
X57531000Y-54864000D01*
G37*
X57531000Y-54864000D02*
X57541006Y-54913410D01*
X57569447Y-54955035D01*
X57611841Y-54982315D01*
X57658000Y-54991000D01*
X58039000Y-54991000D01*
X58039000Y-56134000D01*
X58049006Y-56183410D01*
X58076197Y-56223803D01*
X58330197Y-56477803D01*
X58372211Y-56505666D01*
X58420000Y-56515000D01*
X58928000Y-56515000D01*
X58977410Y-56504994D01*
X59017803Y-56477803D01*
X59742606Y-55753000D01*
X62103000Y-55753000D01*
X62103000Y-61341000D01*
X59488606Y-61341000D01*
X58255803Y-60108197D01*
X58213789Y-60080334D01*
X58166000Y-60071000D01*
X56690285Y-60071000D01*
X54440374Y-58071079D01*
X54396797Y-58045731D01*
X54356000Y-58039000D01*
X52630606Y-58039000D01*
X49149000Y-54557394D01*
X49149000Y-51435000D01*
X57531000Y-51435000D01*
X57531000Y-54864000D01*
G36*
X105791000Y-54864000D02*
X105801006Y-54913410D01*
X105829447Y-54955035D01*
X105871841Y-54982315D01*
X105918000Y-54991000D01*
X107061000Y-54991000D01*
X107061000Y-56589394D01*
X102563394Y-61087000D01*
X98425000Y-61087000D01*
X98425000Y-55626000D01*
X98414994Y-55576590D01*
X98386553Y-55534965D01*
X98354796Y-55512408D01*
X97409000Y-55039510D01*
X97409000Y-51181000D01*
X105791000Y-51181000D01*
X105791000Y-54864000D01*
X105791000Y-54864000D01*
G37*
X105791000Y-54864000D02*
X105801006Y-54913410D01*
X105829447Y-54955035D01*
X105871841Y-54982315D01*
X105918000Y-54991000D01*
X107061000Y-54991000D01*
X107061000Y-56589394D01*
X102563394Y-61087000D01*
X98425000Y-61087000D01*
X98425000Y-55626000D01*
X98414994Y-55576590D01*
X98386553Y-55534965D01*
X98354796Y-55512408D01*
X97409000Y-55039510D01*
X97409000Y-51181000D01*
X105791000Y-51181000D01*
X105791000Y-54864000D01*
G36*
X74295000Y-67945000D02*
X72009000Y-67945000D01*
X72009000Y-67183000D01*
X74295000Y-67183000D01*
X74295000Y-67945000D01*
X74295000Y-67945000D01*
G37*
X74295000Y-67945000D02*
X72009000Y-67945000D01*
X72009000Y-67183000D01*
X74295000Y-67183000D01*
X74295000Y-67945000D01*
G36*
X81661000Y-54864000D02*
X81671006Y-54913410D01*
X81699447Y-54955035D01*
X81741841Y-54982315D01*
X81788000Y-54991000D01*
X83005394Y-54991000D01*
X83207626Y-55193232D01*
X83424010Y-55626000D01*
X83198408Y-56077204D01*
X83185260Y-56125872D01*
X83192084Y-56175822D01*
X83222197Y-56223803D01*
X83730197Y-56731803D01*
X83772211Y-56759666D01*
X83820000Y-56769000D01*
X84328000Y-56769000D01*
X84377410Y-56758994D01*
X84417803Y-56731803D01*
X84634606Y-56515000D01*
X86561394Y-56515000D01*
X87286197Y-57239803D01*
X87328211Y-57267666D01*
X87376000Y-57277000D01*
X89408000Y-57277000D01*
X89457410Y-57266994D01*
X89497803Y-57239803D01*
X90476606Y-56261000D01*
X91694000Y-56261000D01*
X91743410Y-56250994D01*
X91783803Y-56223803D01*
X92254606Y-55753000D01*
X95197394Y-55753000D01*
X96139000Y-56694606D01*
X96139000Y-61341000D01*
X82677000Y-61341000D01*
X82677000Y-59944000D01*
X82666994Y-59894590D01*
X82639803Y-59854197D01*
X82385803Y-59600197D01*
X82343789Y-59572334D01*
X82296000Y-59563000D01*
X79502000Y-59563000D01*
X79452590Y-59573006D01*
X79412197Y-59600197D01*
X77925394Y-61087000D01*
X74041000Y-61087000D01*
X74041000Y-59690000D01*
X74030994Y-59640590D01*
X74003803Y-59600197D01*
X73749803Y-59346197D01*
X73707789Y-59318334D01*
X73660000Y-59309000D01*
X73152000Y-59309000D01*
X73102590Y-59319006D01*
X73062197Y-59346197D01*
X72337394Y-60071000D01*
X69088000Y-60071000D01*
X69038590Y-60081006D01*
X68996965Y-60109447D01*
X68969685Y-60151841D01*
X68961000Y-60198000D01*
X68961000Y-61161394D01*
X68781394Y-61341000D01*
X66167000Y-61341000D01*
X66167000Y-55753000D01*
X69532500Y-55753000D01*
X70256400Y-56718200D01*
X70294051Y-56751725D01*
X70358000Y-56769000D01*
X72644000Y-56769000D01*
X72693410Y-56758994D01*
X72733803Y-56731803D01*
X73204606Y-56261000D01*
X73660000Y-56261000D01*
X73709410Y-56250994D01*
X73751035Y-56222553D01*
X73778315Y-56180159D01*
X73787000Y-56134000D01*
X73787000Y-54864000D01*
X73776994Y-54814590D01*
X73749803Y-54774197D01*
X73279000Y-54303394D01*
X73279000Y-51181000D01*
X81661000Y-51181000D01*
X81661000Y-54864000D01*
X81661000Y-54864000D01*
G37*
X81661000Y-54864000D02*
X81671006Y-54913410D01*
X81699447Y-54955035D01*
X81741841Y-54982315D01*
X81788000Y-54991000D01*
X83005394Y-54991000D01*
X83207626Y-55193232D01*
X83424010Y-55626000D01*
X83198408Y-56077204D01*
X83185260Y-56125872D01*
X83192084Y-56175822D01*
X83222197Y-56223803D01*
X83730197Y-56731803D01*
X83772211Y-56759666D01*
X83820000Y-56769000D01*
X84328000Y-56769000D01*
X84377410Y-56758994D01*
X84417803Y-56731803D01*
X84634606Y-56515000D01*
X86561394Y-56515000D01*
X87286197Y-57239803D01*
X87328211Y-57267666D01*
X87376000Y-57277000D01*
X89408000Y-57277000D01*
X89457410Y-57266994D01*
X89497803Y-57239803D01*
X90476606Y-56261000D01*
X91694000Y-56261000D01*
X91743410Y-56250994D01*
X91783803Y-56223803D01*
X92254606Y-55753000D01*
X95197394Y-55753000D01*
X96139000Y-56694606D01*
X96139000Y-61341000D01*
X82677000Y-61341000D01*
X82677000Y-59944000D01*
X82666994Y-59894590D01*
X82639803Y-59854197D01*
X82385803Y-59600197D01*
X82343789Y-59572334D01*
X82296000Y-59563000D01*
X79502000Y-59563000D01*
X79452590Y-59573006D01*
X79412197Y-59600197D01*
X77925394Y-61087000D01*
X74041000Y-61087000D01*
X74041000Y-59690000D01*
X74030994Y-59640590D01*
X74003803Y-59600197D01*
X73749803Y-59346197D01*
X73707789Y-59318334D01*
X73660000Y-59309000D01*
X73152000Y-59309000D01*
X73102590Y-59319006D01*
X73062197Y-59346197D01*
X72337394Y-60071000D01*
X69088000Y-60071000D01*
X69038590Y-60081006D01*
X68996965Y-60109447D01*
X68969685Y-60151841D01*
X68961000Y-60198000D01*
X68961000Y-61161394D01*
X68781394Y-61341000D01*
X66167000Y-61341000D01*
X66167000Y-55753000D01*
X69532500Y-55753000D01*
X70256400Y-56718200D01*
X70294051Y-56751725D01*
X70358000Y-56769000D01*
X72644000Y-56769000D01*
X72693410Y-56758994D01*
X72733803Y-56731803D01*
X73204606Y-56261000D01*
X73660000Y-56261000D01*
X73709410Y-56250994D01*
X73751035Y-56222553D01*
X73778315Y-56180159D01*
X73787000Y-56134000D01*
X73787000Y-54864000D01*
X73776994Y-54814590D01*
X73749803Y-54774197D01*
X73279000Y-54303394D01*
X73279000Y-51181000D01*
X81661000Y-51181000D01*
X81661000Y-54864000D01*
G36*
X60071000Y-38125123D02*
X60071000Y-40005000D01*
X49149000Y-40005000D01*
X49149000Y-38125123D01*
X50885051Y-33909000D01*
X58334949Y-33909000D01*
X60071000Y-38125123D01*
X60071000Y-38125123D01*
G37*
X60071000Y-38125123D02*
X60071000Y-40005000D01*
X49149000Y-40005000D01*
X49149000Y-38125123D01*
X50885051Y-33909000D01*
X58334949Y-33909000D01*
X60071000Y-38125123D01*
G36*
X84201000Y-38125123D02*
X84201000Y-40005000D01*
X73279000Y-40005000D01*
X73279000Y-38125123D01*
X75015051Y-33909000D01*
X82464949Y-33909000D01*
X84201000Y-38125123D01*
X84201000Y-38125123D01*
G37*
X84201000Y-38125123D02*
X84201000Y-40005000D01*
X73279000Y-40005000D01*
X73279000Y-38125123D01*
X75015051Y-33909000D01*
X82464949Y-33909000D01*
X84201000Y-38125123D01*
G36*
X108331000Y-38125123D02*
X108331000Y-40005000D01*
X97409000Y-40005000D01*
X97409000Y-38125123D01*
X99145051Y-33909000D01*
X106594949Y-33909000D01*
X108331000Y-38125123D01*
X108331000Y-38125123D01*
G37*
X108331000Y-38125123D02*
X108331000Y-40005000D01*
X97409000Y-40005000D01*
X97409000Y-38125123D01*
X99145051Y-33909000D01*
X106594949Y-33909000D01*
X108331000Y-38125123D01*
M02*
