G04 #@! TF.FileFunction,Copper,L2,Bot,Signal*
%FSLAX46Y46*%
G04 Gerber Fmt 4.6, Leading zero omitted, Abs format (unit mm)*
G04 Created by KiCad (PCBNEW 4.0.7-e1-6374~58~ubuntu14.04.1) date Tue Aug 29 09:34:13 2017*
%MOMM*%
%LPD*%
G01*
G04 APERTURE LIST*
%ADD10C,0.100000*%
%ADD11R,2.438400X5.588000*%
%ADD12R,2.438400X0.889000*%
%ADD13R,0.635000X1.143000*%
%ADD14R,1.143000X0.635000*%
%ADD15R,2.499360X1.950720*%
%ADD16R,1.849120X5.499100*%
%ADD17R,1.524000X2.032000*%
%ADD18R,1.100000X1.100000*%
%ADD19R,1.699260X2.100580*%
%ADD20R,1.100000X0.800000*%
%ADD21R,1.100000X2.000000*%
%ADD22R,2.159000X1.778000*%
%ADD23O,3.048000X1.524000*%
%ADD24R,2.997200X7.498080*%
%ADD25C,1.300480*%
%ADD26R,1.300000X1.300000*%
%ADD27C,1.300000*%
%ADD28R,1.699260X1.198880*%
%ADD29O,1.699260X1.198880*%
%ADD30R,10.800080X8.150860*%
%ADD31R,0.899160X3.200400*%
%ADD32R,1.000000X3.200000*%
%ADD33R,1.399540X0.599440*%
%ADD34O,1.050000X1.250000*%
%ADD35O,1.500000X2.200000*%
%ADD36C,4.500000*%
%ADD37C,2.200000*%
%ADD38R,2.400000X2.400000*%
%ADD39C,2.400000*%
%ADD40C,0.600000*%
%ADD41C,0.250000*%
%ADD42C,0.500000*%
%ADD43C,1.000000*%
%ADD44C,2.000000*%
%ADD45C,1.500000*%
%ADD46C,0.254000*%
G04 APERTURE END LIST*
D10*
D11*
X93281500Y-58547000D03*
X99758500Y-58547000D03*
D12*
X93281500Y-62674500D03*
X99758500Y-62674500D03*
D13*
X84582000Y-74930000D03*
X83058000Y-74930000D03*
X106807000Y-71755000D03*
X105283000Y-71755000D03*
D14*
X116205000Y-65278000D03*
X116205000Y-66802000D03*
D13*
X101473000Y-76835000D03*
X102997000Y-76835000D03*
X101473000Y-74295000D03*
X102997000Y-74295000D03*
X97917000Y-76835000D03*
X96393000Y-76835000D03*
X101473000Y-66675000D03*
X102997000Y-66675000D03*
X97282000Y-67945000D03*
X95758000Y-67945000D03*
X95758000Y-66040000D03*
X97282000Y-66040000D03*
X96393000Y-74295000D03*
X97917000Y-74295000D03*
X62103000Y-69850000D03*
X63627000Y-69850000D03*
D14*
X61595000Y-71628000D03*
X61595000Y-73152000D03*
X43180000Y-50673000D03*
X43180000Y-52197000D03*
X68580000Y-51308000D03*
X68580000Y-52832000D03*
X92710000Y-51308000D03*
X92710000Y-52832000D03*
D13*
X101473000Y-71755000D03*
X102997000Y-71755000D03*
X105283000Y-74295000D03*
X106807000Y-74295000D03*
D15*
X52705000Y-63246000D03*
X52705000Y-66294000D03*
D13*
X101473000Y-69215000D03*
X102997000Y-69215000D03*
D16*
X86395560Y-67310000D03*
X81244440Y-67310000D03*
D17*
X70231000Y-69215000D03*
X66929000Y-69215000D03*
X82169000Y-72390000D03*
X85471000Y-72390000D03*
X76581000Y-69215000D03*
X73279000Y-69215000D03*
D13*
X46228000Y-50800000D03*
X47752000Y-50800000D03*
X70358000Y-50800000D03*
X71882000Y-50800000D03*
D17*
X76581000Y-66040000D03*
X73279000Y-66040000D03*
D13*
X94488000Y-50800000D03*
X96012000Y-50800000D03*
D14*
X41275000Y-50673000D03*
X41275000Y-52197000D03*
X66675000Y-51308000D03*
X66675000Y-52832000D03*
X90805000Y-51308000D03*
X90805000Y-52832000D03*
X112395000Y-74168000D03*
X112395000Y-75692000D03*
D18*
X40386000Y-56462000D03*
X40386000Y-59362000D03*
D19*
X56515000Y-63040260D03*
X56515000Y-66499740D03*
D20*
X63500000Y-51455000D03*
D21*
X63500000Y-53355000D03*
D20*
X87630000Y-51455000D03*
D21*
X87630000Y-53355000D03*
D20*
X111760000Y-51455000D03*
D21*
X111760000Y-53355000D03*
D22*
X46990000Y-44323000D03*
X46990000Y-48387000D03*
X41910000Y-48387000D03*
X41910000Y-44323000D03*
X71120000Y-44323000D03*
X71120000Y-48387000D03*
X66040000Y-48387000D03*
X66040000Y-44323000D03*
X95250000Y-44323000D03*
X95250000Y-48387000D03*
X90170000Y-48387000D03*
X90170000Y-44323000D03*
D23*
X119380000Y-69850000D03*
X119380000Y-67310000D03*
X119380000Y-64770000D03*
D24*
X43855640Y-62230000D03*
X48854360Y-62230000D03*
D25*
X112999240Y-84000000D03*
X115000760Y-84000000D03*
X116999740Y-84000000D03*
X119001260Y-84000000D03*
X111000260Y-84000000D03*
X108998740Y-84000000D03*
X125000000Y-63500760D03*
X125000000Y-61499240D03*
X125000000Y-59500260D03*
X125000000Y-57498740D03*
X125000000Y-65499740D03*
X125000000Y-67501260D03*
D26*
X125000000Y-40995440D03*
D27*
X125000000Y-44998480D03*
X125000000Y-42996960D03*
X125000000Y-46997460D03*
X125000000Y-48998980D03*
X125000000Y-51000500D03*
X125000000Y-52999480D03*
D28*
X125000000Y-71997720D03*
D29*
X125000000Y-76000760D03*
X125000000Y-73999240D03*
X125000000Y-77999740D03*
D30*
X54610000Y-42359580D03*
D31*
X58420000Y-52961540D03*
X57150000Y-52961540D03*
X55880000Y-52961540D03*
X53340000Y-52961540D03*
X52070000Y-52961540D03*
X50800000Y-52961540D03*
D30*
X78740000Y-42359580D03*
D31*
X82550000Y-52961540D03*
X81280000Y-52961540D03*
X80010000Y-52961540D03*
X77470000Y-52961540D03*
X76200000Y-52961540D03*
X74930000Y-52961540D03*
D30*
X102870000Y-42359580D03*
D31*
X106680000Y-52961540D03*
X105410000Y-52961540D03*
X104140000Y-52961540D03*
X101600000Y-52961540D03*
X100330000Y-52961540D03*
X99060000Y-52961540D03*
D13*
X106807000Y-66675000D03*
X105283000Y-66675000D03*
X106807000Y-69215000D03*
X105283000Y-69215000D03*
D14*
X116205000Y-70612000D03*
X116205000Y-69088000D03*
D13*
X97282000Y-84455000D03*
X95758000Y-84455000D03*
X94107000Y-84455000D03*
X92583000Y-84455000D03*
X97282000Y-81915000D03*
X95758000Y-81915000D03*
X94107000Y-81915000D03*
X92583000Y-81915000D03*
D32*
X47550000Y-40640000D03*
X41350000Y-40640000D03*
D13*
X63373000Y-71755000D03*
X64897000Y-71755000D03*
X66167000Y-74295000D03*
X64643000Y-74295000D03*
X62103000Y-67945000D03*
X63627000Y-67945000D03*
X94488000Y-52705000D03*
X96012000Y-52705000D03*
X69977000Y-66675000D03*
X68453000Y-66675000D03*
X70358000Y-52705000D03*
X71882000Y-52705000D03*
D14*
X60960000Y-52578000D03*
X60960000Y-54102000D03*
X60960000Y-49403000D03*
X60960000Y-50927000D03*
D32*
X71680000Y-40640000D03*
X65480000Y-40640000D03*
D13*
X41148000Y-53975000D03*
X42672000Y-53975000D03*
D14*
X85090000Y-52578000D03*
X85090000Y-54102000D03*
X85090000Y-50927000D03*
X85090000Y-49403000D03*
D32*
X95810000Y-40132000D03*
X89610000Y-40132000D03*
D14*
X109220000Y-52578000D03*
X109220000Y-54102000D03*
X109220000Y-49403000D03*
X109220000Y-50927000D03*
D13*
X61468000Y-64770000D03*
X62992000Y-64770000D03*
X69723000Y-60960000D03*
X71247000Y-60960000D03*
D11*
X60896500Y-58547000D03*
X67373500Y-58547000D03*
D12*
X60896500Y-62674500D03*
X67373500Y-62674500D03*
D14*
X122555000Y-75057000D03*
X122555000Y-73533000D03*
D13*
X118237000Y-78740000D03*
X116713000Y-78740000D03*
D33*
X120142000Y-76200000D03*
X114808000Y-76200000D03*
X120142000Y-74930000D03*
X120142000Y-73660000D03*
X120142000Y-72390000D03*
X114808000Y-74930000D03*
X114808000Y-73660000D03*
X114808000Y-72390000D03*
D34*
X83935000Y-81455000D03*
X88785000Y-81455000D03*
D35*
X82760000Y-84455000D03*
X89960000Y-84455000D03*
D14*
X61595000Y-47752000D03*
X61595000Y-46228000D03*
X85725000Y-47752000D03*
X85725000Y-46228000D03*
X109855000Y-46482000D03*
X109855000Y-44958000D03*
D13*
X77978000Y-71755000D03*
X79502000Y-71755000D03*
D36*
X125010000Y-36000000D03*
X42010000Y-36000000D03*
X125010000Y-83000000D03*
X42010000Y-83000000D03*
D37*
X64135000Y-34925000D03*
X61595000Y-34925000D03*
X51435000Y-72390000D03*
X48895000Y-72390000D03*
D38*
X113665000Y-40005000D03*
D39*
X118665000Y-40005000D03*
D38*
X113665000Y-43180000D03*
D39*
X118665000Y-43180000D03*
D40*
X72390000Y-67564000D03*
X73152000Y-67564000D03*
X73914000Y-67564000D03*
X117348000Y-75184000D03*
X117348000Y-73152000D03*
X87122014Y-44196000D03*
X87630000Y-70866000D03*
X95758000Y-72898000D03*
X95250000Y-74676000D03*
X122174000Y-70358000D03*
X122428000Y-71882000D03*
X113030000Y-80772000D03*
X119888000Y-80772000D03*
X109982000Y-67564000D03*
X107442000Y-79756000D03*
X68580000Y-68326000D03*
X67056000Y-67564000D03*
X98552000Y-65786000D03*
X78740000Y-67564000D03*
X92202000Y-66294000D03*
X71882000Y-81026000D03*
X75184000Y-84582000D03*
X78486000Y-84582000D03*
X80518000Y-81534000D03*
X62230000Y-79502000D03*
X64008000Y-81280000D03*
X65786000Y-83058000D03*
X67818000Y-81026000D03*
X45720000Y-70358000D03*
X56388000Y-68580000D03*
X54356000Y-68580000D03*
X59182000Y-71628000D03*
X58928000Y-67056000D03*
X71666805Y-70443979D03*
X49276000Y-70358000D03*
X115062000Y-79502000D03*
X115062000Y-77978000D03*
X112268000Y-76708000D03*
X108966000Y-70104000D03*
X100330000Y-72390000D03*
X99060000Y-74422000D03*
X100330000Y-74422000D03*
X100330000Y-76962000D03*
X99060000Y-76962000D03*
X88392000Y-68580000D03*
X88392000Y-65278000D03*
X94996000Y-59944000D03*
X94996000Y-59182000D03*
X94996000Y-58420000D03*
X94996000Y-57658000D03*
X94996000Y-60706000D03*
X95758000Y-60198000D03*
X95758000Y-59436000D03*
X95758000Y-58674000D03*
X95758000Y-57912000D03*
X80518000Y-71374000D03*
X71628000Y-78740000D03*
X69342000Y-79248000D03*
X74930000Y-65532000D03*
X82042000Y-82042000D03*
X110617000Y-68834000D03*
X102104785Y-68830785D03*
X108204000Y-82550000D03*
X85598000Y-74168000D03*
X60198000Y-70358000D03*
X110744000Y-75946000D03*
X50546000Y-67310000D03*
X40386000Y-55372000D03*
X88392000Y-66802000D03*
X91440000Y-46736000D03*
X67056000Y-46482000D03*
X70104000Y-70612000D03*
X107696000Y-71882000D03*
X100838000Y-77625318D03*
X102111080Y-77625563D03*
X74688200Y-60452924D03*
X91948000Y-69088000D03*
X97028000Y-71882000D03*
X106172000Y-67818000D03*
X83312000Y-73406000D03*
X65532000Y-67564000D03*
X104140000Y-71882000D03*
X99788860Y-80136032D03*
X106426000Y-82042000D03*
X120142000Y-77724000D03*
X112522000Y-72644000D03*
X102870000Y-65532000D03*
X103632000Y-75438000D03*
X103886000Y-72898000D03*
X69850000Y-74168000D03*
X78740000Y-70612000D03*
X91186000Y-81788000D03*
X80264000Y-75946000D03*
X102997000Y-70358000D03*
X100330000Y-71374000D03*
X94498617Y-77973483D03*
X94234000Y-79248000D03*
X110998000Y-65278000D03*
X112268000Y-67564000D03*
X103768990Y-77752494D03*
X105156010Y-77470000D03*
X94996000Y-67310000D03*
X95263872Y-76745892D03*
X103886000Y-70104000D03*
X94996000Y-66040000D03*
X95250000Y-75946000D03*
X65790440Y-70640430D03*
X76454000Y-76962000D03*
X77216000Y-75438000D03*
X58674000Y-55880000D03*
X64516000Y-56642000D03*
X42163982Y-57404000D03*
X51308000Y-37338000D03*
X51308000Y-36322000D03*
X51308000Y-35306000D03*
X51308000Y-34290000D03*
X57912000Y-34290000D03*
X57912000Y-35306000D03*
X57912000Y-36322000D03*
X57912000Y-37338000D03*
X71406393Y-65153489D03*
X44704000Y-51562000D03*
X44450000Y-47244000D03*
X65143084Y-66040000D03*
X75438000Y-37338000D03*
X75438000Y-36322000D03*
X75438000Y-35306000D03*
X75438000Y-34290000D03*
X82042000Y-34290000D03*
X82042000Y-35306000D03*
X82042000Y-36322000D03*
X82042000Y-37338000D03*
X72174011Y-56134025D03*
X67818000Y-50038000D03*
X68580000Y-44450000D03*
X71374000Y-56134000D03*
X99568000Y-37338000D03*
X99568000Y-36322000D03*
X99568000Y-35306000D03*
X99568000Y-34290000D03*
X106172000Y-34290000D03*
X106172000Y-35306000D03*
X106172000Y-36322000D03*
X106172000Y-37338000D03*
X87376000Y-56388000D03*
X92710000Y-44450000D03*
X91948000Y-50292000D03*
X86106000Y-55626000D03*
X106934000Y-73152000D03*
X74422000Y-82042000D03*
X92456000Y-80518000D03*
X90678000Y-80010000D03*
X58674000Y-72897992D03*
X54638097Y-61109996D03*
X80319536Y-61468000D03*
X82042000Y-60198000D03*
X72297272Y-62592569D03*
X97282000Y-56896000D03*
X70109291Y-62698614D03*
X62484000Y-45212000D03*
X65024000Y-55880000D03*
X73441794Y-60085882D03*
X72390000Y-60842990D03*
X84843287Y-55878151D03*
X87122000Y-45466000D03*
X84067866Y-56074979D03*
X110998000Y-43942000D03*
X108966000Y-55626000D03*
X109982000Y-55626000D03*
X97282000Y-83312000D03*
X104394000Y-84074000D03*
X92964000Y-83312000D03*
X92456000Y-76454000D03*
X95264226Y-79419598D03*
X102616000Y-61828032D03*
X103384427Y-62080688D03*
X98289509Y-71237010D03*
X95250000Y-71120000D03*
X101600000Y-61828032D03*
X101600000Y-62738000D03*
X69295294Y-73335941D03*
X65143028Y-69596000D03*
X96520020Y-62484000D03*
X97601190Y-64296764D03*
X107624512Y-68868810D03*
X91440000Y-55626000D03*
X88401108Y-55566979D03*
X89408000Y-50546000D03*
X67056000Y-66040000D03*
X82296000Y-62191987D03*
X89916000Y-62484000D03*
X107624652Y-69668821D03*
X71362856Y-62031512D03*
X73152000Y-55626000D03*
X70358000Y-55626000D03*
X65278000Y-50546000D03*
X81280008Y-62992000D03*
X89662000Y-63246000D03*
X107696000Y-68072004D03*
X43434000Y-53848000D03*
X98552000Y-61841030D03*
X91440000Y-62738000D03*
X71260486Y-74982492D03*
X91246949Y-70672949D03*
X77014609Y-73753278D03*
X90932000Y-71628018D03*
X76200000Y-75438000D03*
X90932000Y-72644036D03*
X74864576Y-74268896D03*
X91767961Y-72665565D03*
X93298556Y-78497990D03*
X89154000Y-77470000D03*
X90330794Y-78317537D03*
X73736150Y-74976132D03*
X68072000Y-73914000D03*
X90170000Y-79248000D03*
X79502000Y-73914000D03*
X97086309Y-69838010D03*
X80263992Y-74422000D03*
X98488045Y-69450630D03*
X76733358Y-74504405D03*
X89916000Y-72644000D03*
X75483346Y-74775988D03*
X89137380Y-73899700D03*
X74365041Y-73644010D03*
X89915990Y-74929990D03*
X102328109Y-80586043D03*
X103730122Y-80949849D03*
D41*
X72390000Y-67564000D02*
X73152000Y-67564000D01*
D42*
X117094000Y-74930000D02*
X117348000Y-75184000D01*
X114808000Y-74930000D02*
X117094000Y-74930000D01*
X86697750Y-44196000D02*
X87122014Y-44196000D01*
X84590041Y-44949959D02*
X85344000Y-44196000D01*
X84590041Y-48903041D02*
X84590041Y-44949959D01*
X85344000Y-44196000D02*
X86697750Y-44196000D01*
X85090000Y-49403000D02*
X84590041Y-48903041D01*
D41*
X99060000Y-73406000D02*
X98552000Y-72898000D01*
X98552000Y-72898000D02*
X95758000Y-72898000D01*
X99060000Y-74422000D02*
X99060000Y-73406000D01*
X125000000Y-71997720D02*
X122543720Y-71997720D01*
X122543720Y-71997720D02*
X122428000Y-71882000D01*
X116713000Y-78740000D02*
X116713000Y-79883000D01*
X117602000Y-80772000D02*
X119888000Y-80772000D01*
X116713000Y-79883000D02*
X117602000Y-80772000D01*
X110617000Y-68834000D02*
X110617000Y-68199000D01*
X110617000Y-68199000D02*
X109982000Y-67564000D01*
X107696000Y-79756000D02*
X107442000Y-79756000D01*
D42*
X69469000Y-69215000D02*
X68580000Y-68326000D01*
X97282000Y-66040000D02*
X98298000Y-66040000D01*
X98298000Y-66040000D02*
X98552000Y-65786000D01*
X92202000Y-65018499D02*
X92202000Y-66294000D01*
X70231000Y-69215000D02*
X69469000Y-69215000D01*
X75184000Y-84582000D02*
X78486000Y-84582000D01*
X67818000Y-81026000D02*
X71882000Y-81026000D01*
X69342000Y-79248000D02*
X69342000Y-79502000D01*
X65786000Y-83058000D02*
X64008000Y-81280000D01*
X69342000Y-79502000D02*
X67818000Y-81026000D01*
X52705000Y-66294000D02*
X52705000Y-66929000D01*
X52705000Y-66929000D02*
X54356000Y-68580000D01*
X58928000Y-67056000D02*
X58928000Y-71374000D01*
X58928000Y-71374000D02*
X59182000Y-71628000D01*
D41*
X71666805Y-69638805D02*
X71666805Y-70019715D01*
X70231000Y-69215000D02*
X71243000Y-69215000D01*
X71243000Y-69215000D02*
X71666805Y-69638805D01*
X71666805Y-70019715D02*
X71666805Y-70443979D01*
D43*
X50546000Y-69088000D02*
X49575999Y-70058001D01*
X49575999Y-70058001D02*
X49276000Y-70358000D01*
X50546000Y-67310000D02*
X50546000Y-69088000D01*
D41*
X116713000Y-78740000D02*
X115824000Y-78740000D01*
X115824000Y-78740000D02*
X115062000Y-77978000D01*
X110744000Y-75946000D02*
X111506000Y-75946000D01*
X111506000Y-75946000D02*
X112268000Y-76708000D01*
X108966000Y-70612000D02*
X108966000Y-70104000D01*
D42*
X113466500Y-75692000D02*
X112395000Y-75692000D01*
X114808000Y-74930000D02*
X114228500Y-74930000D01*
X114228500Y-74930000D02*
X113466500Y-75692000D01*
D41*
X97917000Y-76835000D02*
X98933000Y-76835000D01*
X99314000Y-73406000D02*
X100330000Y-72390000D01*
X99314000Y-74168000D02*
X99314000Y-73406000D01*
X99060000Y-74422000D02*
X99314000Y-74168000D01*
X100330000Y-76962000D02*
X100330000Y-74422000D01*
X98933000Y-76835000D02*
X99060000Y-76962000D01*
X88392000Y-66802000D02*
X88392000Y-65278000D01*
X94996000Y-57658000D02*
X95504000Y-57658000D01*
D42*
X94996000Y-59944000D02*
X94996000Y-59182000D01*
X94996000Y-58420000D02*
X94996000Y-57658000D01*
X93281500Y-58991500D02*
X94996000Y-60706000D01*
D41*
X95758000Y-58674000D02*
X95758000Y-59436000D01*
X95504000Y-57658000D02*
X95758000Y-57912000D01*
D42*
X93281500Y-58547000D02*
X93281500Y-58991500D01*
X80518000Y-71556500D02*
X80518000Y-71374000D01*
X80319500Y-71755000D02*
X80518000Y-71556500D01*
X79502000Y-71755000D02*
X80319500Y-71755000D01*
X116205000Y-65278000D02*
X118872000Y-65278000D01*
X118872000Y-65278000D02*
X119380000Y-64770000D01*
D43*
X121920000Y-64770000D02*
X119380000Y-64770000D01*
X123190000Y-70187720D02*
X125000000Y-71997720D01*
X123190000Y-66040000D02*
X123190000Y-70187720D01*
X121920000Y-64770000D02*
X123190000Y-66040000D01*
D42*
X64643000Y-74295000D02*
X64643000Y-75692000D01*
X64643000Y-75692000D02*
X64516000Y-75692000D01*
X82042000Y-82042000D02*
X75692000Y-82042000D01*
X75692000Y-82042000D02*
X72390000Y-78740000D01*
X72390000Y-78740000D02*
X71628000Y-78740000D01*
X75184000Y-81534000D02*
X72390000Y-78740000D01*
X65532000Y-75692000D02*
X65532000Y-77978000D01*
X65532000Y-77978000D02*
X66802000Y-79248000D01*
X66802000Y-79248000D02*
X69342000Y-79248000D01*
X61595000Y-71628000D02*
X60523500Y-71628000D01*
X60523500Y-71628000D02*
X60198000Y-71953500D01*
X60198000Y-71953500D02*
X60198000Y-73660000D01*
X60198000Y-73660000D02*
X60960000Y-74422000D01*
X60960000Y-74422000D02*
X62230000Y-74422000D01*
X62230000Y-74422000D02*
X63500000Y-75692000D01*
X63500000Y-75692000D02*
X64516000Y-75692000D01*
X64516000Y-75692000D02*
X65532000Y-75692000D01*
X73279000Y-66040000D02*
X74422000Y-66040000D01*
X74422000Y-66040000D02*
X74930000Y-65532000D01*
D44*
X82042000Y-58547000D02*
X86360000Y-58547000D01*
X86360000Y-58547000D02*
X93281500Y-58547000D01*
D45*
X86395560Y-67310000D02*
X86395560Y-58582560D01*
X86395560Y-58582560D02*
X86360000Y-58547000D01*
D42*
X106807000Y-70612000D02*
X106807000Y-71755000D01*
X106807000Y-69215000D02*
X106807000Y-70612000D01*
X106807000Y-70612000D02*
X108966000Y-70612000D01*
X108966000Y-70612000D02*
X108839000Y-70612000D01*
X108839000Y-70612000D02*
X110617000Y-68834000D01*
X100838000Y-66040000D02*
X101473000Y-66675000D01*
X97282000Y-66040000D02*
X100838000Y-66040000D01*
D41*
X102104785Y-69150715D02*
X102104785Y-68830785D01*
X102040500Y-69215000D02*
X102104785Y-69150715D01*
X101473000Y-69215000D02*
X102040500Y-69215000D01*
D42*
X115062000Y-82550000D02*
X108204000Y-82550000D01*
X116713000Y-80899000D02*
X115062000Y-82550000D01*
X97282000Y-66040000D02*
X96525501Y-65283501D01*
X96525501Y-65283501D02*
X96525501Y-65108499D01*
X96525501Y-65108499D02*
X96435501Y-65018499D01*
X96435501Y-65018499D02*
X92202000Y-65018499D01*
X92202000Y-65018499D02*
X90175501Y-65018499D01*
X90175501Y-65018499D02*
X88392000Y-66802000D01*
X85598000Y-74168000D02*
X85598000Y-72517000D01*
X85598000Y-72517000D02*
X85471000Y-72390000D01*
X62103000Y-69850000D02*
X60706000Y-69850000D01*
X60706000Y-69850000D02*
X60198000Y-70358000D01*
X97917000Y-74295000D02*
X101473000Y-74295000D01*
X110998000Y-75692000D02*
X112395000Y-75692000D01*
X110744000Y-75946000D02*
X110998000Y-75692000D01*
X69977000Y-66675000D02*
X70612000Y-68834000D01*
X70612000Y-68834000D02*
X70231000Y-69215000D01*
D43*
X52705000Y-66294000D02*
X51562000Y-66294000D01*
X51562000Y-66294000D02*
X50546000Y-67310000D01*
X56515000Y-66499740D02*
X52910740Y-66499740D01*
X52910740Y-66499740D02*
X52705000Y-66294000D01*
D42*
X40386000Y-56462000D02*
X40386000Y-55372000D01*
D43*
X87884000Y-67310000D02*
X86395560Y-67310000D01*
X88392000Y-66802000D02*
X87884000Y-67310000D01*
D42*
X116713000Y-78740000D02*
X116713000Y-80899000D01*
X119001260Y-83187260D02*
X119001260Y-84000000D01*
X116713000Y-80899000D02*
X119001260Y-83187260D01*
X67056000Y-46482000D02*
X70604000Y-46482000D01*
X70604000Y-46482000D02*
X71120000Y-46998000D01*
X71120000Y-46998000D02*
X71120000Y-48387000D01*
X116713000Y-78740000D02*
X116713000Y-76073000D01*
X115570000Y-74930000D02*
X114808000Y-74930000D01*
X116713000Y-76073000D02*
X115570000Y-74930000D01*
X105283000Y-73787000D02*
X105283000Y-74295000D01*
X105283000Y-73533000D02*
X105283000Y-73787000D01*
X106807000Y-72009000D02*
X105283000Y-73533000D01*
X106807000Y-71755000D02*
X106807000Y-72009000D01*
D41*
X70231000Y-70485000D02*
X70104000Y-70612000D01*
X70231000Y-69215000D02*
X70231000Y-70485000D01*
X70231000Y-70231000D02*
X70104000Y-70358000D01*
X70104000Y-70358000D02*
X70104000Y-70612000D01*
X107696000Y-71882000D02*
X106934000Y-71882000D01*
X106934000Y-71882000D02*
X106807000Y-71755000D01*
X101473000Y-76835000D02*
X101473000Y-76990318D01*
X101473000Y-76990318D02*
X100838000Y-77625318D01*
X101473000Y-76835000D02*
X101473000Y-76987483D01*
X101473000Y-76987483D02*
X102111080Y-77625563D01*
D42*
X97917000Y-74295000D02*
X97917000Y-76835000D01*
X97282000Y-66040000D02*
X97282000Y-67945000D01*
X101473000Y-69215000D02*
X101473000Y-66675000D01*
X101473000Y-71755000D02*
X101473000Y-69215000D01*
X101473000Y-74295000D02*
X101473000Y-71755000D01*
X101473000Y-76835000D02*
X101473000Y-74295000D01*
D41*
X74688200Y-60028660D02*
X74688200Y-60452924D01*
X74688200Y-59702200D02*
X74688200Y-60028660D01*
X73533000Y-58547000D02*
X74688200Y-59702200D01*
D42*
X84582000Y-74930000D02*
X84582000Y-73279000D01*
X84582000Y-73279000D02*
X85471000Y-72390000D01*
D43*
X86395560Y-67310000D02*
X86395560Y-71465440D01*
X86395560Y-71465440D02*
X85471000Y-72390000D01*
X73279000Y-66040000D02*
X73279000Y-69215000D01*
X70231000Y-69215000D02*
X73279000Y-69215000D01*
D42*
X70612000Y-68834000D02*
X70231000Y-69215000D01*
X62103000Y-69850000D02*
X62103000Y-71120000D01*
X62103000Y-71120000D02*
X61595000Y-71628000D01*
X62103000Y-67945000D02*
X62103000Y-69850000D01*
D44*
X80010000Y-52961540D02*
X80010000Y-56515000D01*
X80010000Y-56515000D02*
X82042000Y-58547000D01*
X67373500Y-58547000D02*
X73533000Y-58547000D01*
X76200000Y-55880000D02*
X76200000Y-52961540D01*
X73533000Y-58547000D02*
X76200000Y-55880000D01*
D43*
X74894440Y-52997100D02*
X74930000Y-52961540D01*
X85090000Y-49403000D02*
X82677000Y-49403000D01*
X81280000Y-50800000D02*
X81280000Y-52961540D01*
X82677000Y-49403000D02*
X81280000Y-50800000D01*
X80010000Y-52961540D02*
X81280000Y-52961540D01*
X77470000Y-52961540D02*
X80010000Y-52961540D01*
X76200000Y-52961540D02*
X77470000Y-52961540D01*
X74930000Y-52961540D02*
X76200000Y-52961540D01*
X71120000Y-48387000D02*
X73787000Y-48387000D01*
X74930000Y-49530000D02*
X74930000Y-51308000D01*
X73787000Y-48387000D02*
X74930000Y-49530000D01*
X71882000Y-50800000D02*
X74422000Y-50800000D01*
X74930000Y-51308000D02*
X74930000Y-52961540D01*
X74422000Y-50800000D02*
X74930000Y-51308000D01*
X71117193Y-71628000D02*
X71301204Y-71443989D01*
X71301204Y-71443989D02*
X74606011Y-71443989D01*
X76581000Y-69469000D02*
X76581000Y-69215000D01*
X69088000Y-71628000D02*
X71117193Y-71628000D01*
X66929000Y-69215000D02*
X66929000Y-69469000D01*
X66929000Y-69469000D02*
X69088000Y-71628000D01*
X74606011Y-71443989D02*
X76581000Y-69469000D01*
X76581000Y-69215000D02*
X79883000Y-69215000D01*
X79883000Y-69215000D02*
X81244440Y-67853560D01*
X81244440Y-67853560D02*
X81244440Y-67310000D01*
X76581000Y-66040000D02*
X79974440Y-66040000D01*
X79974440Y-66040000D02*
X81244440Y-67310000D01*
D41*
X94742000Y-71882000D02*
X91948000Y-69088000D01*
X96603736Y-71882000D02*
X94742000Y-71882000D01*
X97028000Y-71882000D02*
X96603736Y-71882000D01*
X106807000Y-66675000D02*
X106807000Y-67183000D01*
X106807000Y-67183000D02*
X106172000Y-67818000D01*
D42*
X83312000Y-73406000D02*
X83185000Y-73406000D01*
X83185000Y-73406000D02*
X83058000Y-73279000D01*
D43*
X66929000Y-68961000D02*
X65831999Y-67863999D01*
X66929000Y-69215000D02*
X66929000Y-68961000D01*
X65831999Y-67863999D02*
X65532000Y-67564000D01*
D42*
X83058000Y-74930000D02*
X83058000Y-73279000D01*
X83058000Y-73279000D02*
X82169000Y-72390000D01*
D43*
X82169000Y-72390000D02*
X82169000Y-68234560D01*
X82169000Y-68234560D02*
X81244440Y-67310000D01*
X80990440Y-67564000D02*
X81244440Y-67310000D01*
D42*
X105283000Y-69215000D02*
X105283000Y-66675000D01*
X105283000Y-71755000D02*
X105283000Y-69215000D01*
D41*
X105283000Y-71755000D02*
X104267000Y-71755000D01*
X104267000Y-71755000D02*
X104140000Y-71882000D01*
X110293989Y-72711600D02*
X110293989Y-74489600D01*
X103480977Y-79707033D02*
X103226977Y-79961033D01*
X100213124Y-80136032D02*
X99788860Y-80136032D01*
X105076556Y-79707033D02*
X103480977Y-79707033D01*
X110293989Y-74489600D02*
X105076556Y-79707033D01*
X115062000Y-70290500D02*
X112715089Y-70290500D01*
X103226977Y-79961033D02*
X100388123Y-79961033D01*
X112715089Y-70290500D02*
X110293989Y-72711600D01*
X100388123Y-79961033D02*
X100213124Y-80136032D01*
X116205000Y-66802000D02*
X115383500Y-66802000D01*
X115383500Y-66802000D02*
X115062000Y-67123500D01*
X115062000Y-67123500D02*
X115062000Y-70290500D01*
X115062000Y-70290500D02*
X115383500Y-70612000D01*
X115383500Y-70612000D02*
X116205000Y-70612000D01*
X106126001Y-82341999D02*
X106426000Y-82042000D01*
X105918000Y-84328000D02*
X105918000Y-82550000D01*
X105918000Y-82550000D02*
X106126001Y-82341999D01*
X105918000Y-84328000D02*
X106565241Y-84975241D01*
X110025019Y-84975241D02*
X110350021Y-84650239D01*
X106565241Y-84975241D02*
X110025019Y-84975241D01*
X110350021Y-84650239D02*
X111000260Y-84000000D01*
X97282000Y-84455000D02*
X97849500Y-84455000D01*
X97849500Y-84455000D02*
X98230500Y-84836000D01*
X98230500Y-84836000D02*
X105410000Y-84836000D01*
X105410000Y-84836000D02*
X105918000Y-84328000D01*
D43*
X69850000Y-74168000D02*
X70274264Y-74168000D01*
X70274264Y-74168000D02*
X71798264Y-72644000D01*
X71798264Y-72644000D02*
X75771500Y-72644000D01*
X75771500Y-72644000D02*
X76660500Y-71755000D01*
X76660500Y-71755000D02*
X77978000Y-71755000D01*
X125667260Y-67501260D02*
X126746000Y-68580000D01*
X126746000Y-68580000D02*
X126746000Y-78486000D01*
X126746000Y-78486000D02*
X125730000Y-79502000D01*
X125730000Y-79502000D02*
X121920000Y-79502000D01*
X121920000Y-79502000D02*
X120142000Y-77724000D01*
X125667260Y-67501260D02*
X125000000Y-67501260D01*
X112522000Y-74041000D02*
X112395000Y-74168000D01*
X112522000Y-72644000D02*
X112522000Y-74041000D01*
D42*
X102997000Y-66675000D02*
X102997000Y-65659000D01*
X102997000Y-65659000D02*
X102870000Y-65532000D01*
X95263872Y-76708000D02*
X96266000Y-76708000D01*
X96266000Y-76708000D02*
X96393000Y-76835000D01*
D41*
X103632000Y-73152000D02*
X103632000Y-75438000D01*
X103886000Y-72898000D02*
X103632000Y-73152000D01*
X77978000Y-71755000D02*
X77978000Y-71501000D01*
X77978000Y-71501000D02*
X78740000Y-70739000D01*
X78740000Y-70739000D02*
X78740000Y-70612000D01*
D42*
X92583000Y-81915000D02*
X91313000Y-81915000D01*
X91313000Y-81915000D02*
X91186000Y-81788000D01*
X91186000Y-82212264D02*
X91186000Y-81788000D01*
X92583000Y-84201000D02*
X91186000Y-82804000D01*
X92615998Y-79248000D02*
X91186000Y-80677998D01*
X91186000Y-82804000D02*
X91186000Y-82212264D01*
X92583000Y-84455000D02*
X92583000Y-84201000D01*
X91186000Y-81363736D02*
X91186000Y-81788000D01*
X91186000Y-80677998D02*
X91186000Y-81363736D01*
X94234000Y-79248000D02*
X92615998Y-79248000D01*
X77978000Y-72826500D02*
X77978000Y-73660000D01*
X77978000Y-73660000D02*
X80264000Y-75946000D01*
X77978000Y-71755000D02*
X77978000Y-72826500D01*
X102997000Y-69215000D02*
X102997000Y-70358000D01*
X102997000Y-70358000D02*
X102997000Y-71755000D01*
X99060000Y-68580000D02*
X100330000Y-69850000D01*
X100330000Y-69850000D02*
X100330000Y-71374000D01*
X98298000Y-68580000D02*
X99060000Y-68580000D01*
X97790000Y-69088000D02*
X98298000Y-68580000D01*
X96266000Y-69088000D02*
X97790000Y-69088000D01*
X95758000Y-68580000D02*
X96266000Y-69088000D01*
X95758000Y-67945000D02*
X95758000Y-68580000D01*
X92583000Y-81888965D02*
X92583000Y-81915000D01*
X93578466Y-80893499D02*
X92583000Y-81888965D01*
X94736499Y-80893499D02*
X93578466Y-80893499D01*
X95758000Y-81915000D02*
X94736499Y-80893499D01*
X95263872Y-76745892D02*
X95263872Y-76708000D01*
X95263872Y-76708000D02*
X95263872Y-77208228D01*
X94798616Y-77673484D02*
X94498617Y-77973483D01*
X95263872Y-77208228D02*
X94798616Y-77673484D01*
D43*
X112268000Y-67564000D02*
X112268000Y-66548000D01*
X112268000Y-66548000D02*
X110998000Y-65278000D01*
D42*
X102997000Y-76835000D02*
X102997000Y-77906500D01*
X102997000Y-77906500D02*
X102417500Y-78486000D01*
X96393000Y-77089000D02*
X96393000Y-76835000D01*
X102417500Y-78486000D02*
X97790000Y-78486000D01*
X97790000Y-78486000D02*
X96393000Y-77089000D01*
D43*
X125000000Y-42996960D02*
X125800960Y-42996960D01*
X125800960Y-42996960D02*
X126492000Y-43688000D01*
X126492000Y-43688000D02*
X126492000Y-66802000D01*
X126492000Y-66802000D02*
X125792740Y-67501260D01*
X125792740Y-67501260D02*
X125000000Y-67501260D01*
D42*
X95758000Y-84455000D02*
X95758000Y-84709000D01*
X92583000Y-84630002D02*
X92583000Y-84455000D01*
X95758000Y-84709000D02*
X94990499Y-85476501D01*
X94990499Y-85476501D02*
X93429499Y-85476501D01*
X93429499Y-85476501D02*
X92583000Y-84630002D01*
D41*
X103660494Y-77752494D02*
X103768990Y-77752494D01*
X102997000Y-76835000D02*
X102997000Y-77089000D01*
X102997000Y-77089000D02*
X103660494Y-77752494D01*
X104856011Y-77170001D02*
X105156010Y-77470000D01*
X104521010Y-76835000D02*
X104856011Y-77170001D01*
X102997000Y-76835000D02*
X104521010Y-76835000D01*
D42*
X114808000Y-73660000D02*
X112903000Y-73660000D01*
X112903000Y-73660000D02*
X112395000Y-74168000D01*
D41*
X94996000Y-67734264D02*
X94996000Y-67310000D01*
X94996000Y-67750500D02*
X94996000Y-67734264D01*
X95190500Y-67945000D02*
X94996000Y-67750500D01*
X95758000Y-67945000D02*
X95190500Y-67945000D01*
X103886000Y-70104000D02*
X102997000Y-69215000D01*
D42*
X102997000Y-74295000D02*
X102997000Y-76835000D01*
X102997000Y-71755000D02*
X102997000Y-74295000D01*
X102997000Y-66675000D02*
X102997000Y-69215000D01*
D41*
X95758000Y-66040000D02*
X94996000Y-66040000D01*
X95250000Y-75946000D02*
X96393000Y-74803000D01*
X96393000Y-74803000D02*
X96393000Y-74295000D01*
X64984930Y-70640430D02*
X65366176Y-70640430D01*
X64194500Y-69850000D02*
X64984930Y-70640430D01*
X65366176Y-70640430D02*
X65790440Y-70640430D01*
X63627000Y-69850000D02*
X64194500Y-69850000D01*
D42*
X63627000Y-69850000D02*
X63627000Y-70231000D01*
X63627000Y-70231000D02*
X64897000Y-71501000D01*
X64897000Y-71501000D02*
X64897000Y-71755000D01*
D41*
X76454000Y-76962000D02*
X76454000Y-76200000D01*
X76454000Y-76200000D02*
X77216000Y-75438000D01*
D42*
X61595000Y-73152000D02*
X61976000Y-73152000D01*
X61976000Y-73152000D02*
X63373000Y-71755000D01*
X62992000Y-55118000D02*
X59436000Y-55118000D01*
X59436000Y-55118000D02*
X58674000Y-55880000D01*
X64516000Y-56642000D02*
X62992000Y-55118000D01*
X41739718Y-57404000D02*
X42163982Y-57404000D01*
X41294000Y-57404000D02*
X41739718Y-57404000D01*
X40386000Y-58312000D02*
X41294000Y-57404000D01*
X40386000Y-59362000D02*
X40386000Y-58312000D01*
X40386000Y-59362000D02*
X40386000Y-60758960D01*
X40386000Y-60758960D02*
X41857040Y-62230000D01*
X41857040Y-62230000D02*
X43855640Y-62230000D01*
D43*
X53340000Y-37338000D02*
X51308000Y-37338000D01*
X51308000Y-36322000D02*
X51308000Y-35306000D01*
X51308000Y-34290000D02*
X57912000Y-34290000D01*
X57912000Y-35306000D02*
X57912000Y-36322000D01*
X53340000Y-37338000D02*
X54610000Y-38608000D01*
X54610000Y-42359580D02*
X54610000Y-38608000D01*
D41*
X44704000Y-51562000D02*
X48629978Y-55487978D01*
X71106394Y-64853490D02*
X71406393Y-65153489D01*
X48629978Y-55487978D02*
X49140798Y-55487978D01*
X49140798Y-55487978D02*
X52428420Y-58775600D01*
X52428420Y-58775600D02*
X54460421Y-58775600D01*
X64381499Y-65666501D02*
X65220009Y-64827991D01*
X54460421Y-58775600D02*
X56390821Y-60706000D01*
X56390821Y-60706000D02*
X57914824Y-60706000D01*
X60894510Y-65666501D02*
X64381499Y-65666501D01*
X57914824Y-60706000D02*
X59320022Y-62111198D01*
X60149033Y-64921022D02*
X60894510Y-65666501D01*
X59320022Y-62111198D02*
X59320022Y-63584012D01*
X59320022Y-63584012D02*
X60149033Y-64413023D01*
X60149033Y-64413023D02*
X60149033Y-64921022D01*
X65220009Y-64827991D02*
X71080895Y-64827991D01*
X71080895Y-64827991D02*
X71106394Y-64853490D01*
D42*
X41275000Y-50673000D02*
X40767000Y-50673000D01*
X40767000Y-50673000D02*
X40132000Y-51308000D01*
X40132000Y-52832000D02*
X41148000Y-53848000D01*
X40132000Y-51308000D02*
X40132000Y-52832000D01*
X41148000Y-53848000D02*
X41148000Y-53975000D01*
D43*
X43180000Y-50673000D02*
X41275000Y-50673000D01*
X44450000Y-44323000D02*
X44450000Y-47244000D01*
X43815000Y-50673000D02*
X43180000Y-50673000D01*
X44704000Y-51562000D02*
X43815000Y-50673000D01*
X47550000Y-40640000D02*
X52890420Y-40640000D01*
X52890420Y-40640000D02*
X54610000Y-42359580D01*
X46990000Y-44323000D02*
X52646580Y-44323000D01*
X52646580Y-44323000D02*
X54610000Y-42359580D01*
X41910000Y-44323000D02*
X44450000Y-44323000D01*
X44450000Y-44323000D02*
X46990000Y-44323000D01*
D41*
X60931598Y-66339999D02*
X64843085Y-66339999D01*
X59699022Y-64599423D02*
X59699022Y-65107422D01*
X58870011Y-63770412D02*
X59699022Y-64599423D01*
X58870011Y-62297598D02*
X58870011Y-63770412D01*
X43180000Y-52197000D02*
X43434000Y-52197000D01*
X57787371Y-61214958D02*
X58870011Y-62297598D01*
X48954399Y-55937989D02*
X52256399Y-59239989D01*
X59699022Y-65107422D02*
X60931598Y-66339999D01*
X54288400Y-59239989D02*
X56263369Y-61214958D01*
X64843085Y-66339999D02*
X65143084Y-66040000D01*
X45652400Y-53397989D02*
X48192400Y-55937989D01*
X43434000Y-52197000D02*
X44634989Y-53397989D01*
X48192400Y-55937989D02*
X48954399Y-55937989D01*
X56263369Y-61214958D02*
X57787371Y-61214958D01*
X44634989Y-53397989D02*
X45652400Y-53397989D01*
X52256399Y-59239989D02*
X54288400Y-59239989D01*
D43*
X41275000Y-52197000D02*
X43180000Y-52197000D01*
X78740000Y-38100000D02*
X77978000Y-37338000D01*
X77978000Y-37338000D02*
X75438000Y-37338000D01*
X75438000Y-36322000D02*
X75438000Y-35306000D01*
X75438000Y-34290000D02*
X82042000Y-34290000D01*
X82042000Y-35306000D02*
X82042000Y-36322000D01*
X78740000Y-38100000D02*
X78740000Y-42359580D01*
X71120000Y-44323000D02*
X76776580Y-44323000D01*
X76776580Y-44323000D02*
X78740000Y-42359580D01*
X71680000Y-40640000D02*
X77020420Y-40640000D01*
X77020420Y-40640000D02*
X78740000Y-42359580D01*
D44*
X77020420Y-40640000D02*
X78740000Y-42359580D01*
D41*
X72174011Y-55709761D02*
X72174011Y-56134025D01*
X70358000Y-52705000D02*
X70358000Y-52959000D01*
X70358000Y-52959000D02*
X72174011Y-54775011D01*
X72174011Y-54775011D02*
X72174011Y-55709761D01*
D42*
X68580000Y-51308000D02*
X68961000Y-51308000D01*
X68961000Y-51308000D02*
X70358000Y-52705000D01*
D43*
X77020420Y-40640000D02*
X78740000Y-42359580D01*
X68580000Y-44323000D02*
X68580000Y-44450000D01*
X68580000Y-44323000D02*
X71120000Y-44323000D01*
X77020420Y-40640000D02*
X78740000Y-42359580D01*
D42*
X66167000Y-51308000D02*
X66675000Y-51308000D01*
D43*
X67818000Y-50038000D02*
X67818000Y-51054000D01*
X67818000Y-51054000D02*
X68072000Y-51308000D01*
X68072000Y-51308000D02*
X68580000Y-51308000D01*
X67818000Y-50038000D02*
X67818000Y-50800000D01*
X67818000Y-50800000D02*
X67310000Y-51308000D01*
X67310000Y-51308000D02*
X66675000Y-51308000D01*
X77020420Y-40640000D02*
X78740000Y-42359580D01*
X66040000Y-44323000D02*
X68580000Y-44323000D01*
D41*
X71374000Y-55709736D02*
X71374000Y-56134000D01*
X68834000Y-52832000D02*
X71374000Y-55372000D01*
X71374000Y-55372000D02*
X71374000Y-55709736D01*
X68580000Y-52832000D02*
X68834000Y-52832000D01*
D43*
X66675000Y-52832000D02*
X68580000Y-52832000D01*
X102870000Y-38100000D02*
X102108000Y-37338000D01*
X102108000Y-37338000D02*
X99568000Y-37338000D01*
X99568000Y-36322000D02*
X99568000Y-35306000D01*
X99568000Y-34290000D02*
X106172000Y-34290000D01*
X106172000Y-35306000D02*
X106172000Y-36322000D01*
X102870000Y-38100000D02*
X102870000Y-42359580D01*
D41*
X92118264Y-53848000D02*
X89024265Y-56941999D01*
X87675999Y-56687999D02*
X87376000Y-56388000D01*
X87929999Y-56941999D02*
X87675999Y-56687999D01*
X94488000Y-52959000D02*
X93599000Y-53848000D01*
X89024265Y-56941999D02*
X87929999Y-56941999D01*
X94488000Y-52705000D02*
X94488000Y-52959000D01*
X93599000Y-53848000D02*
X92118264Y-53848000D01*
D42*
X92710000Y-51308000D02*
X93091000Y-51308000D01*
X93091000Y-51308000D02*
X94488000Y-52705000D01*
D43*
X91694000Y-51308000D02*
X91694000Y-50546000D01*
X92710000Y-44450000D02*
X92710000Y-44323000D01*
X91694000Y-50546000D02*
X91948000Y-50292000D01*
X92710000Y-51308000D02*
X91694000Y-51308000D01*
X91694000Y-51308000D02*
X91440000Y-51308000D01*
X91440000Y-51308000D02*
X90805000Y-51308000D01*
D42*
X90805000Y-51308000D02*
X90424000Y-51308000D01*
D43*
X95250000Y-44323000D02*
X100906580Y-44323000D01*
X100906580Y-44323000D02*
X102870000Y-42359580D01*
X90170000Y-44323000D02*
X92710000Y-44323000D01*
X92710000Y-44323000D02*
X95250000Y-44323000D01*
X95810000Y-40132000D02*
X100642420Y-40132000D01*
X100642420Y-40132000D02*
X102870000Y-42359580D01*
D41*
X90805000Y-54138004D02*
X88672005Y-56270999D01*
X87539002Y-55626000D02*
X86530264Y-55626000D01*
X86530264Y-55626000D02*
X86106000Y-55626000D01*
X88184001Y-56270999D02*
X87539002Y-55626000D01*
X90805000Y-52832000D02*
X90805000Y-54138004D01*
X88672005Y-56270999D02*
X88184001Y-56270999D01*
D43*
X90805000Y-52832000D02*
X92710000Y-52832000D01*
D41*
X125000000Y-59500260D02*
X118807740Y-59500260D01*
X109998401Y-71097956D02*
X109750044Y-71097956D01*
X106807000Y-74041000D02*
X106807000Y-74295000D01*
X113711967Y-67384390D02*
X109998401Y-71097956D01*
X118807740Y-59500260D02*
X113711967Y-64596033D01*
X109750044Y-71097956D02*
X106807000Y-74041000D01*
X113711967Y-64596033D02*
X113711967Y-67384390D01*
X106934000Y-73152000D02*
X106934000Y-74168000D01*
X106934000Y-74168000D02*
X106807000Y-74295000D01*
D42*
X58374001Y-72597993D02*
X58674000Y-72897992D01*
X57864630Y-72088622D02*
X58374001Y-72597993D01*
X57864630Y-64590550D02*
X57864630Y-72088622D01*
X56515000Y-63240920D02*
X57864630Y-64590550D01*
X56515000Y-63040260D02*
X56515000Y-63240920D01*
X99108002Y-82042000D02*
X105315996Y-82042000D01*
X92780512Y-80193488D02*
X97259490Y-80193488D01*
X107188000Y-83108838D02*
X108079162Y-84000000D01*
X107188000Y-81693996D02*
X107188000Y-83108838D01*
X106065998Y-81291998D02*
X106786002Y-81291998D01*
X106786002Y-81291998D02*
X107188000Y-81693996D01*
X92456000Y-80518000D02*
X92780512Y-80193488D01*
X105315996Y-82042000D02*
X106065998Y-81291998D01*
X97259490Y-80193488D02*
X99108002Y-82042000D01*
X108079162Y-84000000D02*
X108998740Y-84000000D01*
X58674000Y-73633965D02*
X67082035Y-82042000D01*
X58674000Y-72898000D02*
X58674000Y-73633965D01*
X73997736Y-82042000D02*
X74422000Y-82042000D01*
X90378001Y-81579999D02*
X89154000Y-82804000D01*
X90378001Y-80309999D02*
X90378001Y-81579999D01*
X74721999Y-82341999D02*
X74422000Y-82042000D01*
X75184000Y-82804000D02*
X74721999Y-82341999D01*
X90678000Y-80010000D02*
X90378001Y-80309999D01*
X67082035Y-82042000D02*
X73997736Y-82042000D01*
X89154000Y-82804000D02*
X75184000Y-82804000D01*
X58674000Y-72897992D02*
X58674000Y-72898000D01*
X58674000Y-72644000D02*
X58674000Y-72898000D01*
X52705000Y-63246000D02*
X52705000Y-62611000D01*
X52705000Y-62611000D02*
X54206004Y-61109996D01*
X54206004Y-61109996D02*
X54638097Y-61109996D01*
D45*
X48854360Y-62230000D02*
X51689000Y-62230000D01*
X51689000Y-62230000D02*
X52705000Y-63246000D01*
X56515000Y-63040260D02*
X52910740Y-63040260D01*
X52910740Y-63040260D02*
X52705000Y-63246000D01*
D41*
X62992000Y-64770000D02*
X64516000Y-64770000D01*
X64516000Y-64770000D02*
X64941977Y-64344023D01*
X73727600Y-62541989D02*
X79245547Y-62541989D01*
X64941977Y-64344023D02*
X71925566Y-64344023D01*
X71925566Y-64344023D02*
X73727600Y-62541989D01*
X79245547Y-62541989D02*
X80019537Y-61767999D01*
X80019537Y-61767999D02*
X80319536Y-61468000D01*
X71247000Y-60960000D02*
X71755000Y-61468000D01*
X71755000Y-61468000D02*
X78232000Y-61468000D01*
X78232000Y-61468000D02*
X79502000Y-60198000D01*
X79502000Y-60198000D02*
X81617736Y-60198000D01*
X81617736Y-60198000D02*
X82042000Y-60198000D01*
D43*
X41350000Y-40640000D02*
X41350000Y-41708000D01*
X41350000Y-41708000D02*
X39878000Y-43180000D01*
X39878000Y-43180000D02*
X39878000Y-46355000D01*
X39878000Y-46355000D02*
X41910000Y-48387000D01*
X41910000Y-48387000D02*
X43561000Y-48387000D01*
X43561000Y-48387000D02*
X45974000Y-50800000D01*
X45974000Y-50800000D02*
X46228000Y-50800000D01*
D44*
X52070000Y-52961540D02*
X52070000Y-54102000D01*
X52070000Y-54102000D02*
X53086000Y-55118000D01*
X56261000Y-58547000D02*
X60896500Y-58547000D01*
X54864000Y-57150000D02*
X56261000Y-58547000D01*
X53594000Y-57150000D02*
X54864000Y-57150000D01*
X53086000Y-56642000D02*
X53594000Y-57150000D01*
X53086000Y-55118000D02*
X53086000Y-56642000D01*
D41*
X70248788Y-63894012D02*
X70995829Y-63894012D01*
X70995829Y-63894012D02*
X72297272Y-62592569D01*
X60896500Y-58547000D02*
X60896500Y-60121800D01*
X60896500Y-60121800D02*
X65303712Y-63894012D01*
X65303712Y-63894012D02*
X70248788Y-63894012D01*
D43*
X60896500Y-58547000D02*
X60071000Y-58547000D01*
X60960000Y-49403000D02*
X58547000Y-49403000D01*
X57150000Y-50800000D02*
X57150000Y-52961540D01*
X58547000Y-49403000D02*
X57150000Y-50800000D01*
X46990000Y-48387000D02*
X49657000Y-48387000D01*
X50800000Y-49530000D02*
X50800000Y-51308000D01*
X49657000Y-48387000D02*
X50800000Y-49530000D01*
X47752000Y-50800000D02*
X50292000Y-50800000D01*
X50800000Y-51308000D02*
X50800000Y-52961540D01*
X50292000Y-50800000D02*
X50800000Y-51308000D01*
X52070000Y-52961540D02*
X50800000Y-52961540D01*
X53340000Y-52961540D02*
X52070000Y-52961540D01*
X55880000Y-52961540D02*
X53340000Y-52961540D01*
X57150000Y-52961540D02*
X55880000Y-52961540D01*
X66040000Y-48387000D02*
X67945000Y-48387000D01*
X67945000Y-48387000D02*
X70358000Y-50800000D01*
X66040000Y-48387000D02*
X66040000Y-47752000D01*
X66040000Y-47752000D02*
X64008000Y-45720000D01*
X64008000Y-45720000D02*
X64008000Y-43180000D01*
X64008000Y-43180000D02*
X65480000Y-41708000D01*
X65480000Y-41708000D02*
X65480000Y-40640000D01*
X90170000Y-48387000D02*
X92075000Y-48387000D01*
X92075000Y-48387000D02*
X94488000Y-50800000D01*
X90170000Y-48387000D02*
X90170000Y-47752000D01*
X90170000Y-47752000D02*
X88138000Y-45720000D01*
X88138000Y-45720000D02*
X88138000Y-42672000D01*
X88138000Y-42672000D02*
X89610000Y-41200000D01*
X89610000Y-41200000D02*
X89610000Y-40132000D01*
D41*
X98289300Y-58547000D02*
X97282000Y-57539700D01*
X99758500Y-58547000D02*
X98289300Y-58547000D01*
X97282000Y-57320264D02*
X97282000Y-56896000D01*
X97282000Y-57539700D02*
X97282000Y-57320264D01*
D44*
X104140000Y-52961540D02*
X104140000Y-56642000D01*
X102235000Y-58547000D02*
X99758500Y-58547000D01*
X104140000Y-56642000D02*
X102235000Y-58547000D01*
D43*
X100330000Y-57975500D02*
X99758500Y-58547000D01*
X109220000Y-49403000D02*
X106807000Y-49403000D01*
X105410000Y-50800000D02*
X105410000Y-52961540D01*
X106807000Y-49403000D02*
X105410000Y-50800000D01*
X95250000Y-48387000D02*
X97917000Y-48387000D01*
X99060000Y-49530000D02*
X99060000Y-51308000D01*
X97917000Y-48387000D02*
X99060000Y-49530000D01*
X104140000Y-52961540D02*
X105410000Y-52961540D01*
X101600000Y-52961540D02*
X104140000Y-52961540D01*
X100330000Y-52961540D02*
X101600000Y-52961540D01*
X99060000Y-52961540D02*
X100330000Y-52961540D01*
X96012000Y-50800000D02*
X98552000Y-50800000D01*
X99060000Y-51308000D02*
X99060000Y-52961540D01*
X98552000Y-50800000D02*
X99060000Y-51308000D01*
D41*
X69809292Y-62998613D02*
X70109291Y-62698614D01*
X65649002Y-55579998D02*
X65649002Y-63234592D01*
X65858411Y-63444001D02*
X69363904Y-63444001D01*
X69363904Y-63444001D02*
X69809292Y-62998613D01*
X65649002Y-63234592D02*
X65858411Y-63444001D01*
X64516000Y-54356000D02*
X65649002Y-55579998D01*
X64262000Y-47498000D02*
X64262000Y-50546000D01*
X64262000Y-50546000D02*
X64262000Y-50546000D01*
X64262000Y-50546000D02*
X64262000Y-50546000D01*
X64262000Y-50546000D02*
X64262000Y-50546000D01*
X64262000Y-50546000D02*
X64516000Y-50800000D01*
X64516000Y-50800000D02*
X64516000Y-54356000D01*
X62484000Y-45636264D02*
X64262000Y-47498000D01*
X62484000Y-45212000D02*
X62484000Y-45636264D01*
D42*
X63500000Y-48057188D02*
X63500000Y-50555000D01*
X62616501Y-47173689D02*
X63500000Y-48057188D01*
X62616501Y-47074499D02*
X62616501Y-47173689D01*
X61770002Y-46228000D02*
X62616501Y-47074499D01*
X61595000Y-46228000D02*
X61770002Y-46228000D01*
X63500000Y-50555000D02*
X63500000Y-51455000D01*
X63500000Y-51455000D02*
X62845000Y-51455000D01*
X61722000Y-52578000D02*
X60960000Y-52578000D01*
X62845000Y-51455000D02*
X61722000Y-52578000D01*
D41*
X64775000Y-55880000D02*
X65024000Y-55880000D01*
X63500000Y-54605000D02*
X64775000Y-55880000D01*
X63500000Y-53355000D02*
X63500000Y-54605000D01*
D42*
X60960000Y-54102000D02*
X62753000Y-54102000D01*
X62753000Y-54102000D02*
X63500000Y-53355000D01*
D41*
X73147108Y-60085882D02*
X73441794Y-60085882D01*
X72390000Y-60842990D02*
X73147108Y-60085882D01*
X87122000Y-45466000D02*
X87122000Y-46228000D01*
X88392000Y-48006000D02*
X88392000Y-50546000D01*
X87630000Y-46736000D02*
X87630000Y-47244000D01*
X87630000Y-47244000D02*
X88392000Y-48006000D01*
X85857438Y-54864000D02*
X85143286Y-55578152D01*
X88646000Y-50800000D02*
X88646000Y-54356000D01*
X88646000Y-54356000D02*
X88138000Y-54864000D01*
X88392000Y-50546000D02*
X88646000Y-50800000D01*
X87122000Y-46228000D02*
X87630000Y-46736000D01*
X88138000Y-54864000D02*
X85857438Y-54864000D01*
X85143286Y-55578152D02*
X84843287Y-55878151D01*
D42*
X87630000Y-51455000D02*
X87630000Y-48260000D01*
X86868000Y-46990000D02*
X86106000Y-46228000D01*
X86868000Y-47498000D02*
X86868000Y-46990000D01*
X87630000Y-48260000D02*
X86868000Y-47498000D01*
X86106000Y-46228000D02*
X85725000Y-46228000D01*
X85090000Y-52578000D02*
X85852000Y-52578000D01*
X86975000Y-51455000D02*
X87630000Y-51455000D01*
X85852000Y-52578000D02*
X86975000Y-51455000D01*
D41*
X84067866Y-55691634D02*
X84067866Y-56074979D01*
X85090000Y-54669500D02*
X84067866Y-55691634D01*
X85090000Y-54102000D02*
X85090000Y-54669500D01*
D42*
X85090000Y-54102000D02*
X86883000Y-54102000D01*
X86883000Y-54102000D02*
X87630000Y-53355000D01*
D41*
X112776000Y-54474002D02*
X112776000Y-51308000D01*
X113030000Y-51054000D02*
X113030000Y-45720000D01*
X113030000Y-45720000D02*
X111252000Y-43942000D01*
X112776000Y-51308000D02*
X113030000Y-51054000D01*
X111252000Y-43942000D02*
X110998000Y-43942000D01*
X109591002Y-56251002D02*
X110999000Y-56251002D01*
X108966000Y-55626000D02*
X109591002Y-56251002D01*
X110999000Y-56251002D02*
X112776000Y-54474002D01*
D43*
X111760000Y-51455000D02*
X111760000Y-51054000D01*
X110744000Y-44958000D02*
X109855000Y-44958000D01*
X112014000Y-46228000D02*
X110744000Y-44958000D01*
X112014000Y-50800000D02*
X112014000Y-46228000D01*
X111760000Y-51054000D02*
X112014000Y-50800000D01*
X109220000Y-52578000D02*
X109982000Y-52578000D01*
X111105000Y-51455000D02*
X111760000Y-51455000D01*
X109982000Y-52578000D02*
X111105000Y-51455000D01*
D41*
X109220000Y-54864000D02*
X109682001Y-55326001D01*
X109682001Y-55326001D02*
X109982000Y-55626000D01*
X109220000Y-54102000D02*
X109220000Y-54864000D01*
D42*
X109220000Y-54102000D02*
X111013000Y-54102000D01*
X111013000Y-54102000D02*
X111760000Y-53355000D01*
X116205000Y-69088000D02*
X118618000Y-69088000D01*
X118618000Y-69088000D02*
X119380000Y-69850000D01*
D41*
X106378841Y-85425252D02*
X111573988Y-85425252D01*
X97867002Y-85344000D02*
X106297589Y-85344000D01*
X97859501Y-85351501D02*
X97867002Y-85344000D01*
X96704499Y-85351501D02*
X97859501Y-85351501D01*
X96520000Y-83312000D02*
X96520000Y-85167002D01*
X106297589Y-85344000D02*
X106378841Y-85425252D01*
X112349001Y-84650239D02*
X112999240Y-84000000D01*
X111573988Y-85425252D02*
X112349001Y-84650239D01*
X96520000Y-85167002D02*
X96704499Y-85351501D01*
X96520000Y-83312000D02*
X95250000Y-83312000D01*
X97282000Y-83312000D02*
X96520000Y-83312000D01*
X95250000Y-83312000D02*
X94107000Y-82169000D01*
X94107000Y-82169000D02*
X94107000Y-81915000D01*
X104394000Y-84074000D02*
X99187000Y-84074000D01*
X99187000Y-84074000D02*
X97282000Y-82169000D01*
X97282000Y-82169000D02*
X97282000Y-81915000D01*
X94107000Y-84455000D02*
X92964000Y-83312000D01*
X92755999Y-77050761D02*
X93923557Y-78218319D01*
X103108177Y-78807011D02*
X104703756Y-78807011D01*
X93923557Y-78338561D02*
X94187998Y-78603002D01*
X92755999Y-76753999D02*
X92755999Y-77050761D01*
X114161978Y-67570789D02*
X114161978Y-64908022D01*
X97297823Y-79061011D02*
X102854177Y-79061011D01*
X93923557Y-78218319D02*
X93923557Y-78338561D01*
X109393967Y-74116800D02*
X109393967Y-72338800D01*
X94187998Y-78603002D02*
X96839814Y-78603002D01*
X109393967Y-72338800D02*
X114161978Y-67570789D01*
X104703756Y-78807011D02*
X109393967Y-74116800D01*
X92456000Y-76454000D02*
X92755999Y-76753999D01*
X96839814Y-78603002D02*
X97297823Y-79061011D01*
X114161978Y-64908022D02*
X117570760Y-61499240D01*
X124080422Y-61499240D02*
X125000000Y-61499240D01*
X102854177Y-79061011D02*
X103108177Y-78807011D01*
X117570760Y-61499240D02*
X124080422Y-61499240D01*
X96234786Y-79419598D02*
X95688490Y-79419598D01*
X109843978Y-72525200D02*
X109843978Y-74303200D01*
X114611989Y-67757189D02*
X109843978Y-72525200D01*
X114611989Y-65474011D02*
X114611989Y-67757189D01*
X96326210Y-79511022D02*
X96234786Y-79419598D01*
X121476260Y-61976000D02*
X118110000Y-61976000D01*
X104890156Y-79257022D02*
X103294577Y-79257022D01*
X125000000Y-65499740D02*
X121476260Y-61976000D01*
X118110000Y-61976000D02*
X114611989Y-65474011D01*
X95688490Y-79419598D02*
X95264226Y-79419598D01*
X109843978Y-74303200D02*
X104890156Y-79257022D01*
X103040577Y-79511022D02*
X96326210Y-79511022D01*
X103294577Y-79257022D02*
X103040577Y-79511022D01*
X125000000Y-46997460D02*
X124706540Y-46997460D01*
X124706540Y-46997460D02*
X123952000Y-47752000D01*
X123952000Y-47752000D02*
X123952000Y-49410570D01*
X123952000Y-49410570D02*
X123574989Y-49787581D01*
X123574989Y-49787581D02*
X123574989Y-50669011D01*
X102915999Y-61528033D02*
X102616000Y-61828032D01*
X123574989Y-50669011D02*
X113030000Y-61214000D01*
X113030000Y-61214000D02*
X103230032Y-61214000D01*
X103230032Y-61214000D02*
X102915999Y-61528033D01*
X113053723Y-62080688D02*
X103808691Y-62080688D01*
X124024999Y-51109412D02*
X113053723Y-62080688D01*
X124024999Y-49973981D02*
X124024999Y-51109412D01*
X125000000Y-48998980D02*
X124024999Y-49973981D01*
X103808691Y-62080688D02*
X103384427Y-62080688D01*
X95250000Y-71120000D02*
X98172499Y-71120000D01*
X98172499Y-71120000D02*
X98289509Y-71237010D01*
X101899999Y-62128031D02*
X101600000Y-61828032D01*
X113262500Y-62738000D02*
X102509968Y-62738000D01*
X102509968Y-62738000D02*
X101899999Y-62128031D01*
X125000000Y-51000500D02*
X113262500Y-62738000D01*
X101600000Y-62738000D02*
X102050011Y-63188011D01*
X113892231Y-63188011D02*
X124080762Y-52999480D01*
X124080762Y-52999480D02*
X125000000Y-52999480D01*
X102050011Y-63188011D02*
X113892231Y-63188011D01*
D42*
X122555000Y-75057000D02*
X124056240Y-75057000D01*
X124056240Y-75057000D02*
X125000000Y-76000760D01*
X120142000Y-74930000D02*
X122428000Y-74930000D01*
X122428000Y-74930000D02*
X122555000Y-75057000D01*
X122555000Y-73533000D02*
X124533760Y-73533000D01*
X124533760Y-73533000D02*
X125000000Y-73999240D01*
X120142000Y-73660000D02*
X122428000Y-73660000D01*
X122428000Y-73660000D02*
X122555000Y-73533000D01*
D41*
X69271941Y-73335941D02*
X69295294Y-73335941D01*
X69088000Y-73152000D02*
X69271941Y-73335941D01*
X66167000Y-74295000D02*
X66421000Y-74295000D01*
X66421000Y-74295000D02*
X67564000Y-73152000D01*
X67564000Y-73152000D02*
X69088000Y-73152000D01*
X69088000Y-73152000D02*
X69042001Y-73106001D01*
X63627000Y-67945000D02*
X63627000Y-68199000D01*
X63627000Y-68199000D02*
X65024000Y-69596000D01*
X65024000Y-69596000D02*
X65143028Y-69596000D01*
X94615000Y-54356000D02*
X96520000Y-56261000D01*
X96520000Y-56261000D02*
X96520000Y-62483980D01*
X96520000Y-62483980D02*
X96520020Y-62484000D01*
X106843174Y-64296764D02*
X98025454Y-64296764D01*
X108575002Y-68342584D02*
X108575002Y-66028592D01*
X107624512Y-68868810D02*
X108048776Y-68868810D01*
X108048776Y-68868810D02*
X108575002Y-68342584D01*
X98025454Y-64296764D02*
X97601190Y-64296764D01*
X108575002Y-66028592D02*
X106843174Y-64296764D01*
X96012000Y-52705000D02*
X96012000Y-52959000D01*
X96012000Y-52959000D02*
X94615000Y-54356000D01*
X94615000Y-54356000D02*
X92710000Y-54356000D01*
X92710000Y-54356000D02*
X91440000Y-55626000D01*
X89408000Y-54560087D02*
X88701107Y-55266980D01*
X89408000Y-50546000D02*
X89408000Y-54560087D01*
X88701107Y-55266980D02*
X88401108Y-55566979D01*
X67691000Y-66675000D02*
X67355999Y-66339999D01*
X68453000Y-66675000D02*
X67691000Y-66675000D01*
X67355999Y-66339999D02*
X67056000Y-66040000D01*
X81996001Y-61891988D02*
X82296000Y-62191987D01*
X71787120Y-62031512D02*
X71851065Y-61967567D01*
X71851065Y-61967567D02*
X78494433Y-61967567D01*
X79756000Y-60706000D02*
X80810013Y-60706000D01*
X78494433Y-61967567D02*
X79756000Y-60706000D01*
X80810013Y-60706000D02*
X81996001Y-61891988D01*
X71362856Y-62031512D02*
X71787120Y-62031512D01*
X97218952Y-63754000D02*
X97301189Y-63671763D01*
X97301189Y-63671763D02*
X97901191Y-63671763D01*
X97983428Y-63754000D02*
X106936822Y-63754000D01*
X109025013Y-65842192D02*
X109025013Y-68692724D01*
X109025013Y-68692724D02*
X108048916Y-69668821D01*
X91186000Y-63754000D02*
X97218952Y-63754000D01*
X97901191Y-63671763D02*
X97983428Y-63754000D01*
X106936822Y-63754000D02*
X109025013Y-65842192D01*
X89916000Y-62484000D02*
X91186000Y-63754000D01*
X108048916Y-69668821D02*
X107624652Y-69668821D01*
X73152000Y-54796500D02*
X73152000Y-55201736D01*
X71882000Y-52705000D02*
X71882000Y-53526500D01*
X71882000Y-53526500D02*
X73152000Y-54796500D01*
X73152000Y-55201736D02*
X73152000Y-55626000D01*
X70058001Y-55326001D02*
X70358000Y-55626000D01*
X66294000Y-53848000D02*
X68580000Y-53848000D01*
X65278000Y-52832000D02*
X66294000Y-53848000D01*
X65278000Y-50546000D02*
X65278000Y-52832000D01*
X68580000Y-53848000D02*
X70058001Y-55326001D01*
X48768000Y-56388000D02*
X52070000Y-59690000D01*
X80855744Y-62992000D02*
X81280008Y-62992000D01*
X65160999Y-66665001D02*
X65443085Y-66665001D01*
X56076969Y-61664969D02*
X57600971Y-61664969D01*
X70612000Y-65278000D02*
X71112499Y-65778499D01*
X72191999Y-64714001D02*
X73914000Y-62992000D01*
X66830086Y-65278000D02*
X70612000Y-65278000D01*
X59249011Y-64785823D02*
X59249011Y-65293823D01*
X65443085Y-66665001D02*
X66830086Y-65278000D01*
X58420000Y-63956812D02*
X59249011Y-64785823D01*
X58420000Y-62483998D02*
X58420000Y-63956812D01*
X57600971Y-61664969D02*
X58420000Y-62483998D01*
X52070000Y-59690000D02*
X54102000Y-59690000D01*
X43434000Y-53848000D02*
X45974000Y-56388000D01*
X73914000Y-62992000D02*
X80855744Y-62992000D01*
X64777501Y-67048499D02*
X65160999Y-66665001D01*
X54102000Y-59690000D02*
X56076969Y-61664969D01*
X61003687Y-67048499D02*
X64777501Y-67048499D01*
X72191999Y-65460999D02*
X72191999Y-64714001D01*
X45974000Y-56388000D02*
X48768000Y-56388000D01*
X59249011Y-65293823D02*
X61003687Y-67048499D01*
X71112499Y-65778499D02*
X71874499Y-65778499D01*
X71874499Y-65778499D02*
X72191999Y-65460999D01*
X89662000Y-63246000D02*
X89916000Y-63246000D01*
X106596264Y-65024000D02*
X107696000Y-66123736D01*
X102198998Y-65024000D02*
X102315999Y-64906999D01*
X103170001Y-64906999D02*
X103287002Y-65024000D01*
X96492190Y-64262000D02*
X97254190Y-65024000D01*
X97254190Y-65024000D02*
X102198998Y-65024000D01*
X102315999Y-64906999D02*
X103170001Y-64906999D01*
X89916000Y-63246000D02*
X90932000Y-64262000D01*
X103287002Y-65024000D02*
X106596264Y-65024000D01*
X107696000Y-66123736D02*
X107696000Y-66631736D01*
X90932000Y-64262000D02*
X96492190Y-64262000D01*
X107696000Y-66631736D02*
X107696000Y-68072004D01*
X107696000Y-66294000D02*
X107696000Y-66631736D01*
D42*
X42672000Y-53975000D02*
X43307000Y-53975000D01*
X43307000Y-53975000D02*
X43434000Y-53848000D01*
D41*
X98976264Y-61841030D02*
X98552000Y-61841030D01*
X99619530Y-61841030D02*
X98976264Y-61841030D01*
X99758500Y-61980000D02*
X99619530Y-61841030D01*
X99758500Y-62674500D02*
X99758500Y-61980000D01*
X93281500Y-62674500D02*
X91503500Y-62674500D01*
X91503500Y-62674500D02*
X91440000Y-62738000D01*
D42*
X61468000Y-64770000D02*
X61468000Y-63246000D01*
X61468000Y-63246000D02*
X60896500Y-62674500D01*
X60833000Y-62738000D02*
X60896500Y-62674500D01*
D41*
X67373500Y-62674500D02*
X68135500Y-62674500D01*
X68135500Y-62674500D02*
X69723000Y-61087000D01*
X69723000Y-61087000D02*
X69723000Y-60960000D01*
D42*
X118237000Y-78740000D02*
X118237000Y-77089000D01*
X119126000Y-76200000D02*
X120142000Y-76200000D01*
X118237000Y-77089000D02*
X119126000Y-76200000D01*
D41*
X83396515Y-80054979D02*
X83223439Y-80228055D01*
X89779001Y-77470778D02*
X89779001Y-78024001D01*
X71260486Y-75406756D02*
X71260486Y-74982492D01*
X84473485Y-80054979D02*
X83396515Y-80054979D01*
X92421366Y-74828413D02*
X89779001Y-77470778D01*
X89454001Y-78349001D02*
X88364700Y-78349001D01*
X91246949Y-70672949D02*
X92421366Y-71847366D01*
X92421366Y-71847366D02*
X92421366Y-74828413D01*
X84646561Y-80228055D02*
X84473485Y-80054979D01*
X88364700Y-78349001D02*
X86485646Y-80228055D01*
X86485646Y-80228055D02*
X84646561Y-80228055D01*
X75522000Y-80228055D02*
X71260486Y-75966541D01*
X71260486Y-75966541D02*
X71260486Y-75406756D01*
X83223439Y-80228055D02*
X75522000Y-80228055D01*
X89779001Y-78024001D02*
X89454001Y-78349001D01*
X81552523Y-76726523D02*
X80028523Y-76726523D01*
X80028523Y-76726523D02*
X77355277Y-74053277D01*
X77355277Y-74053277D02*
X77314608Y-74053277D01*
X77314608Y-74053277D02*
X77014609Y-73753278D01*
X90932000Y-71628018D02*
X89211238Y-71628018D01*
X89211238Y-71628018D02*
X87490945Y-73348311D01*
X87490945Y-73348311D02*
X87490945Y-74767879D01*
X87490945Y-74767879D02*
X85532301Y-76726523D01*
X85532301Y-76726523D02*
X81552523Y-76726523D01*
X81552523Y-76726523D02*
X81534000Y-76708000D01*
X82464515Y-77804924D02*
X82291439Y-77978000D01*
X75692000Y-75946000D02*
X75886184Y-75751816D01*
X75886184Y-75751816D02*
X76200000Y-75438000D01*
X88837379Y-73274699D02*
X88390967Y-73721111D01*
X88390967Y-75140679D02*
X85566103Y-77965542D01*
X90932000Y-72644036D02*
X90301337Y-73274699D01*
X90301337Y-73274699D02*
X88837379Y-73274699D01*
X88390967Y-73721111D02*
X88390967Y-75140679D01*
X85566103Y-77965542D02*
X85405485Y-77804924D01*
X82291439Y-77978000D02*
X76454000Y-77978000D01*
X85405485Y-77804924D02*
X82464515Y-77804924D01*
X76454000Y-77978000D02*
X75692000Y-77216000D01*
X75692000Y-77216000D02*
X75692000Y-75946000D01*
X74811163Y-74322309D02*
X74864576Y-74268896D01*
X91767961Y-73089829D02*
X90552801Y-74304989D01*
X74811163Y-75554015D02*
X74811163Y-74322309D01*
X74791978Y-75573200D02*
X74811163Y-75554015D01*
X76081200Y-78878022D02*
X74791978Y-77588800D01*
X85205761Y-78878022D02*
X85032685Y-78704946D01*
X89290989Y-74629989D02*
X89290989Y-75513479D01*
X90552801Y-74304989D02*
X89615989Y-74304989D01*
X89290989Y-75513479D02*
X85926446Y-78878022D01*
X91767961Y-72665565D02*
X91767961Y-73089829D01*
X82837315Y-78704946D02*
X82664239Y-78878022D01*
X89615989Y-74304989D02*
X89290989Y-74629989D01*
X85926446Y-78878022D02*
X85205761Y-78878022D01*
X74791978Y-77588800D02*
X74791978Y-75573200D01*
X85032685Y-78704946D02*
X82837315Y-78704946D01*
X82664239Y-78878022D02*
X76081200Y-78878022D01*
X88607290Y-77470000D02*
X88729736Y-77470000D01*
X86299246Y-79778044D02*
X88607290Y-77470000D01*
X84659885Y-79604968D02*
X84832961Y-79778044D01*
X84832961Y-79778044D02*
X86299246Y-79778044D01*
X75708400Y-79778044D02*
X83037039Y-79778044D01*
X73736150Y-77805794D02*
X75708400Y-79778044D01*
X88729736Y-77470000D02*
X89154000Y-77470000D01*
X83210115Y-79604968D02*
X84659885Y-79604968D01*
X83037039Y-79778044D02*
X83210115Y-79604968D01*
X73736150Y-74976132D02*
X73736150Y-77805794D01*
X93118103Y-78317537D02*
X93298556Y-78497990D01*
X90330794Y-78317537D02*
X93118103Y-78317537D01*
X68580000Y-74168000D02*
X68072000Y-73914000D01*
X68879999Y-74384263D02*
X68580000Y-74168000D01*
X75173802Y-80678066D02*
X68879999Y-74384263D01*
X83409839Y-80678066D02*
X75173802Y-80678066D01*
X88231934Y-80678066D02*
X84460161Y-80678066D01*
X84460161Y-80678066D02*
X84287085Y-80504990D01*
X89662000Y-79248000D02*
X88231934Y-80678066D01*
X84287085Y-80504990D02*
X83582915Y-80504990D01*
X83582915Y-80504990D02*
X83409839Y-80678066D01*
X90170000Y-79248000D02*
X89662000Y-79248000D01*
X79801999Y-73614001D02*
X79502000Y-73914000D01*
X80381003Y-73614001D02*
X79801999Y-73614001D01*
X86590923Y-72883662D02*
X86590923Y-74395079D01*
X91598596Y-67875989D02*
X86590923Y-72883662D01*
X94240801Y-67875989D02*
X91598596Y-67875989D01*
X97086309Y-69838010D02*
X96202822Y-69838010D01*
X82593503Y-75826501D02*
X80381003Y-73614001D01*
X96202822Y-69838010D02*
X94240801Y-67875989D01*
X85159501Y-75826501D02*
X82593503Y-75826501D01*
X86590923Y-74395079D02*
X85159501Y-75826501D01*
X82118504Y-76276512D02*
X80563991Y-74721999D01*
X87040934Y-73161911D02*
X87040934Y-74581479D01*
X85345901Y-76276512D02*
X82118504Y-76276512D01*
X98488045Y-69450630D02*
X97475663Y-70463012D01*
X87040934Y-74581479D02*
X85345901Y-76276512D01*
X91322998Y-68879847D02*
X87040934Y-73161911D01*
X91322998Y-68787998D02*
X91322998Y-68879847D01*
X93571583Y-68462998D02*
X91647998Y-68462998D01*
X95571597Y-70463012D02*
X93571583Y-68462998D01*
X80563991Y-74721999D02*
X80263992Y-74422000D01*
X91647998Y-68462998D02*
X91322998Y-68787998D01*
X97475663Y-70463012D02*
X95571597Y-70463012D01*
X87940956Y-74954279D02*
X85718701Y-77176534D01*
X77169994Y-74504405D02*
X77157622Y-74504405D01*
X87940956Y-73534711D02*
X87940956Y-74954279D01*
X85718701Y-77176534D02*
X79842123Y-77176534D01*
X77157622Y-74504405D02*
X76733358Y-74504405D01*
X88831667Y-72644000D02*
X87940956Y-73534711D01*
X79842123Y-77176534D02*
X77169994Y-74504405D01*
X89916000Y-72644000D02*
X88831667Y-72644000D01*
X89137380Y-73899700D02*
X88840978Y-74196102D01*
X88840978Y-74196102D02*
X88840978Y-75327079D01*
X75483346Y-75200252D02*
X75483346Y-74775988D01*
X75241989Y-77402400D02*
X75241989Y-75759600D01*
X85740046Y-78428011D02*
X85392161Y-78428011D01*
X82477839Y-78428011D02*
X76267600Y-78428011D01*
X82650915Y-78254935D02*
X82477839Y-78428011D01*
X85392161Y-78428011D02*
X85219085Y-78254935D01*
X88840978Y-75327079D02*
X85740046Y-78428011D01*
X85219085Y-78254935D02*
X82650915Y-78254935D01*
X75483346Y-75518243D02*
X75483346Y-75200252D01*
X75241989Y-75759600D02*
X75483346Y-75518243D01*
X76267600Y-78428011D02*
X75241989Y-77402400D01*
X74341967Y-77775200D02*
X74341967Y-75386800D01*
X74341967Y-75386800D02*
X74361152Y-75367615D01*
X74065042Y-73944009D02*
X74365041Y-73644010D01*
X74065042Y-74380020D02*
X74065042Y-73944009D01*
X74361152Y-75367615D02*
X74361152Y-74676130D01*
X85019361Y-79328033D02*
X84846285Y-79154957D01*
X82850639Y-79328033D02*
X75894800Y-79328033D01*
X75894800Y-79328033D02*
X74341967Y-77775200D01*
X89915990Y-74929990D02*
X89915990Y-75524889D01*
X89915990Y-75524889D02*
X86112846Y-79328033D01*
X83023715Y-79154957D02*
X82850639Y-79328033D01*
X74361152Y-74676130D02*
X74065042Y-74380020D01*
X84846285Y-79154957D02*
X83023715Y-79154957D01*
X86112846Y-79328033D02*
X85019361Y-79328033D01*
X102328109Y-80586043D02*
X102752373Y-80586043D01*
X102752373Y-80586043D02*
X102927372Y-80411044D01*
X102927372Y-80411044D02*
X103413377Y-80411044D01*
X105262956Y-80157044D02*
X110744000Y-74676000D01*
X114046000Y-71628000D02*
X114808000Y-72390000D01*
X103413377Y-80411044D02*
X103667377Y-80157044D01*
X110744000Y-74676000D02*
X110744000Y-72898000D01*
X103667377Y-80157044D02*
X105262956Y-80157044D01*
X110744000Y-72898000D02*
X112014000Y-71628000D01*
X112014000Y-71628000D02*
X114046000Y-71628000D01*
X114808000Y-72390000D02*
X115208050Y-72390000D01*
X104154386Y-80949849D02*
X103730122Y-80949849D01*
X113858230Y-76200000D02*
X109341243Y-80716987D01*
X109341243Y-80716987D02*
X104387248Y-80716987D01*
X104387248Y-80716987D02*
X104154386Y-80949849D01*
X114808000Y-76200000D02*
X113858230Y-76200000D01*
D43*
X85090000Y-50927000D02*
X85979000Y-50927000D01*
X86614000Y-48641000D02*
X85725000Y-47752000D01*
X86614000Y-50292000D02*
X86614000Y-48641000D01*
X85979000Y-50927000D02*
X86614000Y-50292000D01*
X85090000Y-50927000D02*
X83058000Y-50927000D01*
X83058000Y-50927000D02*
X82550000Y-51435000D01*
X82550000Y-51435000D02*
X82550000Y-52961540D01*
X109220000Y-50927000D02*
X109855000Y-50927000D01*
X110744000Y-47244000D02*
X109855000Y-46609000D01*
X110744000Y-50038000D02*
X110744000Y-47244000D01*
X109855000Y-50927000D02*
X110744000Y-50038000D01*
X109855000Y-46609000D02*
X109855000Y-46482000D01*
X109220000Y-50927000D02*
X107188000Y-50927000D01*
X107188000Y-50927000D02*
X106680000Y-51435000D01*
X106680000Y-51435000D02*
X106680000Y-52961540D01*
D41*
X61595000Y-47752000D02*
X60773500Y-47752000D01*
X60773500Y-47752000D02*
X60452000Y-47430500D01*
X60452000Y-47430500D02*
X60452000Y-45974000D01*
X60452000Y-45974000D02*
X61595000Y-44831000D01*
X61595000Y-44831000D02*
X61595000Y-34925000D01*
D43*
X60960000Y-50927000D02*
X61849000Y-50927000D01*
X62484000Y-48641000D02*
X61595000Y-47752000D01*
X62484000Y-50292000D02*
X62484000Y-48641000D01*
X61849000Y-50927000D02*
X62484000Y-50292000D01*
X60960000Y-50927000D02*
X58928000Y-50927000D01*
X58928000Y-50927000D02*
X58420000Y-51435000D01*
X58420000Y-51435000D02*
X58420000Y-52961540D01*
D46*
G36*
X60071000Y-38125123D02*
X60071000Y-45657992D01*
X59988212Y-45781893D01*
X59949999Y-45974000D01*
X59950000Y-45974005D01*
X59950000Y-47371000D01*
X49149000Y-47371000D01*
X49149000Y-38125123D01*
X50885051Y-33909000D01*
X58334949Y-33909000D01*
X60071000Y-38125123D01*
X60071000Y-38125123D01*
G37*
X60071000Y-38125123D02*
X60071000Y-45657992D01*
X59988212Y-45781893D01*
X59949999Y-45974000D01*
X59950000Y-45974005D01*
X59950000Y-47371000D01*
X49149000Y-47371000D01*
X49149000Y-38125123D01*
X50885051Y-33909000D01*
X58334949Y-33909000D01*
X60071000Y-38125123D01*
G36*
X84201000Y-38125123D02*
X84201000Y-44397394D01*
X83984197Y-44614197D01*
X83956334Y-44656211D01*
X83947000Y-44704000D01*
X83947000Y-47371000D01*
X73279000Y-47371000D01*
X73279000Y-38125123D01*
X75015051Y-33909000D01*
X82464949Y-33909000D01*
X84201000Y-38125123D01*
X84201000Y-38125123D01*
G37*
X84201000Y-38125123D02*
X84201000Y-44397394D01*
X83984197Y-44614197D01*
X83956334Y-44656211D01*
X83947000Y-44704000D01*
X83947000Y-47371000D01*
X73279000Y-47371000D01*
X73279000Y-38125123D01*
X75015051Y-33909000D01*
X82464949Y-33909000D01*
X84201000Y-38125123D01*
G36*
X108331000Y-38125123D02*
X108331000Y-47371000D01*
X97409000Y-47371000D01*
X97409000Y-38125123D01*
X99145051Y-33909000D01*
X106594949Y-33909000D01*
X108331000Y-38125123D01*
X108331000Y-38125123D01*
G37*
X108331000Y-38125123D02*
X108331000Y-47371000D01*
X97409000Y-47371000D01*
X97409000Y-38125123D01*
X99145051Y-33909000D01*
X106594949Y-33909000D01*
X108331000Y-38125123D01*
G36*
X60071000Y-50050000D02*
X58928000Y-50050000D01*
X58592387Y-50116758D01*
X58307867Y-50306867D01*
X58307865Y-50306870D01*
X57799867Y-50814867D01*
X57609758Y-51099387D01*
X57543000Y-51435000D01*
X57543000Y-52961540D01*
X57586035Y-53177890D01*
X57586035Y-54561740D01*
X57612323Y-54701448D01*
X57694890Y-54829760D01*
X57820873Y-54915841D01*
X57970420Y-54946125D01*
X58721163Y-54946125D01*
X58411227Y-55256061D01*
X58291011Y-55305733D01*
X58100402Y-55496010D01*
X57997118Y-55744746D01*
X57996883Y-56014073D01*
X58099733Y-56262989D01*
X58290010Y-56453598D01*
X58538746Y-56556882D01*
X58808073Y-56557117D01*
X59056989Y-56454267D01*
X59247598Y-56263990D01*
X59297926Y-56142786D01*
X59695712Y-55745000D01*
X60155482Y-55745000D01*
X60198000Y-55753000D01*
X62103000Y-55753000D01*
X62103000Y-61341000D01*
X59488606Y-61341000D01*
X58255803Y-60108197D01*
X58213789Y-60080334D01*
X58166000Y-60071000D01*
X56690285Y-60071000D01*
X54440374Y-58071079D01*
X54396797Y-58045731D01*
X54356000Y-58039000D01*
X52630606Y-58039000D01*
X49149000Y-54557394D01*
X49149000Y-48387000D01*
X60071000Y-48387000D01*
X60071000Y-50050000D01*
X60071000Y-50050000D01*
G37*
X60071000Y-50050000D02*
X58928000Y-50050000D01*
X58592387Y-50116758D01*
X58307867Y-50306867D01*
X58307865Y-50306870D01*
X57799867Y-50814867D01*
X57609758Y-51099387D01*
X57543000Y-51435000D01*
X57543000Y-52961540D01*
X57586035Y-53177890D01*
X57586035Y-54561740D01*
X57612323Y-54701448D01*
X57694890Y-54829760D01*
X57820873Y-54915841D01*
X57970420Y-54946125D01*
X58721163Y-54946125D01*
X58411227Y-55256061D01*
X58291011Y-55305733D01*
X58100402Y-55496010D01*
X57997118Y-55744746D01*
X57996883Y-56014073D01*
X58099733Y-56262989D01*
X58290010Y-56453598D01*
X58538746Y-56556882D01*
X58808073Y-56557117D01*
X59056989Y-56454267D01*
X59247598Y-56263990D01*
X59297926Y-56142786D01*
X59695712Y-55745000D01*
X60155482Y-55745000D01*
X60198000Y-55753000D01*
X62103000Y-55753000D01*
X62103000Y-61341000D01*
X59488606Y-61341000D01*
X58255803Y-60108197D01*
X58213789Y-60080334D01*
X58166000Y-60071000D01*
X56690285Y-60071000D01*
X54440374Y-58071079D01*
X54396797Y-58045731D01*
X54356000Y-58039000D01*
X52630606Y-58039000D01*
X49149000Y-54557394D01*
X49149000Y-48387000D01*
X60071000Y-48387000D01*
X60071000Y-50050000D01*
G36*
X84201000Y-50050000D02*
X83058000Y-50050000D01*
X82722387Y-50116758D01*
X82437867Y-50306867D01*
X82437865Y-50306870D01*
X81929867Y-50814867D01*
X81739758Y-51099387D01*
X81673000Y-51435000D01*
X81673000Y-52961540D01*
X81716035Y-53177890D01*
X81716035Y-54561740D01*
X81742323Y-54701448D01*
X81824890Y-54829760D01*
X81950873Y-54915841D01*
X82100420Y-54946125D01*
X82999580Y-54946125D01*
X83076807Y-54931594D01*
X83452408Y-55682796D01*
X83481967Y-55720613D01*
X83390984Y-55939725D01*
X83390749Y-56209052D01*
X83493599Y-56457968D01*
X83683876Y-56648577D01*
X83932612Y-56751861D01*
X84201939Y-56752096D01*
X84450855Y-56649246D01*
X84593058Y-56507291D01*
X84708033Y-56555033D01*
X84977360Y-56555268D01*
X85226276Y-56452418D01*
X85416885Y-56262141D01*
X85520169Y-56013405D01*
X85520197Y-55981070D01*
X85531733Y-56008989D01*
X85722010Y-56199598D01*
X85970746Y-56302882D01*
X86240073Y-56303117D01*
X86488989Y-56200267D01*
X86561382Y-56128000D01*
X86750917Y-56128000D01*
X86699118Y-56252746D01*
X86698883Y-56522073D01*
X86801733Y-56770989D01*
X86992010Y-56961598D01*
X87240746Y-57064882D01*
X87343035Y-57064971D01*
X87575029Y-57296964D01*
X87575031Y-57296967D01*
X87672659Y-57362199D01*
X87737891Y-57405787D01*
X87929999Y-57443999D01*
X89024260Y-57443999D01*
X89024265Y-57444000D01*
X89216372Y-57405787D01*
X89379233Y-57296967D01*
X90807689Y-55868511D01*
X90865733Y-56008989D01*
X91056010Y-56199598D01*
X91304746Y-56302882D01*
X91574073Y-56303117D01*
X91822989Y-56200267D01*
X92013598Y-56009990D01*
X92116882Y-55761254D01*
X92116889Y-55753000D01*
X95302065Y-55753000D01*
X96018000Y-56468935D01*
X96018000Y-61341000D01*
X82677000Y-61341000D01*
X82677000Y-60452000D01*
X82674566Y-60439980D01*
X82718882Y-60333254D01*
X82719117Y-60063927D01*
X82616267Y-59815011D01*
X82425990Y-59624402D01*
X82177254Y-59521118D01*
X81907927Y-59520883D01*
X81659011Y-59623733D01*
X81586618Y-59696000D01*
X79502000Y-59696000D01*
X79309892Y-59734212D01*
X79244660Y-59777800D01*
X79147032Y-59843032D01*
X79147030Y-59843035D01*
X78024064Y-60966000D01*
X74041000Y-60966000D01*
X74041000Y-60408201D01*
X74118676Y-60221136D01*
X74118911Y-59951809D01*
X74016061Y-59702893D01*
X73825784Y-59512284D01*
X73577048Y-59409000D01*
X73307721Y-59408765D01*
X73058805Y-59511615D01*
X72934232Y-59635971D01*
X72889768Y-59665682D01*
X72792140Y-59730914D01*
X72792138Y-59730917D01*
X72452054Y-60071000D01*
X71767614Y-60071000D01*
X71714047Y-60034399D01*
X71564500Y-60004115D01*
X70929500Y-60004115D01*
X70789792Y-60030403D01*
X70726703Y-60071000D01*
X70243614Y-60071000D01*
X70190047Y-60034399D01*
X70040500Y-60004115D01*
X69405500Y-60004115D01*
X69265792Y-60030403D01*
X69137480Y-60112970D01*
X69051399Y-60238953D01*
X69021115Y-60388500D01*
X69021115Y-61078949D01*
X68759064Y-61341000D01*
X66167000Y-61341000D01*
X66167000Y-55753000D01*
X69680889Y-55753000D01*
X69680883Y-55760073D01*
X69783733Y-56008989D01*
X69974010Y-56199598D01*
X70222746Y-56302882D01*
X70492073Y-56303117D01*
X70696926Y-56218473D01*
X70696883Y-56268073D01*
X70799733Y-56516989D01*
X70990010Y-56707598D01*
X71238746Y-56810882D01*
X71508073Y-56811117D01*
X71756989Y-56708267D01*
X71773856Y-56691430D01*
X71790021Y-56707623D01*
X72038757Y-56810907D01*
X72308084Y-56811142D01*
X72557000Y-56708292D01*
X72747609Y-56518015D01*
X72850893Y-56269279D01*
X72850924Y-56234027D01*
X73016746Y-56302882D01*
X73286073Y-56303117D01*
X73534989Y-56200267D01*
X73725598Y-56009990D01*
X73828882Y-55761254D01*
X73829117Y-55491927D01*
X73726267Y-55243011D01*
X73654000Y-55170618D01*
X73654000Y-54796500D01*
X73636987Y-54710968D01*
X73615788Y-54604392D01*
X73566128Y-54530072D01*
X73506968Y-54441532D01*
X73506965Y-54441530D01*
X73279000Y-54213565D01*
X73279000Y-48387000D01*
X84201000Y-48387000D01*
X84201000Y-50050000D01*
X84201000Y-50050000D01*
G37*
X84201000Y-50050000D02*
X83058000Y-50050000D01*
X82722387Y-50116758D01*
X82437867Y-50306867D01*
X82437865Y-50306870D01*
X81929867Y-50814867D01*
X81739758Y-51099387D01*
X81673000Y-51435000D01*
X81673000Y-52961540D01*
X81716035Y-53177890D01*
X81716035Y-54561740D01*
X81742323Y-54701448D01*
X81824890Y-54829760D01*
X81950873Y-54915841D01*
X82100420Y-54946125D01*
X82999580Y-54946125D01*
X83076807Y-54931594D01*
X83452408Y-55682796D01*
X83481967Y-55720613D01*
X83390984Y-55939725D01*
X83390749Y-56209052D01*
X83493599Y-56457968D01*
X83683876Y-56648577D01*
X83932612Y-56751861D01*
X84201939Y-56752096D01*
X84450855Y-56649246D01*
X84593058Y-56507291D01*
X84708033Y-56555033D01*
X84977360Y-56555268D01*
X85226276Y-56452418D01*
X85416885Y-56262141D01*
X85520169Y-56013405D01*
X85520197Y-55981070D01*
X85531733Y-56008989D01*
X85722010Y-56199598D01*
X85970746Y-56302882D01*
X86240073Y-56303117D01*
X86488989Y-56200267D01*
X86561382Y-56128000D01*
X86750917Y-56128000D01*
X86699118Y-56252746D01*
X86698883Y-56522073D01*
X86801733Y-56770989D01*
X86992010Y-56961598D01*
X87240746Y-57064882D01*
X87343035Y-57064971D01*
X87575029Y-57296964D01*
X87575031Y-57296967D01*
X87672659Y-57362199D01*
X87737891Y-57405787D01*
X87929999Y-57443999D01*
X89024260Y-57443999D01*
X89024265Y-57444000D01*
X89216372Y-57405787D01*
X89379233Y-57296967D01*
X90807689Y-55868511D01*
X90865733Y-56008989D01*
X91056010Y-56199598D01*
X91304746Y-56302882D01*
X91574073Y-56303117D01*
X91822989Y-56200267D01*
X92013598Y-56009990D01*
X92116882Y-55761254D01*
X92116889Y-55753000D01*
X95302065Y-55753000D01*
X96018000Y-56468935D01*
X96018000Y-61341000D01*
X82677000Y-61341000D01*
X82677000Y-60452000D01*
X82674566Y-60439980D01*
X82718882Y-60333254D01*
X82719117Y-60063927D01*
X82616267Y-59815011D01*
X82425990Y-59624402D01*
X82177254Y-59521118D01*
X81907927Y-59520883D01*
X81659011Y-59623733D01*
X81586618Y-59696000D01*
X79502000Y-59696000D01*
X79309892Y-59734212D01*
X79244660Y-59777800D01*
X79147032Y-59843032D01*
X79147030Y-59843035D01*
X78024064Y-60966000D01*
X74041000Y-60966000D01*
X74041000Y-60408201D01*
X74118676Y-60221136D01*
X74118911Y-59951809D01*
X74016061Y-59702893D01*
X73825784Y-59512284D01*
X73577048Y-59409000D01*
X73307721Y-59408765D01*
X73058805Y-59511615D01*
X72934232Y-59635971D01*
X72889768Y-59665682D01*
X72792140Y-59730914D01*
X72792138Y-59730917D01*
X72452054Y-60071000D01*
X71767614Y-60071000D01*
X71714047Y-60034399D01*
X71564500Y-60004115D01*
X70929500Y-60004115D01*
X70789792Y-60030403D01*
X70726703Y-60071000D01*
X70243614Y-60071000D01*
X70190047Y-60034399D01*
X70040500Y-60004115D01*
X69405500Y-60004115D01*
X69265792Y-60030403D01*
X69137480Y-60112970D01*
X69051399Y-60238953D01*
X69021115Y-60388500D01*
X69021115Y-61078949D01*
X68759064Y-61341000D01*
X66167000Y-61341000D01*
X66167000Y-55753000D01*
X69680889Y-55753000D01*
X69680883Y-55760073D01*
X69783733Y-56008989D01*
X69974010Y-56199598D01*
X70222746Y-56302882D01*
X70492073Y-56303117D01*
X70696926Y-56218473D01*
X70696883Y-56268073D01*
X70799733Y-56516989D01*
X70990010Y-56707598D01*
X71238746Y-56810882D01*
X71508073Y-56811117D01*
X71756989Y-56708267D01*
X71773856Y-56691430D01*
X71790021Y-56707623D01*
X72038757Y-56810907D01*
X72308084Y-56811142D01*
X72557000Y-56708292D01*
X72747609Y-56518015D01*
X72850893Y-56269279D01*
X72850924Y-56234027D01*
X73016746Y-56302882D01*
X73286073Y-56303117D01*
X73534989Y-56200267D01*
X73725598Y-56009990D01*
X73828882Y-55761254D01*
X73829117Y-55491927D01*
X73726267Y-55243011D01*
X73654000Y-55170618D01*
X73654000Y-54796500D01*
X73636987Y-54710968D01*
X73615788Y-54604392D01*
X73566128Y-54530072D01*
X73506968Y-54441532D01*
X73506965Y-54441530D01*
X73279000Y-54213565D01*
X73279000Y-48387000D01*
X84201000Y-48387000D01*
X84201000Y-50050000D01*
G36*
X108331000Y-50050000D02*
X107188000Y-50050000D01*
X106852387Y-50116758D01*
X106567867Y-50306867D01*
X106567865Y-50306870D01*
X106059867Y-50814867D01*
X105869758Y-51099387D01*
X105803000Y-51435000D01*
X105803000Y-52961540D01*
X105846035Y-53177890D01*
X105846035Y-54561740D01*
X105872323Y-54701448D01*
X105954890Y-54829760D01*
X106080873Y-54915841D01*
X106230420Y-54946125D01*
X107061000Y-54946125D01*
X107061000Y-56589394D01*
X102499464Y-61150930D01*
X102481927Y-61150915D01*
X102233011Y-61253765D01*
X102145624Y-61341000D01*
X102070405Y-61341000D01*
X101983990Y-61254434D01*
X101735254Y-61151150D01*
X101465927Y-61150915D01*
X101217011Y-61253765D01*
X101129624Y-61341000D01*
X99629439Y-61341000D01*
X99619530Y-61339029D01*
X99619525Y-61339030D01*
X99007463Y-61339030D01*
X98935990Y-61267432D01*
X98687254Y-61164148D01*
X98425000Y-61163919D01*
X98425000Y-55626000D01*
X98414994Y-55576590D01*
X98386553Y-55534965D01*
X98354796Y-55512408D01*
X97409000Y-55039510D01*
X97409000Y-48387000D01*
X108331000Y-48387000D01*
X108331000Y-50050000D01*
X108331000Y-50050000D01*
G37*
X108331000Y-50050000D02*
X107188000Y-50050000D01*
X106852387Y-50116758D01*
X106567867Y-50306867D01*
X106567865Y-50306870D01*
X106059867Y-50814867D01*
X105869758Y-51099387D01*
X105803000Y-51435000D01*
X105803000Y-52961540D01*
X105846035Y-53177890D01*
X105846035Y-54561740D01*
X105872323Y-54701448D01*
X105954890Y-54829760D01*
X106080873Y-54915841D01*
X106230420Y-54946125D01*
X107061000Y-54946125D01*
X107061000Y-56589394D01*
X102499464Y-61150930D01*
X102481927Y-61150915D01*
X102233011Y-61253765D01*
X102145624Y-61341000D01*
X102070405Y-61341000D01*
X101983990Y-61254434D01*
X101735254Y-61151150D01*
X101465927Y-61150915D01*
X101217011Y-61253765D01*
X101129624Y-61341000D01*
X99629439Y-61341000D01*
X99619530Y-61339029D01*
X99619525Y-61339030D01*
X99007463Y-61339030D01*
X98935990Y-61267432D01*
X98687254Y-61164148D01*
X98425000Y-61163919D01*
X98425000Y-55626000D01*
X98414994Y-55576590D01*
X98386553Y-55534965D01*
X98354796Y-55512408D01*
X97409000Y-55039510D01*
X97409000Y-48387000D01*
X108331000Y-48387000D01*
X108331000Y-50050000D01*
G36*
X103094894Y-65487788D02*
X103287002Y-65526000D01*
X104267000Y-65526000D01*
X104267000Y-71205111D01*
X104005927Y-71204883D01*
X103761500Y-71305878D01*
X103761500Y-71094586D01*
X103693448Y-70930295D01*
X103567705Y-70804552D01*
X103403414Y-70736500D01*
X103235750Y-70736500D01*
X103124000Y-70848250D01*
X103124000Y-71628000D01*
X103144000Y-71628000D01*
X103144000Y-71882000D01*
X103124000Y-71882000D01*
X103124000Y-72661750D01*
X103235750Y-72773500D01*
X103403414Y-72773500D01*
X103567705Y-72705448D01*
X103693448Y-72579705D01*
X103748126Y-72447701D01*
X103756010Y-72455598D01*
X104004746Y-72558882D01*
X104267000Y-72559111D01*
X104267000Y-74930000D01*
X104277006Y-74979410D01*
X104304197Y-75019803D01*
X105791000Y-76506606D01*
X105791000Y-77009831D01*
X104695831Y-78105000D01*
X102589064Y-78105000D01*
X102684678Y-78009553D01*
X102749477Y-77853500D01*
X102758250Y-77853500D01*
X102870000Y-77741750D01*
X102870000Y-76962000D01*
X103124000Y-76962000D01*
X103124000Y-77741750D01*
X103235750Y-77853500D01*
X103403414Y-77853500D01*
X103567705Y-77785448D01*
X103693448Y-77659705D01*
X103761500Y-77495414D01*
X103761500Y-77073750D01*
X103649750Y-76962000D01*
X103124000Y-76962000D01*
X102870000Y-76962000D01*
X102850000Y-76962000D01*
X102850000Y-76708000D01*
X102870000Y-76708000D01*
X102870000Y-75928250D01*
X103124000Y-75928250D01*
X103124000Y-76708000D01*
X103649750Y-76708000D01*
X103761500Y-76596250D01*
X103761500Y-76174586D01*
X103693448Y-76010295D01*
X103567705Y-75884552D01*
X103403414Y-75816500D01*
X103235750Y-75816500D01*
X103124000Y-75928250D01*
X102870000Y-75928250D01*
X102758250Y-75816500D01*
X102590586Y-75816500D01*
X102489000Y-75858579D01*
X102489000Y-75271421D01*
X102590586Y-75313500D01*
X102758250Y-75313500D01*
X102870000Y-75201750D01*
X102870000Y-74422000D01*
X103124000Y-74422000D01*
X103124000Y-75201750D01*
X103235750Y-75313500D01*
X103403414Y-75313500D01*
X103567705Y-75245448D01*
X103693448Y-75119705D01*
X103761500Y-74955414D01*
X103761500Y-74533750D01*
X103649750Y-74422000D01*
X103124000Y-74422000D01*
X102870000Y-74422000D01*
X102850000Y-74422000D01*
X102850000Y-74168000D01*
X102870000Y-74168000D01*
X102870000Y-73388250D01*
X103124000Y-73388250D01*
X103124000Y-74168000D01*
X103649750Y-74168000D01*
X103761500Y-74056250D01*
X103761500Y-73634586D01*
X103693448Y-73470295D01*
X103567705Y-73344552D01*
X103403414Y-73276500D01*
X103235750Y-73276500D01*
X103124000Y-73388250D01*
X102870000Y-73388250D01*
X102758250Y-73276500D01*
X102590586Y-73276500D01*
X102489000Y-73318579D01*
X102489000Y-72731421D01*
X102590586Y-72773500D01*
X102758250Y-72773500D01*
X102870000Y-72661750D01*
X102870000Y-71882000D01*
X102850000Y-71882000D01*
X102850000Y-71628000D01*
X102870000Y-71628000D01*
X102870000Y-70848250D01*
X102758250Y-70736500D01*
X102590586Y-70736500D01*
X102489000Y-70778579D01*
X102489000Y-70191421D01*
X102590586Y-70233500D01*
X102758250Y-70233500D01*
X102870000Y-70121750D01*
X102870000Y-69342000D01*
X103124000Y-69342000D01*
X103124000Y-70121750D01*
X103235750Y-70233500D01*
X103403414Y-70233500D01*
X103567705Y-70165448D01*
X103693448Y-70039705D01*
X103761500Y-69875414D01*
X103761500Y-69453750D01*
X103649750Y-69342000D01*
X103124000Y-69342000D01*
X102870000Y-69342000D01*
X102850000Y-69342000D01*
X102850000Y-69088000D01*
X102870000Y-69088000D01*
X102870000Y-68308250D01*
X103124000Y-68308250D01*
X103124000Y-69088000D01*
X103649750Y-69088000D01*
X103761500Y-68976250D01*
X103761500Y-68554586D01*
X103693448Y-68390295D01*
X103567705Y-68264552D01*
X103403414Y-68196500D01*
X103235750Y-68196500D01*
X103124000Y-68308250D01*
X102870000Y-68308250D01*
X102758250Y-68196500D01*
X102590586Y-68196500D01*
X102489000Y-68238579D01*
X102489000Y-67651421D01*
X102590586Y-67693500D01*
X102758250Y-67693500D01*
X102870000Y-67581750D01*
X102870000Y-66802000D01*
X103124000Y-66802000D01*
X103124000Y-67581750D01*
X103235750Y-67693500D01*
X103403414Y-67693500D01*
X103567705Y-67625448D01*
X103693448Y-67499705D01*
X103761500Y-67335414D01*
X103761500Y-66913750D01*
X103649750Y-66802000D01*
X103124000Y-66802000D01*
X102870000Y-66802000D01*
X102850000Y-66802000D01*
X102850000Y-66548000D01*
X102870000Y-66548000D01*
X102870000Y-65768250D01*
X103124000Y-65768250D01*
X103124000Y-66548000D01*
X103649750Y-66548000D01*
X103761500Y-66436250D01*
X103761500Y-66014586D01*
X103693448Y-65850295D01*
X103567705Y-65724552D01*
X103403414Y-65656500D01*
X103235750Y-65656500D01*
X103124000Y-65768250D01*
X102870000Y-65768250D01*
X102758250Y-65656500D01*
X102590586Y-65656500D01*
X102489000Y-65698579D01*
X102489000Y-65422377D01*
X102509021Y-65408999D01*
X102976979Y-65408999D01*
X103094894Y-65487788D01*
X103094894Y-65487788D01*
G37*
X103094894Y-65487788D02*
X103287002Y-65526000D01*
X104267000Y-65526000D01*
X104267000Y-71205111D01*
X104005927Y-71204883D01*
X103761500Y-71305878D01*
X103761500Y-71094586D01*
X103693448Y-70930295D01*
X103567705Y-70804552D01*
X103403414Y-70736500D01*
X103235750Y-70736500D01*
X103124000Y-70848250D01*
X103124000Y-71628000D01*
X103144000Y-71628000D01*
X103144000Y-71882000D01*
X103124000Y-71882000D01*
X103124000Y-72661750D01*
X103235750Y-72773500D01*
X103403414Y-72773500D01*
X103567705Y-72705448D01*
X103693448Y-72579705D01*
X103748126Y-72447701D01*
X103756010Y-72455598D01*
X104004746Y-72558882D01*
X104267000Y-72559111D01*
X104267000Y-74930000D01*
X104277006Y-74979410D01*
X104304197Y-75019803D01*
X105791000Y-76506606D01*
X105791000Y-77009831D01*
X104695831Y-78105000D01*
X102589064Y-78105000D01*
X102684678Y-78009553D01*
X102749477Y-77853500D01*
X102758250Y-77853500D01*
X102870000Y-77741750D01*
X102870000Y-76962000D01*
X103124000Y-76962000D01*
X103124000Y-77741750D01*
X103235750Y-77853500D01*
X103403414Y-77853500D01*
X103567705Y-77785448D01*
X103693448Y-77659705D01*
X103761500Y-77495414D01*
X103761500Y-77073750D01*
X103649750Y-76962000D01*
X103124000Y-76962000D01*
X102870000Y-76962000D01*
X102850000Y-76962000D01*
X102850000Y-76708000D01*
X102870000Y-76708000D01*
X102870000Y-75928250D01*
X103124000Y-75928250D01*
X103124000Y-76708000D01*
X103649750Y-76708000D01*
X103761500Y-76596250D01*
X103761500Y-76174586D01*
X103693448Y-76010295D01*
X103567705Y-75884552D01*
X103403414Y-75816500D01*
X103235750Y-75816500D01*
X103124000Y-75928250D01*
X102870000Y-75928250D01*
X102758250Y-75816500D01*
X102590586Y-75816500D01*
X102489000Y-75858579D01*
X102489000Y-75271421D01*
X102590586Y-75313500D01*
X102758250Y-75313500D01*
X102870000Y-75201750D01*
X102870000Y-74422000D01*
X103124000Y-74422000D01*
X103124000Y-75201750D01*
X103235750Y-75313500D01*
X103403414Y-75313500D01*
X103567705Y-75245448D01*
X103693448Y-75119705D01*
X103761500Y-74955414D01*
X103761500Y-74533750D01*
X103649750Y-74422000D01*
X103124000Y-74422000D01*
X102870000Y-74422000D01*
X102850000Y-74422000D01*
X102850000Y-74168000D01*
X102870000Y-74168000D01*
X102870000Y-73388250D01*
X103124000Y-73388250D01*
X103124000Y-74168000D01*
X103649750Y-74168000D01*
X103761500Y-74056250D01*
X103761500Y-73634586D01*
X103693448Y-73470295D01*
X103567705Y-73344552D01*
X103403414Y-73276500D01*
X103235750Y-73276500D01*
X103124000Y-73388250D01*
X102870000Y-73388250D01*
X102758250Y-73276500D01*
X102590586Y-73276500D01*
X102489000Y-73318579D01*
X102489000Y-72731421D01*
X102590586Y-72773500D01*
X102758250Y-72773500D01*
X102870000Y-72661750D01*
X102870000Y-71882000D01*
X102850000Y-71882000D01*
X102850000Y-71628000D01*
X102870000Y-71628000D01*
X102870000Y-70848250D01*
X102758250Y-70736500D01*
X102590586Y-70736500D01*
X102489000Y-70778579D01*
X102489000Y-70191421D01*
X102590586Y-70233500D01*
X102758250Y-70233500D01*
X102870000Y-70121750D01*
X102870000Y-69342000D01*
X103124000Y-69342000D01*
X103124000Y-70121750D01*
X103235750Y-70233500D01*
X103403414Y-70233500D01*
X103567705Y-70165448D01*
X103693448Y-70039705D01*
X103761500Y-69875414D01*
X103761500Y-69453750D01*
X103649750Y-69342000D01*
X103124000Y-69342000D01*
X102870000Y-69342000D01*
X102850000Y-69342000D01*
X102850000Y-69088000D01*
X102870000Y-69088000D01*
X102870000Y-68308250D01*
X103124000Y-68308250D01*
X103124000Y-69088000D01*
X103649750Y-69088000D01*
X103761500Y-68976250D01*
X103761500Y-68554586D01*
X103693448Y-68390295D01*
X103567705Y-68264552D01*
X103403414Y-68196500D01*
X103235750Y-68196500D01*
X103124000Y-68308250D01*
X102870000Y-68308250D01*
X102758250Y-68196500D01*
X102590586Y-68196500D01*
X102489000Y-68238579D01*
X102489000Y-67651421D01*
X102590586Y-67693500D01*
X102758250Y-67693500D01*
X102870000Y-67581750D01*
X102870000Y-66802000D01*
X103124000Y-66802000D01*
X103124000Y-67581750D01*
X103235750Y-67693500D01*
X103403414Y-67693500D01*
X103567705Y-67625448D01*
X103693448Y-67499705D01*
X103761500Y-67335414D01*
X103761500Y-66913750D01*
X103649750Y-66802000D01*
X103124000Y-66802000D01*
X102870000Y-66802000D01*
X102850000Y-66802000D01*
X102850000Y-66548000D01*
X102870000Y-66548000D01*
X102870000Y-65768250D01*
X103124000Y-65768250D01*
X103124000Y-66548000D01*
X103649750Y-66548000D01*
X103761500Y-66436250D01*
X103761500Y-66014586D01*
X103693448Y-65850295D01*
X103567705Y-65724552D01*
X103403414Y-65656500D01*
X103235750Y-65656500D01*
X103124000Y-65768250D01*
X102870000Y-65768250D01*
X102758250Y-65656500D01*
X102590586Y-65656500D01*
X102489000Y-65698579D01*
X102489000Y-65422377D01*
X102509021Y-65408999D01*
X102976979Y-65408999D01*
X103094894Y-65487788D01*
G36*
X45619030Y-56742965D02*
X45619032Y-56742968D01*
X45686327Y-56787933D01*
X47097527Y-58199133D01*
X47087740Y-58205430D01*
X47001659Y-58331413D01*
X46971375Y-58480960D01*
X46971375Y-65979040D01*
X46997663Y-66118748D01*
X47080230Y-66247060D01*
X47206213Y-66333141D01*
X47355760Y-66363425D01*
X50352960Y-66363425D01*
X50492668Y-66337137D01*
X50620980Y-66254570D01*
X50707061Y-66128587D01*
X50737345Y-65979040D01*
X50737345Y-65213813D01*
X50928320Y-65213813D01*
X50928320Y-66035250D01*
X51060070Y-66167000D01*
X52578000Y-66167000D01*
X52578000Y-64923390D01*
X52832000Y-64923390D01*
X52832000Y-66167000D01*
X54349930Y-66167000D01*
X54481680Y-66035250D01*
X54481680Y-65344623D01*
X55138370Y-65344623D01*
X55138370Y-66240990D01*
X55270120Y-66372740D01*
X56388000Y-66372740D01*
X56388000Y-65054200D01*
X56256250Y-64922450D01*
X55560543Y-64922450D01*
X55366849Y-65002681D01*
X55218601Y-65150928D01*
X55138370Y-65344623D01*
X54481680Y-65344623D01*
X54481680Y-65213813D01*
X54401449Y-65020118D01*
X54253201Y-64871871D01*
X54059507Y-64791640D01*
X52963750Y-64791640D01*
X52832000Y-64923390D01*
X52578000Y-64923390D01*
X52446250Y-64791640D01*
X51350493Y-64791640D01*
X51156799Y-64871871D01*
X51008551Y-65020118D01*
X50928320Y-65213813D01*
X50737345Y-65213813D01*
X50737345Y-64389000D01*
X51115197Y-64389000D01*
X51179790Y-64489380D01*
X51305773Y-64575461D01*
X51455320Y-64605745D01*
X53954680Y-64605745D01*
X54094388Y-64579457D01*
X54222700Y-64496890D01*
X54308781Y-64370907D01*
X54339065Y-64221360D01*
X54339065Y-64167260D01*
X55295419Y-64167260D01*
X55307273Y-64230258D01*
X55389840Y-64358570D01*
X55515823Y-64444651D01*
X55665370Y-64474935D01*
X56862303Y-64474935D01*
X57237630Y-64850262D01*
X57237630Y-64922450D01*
X56773750Y-64922450D01*
X56642000Y-65054200D01*
X56642000Y-66372740D01*
X56662000Y-66372740D01*
X56662000Y-66626740D01*
X56642000Y-66626740D01*
X56642000Y-67945280D01*
X56773750Y-68077030D01*
X57237630Y-68077030D01*
X57237630Y-72088622D01*
X57285358Y-72328565D01*
X57383902Y-72476047D01*
X57421274Y-72531978D01*
X58047000Y-73157704D01*
X58047000Y-73633965D01*
X58094728Y-73873908D01*
X58223769Y-74067032D01*
X58230644Y-74077321D01*
X66638679Y-82485356D01*
X66842092Y-82621272D01*
X67082035Y-82669000D01*
X74162288Y-82669000D01*
X74740644Y-83247356D01*
X74944057Y-83383272D01*
X75184000Y-83431000D01*
X81861631Y-83431000D01*
X81718788Y-83644780D01*
X81633000Y-84076064D01*
X81633000Y-84833936D01*
X81709196Y-85217000D01*
X43507513Y-85217000D01*
X44235764Y-84490019D01*
X44636543Y-83524835D01*
X44637455Y-82479750D01*
X44238361Y-81513868D01*
X43500019Y-80774236D01*
X42534835Y-80373457D01*
X41489750Y-80372545D01*
X40523868Y-80771639D01*
X39784236Y-81509981D01*
X39751000Y-81590022D01*
X39751000Y-73555902D01*
X47908703Y-73555902D01*
X48025545Y-73802768D01*
X48632371Y-74027953D01*
X49279180Y-74003775D01*
X49764455Y-73802768D01*
X49881297Y-73555902D01*
X48895000Y-72569605D01*
X47908703Y-73555902D01*
X39751000Y-73555902D01*
X39751000Y-72127371D01*
X47257047Y-72127371D01*
X47281225Y-72774180D01*
X47482232Y-73259455D01*
X47729098Y-73376297D01*
X48715395Y-72390000D01*
X49074605Y-72390000D01*
X50060902Y-73376297D01*
X50245423Y-73288963D01*
X50597254Y-73641409D01*
X51139918Y-73866743D01*
X51727505Y-73867256D01*
X52270560Y-73642870D01*
X52686409Y-73227746D01*
X52911743Y-72685082D01*
X52912256Y-72097495D01*
X52687870Y-71554440D01*
X52272746Y-71138591D01*
X51730082Y-70913257D01*
X51142495Y-70912744D01*
X50599440Y-71137130D01*
X50245078Y-71490874D01*
X50060902Y-71403703D01*
X49074605Y-72390000D01*
X48715395Y-72390000D01*
X47729098Y-71403703D01*
X47482232Y-71520545D01*
X47257047Y-72127371D01*
X39751000Y-72127371D01*
X39751000Y-71224098D01*
X47908703Y-71224098D01*
X48895000Y-72210395D01*
X49881297Y-71224098D01*
X49764455Y-70977232D01*
X49157629Y-70752047D01*
X48510820Y-70776225D01*
X48025545Y-70977232D01*
X47908703Y-71224098D01*
X39751000Y-71224098D01*
X39751000Y-66552750D01*
X50928320Y-66552750D01*
X50928320Y-67374187D01*
X51008551Y-67567882D01*
X51156799Y-67716129D01*
X51350493Y-67796360D01*
X52446250Y-67796360D01*
X52578000Y-67664610D01*
X52578000Y-66421000D01*
X52832000Y-66421000D01*
X52832000Y-67664610D01*
X52963750Y-67796360D01*
X54059507Y-67796360D01*
X54253201Y-67716129D01*
X54401449Y-67567882D01*
X54481680Y-67374187D01*
X54481680Y-66758490D01*
X55138370Y-66758490D01*
X55138370Y-67654857D01*
X55218601Y-67848552D01*
X55366849Y-67996799D01*
X55560543Y-68077030D01*
X56256250Y-68077030D01*
X56388000Y-67945280D01*
X56388000Y-66626740D01*
X55270120Y-66626740D01*
X55138370Y-66758490D01*
X54481680Y-66758490D01*
X54481680Y-66552750D01*
X54349930Y-66421000D01*
X52832000Y-66421000D01*
X52578000Y-66421000D01*
X51060070Y-66421000D01*
X50928320Y-66552750D01*
X39751000Y-66552750D01*
X39751000Y-66167000D01*
X42029992Y-66167000D01*
X42081510Y-66247060D01*
X42207493Y-66333141D01*
X42357040Y-66363425D01*
X45354240Y-66363425D01*
X45493948Y-66337137D01*
X45622260Y-66254570D01*
X45708341Y-66128587D01*
X45738625Y-65979040D01*
X45738625Y-58480960D01*
X45712337Y-58341252D01*
X45629770Y-58212940D01*
X45503787Y-58126859D01*
X45354240Y-58096575D01*
X42545000Y-58096575D01*
X42545000Y-57979081D01*
X42546971Y-57978267D01*
X42737580Y-57787990D01*
X42840864Y-57539254D01*
X42841099Y-57269927D01*
X42738249Y-57021011D01*
X42547972Y-56830402D01*
X42299236Y-56727118D01*
X42029909Y-56726883D01*
X41908617Y-56777000D01*
X41463000Y-56777000D01*
X41463000Y-56720750D01*
X41331250Y-56589000D01*
X40513000Y-56589000D01*
X40513000Y-56609000D01*
X40259000Y-56609000D01*
X40259000Y-56589000D01*
X40239000Y-56589000D01*
X40239000Y-56335000D01*
X40259000Y-56335000D01*
X40259000Y-55516750D01*
X40513000Y-55516750D01*
X40513000Y-56335000D01*
X41331250Y-56335000D01*
X41463000Y-56203250D01*
X41463000Y-55807173D01*
X41382769Y-55613478D01*
X41234521Y-55465231D01*
X41040827Y-55385000D01*
X40644750Y-55385000D01*
X40513000Y-55516750D01*
X40259000Y-55516750D01*
X40127250Y-55385000D01*
X39751000Y-55385000D01*
X39751000Y-55245000D01*
X44121064Y-55245000D01*
X45619030Y-56742965D01*
X45619030Y-56742965D01*
G37*
X45619030Y-56742965D02*
X45619032Y-56742968D01*
X45686327Y-56787933D01*
X47097527Y-58199133D01*
X47087740Y-58205430D01*
X47001659Y-58331413D01*
X46971375Y-58480960D01*
X46971375Y-65979040D01*
X46997663Y-66118748D01*
X47080230Y-66247060D01*
X47206213Y-66333141D01*
X47355760Y-66363425D01*
X50352960Y-66363425D01*
X50492668Y-66337137D01*
X50620980Y-66254570D01*
X50707061Y-66128587D01*
X50737345Y-65979040D01*
X50737345Y-65213813D01*
X50928320Y-65213813D01*
X50928320Y-66035250D01*
X51060070Y-66167000D01*
X52578000Y-66167000D01*
X52578000Y-64923390D01*
X52832000Y-64923390D01*
X52832000Y-66167000D01*
X54349930Y-66167000D01*
X54481680Y-66035250D01*
X54481680Y-65344623D01*
X55138370Y-65344623D01*
X55138370Y-66240990D01*
X55270120Y-66372740D01*
X56388000Y-66372740D01*
X56388000Y-65054200D01*
X56256250Y-64922450D01*
X55560543Y-64922450D01*
X55366849Y-65002681D01*
X55218601Y-65150928D01*
X55138370Y-65344623D01*
X54481680Y-65344623D01*
X54481680Y-65213813D01*
X54401449Y-65020118D01*
X54253201Y-64871871D01*
X54059507Y-64791640D01*
X52963750Y-64791640D01*
X52832000Y-64923390D01*
X52578000Y-64923390D01*
X52446250Y-64791640D01*
X51350493Y-64791640D01*
X51156799Y-64871871D01*
X51008551Y-65020118D01*
X50928320Y-65213813D01*
X50737345Y-65213813D01*
X50737345Y-64389000D01*
X51115197Y-64389000D01*
X51179790Y-64489380D01*
X51305773Y-64575461D01*
X51455320Y-64605745D01*
X53954680Y-64605745D01*
X54094388Y-64579457D01*
X54222700Y-64496890D01*
X54308781Y-64370907D01*
X54339065Y-64221360D01*
X54339065Y-64167260D01*
X55295419Y-64167260D01*
X55307273Y-64230258D01*
X55389840Y-64358570D01*
X55515823Y-64444651D01*
X55665370Y-64474935D01*
X56862303Y-64474935D01*
X57237630Y-64850262D01*
X57237630Y-64922450D01*
X56773750Y-64922450D01*
X56642000Y-65054200D01*
X56642000Y-66372740D01*
X56662000Y-66372740D01*
X56662000Y-66626740D01*
X56642000Y-66626740D01*
X56642000Y-67945280D01*
X56773750Y-68077030D01*
X57237630Y-68077030D01*
X57237630Y-72088622D01*
X57285358Y-72328565D01*
X57383902Y-72476047D01*
X57421274Y-72531978D01*
X58047000Y-73157704D01*
X58047000Y-73633965D01*
X58094728Y-73873908D01*
X58223769Y-74067032D01*
X58230644Y-74077321D01*
X66638679Y-82485356D01*
X66842092Y-82621272D01*
X67082035Y-82669000D01*
X74162288Y-82669000D01*
X74740644Y-83247356D01*
X74944057Y-83383272D01*
X75184000Y-83431000D01*
X81861631Y-83431000D01*
X81718788Y-83644780D01*
X81633000Y-84076064D01*
X81633000Y-84833936D01*
X81709196Y-85217000D01*
X43507513Y-85217000D01*
X44235764Y-84490019D01*
X44636543Y-83524835D01*
X44637455Y-82479750D01*
X44238361Y-81513868D01*
X43500019Y-80774236D01*
X42534835Y-80373457D01*
X41489750Y-80372545D01*
X40523868Y-80771639D01*
X39784236Y-81509981D01*
X39751000Y-81590022D01*
X39751000Y-73555902D01*
X47908703Y-73555902D01*
X48025545Y-73802768D01*
X48632371Y-74027953D01*
X49279180Y-74003775D01*
X49764455Y-73802768D01*
X49881297Y-73555902D01*
X48895000Y-72569605D01*
X47908703Y-73555902D01*
X39751000Y-73555902D01*
X39751000Y-72127371D01*
X47257047Y-72127371D01*
X47281225Y-72774180D01*
X47482232Y-73259455D01*
X47729098Y-73376297D01*
X48715395Y-72390000D01*
X49074605Y-72390000D01*
X50060902Y-73376297D01*
X50245423Y-73288963D01*
X50597254Y-73641409D01*
X51139918Y-73866743D01*
X51727505Y-73867256D01*
X52270560Y-73642870D01*
X52686409Y-73227746D01*
X52911743Y-72685082D01*
X52912256Y-72097495D01*
X52687870Y-71554440D01*
X52272746Y-71138591D01*
X51730082Y-70913257D01*
X51142495Y-70912744D01*
X50599440Y-71137130D01*
X50245078Y-71490874D01*
X50060902Y-71403703D01*
X49074605Y-72390000D01*
X48715395Y-72390000D01*
X47729098Y-71403703D01*
X47482232Y-71520545D01*
X47257047Y-72127371D01*
X39751000Y-72127371D01*
X39751000Y-71224098D01*
X47908703Y-71224098D01*
X48895000Y-72210395D01*
X49881297Y-71224098D01*
X49764455Y-70977232D01*
X49157629Y-70752047D01*
X48510820Y-70776225D01*
X48025545Y-70977232D01*
X47908703Y-71224098D01*
X39751000Y-71224098D01*
X39751000Y-66552750D01*
X50928320Y-66552750D01*
X50928320Y-67374187D01*
X51008551Y-67567882D01*
X51156799Y-67716129D01*
X51350493Y-67796360D01*
X52446250Y-67796360D01*
X52578000Y-67664610D01*
X52578000Y-66421000D01*
X52832000Y-66421000D01*
X52832000Y-67664610D01*
X52963750Y-67796360D01*
X54059507Y-67796360D01*
X54253201Y-67716129D01*
X54401449Y-67567882D01*
X54481680Y-67374187D01*
X54481680Y-66758490D01*
X55138370Y-66758490D01*
X55138370Y-67654857D01*
X55218601Y-67848552D01*
X55366849Y-67996799D01*
X55560543Y-68077030D01*
X56256250Y-68077030D01*
X56388000Y-67945280D01*
X56388000Y-66626740D01*
X55270120Y-66626740D01*
X55138370Y-66758490D01*
X54481680Y-66758490D01*
X54481680Y-66552750D01*
X54349930Y-66421000D01*
X52832000Y-66421000D01*
X52578000Y-66421000D01*
X51060070Y-66421000D01*
X50928320Y-66552750D01*
X39751000Y-66552750D01*
X39751000Y-66167000D01*
X42029992Y-66167000D01*
X42081510Y-66247060D01*
X42207493Y-66333141D01*
X42357040Y-66363425D01*
X45354240Y-66363425D01*
X45493948Y-66337137D01*
X45622260Y-66254570D01*
X45708341Y-66128587D01*
X45738625Y-65979040D01*
X45738625Y-58480960D01*
X45712337Y-58341252D01*
X45629770Y-58212940D01*
X45503787Y-58126859D01*
X45354240Y-58096575D01*
X42545000Y-58096575D01*
X42545000Y-57979081D01*
X42546971Y-57978267D01*
X42737580Y-57787990D01*
X42840864Y-57539254D01*
X42841099Y-57269927D01*
X42738249Y-57021011D01*
X42547972Y-56830402D01*
X42299236Y-56727118D01*
X42029909Y-56726883D01*
X41908617Y-56777000D01*
X41463000Y-56777000D01*
X41463000Y-56720750D01*
X41331250Y-56589000D01*
X40513000Y-56589000D01*
X40513000Y-56609000D01*
X40259000Y-56609000D01*
X40259000Y-56589000D01*
X40239000Y-56589000D01*
X40239000Y-56335000D01*
X40259000Y-56335000D01*
X40259000Y-55516750D01*
X40513000Y-55516750D01*
X40513000Y-56335000D01*
X41331250Y-56335000D01*
X41463000Y-56203250D01*
X41463000Y-55807173D01*
X41382769Y-55613478D01*
X41234521Y-55465231D01*
X41040827Y-55385000D01*
X40644750Y-55385000D01*
X40513000Y-55516750D01*
X40259000Y-55516750D01*
X40127250Y-55385000D01*
X39751000Y-55385000D01*
X39751000Y-55245000D01*
X44121064Y-55245000D01*
X45619030Y-56742965D01*
G36*
X123571000Y-64780676D02*
X123571000Y-72906000D01*
X123341322Y-72906000D01*
X123276047Y-72861399D01*
X123126500Y-72831115D01*
X121983500Y-72831115D01*
X121843792Y-72857403D01*
X121715480Y-72939970D01*
X121651915Y-73033000D01*
X121030571Y-73033000D01*
X121017928Y-73024362D01*
X121109790Y-72965250D01*
X121195871Y-72839267D01*
X121226155Y-72689720D01*
X121226155Y-72090280D01*
X121199867Y-71950572D01*
X121117300Y-71822260D01*
X120991317Y-71736179D01*
X120841770Y-71705895D01*
X119442230Y-71705895D01*
X119302522Y-71732183D01*
X119174210Y-71814750D01*
X119088129Y-71940733D01*
X119057845Y-72090280D01*
X119057845Y-72689720D01*
X119084133Y-72829428D01*
X119166700Y-72957740D01*
X119266072Y-73025638D01*
X119174210Y-73084750D01*
X119088129Y-73210733D01*
X119057845Y-73360280D01*
X119057845Y-73959720D01*
X119084133Y-74099428D01*
X119166700Y-74227740D01*
X119266072Y-74295638D01*
X119174210Y-74354750D01*
X119088129Y-74480733D01*
X119057845Y-74630280D01*
X119057845Y-75229720D01*
X119084133Y-75369428D01*
X119166700Y-75497740D01*
X119266072Y-75565638D01*
X119254631Y-75573000D01*
X119126000Y-75573000D01*
X118886058Y-75620727D01*
X118682644Y-75756644D01*
X117793644Y-76645644D01*
X117657728Y-76849057D01*
X117610000Y-77089000D01*
X117610000Y-77953678D01*
X117565399Y-78018953D01*
X117556723Y-78061797D01*
X117477269Y-77869979D01*
X117329022Y-77721731D01*
X117135327Y-77641500D01*
X116971750Y-77641500D01*
X116840000Y-77773250D01*
X116840000Y-78613000D01*
X116860000Y-78613000D01*
X116860000Y-78867000D01*
X116840000Y-78867000D01*
X116840000Y-79706750D01*
X116971750Y-79838500D01*
X117135327Y-79838500D01*
X117329022Y-79758269D01*
X117477269Y-79610021D01*
X117555671Y-79420743D01*
X117561403Y-79451208D01*
X117643970Y-79579520D01*
X117769953Y-79665601D01*
X117919500Y-79695885D01*
X118554500Y-79695885D01*
X118694208Y-79669597D01*
X118757297Y-79629000D01*
X120806735Y-79629000D01*
X121299865Y-80122130D01*
X121299867Y-80122133D01*
X121581030Y-80309999D01*
X121584387Y-80312242D01*
X121920000Y-80379001D01*
X121920005Y-80379000D01*
X123571000Y-80379000D01*
X123571000Y-80752164D01*
X123523868Y-80771639D01*
X122784236Y-81509981D01*
X122383457Y-82475165D01*
X122382838Y-83185000D01*
X119636655Y-83185000D01*
X119661683Y-83159972D01*
X119600075Y-82959737D01*
X119156401Y-82809766D01*
X118689109Y-82840997D01*
X118402445Y-82959737D01*
X118340837Y-83159972D01*
X118365865Y-83185000D01*
X118110000Y-83185000D01*
X118060590Y-83195006D01*
X118018965Y-83223447D01*
X117991685Y-83265841D01*
X117983000Y-83312000D01*
X117983000Y-83394415D01*
X117960997Y-83401185D01*
X117917257Y-83530585D01*
X117871100Y-83418875D01*
X117582385Y-83129656D01*
X117204967Y-82972939D01*
X116796306Y-82972582D01*
X116418615Y-83128640D01*
X116129396Y-83417355D01*
X116000126Y-83728674D01*
X115872120Y-83418875D01*
X115583405Y-83129656D01*
X115205987Y-82972939D01*
X114797326Y-82972582D01*
X114419635Y-83128640D01*
X114130416Y-83417355D01*
X113999873Y-83731740D01*
X113870600Y-83418875D01*
X113581885Y-83129656D01*
X113204467Y-82972939D01*
X112795806Y-82972582D01*
X112418115Y-83128640D01*
X112128896Y-83417355D01*
X111999626Y-83728674D01*
X111871620Y-83418875D01*
X111582905Y-83129656D01*
X111205487Y-82972939D01*
X110796826Y-82972582D01*
X110419135Y-83128640D01*
X110129916Y-83417355D01*
X109999373Y-83731740D01*
X109870100Y-83418875D01*
X109581385Y-83129656D01*
X109203967Y-82972939D01*
X108795306Y-82972582D01*
X108417615Y-83128640D01*
X108255924Y-83290050D01*
X107815000Y-82849126D01*
X107815000Y-81693996D01*
X107767272Y-81454053D01*
X107631356Y-81250640D01*
X107599703Y-81218987D01*
X109341238Y-81218987D01*
X109341243Y-81218988D01*
X109533350Y-81180775D01*
X109696211Y-81071955D01*
X111769415Y-78998750D01*
X115868500Y-78998750D01*
X115868500Y-79416327D01*
X115948731Y-79610021D01*
X116096978Y-79758269D01*
X116290673Y-79838500D01*
X116454250Y-79838500D01*
X116586000Y-79706750D01*
X116586000Y-78867000D01*
X116000250Y-78867000D01*
X115868500Y-78998750D01*
X111769415Y-78998750D01*
X112704492Y-78063673D01*
X115868500Y-78063673D01*
X115868500Y-78481250D01*
X116000250Y-78613000D01*
X116586000Y-78613000D01*
X116586000Y-77773250D01*
X116454250Y-77641500D01*
X116290673Y-77641500D01*
X116096978Y-77721731D01*
X115948731Y-77869979D01*
X115868500Y-78063673D01*
X112704492Y-78063673D01*
X113932342Y-76835823D01*
X113958683Y-76853821D01*
X114108230Y-76884105D01*
X115507770Y-76884105D01*
X115647478Y-76857817D01*
X115775790Y-76775250D01*
X115861871Y-76649267D01*
X115892155Y-76499720D01*
X115892155Y-75900280D01*
X115865867Y-75760572D01*
X115809619Y-75673161D01*
X115954539Y-75528242D01*
X116034770Y-75334547D01*
X116034770Y-75188750D01*
X115903020Y-75057000D01*
X114935000Y-75057000D01*
X114935000Y-75077000D01*
X114681000Y-75077000D01*
X114681000Y-75057000D01*
X114661000Y-75057000D01*
X114661000Y-74803000D01*
X114681000Y-74803000D01*
X114681000Y-74783000D01*
X114935000Y-74783000D01*
X114935000Y-74803000D01*
X115903020Y-74803000D01*
X116034770Y-74671250D01*
X116034770Y-74525453D01*
X115954539Y-74331758D01*
X115809173Y-74186393D01*
X115861871Y-74109267D01*
X115892155Y-73959720D01*
X115892155Y-73360280D01*
X115865867Y-73220572D01*
X115783300Y-73092260D01*
X115683928Y-73024362D01*
X115775790Y-72965250D01*
X115861871Y-72839267D01*
X115892155Y-72689720D01*
X115892155Y-72090280D01*
X115865867Y-71950572D01*
X115783300Y-71822260D01*
X115697000Y-71763293D01*
X115697000Y-71313885D01*
X116776500Y-71313885D01*
X116916208Y-71287597D01*
X116979297Y-71247000D01*
X117094000Y-71247000D01*
X117143410Y-71236994D01*
X117185035Y-71208553D01*
X117212315Y-71166159D01*
X117221000Y-71120000D01*
X117221000Y-70739000D01*
X117900486Y-70739000D01*
X118144881Y-70902299D01*
X118580757Y-70989000D01*
X120179243Y-70989000D01*
X120615119Y-70902299D01*
X120984638Y-70655395D01*
X121231542Y-70285876D01*
X121318243Y-69850000D01*
X121231542Y-69414124D01*
X120984638Y-69044605D01*
X120615119Y-68797701D01*
X120179243Y-68711000D01*
X119127712Y-68711000D01*
X119061356Y-68644644D01*
X119030777Y-68624212D01*
X118857943Y-68508728D01*
X118618000Y-68461000D01*
X117221000Y-68461000D01*
X117221000Y-67310000D01*
X117441757Y-67310000D01*
X117528458Y-67745876D01*
X117775362Y-68115395D01*
X118144881Y-68362299D01*
X118580757Y-68449000D01*
X120179243Y-68449000D01*
X120615119Y-68362299D01*
X120984638Y-68115395D01*
X121231542Y-67745876D01*
X121318243Y-67310000D01*
X121231542Y-66874124D01*
X120984638Y-66504605D01*
X120615119Y-66257701D01*
X120179243Y-66171000D01*
X118580757Y-66171000D01*
X118144881Y-66257701D01*
X117775362Y-66504605D01*
X117528458Y-66874124D01*
X117441757Y-67310000D01*
X117221000Y-67310000D01*
X117221000Y-65896291D01*
X117223269Y-65894022D01*
X117303500Y-65700327D01*
X117303500Y-65536750D01*
X117221000Y-65454250D01*
X117221000Y-65101750D01*
X117226651Y-65096099D01*
X117370932Y-65096099D01*
X117378518Y-65145946D01*
X117616736Y-65591658D01*
X118007388Y-65912280D01*
X118491000Y-66059000D01*
X119253000Y-66059000D01*
X119253000Y-64897000D01*
X119507000Y-64897000D01*
X119507000Y-66059000D01*
X120269000Y-66059000D01*
X120752612Y-65912280D01*
X121143264Y-65591658D01*
X121381482Y-65145946D01*
X121389068Y-65096099D01*
X121292260Y-64897000D01*
X119507000Y-64897000D01*
X119253000Y-64897000D01*
X117467740Y-64897000D01*
X117370932Y-65096099D01*
X117226651Y-65096099D01*
X117303500Y-65019250D01*
X117303500Y-64855673D01*
X117223269Y-64661978D01*
X117221000Y-64659709D01*
X117221000Y-64443901D01*
X117370932Y-64443901D01*
X117467740Y-64643000D01*
X119253000Y-64643000D01*
X119253000Y-63481000D01*
X119507000Y-63481000D01*
X119507000Y-64643000D01*
X121292260Y-64643000D01*
X121389068Y-64443901D01*
X121381482Y-64394054D01*
X121143264Y-63948342D01*
X120752612Y-63627720D01*
X120269000Y-63481000D01*
X119507000Y-63481000D01*
X119253000Y-63481000D01*
X118491000Y-63481000D01*
X118007388Y-63627720D01*
X117616736Y-63948342D01*
X117378518Y-64394054D01*
X117370932Y-64443901D01*
X117221000Y-64443901D01*
X117221000Y-63574935D01*
X118317935Y-62478000D01*
X121268324Y-62478000D01*
X123571000Y-64780676D01*
X123571000Y-64780676D01*
G37*
X123571000Y-64780676D02*
X123571000Y-72906000D01*
X123341322Y-72906000D01*
X123276047Y-72861399D01*
X123126500Y-72831115D01*
X121983500Y-72831115D01*
X121843792Y-72857403D01*
X121715480Y-72939970D01*
X121651915Y-73033000D01*
X121030571Y-73033000D01*
X121017928Y-73024362D01*
X121109790Y-72965250D01*
X121195871Y-72839267D01*
X121226155Y-72689720D01*
X121226155Y-72090280D01*
X121199867Y-71950572D01*
X121117300Y-71822260D01*
X120991317Y-71736179D01*
X120841770Y-71705895D01*
X119442230Y-71705895D01*
X119302522Y-71732183D01*
X119174210Y-71814750D01*
X119088129Y-71940733D01*
X119057845Y-72090280D01*
X119057845Y-72689720D01*
X119084133Y-72829428D01*
X119166700Y-72957740D01*
X119266072Y-73025638D01*
X119174210Y-73084750D01*
X119088129Y-73210733D01*
X119057845Y-73360280D01*
X119057845Y-73959720D01*
X119084133Y-74099428D01*
X119166700Y-74227740D01*
X119266072Y-74295638D01*
X119174210Y-74354750D01*
X119088129Y-74480733D01*
X119057845Y-74630280D01*
X119057845Y-75229720D01*
X119084133Y-75369428D01*
X119166700Y-75497740D01*
X119266072Y-75565638D01*
X119254631Y-75573000D01*
X119126000Y-75573000D01*
X118886058Y-75620727D01*
X118682644Y-75756644D01*
X117793644Y-76645644D01*
X117657728Y-76849057D01*
X117610000Y-77089000D01*
X117610000Y-77953678D01*
X117565399Y-78018953D01*
X117556723Y-78061797D01*
X117477269Y-77869979D01*
X117329022Y-77721731D01*
X117135327Y-77641500D01*
X116971750Y-77641500D01*
X116840000Y-77773250D01*
X116840000Y-78613000D01*
X116860000Y-78613000D01*
X116860000Y-78867000D01*
X116840000Y-78867000D01*
X116840000Y-79706750D01*
X116971750Y-79838500D01*
X117135327Y-79838500D01*
X117329022Y-79758269D01*
X117477269Y-79610021D01*
X117555671Y-79420743D01*
X117561403Y-79451208D01*
X117643970Y-79579520D01*
X117769953Y-79665601D01*
X117919500Y-79695885D01*
X118554500Y-79695885D01*
X118694208Y-79669597D01*
X118757297Y-79629000D01*
X120806735Y-79629000D01*
X121299865Y-80122130D01*
X121299867Y-80122133D01*
X121581030Y-80309999D01*
X121584387Y-80312242D01*
X121920000Y-80379001D01*
X121920005Y-80379000D01*
X123571000Y-80379000D01*
X123571000Y-80752164D01*
X123523868Y-80771639D01*
X122784236Y-81509981D01*
X122383457Y-82475165D01*
X122382838Y-83185000D01*
X119636655Y-83185000D01*
X119661683Y-83159972D01*
X119600075Y-82959737D01*
X119156401Y-82809766D01*
X118689109Y-82840997D01*
X118402445Y-82959737D01*
X118340837Y-83159972D01*
X118365865Y-83185000D01*
X118110000Y-83185000D01*
X118060590Y-83195006D01*
X118018965Y-83223447D01*
X117991685Y-83265841D01*
X117983000Y-83312000D01*
X117983000Y-83394415D01*
X117960997Y-83401185D01*
X117917257Y-83530585D01*
X117871100Y-83418875D01*
X117582385Y-83129656D01*
X117204967Y-82972939D01*
X116796306Y-82972582D01*
X116418615Y-83128640D01*
X116129396Y-83417355D01*
X116000126Y-83728674D01*
X115872120Y-83418875D01*
X115583405Y-83129656D01*
X115205987Y-82972939D01*
X114797326Y-82972582D01*
X114419635Y-83128640D01*
X114130416Y-83417355D01*
X113999873Y-83731740D01*
X113870600Y-83418875D01*
X113581885Y-83129656D01*
X113204467Y-82972939D01*
X112795806Y-82972582D01*
X112418115Y-83128640D01*
X112128896Y-83417355D01*
X111999626Y-83728674D01*
X111871620Y-83418875D01*
X111582905Y-83129656D01*
X111205487Y-82972939D01*
X110796826Y-82972582D01*
X110419135Y-83128640D01*
X110129916Y-83417355D01*
X109999373Y-83731740D01*
X109870100Y-83418875D01*
X109581385Y-83129656D01*
X109203967Y-82972939D01*
X108795306Y-82972582D01*
X108417615Y-83128640D01*
X108255924Y-83290050D01*
X107815000Y-82849126D01*
X107815000Y-81693996D01*
X107767272Y-81454053D01*
X107631356Y-81250640D01*
X107599703Y-81218987D01*
X109341238Y-81218987D01*
X109341243Y-81218988D01*
X109533350Y-81180775D01*
X109696211Y-81071955D01*
X111769415Y-78998750D01*
X115868500Y-78998750D01*
X115868500Y-79416327D01*
X115948731Y-79610021D01*
X116096978Y-79758269D01*
X116290673Y-79838500D01*
X116454250Y-79838500D01*
X116586000Y-79706750D01*
X116586000Y-78867000D01*
X116000250Y-78867000D01*
X115868500Y-78998750D01*
X111769415Y-78998750D01*
X112704492Y-78063673D01*
X115868500Y-78063673D01*
X115868500Y-78481250D01*
X116000250Y-78613000D01*
X116586000Y-78613000D01*
X116586000Y-77773250D01*
X116454250Y-77641500D01*
X116290673Y-77641500D01*
X116096978Y-77721731D01*
X115948731Y-77869979D01*
X115868500Y-78063673D01*
X112704492Y-78063673D01*
X113932342Y-76835823D01*
X113958683Y-76853821D01*
X114108230Y-76884105D01*
X115507770Y-76884105D01*
X115647478Y-76857817D01*
X115775790Y-76775250D01*
X115861871Y-76649267D01*
X115892155Y-76499720D01*
X115892155Y-75900280D01*
X115865867Y-75760572D01*
X115809619Y-75673161D01*
X115954539Y-75528242D01*
X116034770Y-75334547D01*
X116034770Y-75188750D01*
X115903020Y-75057000D01*
X114935000Y-75057000D01*
X114935000Y-75077000D01*
X114681000Y-75077000D01*
X114681000Y-75057000D01*
X114661000Y-75057000D01*
X114661000Y-74803000D01*
X114681000Y-74803000D01*
X114681000Y-74783000D01*
X114935000Y-74783000D01*
X114935000Y-74803000D01*
X115903020Y-74803000D01*
X116034770Y-74671250D01*
X116034770Y-74525453D01*
X115954539Y-74331758D01*
X115809173Y-74186393D01*
X115861871Y-74109267D01*
X115892155Y-73959720D01*
X115892155Y-73360280D01*
X115865867Y-73220572D01*
X115783300Y-73092260D01*
X115683928Y-73024362D01*
X115775790Y-72965250D01*
X115861871Y-72839267D01*
X115892155Y-72689720D01*
X115892155Y-72090280D01*
X115865867Y-71950572D01*
X115783300Y-71822260D01*
X115697000Y-71763293D01*
X115697000Y-71313885D01*
X116776500Y-71313885D01*
X116916208Y-71287597D01*
X116979297Y-71247000D01*
X117094000Y-71247000D01*
X117143410Y-71236994D01*
X117185035Y-71208553D01*
X117212315Y-71166159D01*
X117221000Y-71120000D01*
X117221000Y-70739000D01*
X117900486Y-70739000D01*
X118144881Y-70902299D01*
X118580757Y-70989000D01*
X120179243Y-70989000D01*
X120615119Y-70902299D01*
X120984638Y-70655395D01*
X121231542Y-70285876D01*
X121318243Y-69850000D01*
X121231542Y-69414124D01*
X120984638Y-69044605D01*
X120615119Y-68797701D01*
X120179243Y-68711000D01*
X119127712Y-68711000D01*
X119061356Y-68644644D01*
X119030777Y-68624212D01*
X118857943Y-68508728D01*
X118618000Y-68461000D01*
X117221000Y-68461000D01*
X117221000Y-67310000D01*
X117441757Y-67310000D01*
X117528458Y-67745876D01*
X117775362Y-68115395D01*
X118144881Y-68362299D01*
X118580757Y-68449000D01*
X120179243Y-68449000D01*
X120615119Y-68362299D01*
X120984638Y-68115395D01*
X121231542Y-67745876D01*
X121318243Y-67310000D01*
X121231542Y-66874124D01*
X120984638Y-66504605D01*
X120615119Y-66257701D01*
X120179243Y-66171000D01*
X118580757Y-66171000D01*
X118144881Y-66257701D01*
X117775362Y-66504605D01*
X117528458Y-66874124D01*
X117441757Y-67310000D01*
X117221000Y-67310000D01*
X117221000Y-65896291D01*
X117223269Y-65894022D01*
X117303500Y-65700327D01*
X117303500Y-65536750D01*
X117221000Y-65454250D01*
X117221000Y-65101750D01*
X117226651Y-65096099D01*
X117370932Y-65096099D01*
X117378518Y-65145946D01*
X117616736Y-65591658D01*
X118007388Y-65912280D01*
X118491000Y-66059000D01*
X119253000Y-66059000D01*
X119253000Y-64897000D01*
X119507000Y-64897000D01*
X119507000Y-66059000D01*
X120269000Y-66059000D01*
X120752612Y-65912280D01*
X121143264Y-65591658D01*
X121381482Y-65145946D01*
X121389068Y-65096099D01*
X121292260Y-64897000D01*
X119507000Y-64897000D01*
X119253000Y-64897000D01*
X117467740Y-64897000D01*
X117370932Y-65096099D01*
X117226651Y-65096099D01*
X117303500Y-65019250D01*
X117303500Y-64855673D01*
X117223269Y-64661978D01*
X117221000Y-64659709D01*
X117221000Y-64443901D01*
X117370932Y-64443901D01*
X117467740Y-64643000D01*
X119253000Y-64643000D01*
X119253000Y-63481000D01*
X119507000Y-63481000D01*
X119507000Y-64643000D01*
X121292260Y-64643000D01*
X121389068Y-64443901D01*
X121381482Y-64394054D01*
X121143264Y-63948342D01*
X120752612Y-63627720D01*
X120269000Y-63481000D01*
X119507000Y-63481000D01*
X119253000Y-63481000D01*
X118491000Y-63481000D01*
X118007388Y-63627720D01*
X117616736Y-63948342D01*
X117378518Y-64394054D01*
X117370932Y-64443901D01*
X117221000Y-64443901D01*
X117221000Y-63574935D01*
X118317935Y-62478000D01*
X121268324Y-62478000D01*
X123571000Y-64780676D01*
G36*
X60811580Y-67512287D02*
X61003687Y-67550500D01*
X61003692Y-67550499D01*
X61258500Y-67550499D01*
X61258500Y-67686250D01*
X61390250Y-67818000D01*
X61976000Y-67818000D01*
X61976000Y-67798000D01*
X62230000Y-67798000D01*
X62230000Y-67818000D01*
X62250000Y-67818000D01*
X62250000Y-68072000D01*
X62230000Y-68072000D01*
X62230000Y-69723000D01*
X62250000Y-69723000D01*
X62250000Y-69977000D01*
X62230000Y-69977000D01*
X62230000Y-69997000D01*
X61976000Y-69997000D01*
X61976000Y-69977000D01*
X61390250Y-69977000D01*
X61258500Y-70108750D01*
X61258500Y-70526327D01*
X61338731Y-70720021D01*
X61467998Y-70849289D01*
X61467998Y-70915248D01*
X61336250Y-70783500D01*
X60918673Y-70783500D01*
X60724979Y-70863731D01*
X60576731Y-71011978D01*
X60496500Y-71205673D01*
X60496500Y-71369250D01*
X60628250Y-71501000D01*
X61468000Y-71501000D01*
X61468000Y-71481000D01*
X61722000Y-71481000D01*
X61722000Y-71501000D01*
X61742000Y-71501000D01*
X61742000Y-71755000D01*
X61722000Y-71755000D01*
X61722000Y-71775000D01*
X61468000Y-71775000D01*
X61468000Y-71755000D01*
X60628250Y-71755000D01*
X60496500Y-71886750D01*
X60496500Y-72050327D01*
X60576731Y-72244022D01*
X60724979Y-72392269D01*
X60914257Y-72470671D01*
X60883792Y-72476403D01*
X60755480Y-72558970D01*
X60669399Y-72684953D01*
X60639115Y-72834500D01*
X60639115Y-73469500D01*
X60665403Y-73609208D01*
X60747970Y-73737520D01*
X60873953Y-73823601D01*
X61023500Y-73853885D01*
X62166500Y-73853885D01*
X62306208Y-73827597D01*
X62434520Y-73745030D01*
X62520601Y-73619047D01*
X62520676Y-73618673D01*
X63798500Y-73618673D01*
X63798500Y-74036250D01*
X63930250Y-74168000D01*
X64516000Y-74168000D01*
X64516000Y-73328250D01*
X64384250Y-73196500D01*
X64220673Y-73196500D01*
X64026978Y-73276731D01*
X63878731Y-73424979D01*
X63798500Y-73618673D01*
X62520676Y-73618673D01*
X62550885Y-73469500D01*
X62550885Y-73463827D01*
X63303827Y-72710885D01*
X63690500Y-72710885D01*
X63830208Y-72684597D01*
X63958520Y-72602030D01*
X64016619Y-72517000D01*
X64254087Y-72517000D01*
X64303970Y-72594520D01*
X64429953Y-72680601D01*
X64579500Y-72710885D01*
X64897000Y-72710885D01*
X64897000Y-73201250D01*
X64770000Y-73328250D01*
X64770000Y-74168000D01*
X64790000Y-74168000D01*
X64790000Y-74422000D01*
X64770000Y-74422000D01*
X64770000Y-75261750D01*
X64901750Y-75393500D01*
X65065327Y-75393500D01*
X65259022Y-75313269D01*
X65407269Y-75165021D01*
X65485671Y-74975743D01*
X65491403Y-75006208D01*
X65573970Y-75134520D01*
X65699953Y-75220601D01*
X65849500Y-75250885D01*
X66484500Y-75250885D01*
X66624208Y-75224597D01*
X66752520Y-75142030D01*
X66838601Y-75016047D01*
X66868885Y-74866500D01*
X66868885Y-74557051D01*
X67394898Y-74031038D01*
X67394883Y-74048073D01*
X67497733Y-74296989D01*
X67688010Y-74487598D01*
X67936746Y-74590882D01*
X68206073Y-74591117D01*
X68259543Y-74569024D01*
X68319285Y-74598895D01*
X68553628Y-74767828D01*
X74818832Y-81033031D01*
X74818834Y-81033034D01*
X74941092Y-81114724D01*
X74981695Y-81141854D01*
X75173802Y-81180067D01*
X75173807Y-81180066D01*
X83063892Y-81180066D01*
X83033000Y-81335370D01*
X83033000Y-81574630D01*
X83101661Y-81919810D01*
X83273510Y-82177000D01*
X75443712Y-82177000D01*
X75045939Y-81779227D01*
X74996267Y-81659011D01*
X74805990Y-81468402D01*
X74557254Y-81365118D01*
X74287927Y-81364883D01*
X74166635Y-81415000D01*
X67341747Y-81415000D01*
X60480497Y-74553750D01*
X63798500Y-74553750D01*
X63798500Y-74971327D01*
X63878731Y-75165021D01*
X64026978Y-75313269D01*
X64220673Y-75393500D01*
X64384250Y-75393500D01*
X64516000Y-75261750D01*
X64516000Y-74422000D01*
X63930250Y-74422000D01*
X63798500Y-74553750D01*
X60480497Y-74553750D01*
X59301000Y-73374253D01*
X59301000Y-73153375D01*
X59350882Y-73033246D01*
X59351117Y-72763919D01*
X59300473Y-72641352D01*
X59253272Y-72404057D01*
X59117356Y-72200644D01*
X58913943Y-72064728D01*
X58681140Y-72018420D01*
X58491630Y-71828910D01*
X58491630Y-68203750D01*
X61258500Y-68203750D01*
X61258500Y-68621327D01*
X61338731Y-68815021D01*
X61421209Y-68897500D01*
X61338731Y-68979979D01*
X61258500Y-69173673D01*
X61258500Y-69591250D01*
X61390250Y-69723000D01*
X61976000Y-69723000D01*
X61976000Y-68072000D01*
X61390250Y-68072000D01*
X61258500Y-68203750D01*
X58491630Y-68203750D01*
X58491630Y-67437000D01*
X60698905Y-67437000D01*
X60811580Y-67512287D01*
X60811580Y-67512287D01*
G37*
X60811580Y-67512287D02*
X61003687Y-67550500D01*
X61003692Y-67550499D01*
X61258500Y-67550499D01*
X61258500Y-67686250D01*
X61390250Y-67818000D01*
X61976000Y-67818000D01*
X61976000Y-67798000D01*
X62230000Y-67798000D01*
X62230000Y-67818000D01*
X62250000Y-67818000D01*
X62250000Y-68072000D01*
X62230000Y-68072000D01*
X62230000Y-69723000D01*
X62250000Y-69723000D01*
X62250000Y-69977000D01*
X62230000Y-69977000D01*
X62230000Y-69997000D01*
X61976000Y-69997000D01*
X61976000Y-69977000D01*
X61390250Y-69977000D01*
X61258500Y-70108750D01*
X61258500Y-70526327D01*
X61338731Y-70720021D01*
X61467998Y-70849289D01*
X61467998Y-70915248D01*
X61336250Y-70783500D01*
X60918673Y-70783500D01*
X60724979Y-70863731D01*
X60576731Y-71011978D01*
X60496500Y-71205673D01*
X60496500Y-71369250D01*
X60628250Y-71501000D01*
X61468000Y-71501000D01*
X61468000Y-71481000D01*
X61722000Y-71481000D01*
X61722000Y-71501000D01*
X61742000Y-71501000D01*
X61742000Y-71755000D01*
X61722000Y-71755000D01*
X61722000Y-71775000D01*
X61468000Y-71775000D01*
X61468000Y-71755000D01*
X60628250Y-71755000D01*
X60496500Y-71886750D01*
X60496500Y-72050327D01*
X60576731Y-72244022D01*
X60724979Y-72392269D01*
X60914257Y-72470671D01*
X60883792Y-72476403D01*
X60755480Y-72558970D01*
X60669399Y-72684953D01*
X60639115Y-72834500D01*
X60639115Y-73469500D01*
X60665403Y-73609208D01*
X60747970Y-73737520D01*
X60873953Y-73823601D01*
X61023500Y-73853885D01*
X62166500Y-73853885D01*
X62306208Y-73827597D01*
X62434520Y-73745030D01*
X62520601Y-73619047D01*
X62520676Y-73618673D01*
X63798500Y-73618673D01*
X63798500Y-74036250D01*
X63930250Y-74168000D01*
X64516000Y-74168000D01*
X64516000Y-73328250D01*
X64384250Y-73196500D01*
X64220673Y-73196500D01*
X64026978Y-73276731D01*
X63878731Y-73424979D01*
X63798500Y-73618673D01*
X62520676Y-73618673D01*
X62550885Y-73469500D01*
X62550885Y-73463827D01*
X63303827Y-72710885D01*
X63690500Y-72710885D01*
X63830208Y-72684597D01*
X63958520Y-72602030D01*
X64016619Y-72517000D01*
X64254087Y-72517000D01*
X64303970Y-72594520D01*
X64429953Y-72680601D01*
X64579500Y-72710885D01*
X64897000Y-72710885D01*
X64897000Y-73201250D01*
X64770000Y-73328250D01*
X64770000Y-74168000D01*
X64790000Y-74168000D01*
X64790000Y-74422000D01*
X64770000Y-74422000D01*
X64770000Y-75261750D01*
X64901750Y-75393500D01*
X65065327Y-75393500D01*
X65259022Y-75313269D01*
X65407269Y-75165021D01*
X65485671Y-74975743D01*
X65491403Y-75006208D01*
X65573970Y-75134520D01*
X65699953Y-75220601D01*
X65849500Y-75250885D01*
X66484500Y-75250885D01*
X66624208Y-75224597D01*
X66752520Y-75142030D01*
X66838601Y-75016047D01*
X66868885Y-74866500D01*
X66868885Y-74557051D01*
X67394898Y-74031038D01*
X67394883Y-74048073D01*
X67497733Y-74296989D01*
X67688010Y-74487598D01*
X67936746Y-74590882D01*
X68206073Y-74591117D01*
X68259543Y-74569024D01*
X68319285Y-74598895D01*
X68553628Y-74767828D01*
X74818832Y-81033031D01*
X74818834Y-81033034D01*
X74941092Y-81114724D01*
X74981695Y-81141854D01*
X75173802Y-81180067D01*
X75173807Y-81180066D01*
X83063892Y-81180066D01*
X83033000Y-81335370D01*
X83033000Y-81574630D01*
X83101661Y-81919810D01*
X83273510Y-82177000D01*
X75443712Y-82177000D01*
X75045939Y-81779227D01*
X74996267Y-81659011D01*
X74805990Y-81468402D01*
X74557254Y-81365118D01*
X74287927Y-81364883D01*
X74166635Y-81415000D01*
X67341747Y-81415000D01*
X60480497Y-74553750D01*
X63798500Y-74553750D01*
X63798500Y-74971327D01*
X63878731Y-75165021D01*
X64026978Y-75313269D01*
X64220673Y-75393500D01*
X64384250Y-75393500D01*
X64516000Y-75261750D01*
X64516000Y-74422000D01*
X63930250Y-74422000D01*
X63798500Y-74553750D01*
X60480497Y-74553750D01*
X59301000Y-73374253D01*
X59301000Y-73153375D01*
X59350882Y-73033246D01*
X59351117Y-72763919D01*
X59300473Y-72641352D01*
X59253272Y-72404057D01*
X59117356Y-72200644D01*
X58913943Y-72064728D01*
X58681140Y-72018420D01*
X58491630Y-71828910D01*
X58491630Y-68203750D01*
X61258500Y-68203750D01*
X61258500Y-68621327D01*
X61338731Y-68815021D01*
X61421209Y-68897500D01*
X61338731Y-68979979D01*
X61258500Y-69173673D01*
X61258500Y-69591250D01*
X61390250Y-69723000D01*
X61976000Y-69723000D01*
X61976000Y-68072000D01*
X61390250Y-68072000D01*
X61258500Y-68203750D01*
X58491630Y-68203750D01*
X58491630Y-67437000D01*
X60698905Y-67437000D01*
X60811580Y-67512287D01*
G36*
X113581230Y-75188750D02*
X113581230Y-75334547D01*
X113661461Y-75528242D01*
X113806827Y-75673607D01*
X113779454Y-75713669D01*
X113666122Y-75736212D01*
X113608803Y-75774512D01*
X113503262Y-75845032D01*
X113503260Y-75845035D01*
X113445522Y-75902772D01*
X113361750Y-75819000D01*
X112522000Y-75819000D01*
X112522000Y-76404750D01*
X112653750Y-76536500D01*
X112811795Y-76536500D01*
X109133307Y-80214987D01*
X105914949Y-80214987D01*
X110179185Y-75950750D01*
X111296500Y-75950750D01*
X111296500Y-76114327D01*
X111376731Y-76308022D01*
X111524979Y-76456269D01*
X111718673Y-76536500D01*
X112136250Y-76536500D01*
X112268000Y-76404750D01*
X112268000Y-75819000D01*
X111428250Y-75819000D01*
X111296500Y-75950750D01*
X110179185Y-75950750D01*
X110818935Y-75311000D01*
X111296500Y-75311000D01*
X111296500Y-75433250D01*
X111428250Y-75565000D01*
X112268000Y-75565000D01*
X112268000Y-75545000D01*
X112522000Y-75545000D01*
X112522000Y-75565000D01*
X113361750Y-75565000D01*
X113493500Y-75433250D01*
X113493500Y-75269673D01*
X113459651Y-75187955D01*
X113590604Y-75057002D01*
X113712978Y-75057002D01*
X113581230Y-75188750D01*
X113581230Y-75188750D01*
G37*
X113581230Y-75188750D02*
X113581230Y-75334547D01*
X113661461Y-75528242D01*
X113806827Y-75673607D01*
X113779454Y-75713669D01*
X113666122Y-75736212D01*
X113608803Y-75774512D01*
X113503262Y-75845032D01*
X113503260Y-75845035D01*
X113445522Y-75902772D01*
X113361750Y-75819000D01*
X112522000Y-75819000D01*
X112522000Y-76404750D01*
X112653750Y-76536500D01*
X112811795Y-76536500D01*
X109133307Y-80214987D01*
X105914949Y-80214987D01*
X110179185Y-75950750D01*
X111296500Y-75950750D01*
X111296500Y-76114327D01*
X111376731Y-76308022D01*
X111524979Y-76456269D01*
X111718673Y-76536500D01*
X112136250Y-76536500D01*
X112268000Y-76404750D01*
X112268000Y-75819000D01*
X111428250Y-75819000D01*
X111296500Y-75950750D01*
X110179185Y-75950750D01*
X110818935Y-75311000D01*
X111296500Y-75311000D01*
X111296500Y-75433250D01*
X111428250Y-75565000D01*
X112268000Y-75565000D01*
X112268000Y-75545000D01*
X112522000Y-75545000D01*
X112522000Y-75565000D01*
X113361750Y-75565000D01*
X113493500Y-75433250D01*
X113493500Y-75269673D01*
X113459651Y-75187955D01*
X113590604Y-75057002D01*
X113712978Y-75057002D01*
X113581230Y-75188750D01*
G36*
X101473000Y-65786000D02*
X101483006Y-65835410D01*
X101511447Y-65877035D01*
X101553841Y-65904315D01*
X101600000Y-65913000D01*
X101600000Y-66548000D01*
X101620000Y-66548000D01*
X101620000Y-66802000D01*
X101600000Y-66802000D01*
X101600000Y-67641750D01*
X101731750Y-67773500D01*
X101895327Y-67773500D01*
X101981000Y-67738013D01*
X101981000Y-68151987D01*
X101895327Y-68116500D01*
X101731750Y-68116500D01*
X101600000Y-68248250D01*
X101600000Y-69088000D01*
X101620000Y-69088000D01*
X101620000Y-69342000D01*
X101600000Y-69342000D01*
X101600000Y-70181750D01*
X101731750Y-70313500D01*
X101895327Y-70313500D01*
X101981000Y-70278013D01*
X101981000Y-70691987D01*
X101895327Y-70656500D01*
X101731750Y-70656500D01*
X101600000Y-70788250D01*
X101600000Y-71628000D01*
X101620000Y-71628000D01*
X101620000Y-71882000D01*
X101600000Y-71882000D01*
X101600000Y-72721750D01*
X101731750Y-72853500D01*
X101895327Y-72853500D01*
X101981000Y-72818013D01*
X101981000Y-73231987D01*
X101895327Y-73196500D01*
X101731750Y-73196500D01*
X101600000Y-73328250D01*
X101600000Y-74168000D01*
X101620000Y-74168000D01*
X101620000Y-74422000D01*
X101600000Y-74422000D01*
X101600000Y-75261750D01*
X101731750Y-75393500D01*
X101895327Y-75393500D01*
X101981000Y-75358013D01*
X101981000Y-75771987D01*
X101895327Y-75736500D01*
X101731750Y-75736500D01*
X101600000Y-75868250D01*
X101600000Y-76708000D01*
X101620000Y-76708000D01*
X101620000Y-76962000D01*
X101600000Y-76962000D01*
X101600000Y-76982000D01*
X101346000Y-76982000D01*
X101346000Y-76962000D01*
X100760250Y-76962000D01*
X100628500Y-77093750D01*
X100628500Y-77511327D01*
X100708731Y-77705021D01*
X100856978Y-77853269D01*
X100870814Y-77859000D01*
X98519186Y-77859000D01*
X98533022Y-77853269D01*
X98681269Y-77705021D01*
X98761500Y-77511327D01*
X98761500Y-77093750D01*
X98629750Y-76962000D01*
X98044000Y-76962000D01*
X98044000Y-76982000D01*
X97917000Y-76982000D01*
X97917000Y-76200000D01*
X97906994Y-76150590D01*
X97878553Y-76108965D01*
X97836159Y-76081685D01*
X97790000Y-76073000D01*
X97790000Y-75868250D01*
X98044000Y-75868250D01*
X98044000Y-76708000D01*
X98629750Y-76708000D01*
X98761500Y-76576250D01*
X98761500Y-76158673D01*
X100628500Y-76158673D01*
X100628500Y-76576250D01*
X100760250Y-76708000D01*
X101346000Y-76708000D01*
X101346000Y-75868250D01*
X101214250Y-75736500D01*
X101050673Y-75736500D01*
X100856978Y-75816731D01*
X100708731Y-75964979D01*
X100628500Y-76158673D01*
X98761500Y-76158673D01*
X98681269Y-75964979D01*
X98533022Y-75816731D01*
X98339327Y-75736500D01*
X98175750Y-75736500D01*
X98044000Y-75868250D01*
X97790000Y-75868250D01*
X97663000Y-75741250D01*
X97663000Y-75388750D01*
X97790000Y-75261750D01*
X97790000Y-74422000D01*
X98044000Y-74422000D01*
X98044000Y-75261750D01*
X98175750Y-75393500D01*
X98339327Y-75393500D01*
X98533022Y-75313269D01*
X98681269Y-75165021D01*
X98761500Y-74971327D01*
X98761500Y-74553750D01*
X100628500Y-74553750D01*
X100628500Y-74971327D01*
X100708731Y-75165021D01*
X100856978Y-75313269D01*
X101050673Y-75393500D01*
X101214250Y-75393500D01*
X101346000Y-75261750D01*
X101346000Y-74422000D01*
X100760250Y-74422000D01*
X100628500Y-74553750D01*
X98761500Y-74553750D01*
X98629750Y-74422000D01*
X98044000Y-74422000D01*
X97790000Y-74422000D01*
X97770000Y-74422000D01*
X97770000Y-74168000D01*
X97790000Y-74168000D01*
X97790000Y-73328250D01*
X98044000Y-73328250D01*
X98044000Y-74168000D01*
X98629750Y-74168000D01*
X98761500Y-74036250D01*
X98761500Y-73618673D01*
X100628500Y-73618673D01*
X100628500Y-74036250D01*
X100760250Y-74168000D01*
X101346000Y-74168000D01*
X101346000Y-73328250D01*
X101214250Y-73196500D01*
X101050673Y-73196500D01*
X100856978Y-73276731D01*
X100708731Y-73424979D01*
X100628500Y-73618673D01*
X98761500Y-73618673D01*
X98681269Y-73424979D01*
X98533022Y-73276731D01*
X98339327Y-73196500D01*
X98175750Y-73196500D01*
X98044000Y-73328250D01*
X97790000Y-73328250D01*
X97658250Y-73196500D01*
X97494673Y-73196500D01*
X97300978Y-73276731D01*
X97152731Y-73424979D01*
X97074329Y-73614257D01*
X97068597Y-73583792D01*
X96986030Y-73455480D01*
X96860047Y-73369399D01*
X96710500Y-73339115D01*
X96075500Y-73339115D01*
X95935792Y-73365403D01*
X95807480Y-73447970D01*
X95721399Y-73573953D01*
X95691115Y-73723500D01*
X95691115Y-74794949D01*
X95217093Y-75268971D01*
X95115927Y-75268883D01*
X94867011Y-75371733D01*
X94676402Y-75562010D01*
X94573118Y-75810746D01*
X94572883Y-76080073D01*
X94617327Y-76187635D01*
X94615000Y-76200000D01*
X94615000Y-76543182D01*
X94586990Y-76610638D01*
X94586755Y-76879965D01*
X94603618Y-76920776D01*
X94131902Y-77392492D01*
X94115628Y-77399216D01*
X93964877Y-77549704D01*
X93257999Y-76842825D01*
X93257999Y-76754004D01*
X93258000Y-76753999D01*
X93219787Y-76561892D01*
X93191527Y-76519598D01*
X93133019Y-76432034D01*
X93133117Y-76319927D01*
X93030267Y-76071011D01*
X92839990Y-75880402D01*
X92837000Y-75879160D01*
X92837000Y-75092588D01*
X92851291Y-75071200D01*
X92885154Y-75020521D01*
X92923366Y-74828413D01*
X92923366Y-71847366D01*
X92893057Y-71694993D01*
X93421946Y-71271882D01*
X94387030Y-72236965D01*
X94387032Y-72236968D01*
X94524117Y-72328565D01*
X94549893Y-72345788D01*
X94742000Y-72384001D01*
X94742005Y-72384000D01*
X96572537Y-72384000D01*
X96644010Y-72455598D01*
X96892746Y-72558882D01*
X97162073Y-72559117D01*
X97270455Y-72514334D01*
X97285509Y-72516952D01*
X97334623Y-72505584D01*
X97356698Y-72492709D01*
X97401302Y-72460269D01*
X97410989Y-72456267D01*
X97422216Y-72445060D01*
X98153183Y-71913447D01*
X98154255Y-71913892D01*
X98423582Y-71914127D01*
X98672498Y-71811277D01*
X98863107Y-71621000D01*
X98966391Y-71372264D01*
X98966435Y-71321991D01*
X99703000Y-70786308D01*
X99703000Y-71118617D01*
X99653118Y-71238746D01*
X99652883Y-71508073D01*
X99755733Y-71756989D01*
X99946010Y-71947598D01*
X100194746Y-72050882D01*
X100464073Y-72051117D01*
X100680600Y-71961650D01*
X100628500Y-72013750D01*
X100628500Y-72431327D01*
X100708731Y-72625021D01*
X100856978Y-72773269D01*
X101050673Y-72853500D01*
X101214250Y-72853500D01*
X101346000Y-72721750D01*
X101346000Y-71882000D01*
X101326000Y-71882000D01*
X101326000Y-71628000D01*
X101346000Y-71628000D01*
X101346000Y-70788250D01*
X101214250Y-70656500D01*
X101050673Y-70656500D01*
X100957000Y-70695301D01*
X100957000Y-70274699D01*
X101050673Y-70313500D01*
X101214250Y-70313500D01*
X101346000Y-70181750D01*
X101346000Y-69342000D01*
X100760250Y-69342000D01*
X100734481Y-69367769D01*
X99905385Y-68538673D01*
X100628500Y-68538673D01*
X100628500Y-68956250D01*
X100760250Y-69088000D01*
X101346000Y-69088000D01*
X101346000Y-68248250D01*
X101214250Y-68116500D01*
X101050673Y-68116500D01*
X100856978Y-68196731D01*
X100708731Y-68344979D01*
X100628500Y-68538673D01*
X99905385Y-68538673D01*
X99503356Y-68136644D01*
X99473208Y-68116500D01*
X99299943Y-68000728D01*
X99060000Y-67953000D01*
X98298000Y-67953000D01*
X98058057Y-68000728D01*
X97951391Y-68072000D01*
X97409000Y-68072000D01*
X97409000Y-68092000D01*
X97155000Y-68092000D01*
X97155000Y-68072000D01*
X97135000Y-68072000D01*
X97135000Y-67818000D01*
X97155000Y-67818000D01*
X97155000Y-66167000D01*
X97409000Y-66167000D01*
X97409000Y-67818000D01*
X97994750Y-67818000D01*
X98126500Y-67686250D01*
X98126500Y-67268673D01*
X98046269Y-67074979D01*
X97963791Y-66992500D01*
X98022540Y-66933750D01*
X100628500Y-66933750D01*
X100628500Y-67351327D01*
X100708731Y-67545021D01*
X100856978Y-67693269D01*
X101050673Y-67773500D01*
X101214250Y-67773500D01*
X101346000Y-67641750D01*
X101346000Y-66802000D01*
X100760250Y-66802000D01*
X100628500Y-66933750D01*
X98022540Y-66933750D01*
X98046269Y-66910021D01*
X98126500Y-66716327D01*
X98126500Y-66298750D01*
X97994750Y-66167000D01*
X97409000Y-66167000D01*
X97155000Y-66167000D01*
X97135000Y-66167000D01*
X97135000Y-65998673D01*
X100628500Y-65998673D01*
X100628500Y-66416250D01*
X100760250Y-66548000D01*
X101346000Y-66548000D01*
X101346000Y-65708250D01*
X101214250Y-65576500D01*
X101050673Y-65576500D01*
X100856978Y-65656731D01*
X100708731Y-65804979D01*
X100628500Y-65998673D01*
X97135000Y-65998673D01*
X97135000Y-65913000D01*
X97155000Y-65913000D01*
X97155000Y-65893000D01*
X97409000Y-65893000D01*
X97409000Y-65913000D01*
X97994750Y-65913000D01*
X98126500Y-65781250D01*
X98126500Y-65526000D01*
X101473000Y-65526000D01*
X101473000Y-65786000D01*
X101473000Y-65786000D01*
G37*
X101473000Y-65786000D02*
X101483006Y-65835410D01*
X101511447Y-65877035D01*
X101553841Y-65904315D01*
X101600000Y-65913000D01*
X101600000Y-66548000D01*
X101620000Y-66548000D01*
X101620000Y-66802000D01*
X101600000Y-66802000D01*
X101600000Y-67641750D01*
X101731750Y-67773500D01*
X101895327Y-67773500D01*
X101981000Y-67738013D01*
X101981000Y-68151987D01*
X101895327Y-68116500D01*
X101731750Y-68116500D01*
X101600000Y-68248250D01*
X101600000Y-69088000D01*
X101620000Y-69088000D01*
X101620000Y-69342000D01*
X101600000Y-69342000D01*
X101600000Y-70181750D01*
X101731750Y-70313500D01*
X101895327Y-70313500D01*
X101981000Y-70278013D01*
X101981000Y-70691987D01*
X101895327Y-70656500D01*
X101731750Y-70656500D01*
X101600000Y-70788250D01*
X101600000Y-71628000D01*
X101620000Y-71628000D01*
X101620000Y-71882000D01*
X101600000Y-71882000D01*
X101600000Y-72721750D01*
X101731750Y-72853500D01*
X101895327Y-72853500D01*
X101981000Y-72818013D01*
X101981000Y-73231987D01*
X101895327Y-73196500D01*
X101731750Y-73196500D01*
X101600000Y-73328250D01*
X101600000Y-74168000D01*
X101620000Y-74168000D01*
X101620000Y-74422000D01*
X101600000Y-74422000D01*
X101600000Y-75261750D01*
X101731750Y-75393500D01*
X101895327Y-75393500D01*
X101981000Y-75358013D01*
X101981000Y-75771987D01*
X101895327Y-75736500D01*
X101731750Y-75736500D01*
X101600000Y-75868250D01*
X101600000Y-76708000D01*
X101620000Y-76708000D01*
X101620000Y-76962000D01*
X101600000Y-76962000D01*
X101600000Y-76982000D01*
X101346000Y-76982000D01*
X101346000Y-76962000D01*
X100760250Y-76962000D01*
X100628500Y-77093750D01*
X100628500Y-77511327D01*
X100708731Y-77705021D01*
X100856978Y-77853269D01*
X100870814Y-77859000D01*
X98519186Y-77859000D01*
X98533022Y-77853269D01*
X98681269Y-77705021D01*
X98761500Y-77511327D01*
X98761500Y-77093750D01*
X98629750Y-76962000D01*
X98044000Y-76962000D01*
X98044000Y-76982000D01*
X97917000Y-76982000D01*
X97917000Y-76200000D01*
X97906994Y-76150590D01*
X97878553Y-76108965D01*
X97836159Y-76081685D01*
X97790000Y-76073000D01*
X97790000Y-75868250D01*
X98044000Y-75868250D01*
X98044000Y-76708000D01*
X98629750Y-76708000D01*
X98761500Y-76576250D01*
X98761500Y-76158673D01*
X100628500Y-76158673D01*
X100628500Y-76576250D01*
X100760250Y-76708000D01*
X101346000Y-76708000D01*
X101346000Y-75868250D01*
X101214250Y-75736500D01*
X101050673Y-75736500D01*
X100856978Y-75816731D01*
X100708731Y-75964979D01*
X100628500Y-76158673D01*
X98761500Y-76158673D01*
X98681269Y-75964979D01*
X98533022Y-75816731D01*
X98339327Y-75736500D01*
X98175750Y-75736500D01*
X98044000Y-75868250D01*
X97790000Y-75868250D01*
X97663000Y-75741250D01*
X97663000Y-75388750D01*
X97790000Y-75261750D01*
X97790000Y-74422000D01*
X98044000Y-74422000D01*
X98044000Y-75261750D01*
X98175750Y-75393500D01*
X98339327Y-75393500D01*
X98533022Y-75313269D01*
X98681269Y-75165021D01*
X98761500Y-74971327D01*
X98761500Y-74553750D01*
X100628500Y-74553750D01*
X100628500Y-74971327D01*
X100708731Y-75165021D01*
X100856978Y-75313269D01*
X101050673Y-75393500D01*
X101214250Y-75393500D01*
X101346000Y-75261750D01*
X101346000Y-74422000D01*
X100760250Y-74422000D01*
X100628500Y-74553750D01*
X98761500Y-74553750D01*
X98629750Y-74422000D01*
X98044000Y-74422000D01*
X97790000Y-74422000D01*
X97770000Y-74422000D01*
X97770000Y-74168000D01*
X97790000Y-74168000D01*
X97790000Y-73328250D01*
X98044000Y-73328250D01*
X98044000Y-74168000D01*
X98629750Y-74168000D01*
X98761500Y-74036250D01*
X98761500Y-73618673D01*
X100628500Y-73618673D01*
X100628500Y-74036250D01*
X100760250Y-74168000D01*
X101346000Y-74168000D01*
X101346000Y-73328250D01*
X101214250Y-73196500D01*
X101050673Y-73196500D01*
X100856978Y-73276731D01*
X100708731Y-73424979D01*
X100628500Y-73618673D01*
X98761500Y-73618673D01*
X98681269Y-73424979D01*
X98533022Y-73276731D01*
X98339327Y-73196500D01*
X98175750Y-73196500D01*
X98044000Y-73328250D01*
X97790000Y-73328250D01*
X97658250Y-73196500D01*
X97494673Y-73196500D01*
X97300978Y-73276731D01*
X97152731Y-73424979D01*
X97074329Y-73614257D01*
X97068597Y-73583792D01*
X96986030Y-73455480D01*
X96860047Y-73369399D01*
X96710500Y-73339115D01*
X96075500Y-73339115D01*
X95935792Y-73365403D01*
X95807480Y-73447970D01*
X95721399Y-73573953D01*
X95691115Y-73723500D01*
X95691115Y-74794949D01*
X95217093Y-75268971D01*
X95115927Y-75268883D01*
X94867011Y-75371733D01*
X94676402Y-75562010D01*
X94573118Y-75810746D01*
X94572883Y-76080073D01*
X94617327Y-76187635D01*
X94615000Y-76200000D01*
X94615000Y-76543182D01*
X94586990Y-76610638D01*
X94586755Y-76879965D01*
X94603618Y-76920776D01*
X94131902Y-77392492D01*
X94115628Y-77399216D01*
X93964877Y-77549704D01*
X93257999Y-76842825D01*
X93257999Y-76754004D01*
X93258000Y-76753999D01*
X93219787Y-76561892D01*
X93191527Y-76519598D01*
X93133019Y-76432034D01*
X93133117Y-76319927D01*
X93030267Y-76071011D01*
X92839990Y-75880402D01*
X92837000Y-75879160D01*
X92837000Y-75092588D01*
X92851291Y-75071200D01*
X92885154Y-75020521D01*
X92923366Y-74828413D01*
X92923366Y-71847366D01*
X92893057Y-71694993D01*
X93421946Y-71271882D01*
X94387030Y-72236965D01*
X94387032Y-72236968D01*
X94524117Y-72328565D01*
X94549893Y-72345788D01*
X94742000Y-72384001D01*
X94742005Y-72384000D01*
X96572537Y-72384000D01*
X96644010Y-72455598D01*
X96892746Y-72558882D01*
X97162073Y-72559117D01*
X97270455Y-72514334D01*
X97285509Y-72516952D01*
X97334623Y-72505584D01*
X97356698Y-72492709D01*
X97401302Y-72460269D01*
X97410989Y-72456267D01*
X97422216Y-72445060D01*
X98153183Y-71913447D01*
X98154255Y-71913892D01*
X98423582Y-71914127D01*
X98672498Y-71811277D01*
X98863107Y-71621000D01*
X98966391Y-71372264D01*
X98966435Y-71321991D01*
X99703000Y-70786308D01*
X99703000Y-71118617D01*
X99653118Y-71238746D01*
X99652883Y-71508073D01*
X99755733Y-71756989D01*
X99946010Y-71947598D01*
X100194746Y-72050882D01*
X100464073Y-72051117D01*
X100680600Y-71961650D01*
X100628500Y-72013750D01*
X100628500Y-72431327D01*
X100708731Y-72625021D01*
X100856978Y-72773269D01*
X101050673Y-72853500D01*
X101214250Y-72853500D01*
X101346000Y-72721750D01*
X101346000Y-71882000D01*
X101326000Y-71882000D01*
X101326000Y-71628000D01*
X101346000Y-71628000D01*
X101346000Y-70788250D01*
X101214250Y-70656500D01*
X101050673Y-70656500D01*
X100957000Y-70695301D01*
X100957000Y-70274699D01*
X101050673Y-70313500D01*
X101214250Y-70313500D01*
X101346000Y-70181750D01*
X101346000Y-69342000D01*
X100760250Y-69342000D01*
X100734481Y-69367769D01*
X99905385Y-68538673D01*
X100628500Y-68538673D01*
X100628500Y-68956250D01*
X100760250Y-69088000D01*
X101346000Y-69088000D01*
X101346000Y-68248250D01*
X101214250Y-68116500D01*
X101050673Y-68116500D01*
X100856978Y-68196731D01*
X100708731Y-68344979D01*
X100628500Y-68538673D01*
X99905385Y-68538673D01*
X99503356Y-68136644D01*
X99473208Y-68116500D01*
X99299943Y-68000728D01*
X99060000Y-67953000D01*
X98298000Y-67953000D01*
X98058057Y-68000728D01*
X97951391Y-68072000D01*
X97409000Y-68072000D01*
X97409000Y-68092000D01*
X97155000Y-68092000D01*
X97155000Y-68072000D01*
X97135000Y-68072000D01*
X97135000Y-67818000D01*
X97155000Y-67818000D01*
X97155000Y-66167000D01*
X97409000Y-66167000D01*
X97409000Y-67818000D01*
X97994750Y-67818000D01*
X98126500Y-67686250D01*
X98126500Y-67268673D01*
X98046269Y-67074979D01*
X97963791Y-66992500D01*
X98022540Y-66933750D01*
X100628500Y-66933750D01*
X100628500Y-67351327D01*
X100708731Y-67545021D01*
X100856978Y-67693269D01*
X101050673Y-67773500D01*
X101214250Y-67773500D01*
X101346000Y-67641750D01*
X101346000Y-66802000D01*
X100760250Y-66802000D01*
X100628500Y-66933750D01*
X98022540Y-66933750D01*
X98046269Y-66910021D01*
X98126500Y-66716327D01*
X98126500Y-66298750D01*
X97994750Y-66167000D01*
X97409000Y-66167000D01*
X97155000Y-66167000D01*
X97135000Y-66167000D01*
X97135000Y-65998673D01*
X100628500Y-65998673D01*
X100628500Y-66416250D01*
X100760250Y-66548000D01*
X101346000Y-66548000D01*
X101346000Y-65708250D01*
X101214250Y-65576500D01*
X101050673Y-65576500D01*
X100856978Y-65656731D01*
X100708731Y-65804979D01*
X100628500Y-65998673D01*
X97135000Y-65998673D01*
X97135000Y-65913000D01*
X97155000Y-65913000D01*
X97155000Y-65893000D01*
X97409000Y-65893000D01*
X97409000Y-65913000D01*
X97994750Y-65913000D01*
X98126500Y-65781250D01*
X98126500Y-65526000D01*
X101473000Y-65526000D01*
X101473000Y-65786000D01*
G36*
X84709000Y-74803000D02*
X84729000Y-74803000D01*
X84729000Y-75057000D01*
X84709000Y-75057000D01*
X84709000Y-75077000D01*
X84455000Y-75077000D01*
X84455000Y-75057000D01*
X84435000Y-75057000D01*
X84435000Y-74803000D01*
X84455000Y-74803000D01*
X84455000Y-74783000D01*
X84709000Y-74783000D01*
X84709000Y-74803000D01*
X84709000Y-74803000D01*
G37*
X84709000Y-74803000D02*
X84729000Y-74803000D01*
X84729000Y-75057000D01*
X84709000Y-75057000D01*
X84709000Y-75077000D01*
X84455000Y-75077000D01*
X84455000Y-75057000D01*
X84435000Y-75057000D01*
X84435000Y-74803000D01*
X84455000Y-74803000D01*
X84455000Y-74783000D01*
X84709000Y-74783000D01*
X84709000Y-74803000D01*
G36*
X82160746Y-62868869D02*
X82430073Y-62869104D01*
X82440005Y-62865000D01*
X89087160Y-62865000D01*
X88985118Y-63110746D01*
X88984883Y-63380073D01*
X89087733Y-63628989D01*
X89278010Y-63819598D01*
X89526746Y-63922882D01*
X89796073Y-63923117D01*
X89857712Y-63897648D01*
X90577032Y-64616968D01*
X90739893Y-64725788D01*
X90932000Y-64764001D01*
X90932005Y-64764000D01*
X96284254Y-64764000D01*
X96603982Y-65083727D01*
X96517731Y-65169979D01*
X96439329Y-65359257D01*
X96433597Y-65328792D01*
X96351030Y-65200480D01*
X96225047Y-65114399D01*
X96075500Y-65084115D01*
X95440500Y-65084115D01*
X95300792Y-65110403D01*
X95172480Y-65192970D01*
X95086399Y-65318953D01*
X95077465Y-65363071D01*
X94861927Y-65362883D01*
X94613011Y-65465733D01*
X94422402Y-65656010D01*
X94319118Y-65904746D01*
X94318883Y-66174073D01*
X94421733Y-66422989D01*
X94612010Y-66613598D01*
X94759939Y-66675023D01*
X94613011Y-66735733D01*
X94422402Y-66926010D01*
X94319118Y-67174746D01*
X94318931Y-67389529D01*
X94240801Y-67373988D01*
X94240796Y-67373989D01*
X91598601Y-67373989D01*
X91598596Y-67373988D01*
X91406488Y-67412201D01*
X91243628Y-67521021D01*
X86760000Y-72004649D01*
X86760000Y-71269173D01*
X86679769Y-71075479D01*
X86531522Y-70927231D01*
X86337827Y-70847000D01*
X85729750Y-70847000D01*
X85598000Y-70978750D01*
X85598000Y-72263000D01*
X85618000Y-72263000D01*
X85618000Y-72517000D01*
X85598000Y-72517000D01*
X85598000Y-73801250D01*
X85729750Y-73933000D01*
X86088923Y-73933000D01*
X86088923Y-74187144D01*
X85426500Y-74849566D01*
X85426500Y-74802998D01*
X85294752Y-74802998D01*
X85426500Y-74671250D01*
X85426500Y-74253673D01*
X85346269Y-74059979D01*
X85215770Y-73929480D01*
X85344000Y-73801250D01*
X85344000Y-72517000D01*
X84313750Y-72517000D01*
X84182000Y-72648750D01*
X84182000Y-73510827D01*
X84262231Y-73704521D01*
X84410478Y-73852769D01*
X84454998Y-73871210D01*
X84454998Y-73963248D01*
X84323250Y-73831500D01*
X84159673Y-73831500D01*
X83965978Y-73911731D01*
X83817731Y-74059979D01*
X83739329Y-74249257D01*
X83733597Y-74218792D01*
X83685000Y-74143271D01*
X83685000Y-73984394D01*
X83694989Y-73980267D01*
X83885598Y-73789990D01*
X83988882Y-73541254D01*
X83989117Y-73271927D01*
X83886267Y-73023011D01*
X83695990Y-72832402D01*
X83447254Y-72729118D01*
X83394784Y-72729072D01*
X83315385Y-72649673D01*
X83315385Y-71374000D01*
X83295661Y-71269173D01*
X84182000Y-71269173D01*
X84182000Y-72131250D01*
X84313750Y-72263000D01*
X85344000Y-72263000D01*
X85344000Y-70978750D01*
X85212250Y-70847000D01*
X84604173Y-70847000D01*
X84410478Y-70927231D01*
X84262231Y-71075479D01*
X84182000Y-71269173D01*
X83295661Y-71269173D01*
X83289097Y-71234292D01*
X83206530Y-71105980D01*
X83080547Y-71019899D01*
X83046000Y-71012903D01*
X83046000Y-68234560D01*
X83026713Y-68137598D01*
X82979242Y-67898946D01*
X82903095Y-67784984D01*
X82789133Y-67614427D01*
X82789130Y-67614425D01*
X82743455Y-67568750D01*
X84944000Y-67568750D01*
X84944000Y-70164377D01*
X85024231Y-70358071D01*
X85172478Y-70506319D01*
X85366173Y-70586550D01*
X86136810Y-70586550D01*
X86268560Y-70454800D01*
X86268560Y-67437000D01*
X86522560Y-67437000D01*
X86522560Y-70454800D01*
X86654310Y-70586550D01*
X87424947Y-70586550D01*
X87618642Y-70506319D01*
X87766889Y-70358071D01*
X87847120Y-70164377D01*
X87847120Y-67568750D01*
X87715370Y-67437000D01*
X86522560Y-67437000D01*
X86268560Y-67437000D01*
X85075750Y-67437000D01*
X84944000Y-67568750D01*
X82743455Y-67568750D01*
X82553385Y-67378680D01*
X82553385Y-64560450D01*
X82533661Y-64455623D01*
X84944000Y-64455623D01*
X84944000Y-67051250D01*
X85075750Y-67183000D01*
X86268560Y-67183000D01*
X86268560Y-64165200D01*
X86522560Y-64165200D01*
X86522560Y-67183000D01*
X87715370Y-67183000D01*
X87847120Y-67051250D01*
X87847120Y-64455623D01*
X87766889Y-64261929D01*
X87618642Y-64113681D01*
X87424947Y-64033450D01*
X86654310Y-64033450D01*
X86522560Y-64165200D01*
X86268560Y-64165200D01*
X86136810Y-64033450D01*
X85366173Y-64033450D01*
X85172478Y-64113681D01*
X85024231Y-64261929D01*
X84944000Y-64455623D01*
X82533661Y-64455623D01*
X82527097Y-64420742D01*
X82444530Y-64292430D01*
X82318547Y-64206349D01*
X82169000Y-64176065D01*
X80319880Y-64176065D01*
X80180172Y-64202353D01*
X80051860Y-64284920D01*
X79965779Y-64410903D01*
X79935495Y-64560450D01*
X79935495Y-65163000D01*
X77727385Y-65163000D01*
X77727385Y-65024000D01*
X77701097Y-64884292D01*
X77618530Y-64755980D01*
X77492547Y-64669899D01*
X77343000Y-64639615D01*
X75819000Y-64639615D01*
X75679292Y-64665903D01*
X75550980Y-64748470D01*
X75464899Y-64874453D01*
X75434615Y-65024000D01*
X75434615Y-67056000D01*
X75460903Y-67195708D01*
X75543470Y-67324020D01*
X75669453Y-67410101D01*
X75819000Y-67440385D01*
X77343000Y-67440385D01*
X77482708Y-67414097D01*
X77611020Y-67331530D01*
X77697101Y-67205547D01*
X77727385Y-67056000D01*
X77727385Y-66917000D01*
X79611174Y-66917000D01*
X79935495Y-67241321D01*
X79935495Y-67922239D01*
X79519734Y-68338000D01*
X77727385Y-68338000D01*
X77727385Y-68199000D01*
X77701097Y-68059292D01*
X77618530Y-67930980D01*
X77492547Y-67844899D01*
X77343000Y-67814615D01*
X75819000Y-67814615D01*
X75679292Y-67840903D01*
X75550980Y-67923470D01*
X75464899Y-68049453D01*
X75434615Y-68199000D01*
X75434615Y-69375120D01*
X75340735Y-69469000D01*
X74563250Y-69469000D01*
X74436250Y-69342000D01*
X73406000Y-69342000D01*
X73406000Y-69362000D01*
X73152000Y-69362000D01*
X73152000Y-69342000D01*
X72121750Y-69342000D01*
X71990000Y-69473750D01*
X71990000Y-70335827D01*
X72070231Y-70529521D01*
X72107699Y-70566989D01*
X71402301Y-70566989D01*
X71439769Y-70529521D01*
X71520000Y-70335827D01*
X71520000Y-69473750D01*
X71388250Y-69342000D01*
X70358000Y-69342000D01*
X70358000Y-69362000D01*
X70104000Y-69362000D01*
X70104000Y-69342000D01*
X69073750Y-69342000D01*
X68946750Y-69469000D01*
X68169266Y-69469000D01*
X68075385Y-69375119D01*
X68075385Y-68199000D01*
X68049097Y-68059292D01*
X67966530Y-67930980D01*
X67840547Y-67844899D01*
X67691000Y-67814615D01*
X67022880Y-67814615D01*
X66749936Y-67541670D01*
X67298835Y-66992771D01*
X67336032Y-67029968D01*
X67498893Y-67138788D01*
X67691000Y-67177001D01*
X67691005Y-67177000D01*
X67751115Y-67177000D01*
X67751115Y-67246500D01*
X67777403Y-67386208D01*
X67859970Y-67514520D01*
X67985953Y-67600601D01*
X68135500Y-67630885D01*
X68721279Y-67630885D01*
X69013046Y-67922652D01*
X68942000Y-68094173D01*
X68942000Y-68956250D01*
X69073750Y-69088000D01*
X70104000Y-69088000D01*
X70104000Y-69068000D01*
X70358000Y-69068000D01*
X70358000Y-69088000D01*
X71388250Y-69088000D01*
X71520000Y-68956250D01*
X71520000Y-68094173D01*
X71990000Y-68094173D01*
X71990000Y-68956250D01*
X72121750Y-69088000D01*
X73152000Y-69088000D01*
X73152000Y-67803750D01*
X73406000Y-67803750D01*
X73406000Y-69088000D01*
X74436250Y-69088000D01*
X74568000Y-68956250D01*
X74568000Y-68094173D01*
X74487769Y-67900479D01*
X74339522Y-67752231D01*
X74145827Y-67672000D01*
X73537750Y-67672000D01*
X73406000Y-67803750D01*
X73152000Y-67803750D01*
X73020250Y-67672000D01*
X72412173Y-67672000D01*
X72218478Y-67752231D01*
X72070231Y-67900479D01*
X71990000Y-68094173D01*
X71520000Y-68094173D01*
X71439769Y-67900479D01*
X71291522Y-67752231D01*
X71097827Y-67672000D01*
X70614291Y-67672000D01*
X70741269Y-67545021D01*
X70821500Y-67351327D01*
X70821500Y-66933750D01*
X70689750Y-66802000D01*
X70104000Y-66802000D01*
X70104000Y-66822000D01*
X69850000Y-66822000D01*
X69850000Y-66802000D01*
X69830000Y-66802000D01*
X69830000Y-66548000D01*
X69850000Y-66548000D01*
X69850000Y-66528000D01*
X70104000Y-66528000D01*
X70104000Y-66548000D01*
X70689750Y-66548000D01*
X70821500Y-66416250D01*
X70821500Y-66176210D01*
X70920392Y-66242287D01*
X71112499Y-66280499D01*
X71874494Y-66280499D01*
X71874499Y-66280500D01*
X72041461Y-66247289D01*
X71990000Y-66298750D01*
X71990000Y-67160827D01*
X72070231Y-67354521D01*
X72218478Y-67502769D01*
X72412173Y-67583000D01*
X73020250Y-67583000D01*
X73152000Y-67451250D01*
X73152000Y-66167000D01*
X73406000Y-66167000D01*
X73406000Y-67451250D01*
X73537750Y-67583000D01*
X74145827Y-67583000D01*
X74339522Y-67502769D01*
X74487769Y-67354521D01*
X74568000Y-67160827D01*
X74568000Y-66298750D01*
X74436250Y-66167000D01*
X73406000Y-66167000D01*
X73152000Y-66167000D01*
X73132000Y-66167000D01*
X73132000Y-65913000D01*
X73152000Y-65913000D01*
X73152000Y-64628750D01*
X73406000Y-64628750D01*
X73406000Y-65913000D01*
X74436250Y-65913000D01*
X74568000Y-65781250D01*
X74568000Y-64919173D01*
X74487769Y-64725479D01*
X74339522Y-64577231D01*
X74145827Y-64497000D01*
X73537750Y-64497000D01*
X73406000Y-64628750D01*
X73152000Y-64628750D01*
X73069593Y-64546343D01*
X74121935Y-63494000D01*
X80824545Y-63494000D01*
X80896018Y-63565598D01*
X81144754Y-63668882D01*
X81414081Y-63669117D01*
X81662997Y-63566267D01*
X81853606Y-63375990D01*
X81956890Y-63127254D01*
X81957119Y-62865000D01*
X82151428Y-62865000D01*
X82160746Y-62868869D01*
X82160746Y-62868869D01*
G37*
X82160746Y-62868869D02*
X82430073Y-62869104D01*
X82440005Y-62865000D01*
X89087160Y-62865000D01*
X88985118Y-63110746D01*
X88984883Y-63380073D01*
X89087733Y-63628989D01*
X89278010Y-63819598D01*
X89526746Y-63922882D01*
X89796073Y-63923117D01*
X89857712Y-63897648D01*
X90577032Y-64616968D01*
X90739893Y-64725788D01*
X90932000Y-64764001D01*
X90932005Y-64764000D01*
X96284254Y-64764000D01*
X96603982Y-65083727D01*
X96517731Y-65169979D01*
X96439329Y-65359257D01*
X96433597Y-65328792D01*
X96351030Y-65200480D01*
X96225047Y-65114399D01*
X96075500Y-65084115D01*
X95440500Y-65084115D01*
X95300792Y-65110403D01*
X95172480Y-65192970D01*
X95086399Y-65318953D01*
X95077465Y-65363071D01*
X94861927Y-65362883D01*
X94613011Y-65465733D01*
X94422402Y-65656010D01*
X94319118Y-65904746D01*
X94318883Y-66174073D01*
X94421733Y-66422989D01*
X94612010Y-66613598D01*
X94759939Y-66675023D01*
X94613011Y-66735733D01*
X94422402Y-66926010D01*
X94319118Y-67174746D01*
X94318931Y-67389529D01*
X94240801Y-67373988D01*
X94240796Y-67373989D01*
X91598601Y-67373989D01*
X91598596Y-67373988D01*
X91406488Y-67412201D01*
X91243628Y-67521021D01*
X86760000Y-72004649D01*
X86760000Y-71269173D01*
X86679769Y-71075479D01*
X86531522Y-70927231D01*
X86337827Y-70847000D01*
X85729750Y-70847000D01*
X85598000Y-70978750D01*
X85598000Y-72263000D01*
X85618000Y-72263000D01*
X85618000Y-72517000D01*
X85598000Y-72517000D01*
X85598000Y-73801250D01*
X85729750Y-73933000D01*
X86088923Y-73933000D01*
X86088923Y-74187144D01*
X85426500Y-74849566D01*
X85426500Y-74802998D01*
X85294752Y-74802998D01*
X85426500Y-74671250D01*
X85426500Y-74253673D01*
X85346269Y-74059979D01*
X85215770Y-73929480D01*
X85344000Y-73801250D01*
X85344000Y-72517000D01*
X84313750Y-72517000D01*
X84182000Y-72648750D01*
X84182000Y-73510827D01*
X84262231Y-73704521D01*
X84410478Y-73852769D01*
X84454998Y-73871210D01*
X84454998Y-73963248D01*
X84323250Y-73831500D01*
X84159673Y-73831500D01*
X83965978Y-73911731D01*
X83817731Y-74059979D01*
X83739329Y-74249257D01*
X83733597Y-74218792D01*
X83685000Y-74143271D01*
X83685000Y-73984394D01*
X83694989Y-73980267D01*
X83885598Y-73789990D01*
X83988882Y-73541254D01*
X83989117Y-73271927D01*
X83886267Y-73023011D01*
X83695990Y-72832402D01*
X83447254Y-72729118D01*
X83394784Y-72729072D01*
X83315385Y-72649673D01*
X83315385Y-71374000D01*
X83295661Y-71269173D01*
X84182000Y-71269173D01*
X84182000Y-72131250D01*
X84313750Y-72263000D01*
X85344000Y-72263000D01*
X85344000Y-70978750D01*
X85212250Y-70847000D01*
X84604173Y-70847000D01*
X84410478Y-70927231D01*
X84262231Y-71075479D01*
X84182000Y-71269173D01*
X83295661Y-71269173D01*
X83289097Y-71234292D01*
X83206530Y-71105980D01*
X83080547Y-71019899D01*
X83046000Y-71012903D01*
X83046000Y-68234560D01*
X83026713Y-68137598D01*
X82979242Y-67898946D01*
X82903095Y-67784984D01*
X82789133Y-67614427D01*
X82789130Y-67614425D01*
X82743455Y-67568750D01*
X84944000Y-67568750D01*
X84944000Y-70164377D01*
X85024231Y-70358071D01*
X85172478Y-70506319D01*
X85366173Y-70586550D01*
X86136810Y-70586550D01*
X86268560Y-70454800D01*
X86268560Y-67437000D01*
X86522560Y-67437000D01*
X86522560Y-70454800D01*
X86654310Y-70586550D01*
X87424947Y-70586550D01*
X87618642Y-70506319D01*
X87766889Y-70358071D01*
X87847120Y-70164377D01*
X87847120Y-67568750D01*
X87715370Y-67437000D01*
X86522560Y-67437000D01*
X86268560Y-67437000D01*
X85075750Y-67437000D01*
X84944000Y-67568750D01*
X82743455Y-67568750D01*
X82553385Y-67378680D01*
X82553385Y-64560450D01*
X82533661Y-64455623D01*
X84944000Y-64455623D01*
X84944000Y-67051250D01*
X85075750Y-67183000D01*
X86268560Y-67183000D01*
X86268560Y-64165200D01*
X86522560Y-64165200D01*
X86522560Y-67183000D01*
X87715370Y-67183000D01*
X87847120Y-67051250D01*
X87847120Y-64455623D01*
X87766889Y-64261929D01*
X87618642Y-64113681D01*
X87424947Y-64033450D01*
X86654310Y-64033450D01*
X86522560Y-64165200D01*
X86268560Y-64165200D01*
X86136810Y-64033450D01*
X85366173Y-64033450D01*
X85172478Y-64113681D01*
X85024231Y-64261929D01*
X84944000Y-64455623D01*
X82533661Y-64455623D01*
X82527097Y-64420742D01*
X82444530Y-64292430D01*
X82318547Y-64206349D01*
X82169000Y-64176065D01*
X80319880Y-64176065D01*
X80180172Y-64202353D01*
X80051860Y-64284920D01*
X79965779Y-64410903D01*
X79935495Y-64560450D01*
X79935495Y-65163000D01*
X77727385Y-65163000D01*
X77727385Y-65024000D01*
X77701097Y-64884292D01*
X77618530Y-64755980D01*
X77492547Y-64669899D01*
X77343000Y-64639615D01*
X75819000Y-64639615D01*
X75679292Y-64665903D01*
X75550980Y-64748470D01*
X75464899Y-64874453D01*
X75434615Y-65024000D01*
X75434615Y-67056000D01*
X75460903Y-67195708D01*
X75543470Y-67324020D01*
X75669453Y-67410101D01*
X75819000Y-67440385D01*
X77343000Y-67440385D01*
X77482708Y-67414097D01*
X77611020Y-67331530D01*
X77697101Y-67205547D01*
X77727385Y-67056000D01*
X77727385Y-66917000D01*
X79611174Y-66917000D01*
X79935495Y-67241321D01*
X79935495Y-67922239D01*
X79519734Y-68338000D01*
X77727385Y-68338000D01*
X77727385Y-68199000D01*
X77701097Y-68059292D01*
X77618530Y-67930980D01*
X77492547Y-67844899D01*
X77343000Y-67814615D01*
X75819000Y-67814615D01*
X75679292Y-67840903D01*
X75550980Y-67923470D01*
X75464899Y-68049453D01*
X75434615Y-68199000D01*
X75434615Y-69375120D01*
X75340735Y-69469000D01*
X74563250Y-69469000D01*
X74436250Y-69342000D01*
X73406000Y-69342000D01*
X73406000Y-69362000D01*
X73152000Y-69362000D01*
X73152000Y-69342000D01*
X72121750Y-69342000D01*
X71990000Y-69473750D01*
X71990000Y-70335827D01*
X72070231Y-70529521D01*
X72107699Y-70566989D01*
X71402301Y-70566989D01*
X71439769Y-70529521D01*
X71520000Y-70335827D01*
X71520000Y-69473750D01*
X71388250Y-69342000D01*
X70358000Y-69342000D01*
X70358000Y-69362000D01*
X70104000Y-69362000D01*
X70104000Y-69342000D01*
X69073750Y-69342000D01*
X68946750Y-69469000D01*
X68169266Y-69469000D01*
X68075385Y-69375119D01*
X68075385Y-68199000D01*
X68049097Y-68059292D01*
X67966530Y-67930980D01*
X67840547Y-67844899D01*
X67691000Y-67814615D01*
X67022880Y-67814615D01*
X66749936Y-67541670D01*
X67298835Y-66992771D01*
X67336032Y-67029968D01*
X67498893Y-67138788D01*
X67691000Y-67177001D01*
X67691005Y-67177000D01*
X67751115Y-67177000D01*
X67751115Y-67246500D01*
X67777403Y-67386208D01*
X67859970Y-67514520D01*
X67985953Y-67600601D01*
X68135500Y-67630885D01*
X68721279Y-67630885D01*
X69013046Y-67922652D01*
X68942000Y-68094173D01*
X68942000Y-68956250D01*
X69073750Y-69088000D01*
X70104000Y-69088000D01*
X70104000Y-69068000D01*
X70358000Y-69068000D01*
X70358000Y-69088000D01*
X71388250Y-69088000D01*
X71520000Y-68956250D01*
X71520000Y-68094173D01*
X71990000Y-68094173D01*
X71990000Y-68956250D01*
X72121750Y-69088000D01*
X73152000Y-69088000D01*
X73152000Y-67803750D01*
X73406000Y-67803750D01*
X73406000Y-69088000D01*
X74436250Y-69088000D01*
X74568000Y-68956250D01*
X74568000Y-68094173D01*
X74487769Y-67900479D01*
X74339522Y-67752231D01*
X74145827Y-67672000D01*
X73537750Y-67672000D01*
X73406000Y-67803750D01*
X73152000Y-67803750D01*
X73020250Y-67672000D01*
X72412173Y-67672000D01*
X72218478Y-67752231D01*
X72070231Y-67900479D01*
X71990000Y-68094173D01*
X71520000Y-68094173D01*
X71439769Y-67900479D01*
X71291522Y-67752231D01*
X71097827Y-67672000D01*
X70614291Y-67672000D01*
X70741269Y-67545021D01*
X70821500Y-67351327D01*
X70821500Y-66933750D01*
X70689750Y-66802000D01*
X70104000Y-66802000D01*
X70104000Y-66822000D01*
X69850000Y-66822000D01*
X69850000Y-66802000D01*
X69830000Y-66802000D01*
X69830000Y-66548000D01*
X69850000Y-66548000D01*
X69850000Y-66528000D01*
X70104000Y-66528000D01*
X70104000Y-66548000D01*
X70689750Y-66548000D01*
X70821500Y-66416250D01*
X70821500Y-66176210D01*
X70920392Y-66242287D01*
X71112499Y-66280499D01*
X71874494Y-66280499D01*
X71874499Y-66280500D01*
X72041461Y-66247289D01*
X71990000Y-66298750D01*
X71990000Y-67160827D01*
X72070231Y-67354521D01*
X72218478Y-67502769D01*
X72412173Y-67583000D01*
X73020250Y-67583000D01*
X73152000Y-67451250D01*
X73152000Y-66167000D01*
X73406000Y-66167000D01*
X73406000Y-67451250D01*
X73537750Y-67583000D01*
X74145827Y-67583000D01*
X74339522Y-67502769D01*
X74487769Y-67354521D01*
X74568000Y-67160827D01*
X74568000Y-66298750D01*
X74436250Y-66167000D01*
X73406000Y-66167000D01*
X73152000Y-66167000D01*
X73132000Y-66167000D01*
X73132000Y-65913000D01*
X73152000Y-65913000D01*
X73152000Y-64628750D01*
X73406000Y-64628750D01*
X73406000Y-65913000D01*
X74436250Y-65913000D01*
X74568000Y-65781250D01*
X74568000Y-64919173D01*
X74487769Y-64725479D01*
X74339522Y-64577231D01*
X74145827Y-64497000D01*
X73537750Y-64497000D01*
X73406000Y-64628750D01*
X73152000Y-64628750D01*
X73069593Y-64546343D01*
X74121935Y-63494000D01*
X80824545Y-63494000D01*
X80896018Y-63565598D01*
X81144754Y-63668882D01*
X81414081Y-63669117D01*
X81662997Y-63566267D01*
X81853606Y-63375990D01*
X81956890Y-63127254D01*
X81957119Y-62865000D01*
X82151428Y-62865000D01*
X82160746Y-62868869D01*
G36*
X106042731Y-72625021D02*
X106190978Y-72773269D01*
X106333675Y-72832376D01*
X106257118Y-73016746D01*
X106256883Y-73286073D01*
X106302291Y-73395969D01*
X106221480Y-73447970D01*
X106135399Y-73573953D01*
X106126723Y-73616797D01*
X106047269Y-73424979D01*
X105899022Y-73276731D01*
X105705327Y-73196500D01*
X105541750Y-73196500D01*
X105410000Y-73328250D01*
X105410000Y-74168000D01*
X105430000Y-74168000D01*
X105430000Y-74422000D01*
X105410000Y-74422000D01*
X105410000Y-74442000D01*
X105156000Y-74442000D01*
X105156000Y-74422000D01*
X105136000Y-74422000D01*
X105136000Y-74168000D01*
X105156000Y-74168000D01*
X105156000Y-73328250D01*
X105029000Y-73201250D01*
X105029000Y-72710885D01*
X105600500Y-72710885D01*
X105740208Y-72684597D01*
X105868520Y-72602030D01*
X105954601Y-72476047D01*
X105963277Y-72433203D01*
X106042731Y-72625021D01*
X106042731Y-72625021D01*
G37*
X106042731Y-72625021D02*
X106190978Y-72773269D01*
X106333675Y-72832376D01*
X106257118Y-73016746D01*
X106256883Y-73286073D01*
X106302291Y-73395969D01*
X106221480Y-73447970D01*
X106135399Y-73573953D01*
X106126723Y-73616797D01*
X106047269Y-73424979D01*
X105899022Y-73276731D01*
X105705327Y-73196500D01*
X105541750Y-73196500D01*
X105410000Y-73328250D01*
X105410000Y-74168000D01*
X105430000Y-74168000D01*
X105430000Y-74422000D01*
X105410000Y-74422000D01*
X105410000Y-74442000D01*
X105156000Y-74442000D01*
X105156000Y-74422000D01*
X105136000Y-74422000D01*
X105136000Y-74168000D01*
X105156000Y-74168000D01*
X105156000Y-73328250D01*
X105029000Y-73201250D01*
X105029000Y-72710885D01*
X105600500Y-72710885D01*
X105740208Y-72684597D01*
X105868520Y-72602030D01*
X105954601Y-72476047D01*
X105963277Y-72433203D01*
X106042731Y-72625021D01*
G36*
X111391000Y-66911265D02*
X111391000Y-67564000D01*
X111457758Y-67899613D01*
X111647867Y-68184133D01*
X111932387Y-68374242D01*
X111998941Y-68387481D01*
X109790465Y-70595956D01*
X109750049Y-70595956D01*
X109750044Y-70595955D01*
X109557937Y-70634168D01*
X109395076Y-70742988D01*
X109395074Y-70742991D01*
X107612441Y-72525623D01*
X107651500Y-72431327D01*
X107651500Y-72013750D01*
X107519750Y-71882000D01*
X106934000Y-71882000D01*
X106934000Y-71902000D01*
X106680000Y-71902000D01*
X106680000Y-71882000D01*
X106660000Y-71882000D01*
X106660000Y-71628000D01*
X106680000Y-71628000D01*
X106680000Y-70788250D01*
X106934000Y-70788250D01*
X106934000Y-71628000D01*
X107519750Y-71628000D01*
X107651500Y-71496250D01*
X107651500Y-71078673D01*
X107571269Y-70884979D01*
X107423022Y-70736731D01*
X107229327Y-70656500D01*
X107065750Y-70656500D01*
X106934000Y-70788250D01*
X106680000Y-70788250D01*
X106553000Y-70661250D01*
X106553000Y-70308750D01*
X106680000Y-70181750D01*
X106680000Y-69342000D01*
X106660000Y-69342000D01*
X106660000Y-69088000D01*
X106680000Y-69088000D01*
X106680000Y-68267474D01*
X106745598Y-68201990D01*
X106848882Y-67953254D01*
X106848971Y-67850964D01*
X107069050Y-67630885D01*
X107124500Y-67630885D01*
X107192436Y-67618102D01*
X107122402Y-67688014D01*
X107019118Y-67936750D01*
X107018920Y-68163330D01*
X106934000Y-68248250D01*
X106934000Y-69088000D01*
X106954000Y-69088000D01*
X106954000Y-69342000D01*
X106934000Y-69342000D01*
X106934000Y-70181750D01*
X107065750Y-70313500D01*
X107229327Y-70313500D01*
X107320698Y-70275653D01*
X107489398Y-70345703D01*
X107758725Y-70345938D01*
X108007641Y-70243088D01*
X108087777Y-70163092D01*
X108241023Y-70132609D01*
X108403884Y-70023789D01*
X109379978Y-69047694D01*
X109379981Y-69047692D01*
X109488801Y-68884831D01*
X109490837Y-68874597D01*
X109527014Y-68692724D01*
X109527013Y-68692719D01*
X109527013Y-66675000D01*
X111154735Y-66675000D01*
X111391000Y-66911265D01*
X111391000Y-66911265D01*
G37*
X111391000Y-66911265D02*
X111391000Y-67564000D01*
X111457758Y-67899613D01*
X111647867Y-68184133D01*
X111932387Y-68374242D01*
X111998941Y-68387481D01*
X109790465Y-70595956D01*
X109750049Y-70595956D01*
X109750044Y-70595955D01*
X109557937Y-70634168D01*
X109395076Y-70742988D01*
X109395074Y-70742991D01*
X107612441Y-72525623D01*
X107651500Y-72431327D01*
X107651500Y-72013750D01*
X107519750Y-71882000D01*
X106934000Y-71882000D01*
X106934000Y-71902000D01*
X106680000Y-71902000D01*
X106680000Y-71882000D01*
X106660000Y-71882000D01*
X106660000Y-71628000D01*
X106680000Y-71628000D01*
X106680000Y-70788250D01*
X106934000Y-70788250D01*
X106934000Y-71628000D01*
X107519750Y-71628000D01*
X107651500Y-71496250D01*
X107651500Y-71078673D01*
X107571269Y-70884979D01*
X107423022Y-70736731D01*
X107229327Y-70656500D01*
X107065750Y-70656500D01*
X106934000Y-70788250D01*
X106680000Y-70788250D01*
X106553000Y-70661250D01*
X106553000Y-70308750D01*
X106680000Y-70181750D01*
X106680000Y-69342000D01*
X106660000Y-69342000D01*
X106660000Y-69088000D01*
X106680000Y-69088000D01*
X106680000Y-68267474D01*
X106745598Y-68201990D01*
X106848882Y-67953254D01*
X106848971Y-67850964D01*
X107069050Y-67630885D01*
X107124500Y-67630885D01*
X107192436Y-67618102D01*
X107122402Y-67688014D01*
X107019118Y-67936750D01*
X107018920Y-68163330D01*
X106934000Y-68248250D01*
X106934000Y-69088000D01*
X106954000Y-69088000D01*
X106954000Y-69342000D01*
X106934000Y-69342000D01*
X106934000Y-70181750D01*
X107065750Y-70313500D01*
X107229327Y-70313500D01*
X107320698Y-70275653D01*
X107489398Y-70345703D01*
X107758725Y-70345938D01*
X108007641Y-70243088D01*
X108087777Y-70163092D01*
X108241023Y-70132609D01*
X108403884Y-70023789D01*
X109379978Y-69047694D01*
X109379981Y-69047692D01*
X109488801Y-68884831D01*
X109490837Y-68874597D01*
X109527014Y-68692724D01*
X109527013Y-68692719D01*
X109527013Y-66675000D01*
X111154735Y-66675000D01*
X111391000Y-66911265D01*
G36*
X79961783Y-70199258D02*
X80044350Y-70327570D01*
X80170333Y-70413651D01*
X80319880Y-70443935D01*
X81292000Y-70443935D01*
X81292000Y-71011254D01*
X81267292Y-71015903D01*
X81138980Y-71098470D01*
X81052899Y-71224453D01*
X81022615Y-71374000D01*
X81022615Y-72263000D01*
X80346500Y-72263000D01*
X80346500Y-72013750D01*
X80214750Y-71882000D01*
X79629000Y-71882000D01*
X79629000Y-71902000D01*
X79375000Y-71902000D01*
X79375000Y-71882000D01*
X79355000Y-71882000D01*
X79355000Y-71628000D01*
X79375000Y-71628000D01*
X79375000Y-70848117D01*
X79399858Y-70788250D01*
X79629000Y-70788250D01*
X79629000Y-71628000D01*
X80214750Y-71628000D01*
X80346500Y-71496250D01*
X80346500Y-71078673D01*
X80266269Y-70884979D01*
X80118022Y-70736731D01*
X79924327Y-70656500D01*
X79760750Y-70656500D01*
X79629000Y-70788250D01*
X79399858Y-70788250D01*
X79416882Y-70747254D01*
X79417117Y-70477927D01*
X79314267Y-70229011D01*
X79177495Y-70092000D01*
X79883000Y-70092000D01*
X79939487Y-70080764D01*
X79961783Y-70199258D01*
X79961783Y-70199258D01*
G37*
X79961783Y-70199258D02*
X80044350Y-70327570D01*
X80170333Y-70413651D01*
X80319880Y-70443935D01*
X81292000Y-70443935D01*
X81292000Y-71011254D01*
X81267292Y-71015903D01*
X81138980Y-71098470D01*
X81052899Y-71224453D01*
X81022615Y-71374000D01*
X81022615Y-72263000D01*
X80346500Y-72263000D01*
X80346500Y-72013750D01*
X80214750Y-71882000D01*
X79629000Y-71882000D01*
X79629000Y-71902000D01*
X79375000Y-71902000D01*
X79375000Y-71882000D01*
X79355000Y-71882000D01*
X79355000Y-71628000D01*
X79375000Y-71628000D01*
X79375000Y-70848117D01*
X79399858Y-70788250D01*
X79629000Y-70788250D01*
X79629000Y-71628000D01*
X80214750Y-71628000D01*
X80346500Y-71496250D01*
X80346500Y-71078673D01*
X80266269Y-70884979D01*
X80118022Y-70736731D01*
X79924327Y-70656500D01*
X79760750Y-70656500D01*
X79629000Y-70788250D01*
X79399858Y-70788250D01*
X79416882Y-70747254D01*
X79417117Y-70477927D01*
X79314267Y-70229011D01*
X79177495Y-70092000D01*
X79883000Y-70092000D01*
X79939487Y-70080764D01*
X79961783Y-70199258D01*
G36*
X95680250Y-76708000D02*
X96266000Y-76708000D01*
X96266000Y-76688000D01*
X96520000Y-76688000D01*
X96520000Y-76708000D01*
X96540000Y-76708000D01*
X96540000Y-76962000D01*
X96520000Y-76962000D01*
X96520000Y-77801750D01*
X96651750Y-77933500D01*
X96815327Y-77933500D01*
X97009022Y-77853269D01*
X97157269Y-77705021D01*
X97235671Y-77515743D01*
X97241403Y-77546208D01*
X97323970Y-77674520D01*
X97409000Y-77732619D01*
X97409000Y-78359000D01*
X97305748Y-78359000D01*
X97194782Y-78248034D01*
X97031921Y-78139214D01*
X96839814Y-78101001D01*
X96839809Y-78101002D01*
X94613106Y-78101002D01*
X95104902Y-77281341D01*
X95123000Y-77216000D01*
X95123000Y-77093750D01*
X95548500Y-77093750D01*
X95548500Y-77511327D01*
X95628731Y-77705021D01*
X95776978Y-77853269D01*
X95970673Y-77933500D01*
X96134250Y-77933500D01*
X96266000Y-77801750D01*
X96266000Y-76962000D01*
X95680250Y-76962000D01*
X95548500Y-77093750D01*
X95123000Y-77093750D01*
X95123000Y-76622889D01*
X95384073Y-76623117D01*
X95486004Y-76581000D01*
X95553250Y-76581000D01*
X95680250Y-76708000D01*
X95680250Y-76708000D01*
G37*
X95680250Y-76708000D02*
X96266000Y-76708000D01*
X96266000Y-76688000D01*
X96520000Y-76688000D01*
X96520000Y-76708000D01*
X96540000Y-76708000D01*
X96540000Y-76962000D01*
X96520000Y-76962000D01*
X96520000Y-77801750D01*
X96651750Y-77933500D01*
X96815327Y-77933500D01*
X97009022Y-77853269D01*
X97157269Y-77705021D01*
X97235671Y-77515743D01*
X97241403Y-77546208D01*
X97323970Y-77674520D01*
X97409000Y-77732619D01*
X97409000Y-78359000D01*
X97305748Y-78359000D01*
X97194782Y-78248034D01*
X97031921Y-78139214D01*
X96839814Y-78101001D01*
X96839809Y-78101002D01*
X94613106Y-78101002D01*
X95104902Y-77281341D01*
X95123000Y-77216000D01*
X95123000Y-77093750D01*
X95548500Y-77093750D01*
X95548500Y-77511327D01*
X95628731Y-77705021D01*
X95776978Y-77853269D01*
X95970673Y-77933500D01*
X96134250Y-77933500D01*
X96266000Y-77801750D01*
X96266000Y-76962000D01*
X95680250Y-76962000D01*
X95548500Y-77093750D01*
X95123000Y-77093750D01*
X95123000Y-76622889D01*
X95384073Y-76623117D01*
X95486004Y-76581000D01*
X95553250Y-76581000D01*
X95680250Y-76708000D01*
M02*
