M48
;DRILL file {KiCad 4.0.7-e1-6374~58~ubuntu14.04.1} date Fri Aug 18 09:58:26 2017
;FORMAT={-:-/ absolute / metric / decimal}
FMAT,2
METRIC,TZ
T1C0.400
T2C0.650
T3C0.701
T4C0.800
T5C1.000
T6C1.016
T7C1.200
T8C3.100
%
G90
G05
M71
T1
X40.386Y-55.372
X42.164Y-57.404
X43.434Y-53.848
X44.45Y-47.244
X44.704Y-51.562
X45.72Y-70.358
X49.276Y-70.358
X50.546Y-67.31
X51.308Y-34.29
X51.308Y-35.306
X51.308Y-36.322
X51.308Y-37.338
X54.356Y-68.58
X54.638Y-61.11
X56.388Y-68.58
X57.912Y-34.29
X57.912Y-35.306
X57.912Y-36.322
X57.912Y-37.338
X58.674Y-55.88
X58.674Y-72.898
X58.928Y-67.056
X59.182Y-71.628
X60.198Y-70.358
X62.23Y-79.502
X62.484Y-45.212
X64.008Y-81.28
X64.516Y-56.642
X65.024Y-55.88
X65.143Y-69.596
X65.143Y-66.04
X65.278Y-50.546
X65.532Y-67.564
X65.786Y-83.058
X65.79Y-70.64
X67.056Y-46.482
X67.056Y-66.04
X67.056Y-67.564
X67.818Y-50.038
X67.818Y-81.026
X68.072Y-73.914
X68.58Y-44.45
X68.58Y-68.326
X69.295Y-73.336
X69.342Y-79.248
X69.85Y-74.168
X70.104Y-70.612
X70.109Y-62.699
X70.358Y-55.626
X71.26Y-74.982
X71.363Y-62.032
X71.374Y-56.134
X71.406Y-65.153
X71.628Y-78.74
X71.667Y-70.444
X71.882Y-81.026
X72.174Y-56.134
X72.297Y-62.593
X72.39Y-60.843
X72.39Y-67.564
X73.152Y-55.626
X73.152Y-67.564
X73.442Y-60.086
X73.736Y-74.976
X73.914Y-67.564
X74.365Y-73.644
X74.422Y-82.042
X74.688Y-60.453
X74.865Y-74.269
X74.93Y-65.532
X75.184Y-84.582
X75.438Y-34.29
X75.438Y-35.306
X75.438Y-36.322
X75.438Y-37.338
X75.483Y-74.776
X76.2Y-75.438
X76.454Y-76.962
X76.733Y-74.504
X77.015Y-73.753
X77.216Y-75.438
X78.486Y-84.582
X78.74Y-67.564
X78.74Y-70.612
X79.502Y-73.914
X80.264Y-74.422
X80.264Y-75.946
X80.32Y-61.468
X80.518Y-71.374
X80.518Y-81.534
X81.28Y-62.992
X82.042Y-34.29
X82.042Y-35.306
X82.042Y-36.322
X82.042Y-37.338
X82.042Y-60.198
X82.042Y-82.042
X82.296Y-62.192
X83.312Y-73.406
X84.068Y-56.075
X84.843Y-55.878
X85.598Y-74.168
X86.106Y-55.626
X87.122Y-45.466
X87.122Y-44.196
X87.376Y-56.388
X87.63Y-70.866
X88.392Y-65.278
X88.392Y-66.802
X88.392Y-68.58
X88.401Y-55.567
X89.137Y-73.9
X89.154Y-77.47
X89.408Y-50.546
X89.662Y-63.246
X89.916Y-74.93
X89.916Y-62.484
X89.916Y-72.644
X90.17Y-79.248
X90.331Y-78.318
X90.678Y-80.01
X90.932Y-71.628
X90.932Y-72.644
X91.186Y-81.788
X91.247Y-70.673
X91.44Y-46.736
X91.44Y-55.626
X91.44Y-62.738
X91.768Y-72.666
X91.948Y-50.292
X91.948Y-69.088
X92.202Y-66.294
X92.456Y-76.454
X92.456Y-80.518
X92.71Y-44.45
X92.964Y-83.312
X93.299Y-78.498
X94.234Y-79.248
X94.499Y-77.973
X94.996Y-57.658
X94.996Y-58.42
X94.996Y-59.182
X94.996Y-59.944
X94.996Y-60.706
X94.996Y-66.04
X94.996Y-67.31
X95.25Y-71.12
X95.25Y-74.676
X95.25Y-75.946
X95.264Y-76.746
X95.264Y-79.42
X95.758Y-57.912
X95.758Y-58.674
X95.758Y-59.436
X95.758Y-60.198
X95.758Y-72.898
X96.52Y-62.484
X97.028Y-71.882
X97.086Y-69.838
X97.282Y-56.896
X97.282Y-83.312
X97.601Y-64.297
X98.29Y-71.237
X98.488Y-69.451
X98.552Y-61.841
X98.552Y-65.786
X99.06Y-74.422
X99.06Y-76.962
X99.568Y-34.29
X99.568Y-35.306
X99.568Y-36.322
X99.568Y-37.338
X99.789Y-80.136
X100.33Y-71.374
X100.33Y-72.39
X100.33Y-74.422
X100.33Y-76.962
X100.838Y-77.625
X101.6Y-61.828
X101.6Y-62.738
X102.105Y-68.831
X102.111Y-77.626
X102.328Y-80.586
X102.616Y-61.828
X102.87Y-65.532
X102.997Y-70.358
X103.384Y-62.081
X103.632Y-75.438
X103.73Y-80.95
X103.769Y-77.752
X103.886Y-70.104
X103.886Y-72.898
X104.14Y-71.882
X104.394Y-84.074
X105.156Y-77.47
X106.172Y-34.29
X106.172Y-35.306
X106.172Y-36.322
X106.172Y-37.338
X106.172Y-67.818
X106.426Y-82.042
X106.934Y-73.152
X107.442Y-79.756
X107.625Y-68.869
X107.625Y-69.669
X107.696Y-68.072
X107.696Y-71.882
X108.204Y-82.55
X108.966Y-55.626
X108.966Y-70.104
X109.982Y-55.626
X109.982Y-67.564
X110.617Y-68.834
X110.744Y-75.946
X110.998Y-43.942
X110.998Y-65.278
X112.268Y-67.564
X112.268Y-76.708
X112.522Y-72.644
X113.03Y-80.772
X115.062Y-77.978
X115.062Y-79.502
X117.348Y-73.152
X117.348Y-75.184
X119.888Y-80.772
X120.142Y-77.724
X122.174Y-70.358
X122.428Y-71.882
T3
X108.999Y-84.
X111.Y-84.
X112.999Y-84.
X115.001Y-84.
X117.Y-84.
X119.001Y-84.
X125.Y-57.499
X125.Y-59.5
X125.Y-61.499
X125.Y-63.501
X125.Y-65.5
X125.Y-67.501
X125.Y-71.998
X125.Y-73.999
X125.Y-76.001
X125.Y-78.
T4
X125.Y-40.995
X125.Y-42.997
X125.Y-44.998
X125.Y-46.997
X125.Y-48.999
X125.Y-51.
X125.Y-52.999
T6
X119.38Y-64.77
X119.38Y-67.31
X119.38Y-69.85
T7
X47.498Y-72.136
X51.562Y-72.136
X61.595Y-34.925
X64.77Y-34.925
X113.665Y-40.005
X113.665Y-43.18
X118.665Y-40.005
X118.665Y-43.18
T8
X42.01Y-36.
X42.01Y-83.
X125.01Y-36.
X125.01Y-83.
T2
X83.935Y-81.355G85X83.935Y-81.555
G05
X88.785Y-81.355G85X88.785Y-81.555
G05
T5
X82.76Y-84.105G85X82.76Y-84.805
G05
X89.96Y-84.105G85X89.96Y-84.805
G05
T0
M30
