G04 #@! TF.FileFunction,Soldermask,Bot*
%FSLAX46Y46*%
G04 Gerber Fmt 4.6, Leading zero omitted, Abs format (unit mm)*
G04 Created by KiCad (PCBNEW 4.0.7-e1-6374~58~ubuntu14.04.1) date Fri Aug 18 12:15:01 2017*
%MOMM*%
%LPD*%
G01*
G04 APERTURE LIST*
%ADD10C,0.100000*%
%ADD11R,0.635000X1.143000*%
%ADD12R,1.143000X0.635000*%
%ADD13R,2.499360X1.950720*%
%ADD14R,1.849120X5.499100*%
%ADD15R,1.524000X2.032000*%
%ADD16R,1.100000X1.100000*%
%ADD17R,1.699260X2.100580*%
%ADD18R,1.100000X0.800000*%
%ADD19R,1.100000X2.000000*%
%ADD20R,2.159000X1.778000*%
%ADD21O,3.048000X1.524000*%
%ADD22R,2.997200X7.498080*%
%ADD23C,1.300480*%
%ADD24R,1.300000X1.300000*%
%ADD25C,1.300000*%
%ADD26R,1.699260X1.198880*%
%ADD27O,1.699260X1.198880*%
%ADD28R,10.800080X8.150860*%
%ADD29R,0.899160X3.200400*%
%ADD30R,1.000000X3.200000*%
%ADD31R,2.438400X5.588000*%
%ADD32R,2.438400X0.889000*%
%ADD33R,1.399540X0.599440*%
%ADD34O,1.050000X1.250000*%
%ADD35O,1.500000X2.200000*%
%ADD36C,4.500000*%
%ADD37C,2.200000*%
%ADD38R,2.400000X2.400000*%
%ADD39C,2.400000*%
%ADD40C,0.254000*%
G04 APERTURE END LIST*
D10*
D11*
X84582000Y-74930000D03*
X83058000Y-74930000D03*
X106807000Y-71755000D03*
X105283000Y-71755000D03*
D12*
X116205000Y-65278000D03*
X116205000Y-66802000D03*
D11*
X101473000Y-76835000D03*
X102997000Y-76835000D03*
X101473000Y-74295000D03*
X102997000Y-74295000D03*
X97917000Y-76835000D03*
X96393000Y-76835000D03*
X101473000Y-66675000D03*
X102997000Y-66675000D03*
X97282000Y-67945000D03*
X95758000Y-67945000D03*
X95758000Y-66040000D03*
X97282000Y-66040000D03*
X96393000Y-74295000D03*
X97917000Y-74295000D03*
X62103000Y-69850000D03*
X63627000Y-69850000D03*
D12*
X61595000Y-71628000D03*
X61595000Y-73152000D03*
X43180000Y-50673000D03*
X43180000Y-52197000D03*
X68580000Y-51308000D03*
X68580000Y-52832000D03*
X92710000Y-51308000D03*
X92710000Y-52832000D03*
D11*
X101473000Y-71755000D03*
X102997000Y-71755000D03*
X105283000Y-74295000D03*
X106807000Y-74295000D03*
D13*
X52705000Y-63246000D03*
X52705000Y-66294000D03*
D11*
X101473000Y-69215000D03*
X102997000Y-69215000D03*
D14*
X86395560Y-67310000D03*
X81244440Y-67310000D03*
D15*
X70231000Y-69215000D03*
X66929000Y-69215000D03*
X82169000Y-72390000D03*
X85471000Y-72390000D03*
X76581000Y-69215000D03*
X73279000Y-69215000D03*
D11*
X46228000Y-50800000D03*
X47752000Y-50800000D03*
X70358000Y-50800000D03*
X71882000Y-50800000D03*
D15*
X76581000Y-66040000D03*
X73279000Y-66040000D03*
D11*
X94488000Y-50800000D03*
X96012000Y-50800000D03*
D12*
X41275000Y-50673000D03*
X41275000Y-52197000D03*
X66675000Y-51308000D03*
X66675000Y-52832000D03*
X90805000Y-51308000D03*
X90805000Y-52832000D03*
X112395000Y-74168000D03*
X112395000Y-75692000D03*
D16*
X40386000Y-56462000D03*
X40386000Y-59362000D03*
D17*
X56515000Y-63040260D03*
X56515000Y-66499740D03*
D18*
X63500000Y-51455000D03*
D19*
X63500000Y-53355000D03*
D18*
X87630000Y-51455000D03*
D19*
X87630000Y-53355000D03*
D18*
X111760000Y-51455000D03*
D19*
X111760000Y-53355000D03*
D20*
X46990000Y-44323000D03*
X46990000Y-48387000D03*
X41910000Y-48387000D03*
X41910000Y-44323000D03*
X71120000Y-44323000D03*
X71120000Y-48387000D03*
X66040000Y-48387000D03*
X66040000Y-44323000D03*
X95250000Y-44323000D03*
X95250000Y-48387000D03*
X90170000Y-48387000D03*
X90170000Y-44323000D03*
D21*
X119380000Y-69850000D03*
X119380000Y-67310000D03*
X119380000Y-64770000D03*
D22*
X43855640Y-62230000D03*
X48854360Y-62230000D03*
D23*
X112999240Y-84000000D03*
X115000760Y-84000000D03*
X116999740Y-84000000D03*
X119001260Y-84000000D03*
X111000260Y-84000000D03*
X108998740Y-84000000D03*
X125000000Y-63500760D03*
X125000000Y-61499240D03*
X125000000Y-59500260D03*
X125000000Y-57498740D03*
X125000000Y-65499740D03*
X125000000Y-67501260D03*
D24*
X125000000Y-40995440D03*
D25*
X125000000Y-44998480D03*
X125000000Y-42996960D03*
X125000000Y-46997460D03*
X125000000Y-48998980D03*
X125000000Y-51000500D03*
X125000000Y-52999480D03*
D26*
X125000000Y-71997720D03*
D27*
X125000000Y-76000760D03*
X125000000Y-73999240D03*
X125000000Y-77999740D03*
D28*
X54610000Y-42359580D03*
D29*
X58420000Y-52961540D03*
X57150000Y-52961540D03*
X55880000Y-52961540D03*
X53340000Y-52961540D03*
X52070000Y-52961540D03*
X50800000Y-52961540D03*
D28*
X78740000Y-42359580D03*
D29*
X82550000Y-52961540D03*
X81280000Y-52961540D03*
X80010000Y-52961540D03*
X77470000Y-52961540D03*
X76200000Y-52961540D03*
X74930000Y-52961540D03*
D28*
X102870000Y-42359580D03*
D29*
X106680000Y-52961540D03*
X105410000Y-52961540D03*
X104140000Y-52961540D03*
X101600000Y-52961540D03*
X100330000Y-52961540D03*
X99060000Y-52961540D03*
D11*
X106807000Y-66675000D03*
X105283000Y-66675000D03*
X106807000Y-69215000D03*
X105283000Y-69215000D03*
D12*
X116205000Y-70612000D03*
X116205000Y-69088000D03*
D11*
X97282000Y-84455000D03*
X95758000Y-84455000D03*
X94107000Y-84455000D03*
X92583000Y-84455000D03*
X97282000Y-81915000D03*
X95758000Y-81915000D03*
X94107000Y-81915000D03*
X92583000Y-81915000D03*
D30*
X47550000Y-40640000D03*
X41350000Y-40640000D03*
D11*
X63373000Y-71755000D03*
X64897000Y-71755000D03*
X66167000Y-74295000D03*
X64643000Y-74295000D03*
X62103000Y-67945000D03*
X63627000Y-67945000D03*
X94488000Y-52705000D03*
X96012000Y-52705000D03*
X69977000Y-66675000D03*
X68453000Y-66675000D03*
X70358000Y-52705000D03*
X71882000Y-52705000D03*
D12*
X60960000Y-52578000D03*
X60960000Y-54102000D03*
X60960000Y-49403000D03*
X60960000Y-50927000D03*
D30*
X71680000Y-40640000D03*
X65480000Y-40640000D03*
D11*
X41148000Y-53975000D03*
X42672000Y-53975000D03*
D12*
X85090000Y-52578000D03*
X85090000Y-54102000D03*
X85090000Y-50927000D03*
X85090000Y-49403000D03*
D30*
X95810000Y-40132000D03*
X89610000Y-40132000D03*
D12*
X109220000Y-52578000D03*
X109220000Y-54102000D03*
X109220000Y-49403000D03*
X109220000Y-50927000D03*
D11*
X61468000Y-64770000D03*
X62992000Y-64770000D03*
X69723000Y-60960000D03*
X71247000Y-60960000D03*
D31*
X60896500Y-58547000D03*
X67373500Y-58547000D03*
D32*
X60896500Y-62674500D03*
X67373500Y-62674500D03*
D31*
X93281500Y-58547000D03*
X99758500Y-58547000D03*
D32*
X93281500Y-62674500D03*
X99758500Y-62674500D03*
D12*
X122555000Y-75057000D03*
X122555000Y-73533000D03*
D11*
X118237000Y-78740000D03*
X116713000Y-78740000D03*
D33*
X120142000Y-76200000D03*
X114808000Y-76200000D03*
X120142000Y-74930000D03*
X120142000Y-73660000D03*
X120142000Y-72390000D03*
X114808000Y-74930000D03*
X114808000Y-73660000D03*
X114808000Y-72390000D03*
D34*
X83935000Y-81455000D03*
X88785000Y-81455000D03*
D35*
X82760000Y-84455000D03*
X89960000Y-84455000D03*
D12*
X61595000Y-47752000D03*
X61595000Y-46228000D03*
X85725000Y-47752000D03*
X85725000Y-46228000D03*
X109855000Y-46482000D03*
X109855000Y-44958000D03*
D11*
X77978000Y-71755000D03*
X79502000Y-71755000D03*
D36*
X125010000Y-36000000D03*
X42010000Y-36000000D03*
X125010000Y-83000000D03*
X42010000Y-83000000D03*
D37*
X64770000Y-34925000D03*
X61595000Y-34925000D03*
X51562000Y-72136000D03*
X47498000Y-72136000D03*
D38*
X113665000Y-40005000D03*
D39*
X118665000Y-40005000D03*
D38*
X113665000Y-43180000D03*
D39*
X118665000Y-43180000D03*
D40*
G36*
X57531000Y-54864000D02*
X57541006Y-54913410D01*
X57569447Y-54955035D01*
X57611841Y-54982315D01*
X57658000Y-54991000D01*
X58039000Y-54991000D01*
X58039000Y-56134000D01*
X58049006Y-56183410D01*
X58076197Y-56223803D01*
X58330197Y-56477803D01*
X58372211Y-56505666D01*
X58420000Y-56515000D01*
X58928000Y-56515000D01*
X58977410Y-56504994D01*
X59017803Y-56477803D01*
X59742606Y-55753000D01*
X62103000Y-55753000D01*
X62103000Y-61341000D01*
X59488606Y-61341000D01*
X58255803Y-60108197D01*
X58213789Y-60080334D01*
X58166000Y-60071000D01*
X56690285Y-60071000D01*
X54440374Y-58071079D01*
X54396797Y-58045731D01*
X54356000Y-58039000D01*
X52630606Y-58039000D01*
X49149000Y-54557394D01*
X49149000Y-51435000D01*
X57531000Y-51435000D01*
X57531000Y-54864000D01*
X57531000Y-54864000D01*
G37*
X57531000Y-54864000D02*
X57541006Y-54913410D01*
X57569447Y-54955035D01*
X57611841Y-54982315D01*
X57658000Y-54991000D01*
X58039000Y-54991000D01*
X58039000Y-56134000D01*
X58049006Y-56183410D01*
X58076197Y-56223803D01*
X58330197Y-56477803D01*
X58372211Y-56505666D01*
X58420000Y-56515000D01*
X58928000Y-56515000D01*
X58977410Y-56504994D01*
X59017803Y-56477803D01*
X59742606Y-55753000D01*
X62103000Y-55753000D01*
X62103000Y-61341000D01*
X59488606Y-61341000D01*
X58255803Y-60108197D01*
X58213789Y-60080334D01*
X58166000Y-60071000D01*
X56690285Y-60071000D01*
X54440374Y-58071079D01*
X54396797Y-58045731D01*
X54356000Y-58039000D01*
X52630606Y-58039000D01*
X49149000Y-54557394D01*
X49149000Y-51435000D01*
X57531000Y-51435000D01*
X57531000Y-54864000D01*
G36*
X105791000Y-54864000D02*
X105801006Y-54913410D01*
X105829447Y-54955035D01*
X105871841Y-54982315D01*
X105918000Y-54991000D01*
X107061000Y-54991000D01*
X107061000Y-56589394D01*
X102563394Y-61087000D01*
X98425000Y-61087000D01*
X98425000Y-55626000D01*
X98414994Y-55576590D01*
X98386553Y-55534965D01*
X98354796Y-55512408D01*
X97409000Y-55039510D01*
X97409000Y-51181000D01*
X105791000Y-51181000D01*
X105791000Y-54864000D01*
X105791000Y-54864000D01*
G37*
X105791000Y-54864000D02*
X105801006Y-54913410D01*
X105829447Y-54955035D01*
X105871841Y-54982315D01*
X105918000Y-54991000D01*
X107061000Y-54991000D01*
X107061000Y-56589394D01*
X102563394Y-61087000D01*
X98425000Y-61087000D01*
X98425000Y-55626000D01*
X98414994Y-55576590D01*
X98386553Y-55534965D01*
X98354796Y-55512408D01*
X97409000Y-55039510D01*
X97409000Y-51181000D01*
X105791000Y-51181000D01*
X105791000Y-54864000D01*
G36*
X74295000Y-67945000D02*
X72009000Y-67945000D01*
X72009000Y-67183000D01*
X74295000Y-67183000D01*
X74295000Y-67945000D01*
X74295000Y-67945000D01*
G37*
X74295000Y-67945000D02*
X72009000Y-67945000D01*
X72009000Y-67183000D01*
X74295000Y-67183000D01*
X74295000Y-67945000D01*
G36*
X81661000Y-54864000D02*
X81671006Y-54913410D01*
X81699447Y-54955035D01*
X81741841Y-54982315D01*
X81788000Y-54991000D01*
X83005394Y-54991000D01*
X83207626Y-55193232D01*
X83424010Y-55626000D01*
X83198408Y-56077204D01*
X83185260Y-56125872D01*
X83192084Y-56175822D01*
X83222197Y-56223803D01*
X83730197Y-56731803D01*
X83772211Y-56759666D01*
X83820000Y-56769000D01*
X84328000Y-56769000D01*
X84377410Y-56758994D01*
X84417803Y-56731803D01*
X84634606Y-56515000D01*
X86561394Y-56515000D01*
X87286197Y-57239803D01*
X87328211Y-57267666D01*
X87376000Y-57277000D01*
X89408000Y-57277000D01*
X89457410Y-57266994D01*
X89497803Y-57239803D01*
X90476606Y-56261000D01*
X91694000Y-56261000D01*
X91743410Y-56250994D01*
X91783803Y-56223803D01*
X92254606Y-55753000D01*
X95197394Y-55753000D01*
X96139000Y-56694606D01*
X96139000Y-61341000D01*
X82677000Y-61341000D01*
X82677000Y-59944000D01*
X82666994Y-59894590D01*
X82639803Y-59854197D01*
X82385803Y-59600197D01*
X82343789Y-59572334D01*
X82296000Y-59563000D01*
X79502000Y-59563000D01*
X79452590Y-59573006D01*
X79412197Y-59600197D01*
X77925394Y-61087000D01*
X74041000Y-61087000D01*
X74041000Y-59690000D01*
X74030994Y-59640590D01*
X74003803Y-59600197D01*
X73749803Y-59346197D01*
X73707789Y-59318334D01*
X73660000Y-59309000D01*
X73152000Y-59309000D01*
X73102590Y-59319006D01*
X73062197Y-59346197D01*
X72337394Y-60071000D01*
X69088000Y-60071000D01*
X69038590Y-60081006D01*
X68996965Y-60109447D01*
X68969685Y-60151841D01*
X68961000Y-60198000D01*
X68961000Y-61161394D01*
X68781394Y-61341000D01*
X66167000Y-61341000D01*
X66167000Y-55753000D01*
X69532500Y-55753000D01*
X70256400Y-56718200D01*
X70294051Y-56751725D01*
X70358000Y-56769000D01*
X72644000Y-56769000D01*
X72693410Y-56758994D01*
X72733803Y-56731803D01*
X73204606Y-56261000D01*
X73660000Y-56261000D01*
X73709410Y-56250994D01*
X73751035Y-56222553D01*
X73778315Y-56180159D01*
X73787000Y-56134000D01*
X73787000Y-54864000D01*
X73776994Y-54814590D01*
X73749803Y-54774197D01*
X73279000Y-54303394D01*
X73279000Y-51181000D01*
X81661000Y-51181000D01*
X81661000Y-54864000D01*
X81661000Y-54864000D01*
G37*
X81661000Y-54864000D02*
X81671006Y-54913410D01*
X81699447Y-54955035D01*
X81741841Y-54982315D01*
X81788000Y-54991000D01*
X83005394Y-54991000D01*
X83207626Y-55193232D01*
X83424010Y-55626000D01*
X83198408Y-56077204D01*
X83185260Y-56125872D01*
X83192084Y-56175822D01*
X83222197Y-56223803D01*
X83730197Y-56731803D01*
X83772211Y-56759666D01*
X83820000Y-56769000D01*
X84328000Y-56769000D01*
X84377410Y-56758994D01*
X84417803Y-56731803D01*
X84634606Y-56515000D01*
X86561394Y-56515000D01*
X87286197Y-57239803D01*
X87328211Y-57267666D01*
X87376000Y-57277000D01*
X89408000Y-57277000D01*
X89457410Y-57266994D01*
X89497803Y-57239803D01*
X90476606Y-56261000D01*
X91694000Y-56261000D01*
X91743410Y-56250994D01*
X91783803Y-56223803D01*
X92254606Y-55753000D01*
X95197394Y-55753000D01*
X96139000Y-56694606D01*
X96139000Y-61341000D01*
X82677000Y-61341000D01*
X82677000Y-59944000D01*
X82666994Y-59894590D01*
X82639803Y-59854197D01*
X82385803Y-59600197D01*
X82343789Y-59572334D01*
X82296000Y-59563000D01*
X79502000Y-59563000D01*
X79452590Y-59573006D01*
X79412197Y-59600197D01*
X77925394Y-61087000D01*
X74041000Y-61087000D01*
X74041000Y-59690000D01*
X74030994Y-59640590D01*
X74003803Y-59600197D01*
X73749803Y-59346197D01*
X73707789Y-59318334D01*
X73660000Y-59309000D01*
X73152000Y-59309000D01*
X73102590Y-59319006D01*
X73062197Y-59346197D01*
X72337394Y-60071000D01*
X69088000Y-60071000D01*
X69038590Y-60081006D01*
X68996965Y-60109447D01*
X68969685Y-60151841D01*
X68961000Y-60198000D01*
X68961000Y-61161394D01*
X68781394Y-61341000D01*
X66167000Y-61341000D01*
X66167000Y-55753000D01*
X69532500Y-55753000D01*
X70256400Y-56718200D01*
X70294051Y-56751725D01*
X70358000Y-56769000D01*
X72644000Y-56769000D01*
X72693410Y-56758994D01*
X72733803Y-56731803D01*
X73204606Y-56261000D01*
X73660000Y-56261000D01*
X73709410Y-56250994D01*
X73751035Y-56222553D01*
X73778315Y-56180159D01*
X73787000Y-56134000D01*
X73787000Y-54864000D01*
X73776994Y-54814590D01*
X73749803Y-54774197D01*
X73279000Y-54303394D01*
X73279000Y-51181000D01*
X81661000Y-51181000D01*
X81661000Y-54864000D01*
G36*
X60071000Y-38125123D02*
X60071000Y-40005000D01*
X49149000Y-40005000D01*
X49149000Y-38125123D01*
X50885051Y-33909000D01*
X58334949Y-33909000D01*
X60071000Y-38125123D01*
X60071000Y-38125123D01*
G37*
X60071000Y-38125123D02*
X60071000Y-40005000D01*
X49149000Y-40005000D01*
X49149000Y-38125123D01*
X50885051Y-33909000D01*
X58334949Y-33909000D01*
X60071000Y-38125123D01*
G36*
X84201000Y-38125123D02*
X84201000Y-40005000D01*
X73279000Y-40005000D01*
X73279000Y-38125123D01*
X75015051Y-33909000D01*
X82464949Y-33909000D01*
X84201000Y-38125123D01*
X84201000Y-38125123D01*
G37*
X84201000Y-38125123D02*
X84201000Y-40005000D01*
X73279000Y-40005000D01*
X73279000Y-38125123D01*
X75015051Y-33909000D01*
X82464949Y-33909000D01*
X84201000Y-38125123D01*
G36*
X108331000Y-38125123D02*
X108331000Y-40005000D01*
X97409000Y-40005000D01*
X97409000Y-38125123D01*
X99145051Y-33909000D01*
X106594949Y-33909000D01*
X108331000Y-38125123D01*
X108331000Y-38125123D01*
G37*
X108331000Y-38125123D02*
X108331000Y-40005000D01*
X97409000Y-40005000D01*
X97409000Y-38125123D01*
X99145051Y-33909000D01*
X106594949Y-33909000D01*
X108331000Y-38125123D01*
M02*
