G04 #@! TF.FileFunction,Legend,Top*
%FSLAX46Y46*%
G04 Gerber Fmt 4.6, Leading zero omitted, Abs format (unit mm)*
G04 Created by KiCad (PCBNEW 4.0.7-e1-6374~58~ubuntu14.04.1) date Tue Aug 29 09:34:13 2017*
%MOMM*%
%LPD*%
G01*
G04 APERTURE LIST*
%ADD10C,0.100000*%
%ADD11C,0.200000*%
%ADD12C,0.150000*%
%ADD13C,0.127000*%
%ADD14C,0.119380*%
%ADD15C,0.120000*%
%ADD16C,0.066040*%
%ADD17C,0.152400*%
%ADD18C,0.381000*%
%ADD19C,0.203200*%
%ADD20C,0.200660*%
%ADD21C,0.010000*%
%ADD22R,1.524000X2.032000*%
%ADD23R,1.143000X0.635000*%
%ADD24R,0.635000X1.143000*%
%ADD25R,1.950720X2.499360*%
%ADD26R,1.849120X5.499100*%
%ADD27R,2.499360X1.950720*%
%ADD28R,1.100000X0.800000*%
%ADD29R,1.100000X2.000000*%
%ADD30R,2.159000X1.778000*%
%ADD31O,3.048000X1.524000*%
%ADD32C,1.300480*%
%ADD33R,1.300000X1.300000*%
%ADD34C,1.300000*%
%ADD35R,5.000000X4.000000*%
%ADD36R,1.699260X1.198880*%
%ADD37O,1.699260X1.198880*%
%ADD38R,10.800080X8.150860*%
%ADD39R,0.899160X3.200400*%
%ADD40R,1.000000X3.200000*%
%ADD41R,1.300480X0.300000*%
%ADD42R,0.300000X1.300480*%
%ADD43R,2.032000X3.657600*%
%ADD44R,2.032000X1.016000*%
%ADD45R,0.299720X1.501140*%
%ADD46R,7.000240X3.599180*%
%ADD47R,0.400000X1.350000*%
%ADD48O,1.050000X1.250000*%
%ADD49O,1.500000X2.200000*%
%ADD50R,4.100000X2.000000*%
%ADD51R,1.198880X1.800860*%
%ADD52R,0.800000X0.800000*%
%ADD53C,4.500000*%
%ADD54C,2.200000*%
%ADD55R,2.400000X2.400000*%
%ADD56C,2.400000*%
%ADD57C,0.254000*%
G04 APERTURE END LIST*
D10*
D11*
X60706000Y-71882000D02*
X60960000Y-71628000D01*
X86614000Y-43688000D02*
X86868000Y-43434000D01*
X114046000Y-63246000D02*
X115570000Y-61722000D01*
X115316000Y-67310000D02*
X111506000Y-67310000D01*
X115570000Y-63500000D02*
X115570000Y-67056000D01*
X111506000Y-63246000D02*
X115316000Y-63246000D01*
X115570000Y-63500000D02*
G75*
G03X115316000Y-63246000I-254000J0D01*
G01*
X111252000Y-67056000D02*
X111252000Y-63500000D01*
X115316000Y-67310000D02*
G75*
G03X115570000Y-67056000I0J254000D01*
G01*
X111252000Y-67056000D02*
G75*
G03X111506000Y-67310000I254000J0D01*
G01*
X111506000Y-63246000D02*
G75*
G03X111252000Y-63500000I0J-254000D01*
G01*
D12*
X45783572Y-72650000D02*
X45712143Y-72614286D01*
X45605000Y-72614286D01*
X45497857Y-72650000D01*
X45426429Y-72721429D01*
X45390714Y-72792857D01*
X45355000Y-72935714D01*
X45355000Y-73042857D01*
X45390714Y-73185714D01*
X45426429Y-73257143D01*
X45497857Y-73328571D01*
X45605000Y-73364286D01*
X45676429Y-73364286D01*
X45783572Y-73328571D01*
X45819286Y-73292857D01*
X45819286Y-73042857D01*
X45676429Y-73042857D01*
X46140714Y-73364286D02*
X46140714Y-72614286D01*
X46569286Y-73364286D01*
X46569286Y-72614286D01*
X46926428Y-73364286D02*
X46926428Y-72614286D01*
X47105000Y-72614286D01*
X47212143Y-72650000D01*
X47283571Y-72721429D01*
X47319286Y-72792857D01*
X47355000Y-72935714D01*
X47355000Y-73042857D01*
X47319286Y-73185714D01*
X47283571Y-73257143D01*
X47212143Y-73328571D01*
X47105000Y-73364286D01*
X46926428Y-73364286D01*
X53209144Y-72487286D02*
X53459144Y-73237286D01*
X53709144Y-72487286D01*
X54280572Y-73201571D02*
X54209143Y-73237286D01*
X54066286Y-73237286D01*
X53994858Y-73201571D01*
X53959143Y-73165857D01*
X53923429Y-73094429D01*
X53923429Y-72880143D01*
X53959143Y-72808714D01*
X53994858Y-72773000D01*
X54066286Y-72737286D01*
X54209143Y-72737286D01*
X54280572Y-72773000D01*
X54923429Y-73201571D02*
X54852000Y-73237286D01*
X54709143Y-73237286D01*
X54637715Y-73201571D01*
X54602000Y-73165857D01*
X54566286Y-73094429D01*
X54566286Y-72880143D01*
X54602000Y-72808714D01*
X54637715Y-72773000D01*
X54709143Y-72737286D01*
X54852000Y-72737286D01*
X54923429Y-72773000D01*
D11*
X61357238Y-81914381D02*
X61690571Y-82914381D01*
X62023905Y-81914381D01*
X62357238Y-82390571D02*
X62690572Y-82390571D01*
X62833429Y-82914381D02*
X62357238Y-82914381D01*
X62357238Y-81914381D01*
X62833429Y-81914381D01*
X63214381Y-82866762D02*
X63357238Y-82914381D01*
X63595334Y-82914381D01*
X63690572Y-82866762D01*
X63738191Y-82819143D01*
X63785810Y-82723905D01*
X63785810Y-82628667D01*
X63738191Y-82533429D01*
X63690572Y-82485810D01*
X63595334Y-82438190D01*
X63404857Y-82390571D01*
X63309619Y-82342952D01*
X63262000Y-82295333D01*
X63214381Y-82200095D01*
X63214381Y-82104857D01*
X63262000Y-82009619D01*
X63309619Y-81962000D01*
X63404857Y-81914381D01*
X63642953Y-81914381D01*
X63785810Y-81962000D01*
X64785810Y-82819143D02*
X64738191Y-82866762D01*
X64595334Y-82914381D01*
X64500096Y-82914381D01*
X64357238Y-82866762D01*
X64262000Y-82771524D01*
X64214381Y-82676286D01*
X64166762Y-82485810D01*
X64166762Y-82342952D01*
X64214381Y-82152476D01*
X64262000Y-82057238D01*
X64357238Y-81962000D01*
X64500096Y-81914381D01*
X64595334Y-81914381D01*
X64738191Y-81962000D01*
X64785810Y-82009619D01*
X65214381Y-82533429D02*
X65976286Y-82533429D01*
X66452476Y-82914381D02*
X66452476Y-81914381D01*
X67023905Y-82914381D01*
X67023905Y-81914381D01*
X60666762Y-83614381D02*
X61000095Y-84614381D01*
X61333429Y-83614381D01*
X62047715Y-84566762D02*
X61952477Y-84614381D01*
X61762000Y-84614381D01*
X61666762Y-84566762D01*
X61619143Y-84471524D01*
X61619143Y-84090571D01*
X61666762Y-83995333D01*
X61762000Y-83947714D01*
X61952477Y-83947714D01*
X62047715Y-83995333D01*
X62095334Y-84090571D01*
X62095334Y-84185810D01*
X61619143Y-84281048D01*
X62523905Y-84614381D02*
X62523905Y-83947714D01*
X62523905Y-84138190D02*
X62571524Y-84042952D01*
X62619143Y-83995333D01*
X62714381Y-83947714D01*
X62809620Y-83947714D01*
X63142953Y-84519143D02*
X63190572Y-84566762D01*
X63142953Y-84614381D01*
X63095334Y-84566762D01*
X63142953Y-84519143D01*
X63142953Y-84614381D01*
X64904858Y-84614381D02*
X64333429Y-84614381D01*
X64619143Y-84614381D02*
X64619143Y-83614381D01*
X64523905Y-83757238D01*
X64428667Y-83852476D01*
X64333429Y-83900095D01*
X65333429Y-84519143D02*
X65381048Y-84566762D01*
X65333429Y-84614381D01*
X65285810Y-84566762D01*
X65333429Y-84519143D01*
X65333429Y-84614381D01*
X66000095Y-83614381D02*
X66095334Y-83614381D01*
X66190572Y-83662000D01*
X66238191Y-83709619D01*
X66285810Y-83804857D01*
X66333429Y-83995333D01*
X66333429Y-84233429D01*
X66285810Y-84423905D01*
X66238191Y-84519143D01*
X66190572Y-84566762D01*
X66095334Y-84614381D01*
X66000095Y-84614381D01*
X65904857Y-84566762D01*
X65857238Y-84519143D01*
X65809619Y-84423905D01*
X65762000Y-84233429D01*
X65762000Y-83995333D01*
X65809619Y-83804857D01*
X65857238Y-83709619D01*
X65904857Y-83662000D01*
X66000095Y-83614381D01*
X66762000Y-84519143D02*
X66809619Y-84566762D01*
X66762000Y-84614381D01*
X66714381Y-84566762D01*
X66762000Y-84519143D01*
X66762000Y-84614381D01*
X67428666Y-83614381D02*
X67523905Y-83614381D01*
X67619143Y-83662000D01*
X67666762Y-83709619D01*
X67714381Y-83804857D01*
X67762000Y-83995333D01*
X67762000Y-84233429D01*
X67714381Y-84423905D01*
X67666762Y-84519143D01*
X67619143Y-84566762D01*
X67523905Y-84614381D01*
X67428666Y-84614381D01*
X67333428Y-84566762D01*
X67285809Y-84519143D01*
X67238190Y-84423905D01*
X67190571Y-84233429D01*
X67190571Y-83995333D01*
X67238190Y-83804857D01*
X67285809Y-83709619D01*
X67333428Y-83662000D01*
X67428666Y-83614381D01*
X84836000Y-73660000D02*
X84328000Y-73152000D01*
X84836000Y-76200000D02*
X84836000Y-70612000D01*
X86868000Y-70104000D02*
X85344000Y-70104000D01*
X87376000Y-76200000D02*
X87376000Y-70612000D01*
X85344000Y-76708000D02*
X86868000Y-76708000D01*
X85344000Y-70104000D02*
G75*
G03X84836000Y-70612000I0J-508000D01*
G01*
X87376000Y-70612000D02*
G75*
G03X86868000Y-70104000I-508000J0D01*
G01*
X86868000Y-76708000D02*
G75*
G03X87376000Y-76200000I0J508000D01*
G01*
X84836000Y-76200000D02*
G75*
G03X85344000Y-76708000I508000J0D01*
G01*
D13*
X90805000Y-66548000D02*
X90805000Y-64262000D01*
X90805000Y-64262000D02*
X89154000Y-64262000D01*
X87376000Y-66548000D02*
X85725000Y-66548000D01*
X85725000Y-66548000D02*
X85725000Y-64262000D01*
X85725000Y-64262000D02*
X87376000Y-64262000D01*
X89154000Y-66548000D02*
X90805000Y-66548000D01*
D14*
X105394760Y-79875380D02*
X105394760Y-80573880D01*
X105394760Y-78874620D02*
X105394760Y-78176120D01*
X106695240Y-79875380D02*
X106695240Y-80573880D01*
X106695240Y-78176120D02*
X106695240Y-78874620D01*
X106680000Y-80573880D02*
X105410000Y-80573880D01*
X105410000Y-78176120D02*
X106680000Y-78176120D01*
X95234760Y-83050380D02*
X95234760Y-83748880D01*
X95234760Y-82049620D02*
X95234760Y-81351120D01*
X96535240Y-83050380D02*
X96535240Y-83748880D01*
X96535240Y-81351120D02*
X96535240Y-82049620D01*
X96520000Y-83748880D02*
X95250000Y-83748880D01*
X95250000Y-81351120D02*
X96520000Y-81351120D01*
X102219760Y-83050380D02*
X102219760Y-83748880D01*
X102219760Y-82049620D02*
X102219760Y-81351120D01*
X103520240Y-83050380D02*
X103520240Y-83748880D01*
X103520240Y-81351120D02*
X103520240Y-82049620D01*
X103505000Y-83748880D02*
X102235000Y-83748880D01*
X102235000Y-81351120D02*
X103505000Y-81351120D01*
X99679760Y-83050380D02*
X99679760Y-83748880D01*
X99679760Y-82049620D02*
X99679760Y-81351120D01*
X100980240Y-83050380D02*
X100980240Y-83748880D01*
X100980240Y-81351120D02*
X100980240Y-82049620D01*
X100965000Y-83748880D02*
X99695000Y-83748880D01*
X99695000Y-81351120D02*
X100965000Y-81351120D01*
D13*
X90805000Y-69723000D02*
X90805000Y-67437000D01*
X90805000Y-67437000D02*
X89154000Y-67437000D01*
X87376000Y-69723000D02*
X85725000Y-69723000D01*
X85725000Y-69723000D02*
X85725000Y-67437000D01*
X85725000Y-67437000D02*
X87376000Y-67437000D01*
X89154000Y-69723000D02*
X90805000Y-69723000D01*
X59690000Y-67437000D02*
X59690000Y-69723000D01*
X59690000Y-69723000D02*
X61341000Y-69723000D01*
X63119000Y-67437000D02*
X64770000Y-67437000D01*
X64770000Y-67437000D02*
X64770000Y-69723000D01*
X64770000Y-69723000D02*
X63119000Y-69723000D01*
X61341000Y-67437000D02*
X59690000Y-67437000D01*
D14*
X109227620Y-79613760D02*
X108529120Y-79613760D01*
X110228380Y-79613760D02*
X110926880Y-79613760D01*
X109227620Y-80914240D02*
X108529120Y-80914240D01*
X110926880Y-80914240D02*
X110228380Y-80914240D01*
X108529120Y-80899000D02*
X108529120Y-79629000D01*
X110926880Y-79629000D02*
X110926880Y-80899000D01*
X67929760Y-77970380D02*
X67929760Y-78668880D01*
X67929760Y-76969620D02*
X67929760Y-76271120D01*
X69230240Y-77970380D02*
X69230240Y-78668880D01*
X69230240Y-76271120D02*
X69230240Y-76969620D01*
X69215000Y-78668880D02*
X67945000Y-78668880D01*
X67945000Y-76271120D02*
X69215000Y-76271120D01*
X76334620Y-79359760D02*
X75636120Y-79359760D01*
X77335380Y-79359760D02*
X78033880Y-79359760D01*
X76334620Y-80660240D02*
X75636120Y-80660240D01*
X78033880Y-80660240D02*
X77335380Y-80660240D01*
X75636120Y-80645000D02*
X75636120Y-79375000D01*
X78033880Y-79375000D02*
X78033880Y-80645000D01*
X73525380Y-77485240D02*
X74223880Y-77485240D01*
X72524620Y-77485240D02*
X71826120Y-77485240D01*
X73525380Y-76184760D02*
X74223880Y-76184760D01*
X71826120Y-76184760D02*
X72524620Y-76184760D01*
X74223880Y-76200000D02*
X74223880Y-77470000D01*
X71826120Y-77470000D02*
X71826120Y-76200000D01*
X81414620Y-74279760D02*
X80716120Y-74279760D01*
X82415380Y-74279760D02*
X83113880Y-74279760D01*
X81414620Y-75580240D02*
X80716120Y-75580240D01*
X83113880Y-75580240D02*
X82415380Y-75580240D01*
X80716120Y-75565000D02*
X80716120Y-74295000D01*
X83113880Y-74295000D02*
X83113880Y-75565000D01*
X41259760Y-66540380D02*
X41259760Y-67238880D01*
X41259760Y-65539620D02*
X41259760Y-64841120D01*
X42560240Y-66540380D02*
X42560240Y-67238880D01*
X42560240Y-64841120D02*
X42560240Y-65539620D01*
X42545000Y-67238880D02*
X41275000Y-67238880D01*
X41275000Y-64841120D02*
X42545000Y-64841120D01*
D13*
X45783500Y-68072000D02*
X45783500Y-65278000D01*
X45212000Y-68072000D02*
X48768000Y-68072000D01*
X48768000Y-68072000D02*
X48768000Y-65278000D01*
X48768000Y-65278000D02*
X45212000Y-65278000D01*
X45212000Y-65278000D02*
X45212000Y-68072000D01*
D14*
X69834760Y-77970380D02*
X69834760Y-78668880D01*
X69834760Y-76969620D02*
X69834760Y-76271120D01*
X71135240Y-77970380D02*
X71135240Y-78668880D01*
X71135240Y-76271120D02*
X71135240Y-76969620D01*
X71120000Y-78668880D02*
X69850000Y-78668880D01*
X69850000Y-76271120D02*
X71120000Y-76271120D01*
X68079620Y-60944760D02*
X67381120Y-60944760D01*
X69080380Y-60944760D02*
X69778880Y-60944760D01*
X68079620Y-62245240D02*
X67381120Y-62245240D01*
X69778880Y-62245240D02*
X69080380Y-62245240D01*
X67381120Y-62230000D02*
X67381120Y-60960000D01*
X69778880Y-60960000D02*
X69778880Y-62230000D01*
X79240380Y-61610240D02*
X79938880Y-61610240D01*
X78239620Y-61610240D02*
X77541120Y-61610240D01*
X79240380Y-60309760D02*
X79938880Y-60309760D01*
X77541120Y-60309760D02*
X78239620Y-60309760D01*
X79938880Y-60325000D02*
X79938880Y-61595000D01*
X77541120Y-61595000D02*
X77541120Y-60325000D01*
X82415380Y-61610240D02*
X83113880Y-61610240D01*
X81414620Y-61610240D02*
X80716120Y-61610240D01*
X82415380Y-60309760D02*
X83113880Y-60309760D01*
X80716120Y-60309760D02*
X81414620Y-60309760D01*
X83113880Y-60325000D02*
X83113880Y-61595000D01*
X80716120Y-61595000D02*
X80716120Y-60325000D01*
X110228380Y-72786240D02*
X110926880Y-72786240D01*
X109227620Y-72786240D02*
X108529120Y-72786240D01*
X110228380Y-71485760D02*
X110926880Y-71485760D01*
X108529120Y-71485760D02*
X109227620Y-71485760D01*
X110926880Y-71501000D02*
X110926880Y-72771000D01*
X108529120Y-72771000D02*
X108529120Y-71501000D01*
D13*
X59690000Y-64262000D02*
X59690000Y-66548000D01*
X59690000Y-66548000D02*
X61341000Y-66548000D01*
X63119000Y-64262000D02*
X64770000Y-64262000D01*
X64770000Y-64262000D02*
X64770000Y-66548000D01*
X64770000Y-66548000D02*
X63119000Y-66548000D01*
X61341000Y-64262000D02*
X59690000Y-64262000D01*
D14*
X105394760Y-65905380D02*
X105394760Y-66603880D01*
X105394760Y-64904620D02*
X105394760Y-64206120D01*
X106695240Y-65905380D02*
X106695240Y-66603880D01*
X106695240Y-64206120D02*
X106695240Y-64904620D01*
X106680000Y-66603880D02*
X105410000Y-66603880D01*
X105410000Y-64206120D02*
X106680000Y-64206120D01*
X44950380Y-41290240D02*
X45648880Y-41290240D01*
X43949620Y-41290240D02*
X43251120Y-41290240D01*
X44950380Y-39989760D02*
X45648880Y-39989760D01*
X43251120Y-39989760D02*
X43949620Y-39989760D01*
X45648880Y-40005000D02*
X45648880Y-41275000D01*
X43251120Y-41275000D02*
X43251120Y-40005000D01*
X69080380Y-36210240D02*
X69778880Y-36210240D01*
X68079620Y-36210240D02*
X67381120Y-36210240D01*
X69080380Y-34909760D02*
X69778880Y-34909760D01*
X67381120Y-34909760D02*
X68079620Y-34909760D01*
X69778880Y-34925000D02*
X69778880Y-36195000D01*
X67381120Y-36195000D02*
X67381120Y-34925000D01*
X93210380Y-36210240D02*
X93908880Y-36210240D01*
X92209620Y-36210240D02*
X91511120Y-36210240D01*
X93210380Y-34909760D02*
X93908880Y-34909760D01*
X91511120Y-34909760D02*
X92209620Y-34909760D01*
X93908880Y-34925000D02*
X93908880Y-36195000D01*
X91511120Y-36195000D02*
X91511120Y-34925000D01*
D13*
X59436000Y-62865000D02*
X59436000Y-57785000D01*
X63754000Y-62865000D02*
X63754000Y-57785000D01*
X64389000Y-62865000D02*
X58801000Y-62865000D01*
X58801000Y-62865000D02*
X58801000Y-57785000D01*
X58801000Y-57785000D02*
X64389000Y-57785000D01*
X64389000Y-57785000D02*
X64389000Y-62865000D01*
D14*
X76334620Y-77454760D02*
X75636120Y-77454760D01*
X77335380Y-77454760D02*
X78033880Y-77454760D01*
X76334620Y-78755240D02*
X75636120Y-78755240D01*
X78033880Y-78755240D02*
X77335380Y-78755240D01*
X75636120Y-78740000D02*
X75636120Y-77470000D01*
X78033880Y-77470000D02*
X78033880Y-78740000D01*
X61729620Y-70469760D02*
X61031120Y-70469760D01*
X62730380Y-70469760D02*
X63428880Y-70469760D01*
X61729620Y-71770240D02*
X61031120Y-71770240D01*
X63428880Y-71770240D02*
X62730380Y-71770240D01*
X61031120Y-71755000D02*
X61031120Y-70485000D01*
X63428880Y-70485000D02*
X63428880Y-71755000D01*
D13*
X51308000Y-58483500D02*
X54102000Y-58483500D01*
X51308000Y-57912000D02*
X51308000Y-61468000D01*
X51308000Y-61468000D02*
X54102000Y-61468000D01*
X54102000Y-61468000D02*
X54102000Y-57912000D01*
X54102000Y-57912000D02*
X51308000Y-57912000D01*
D14*
X82684620Y-64119760D02*
X81986120Y-64119760D01*
X83685380Y-64119760D02*
X84383880Y-64119760D01*
X82684620Y-65420240D02*
X81986120Y-65420240D01*
X84383880Y-65420240D02*
X83685380Y-65420240D01*
X81986120Y-65405000D02*
X81986120Y-64135000D01*
X84383880Y-64135000D02*
X84383880Y-65405000D01*
X82684620Y-66024760D02*
X81986120Y-66024760D01*
X83685380Y-66024760D02*
X84383880Y-66024760D01*
X82684620Y-67325240D02*
X81986120Y-67325240D01*
X84383880Y-67325240D02*
X83685380Y-67325240D01*
X81986120Y-67310000D02*
X81986120Y-66040000D01*
X84383880Y-66040000D02*
X84383880Y-67310000D01*
X82684620Y-67929760D02*
X81986120Y-67929760D01*
X83685380Y-67929760D02*
X84383880Y-67929760D01*
X82684620Y-69230240D02*
X81986120Y-69230240D01*
X84383880Y-69230240D02*
X83685380Y-69230240D01*
X81986120Y-69215000D02*
X81986120Y-67945000D01*
X84383880Y-67945000D02*
X84383880Y-69215000D01*
X82684620Y-69834760D02*
X81986120Y-69834760D01*
X83685380Y-69834760D02*
X84383880Y-69834760D01*
X82684620Y-71135240D02*
X81986120Y-71135240D01*
X84383880Y-71135240D02*
X83685380Y-71135240D01*
X81986120Y-71120000D02*
X81986120Y-69850000D01*
X84383880Y-69850000D02*
X84383880Y-71120000D01*
X82684620Y-71739760D02*
X81986120Y-71739760D01*
X83685380Y-71739760D02*
X84383880Y-71739760D01*
X82684620Y-73040240D02*
X81986120Y-73040240D01*
X84383880Y-73040240D02*
X83685380Y-73040240D01*
X81986120Y-73025000D02*
X81986120Y-71755000D01*
X84383880Y-71755000D02*
X84383880Y-73025000D01*
D15*
X62395000Y-47010000D02*
X62395000Y-50060000D01*
X62395000Y-50060000D02*
X60795000Y-50060000D01*
X60795000Y-50060000D02*
X60795000Y-47010000D01*
X86525000Y-47010000D02*
X86525000Y-50060000D01*
X86525000Y-50060000D02*
X84925000Y-50060000D01*
X84925000Y-50060000D02*
X84925000Y-47010000D01*
X110655000Y-45740000D02*
X110655000Y-48790000D01*
X110655000Y-48790000D02*
X109055000Y-48790000D01*
X109055000Y-48790000D02*
X109055000Y-45740000D01*
D12*
X45275500Y-42481500D02*
X45275500Y-48133000D01*
X45275500Y-48133000D02*
X48704500Y-48133000D01*
X48704500Y-48133000D02*
X48704500Y-42481500D01*
X43624500Y-47688500D02*
X43624500Y-42037000D01*
X43624500Y-42037000D02*
X40195500Y-42037000D01*
X40195500Y-42037000D02*
X40195500Y-47688500D01*
X69405500Y-37401500D02*
X69405500Y-43053000D01*
X69405500Y-43053000D02*
X72834500Y-43053000D01*
X72834500Y-43053000D02*
X72834500Y-37401500D01*
X67754500Y-42608500D02*
X67754500Y-36957000D01*
X67754500Y-36957000D02*
X64325500Y-36957000D01*
X64325500Y-36957000D02*
X64325500Y-42608500D01*
X93535500Y-38036500D02*
X93535500Y-43688000D01*
X93535500Y-43688000D02*
X96964500Y-43688000D01*
X96964500Y-43688000D02*
X96964500Y-38036500D01*
X91884500Y-43243500D02*
X91884500Y-37592000D01*
X91884500Y-37592000D02*
X88455500Y-37592000D01*
X88455500Y-37592000D02*
X88455500Y-43243500D01*
D15*
X55080000Y-60305000D02*
X55080000Y-57255000D01*
X55080000Y-57255000D02*
X56680000Y-57255000D01*
X56680000Y-57255000D02*
X56680000Y-60305000D01*
D16*
X119634000Y-67564000D02*
X119634000Y-67056000D01*
X119634000Y-67056000D02*
X119126000Y-67056000D01*
X119126000Y-67564000D02*
X119126000Y-67056000D01*
X119634000Y-67564000D02*
X119126000Y-67564000D01*
X119634000Y-70104000D02*
X119634000Y-69596000D01*
X119634000Y-69596000D02*
X119126000Y-69596000D01*
X119126000Y-70104000D02*
X119126000Y-69596000D01*
X119634000Y-70104000D02*
X119126000Y-70104000D01*
X119634000Y-65024000D02*
X119634000Y-64516000D01*
X119634000Y-64516000D02*
X119126000Y-64516000D01*
X119126000Y-65024000D02*
X119126000Y-64516000D01*
X119634000Y-65024000D02*
X119126000Y-65024000D01*
D17*
X118110000Y-70485000D02*
X118110000Y-69215000D01*
X118110000Y-69215000D02*
X118745000Y-68580000D01*
X118745000Y-68580000D02*
X120015000Y-68580000D01*
X120015000Y-68580000D02*
X120650000Y-69215000D01*
X118745000Y-68580000D02*
X118110000Y-67945000D01*
X118110000Y-67945000D02*
X118110000Y-66675000D01*
X118110000Y-66675000D02*
X118745000Y-66040000D01*
X118745000Y-66040000D02*
X120015000Y-66040000D01*
X120015000Y-66040000D02*
X120650000Y-66675000D01*
X120650000Y-66675000D02*
X120650000Y-67945000D01*
X120650000Y-67945000D02*
X120015000Y-68580000D01*
X118745000Y-71120000D02*
X120015000Y-71120000D01*
X118110000Y-70485000D02*
X118745000Y-71120000D01*
X120015000Y-71120000D02*
X120650000Y-70485000D01*
X120650000Y-69215000D02*
X120650000Y-70485000D01*
X118745000Y-66040000D02*
X118110000Y-65405000D01*
X118110000Y-65405000D02*
X118110000Y-64135000D01*
X118110000Y-64135000D02*
X118745000Y-63500000D01*
X118745000Y-63500000D02*
X120015000Y-63500000D01*
X120015000Y-63500000D02*
X120650000Y-64135000D01*
X120650000Y-64135000D02*
X120650000Y-65405000D01*
X120650000Y-65405000D02*
X120015000Y-66040000D01*
D18*
X120799580Y-85501140D02*
X120799580Y-84398780D01*
X120799580Y-81200920D02*
X120799580Y-83601220D01*
X107200420Y-85501140D02*
X107200420Y-84398780D01*
X107200420Y-81200920D02*
X107200420Y-83601220D01*
X109999500Y-85501140D02*
X107200420Y-85501140D01*
X107200420Y-81200920D02*
X120799580Y-81200920D01*
X120799580Y-85501140D02*
X118000500Y-85501140D01*
X126501140Y-55700420D02*
X125398780Y-55700420D01*
X122200920Y-55700420D02*
X124601220Y-55700420D01*
X126501140Y-69299580D02*
X125398780Y-69299580D01*
X122200920Y-69299580D02*
X124601220Y-69299580D01*
X126501140Y-66500500D02*
X126501140Y-69299580D01*
X122200920Y-69299580D02*
X122200920Y-55700420D01*
X126501140Y-55700420D02*
X126501140Y-58499500D01*
X126699260Y-38999000D02*
X126699260Y-55001000D01*
X122698760Y-54500620D02*
X122698760Y-39499380D01*
X122200920Y-38999000D02*
X122200920Y-55001000D01*
X122698760Y-51897120D02*
X123199140Y-51897120D01*
X123199140Y-51897120D02*
X123199140Y-52095240D01*
X123199140Y-52095240D02*
X122698760Y-52095240D01*
X122698760Y-47896620D02*
X123199140Y-47896620D01*
X123199140Y-47896620D02*
X123199140Y-48094740D01*
X123199140Y-48094740D02*
X122698760Y-48094740D01*
X123199140Y-50096260D02*
X122698760Y-50096260D01*
X123199140Y-49898140D02*
X123199140Y-50096260D01*
X122698760Y-49898140D02*
X123199140Y-49898140D01*
X123199140Y-44096780D02*
X122698760Y-44096780D01*
X123199140Y-43898660D02*
X123199140Y-44096780D01*
X122698760Y-43898660D02*
X123199140Y-43898660D01*
X123199140Y-42095260D02*
X122698760Y-42095260D01*
X123199140Y-41897140D02*
X123199140Y-42095260D01*
X122698760Y-41897140D02*
X123199140Y-41897140D01*
X122698760Y-45897640D02*
X123199140Y-45897640D01*
X123199140Y-45897640D02*
X123199140Y-46095760D01*
X123199140Y-46095760D02*
X122698760Y-46095760D01*
X125500380Y-54998460D02*
X125500380Y-54498080D01*
X124199900Y-54498080D02*
X124199900Y-54998460D01*
X124199900Y-39496840D02*
X124199900Y-38996460D01*
X125500380Y-39496840D02*
X125500380Y-38996460D01*
X126699260Y-41495820D02*
X126198880Y-41495820D01*
X126198880Y-41495820D02*
X126198880Y-39496840D01*
X126198880Y-39496840D02*
X122698760Y-39496840D01*
X122698760Y-54498080D02*
X126198880Y-54498080D01*
X126198880Y-54498080D02*
X126198880Y-52499100D01*
X126198880Y-52499100D02*
X126699260Y-52499100D01*
X126699260Y-38996460D02*
X122200920Y-38996460D01*
X126699260Y-54998460D02*
X122200920Y-54998460D01*
X126699260Y-40695720D02*
X126899920Y-40695720D01*
X126899920Y-40695720D02*
X126899920Y-40396000D01*
X126899920Y-40396000D02*
X126699260Y-40396000D01*
D12*
X109595000Y-37860000D02*
X109595000Y-33260000D01*
X109595000Y-33260000D02*
X115195000Y-33260000D01*
X115195000Y-33260000D02*
X115195000Y-37860000D01*
X115195000Y-37860000D02*
X109595000Y-37860000D01*
X116580000Y-37860000D02*
X116580000Y-33260000D01*
X116580000Y-33260000D02*
X122180000Y-33260000D01*
X122180000Y-33260000D02*
X122180000Y-37860000D01*
X122180000Y-37860000D02*
X116580000Y-37860000D01*
X100070000Y-37860000D02*
X100070000Y-33260000D01*
X100070000Y-33260000D02*
X105670000Y-33260000D01*
X105670000Y-33260000D02*
X105670000Y-37860000D01*
X105670000Y-37860000D02*
X100070000Y-37860000D01*
X75940000Y-37860000D02*
X75940000Y-33260000D01*
X75940000Y-33260000D02*
X81540000Y-33260000D01*
X81540000Y-33260000D02*
X81540000Y-37860000D01*
X81540000Y-37860000D02*
X75940000Y-37860000D01*
X51810000Y-37860000D02*
X51810000Y-33260000D01*
X51810000Y-33260000D02*
X57410000Y-33260000D01*
X57410000Y-33260000D02*
X57410000Y-37860000D01*
X57410000Y-37860000D02*
X51810000Y-37860000D01*
D18*
X123199140Y-75099060D02*
X122698760Y-75099060D01*
X123199140Y-74900940D02*
X123199140Y-75099060D01*
X122698760Y-74900940D02*
X123199140Y-74900940D01*
X122200920Y-69998740D02*
X122200920Y-80001260D01*
X122698760Y-79500880D02*
X122698760Y-70499120D01*
X126699260Y-69998740D02*
X126699260Y-80001260D01*
X123199140Y-73097540D02*
X122698760Y-73097540D01*
X123199140Y-72899420D02*
X123199140Y-73097540D01*
X122698760Y-72899420D02*
X123199140Y-72899420D01*
X122698760Y-76899920D02*
X123199140Y-76899920D01*
X123199140Y-76899920D02*
X123199140Y-77098040D01*
X123199140Y-77098040D02*
X122698760Y-77098040D01*
X125500380Y-80001260D02*
X125500380Y-79500880D01*
X124199900Y-79500880D02*
X124199900Y-80001260D01*
X124199900Y-70499120D02*
X124199900Y-69998740D01*
X125500380Y-70499120D02*
X125500380Y-69998740D01*
X126699260Y-72498100D02*
X126198880Y-72498100D01*
X126198880Y-72498100D02*
X126198880Y-70499120D01*
X126198880Y-70499120D02*
X122698760Y-70499120D01*
X122698760Y-79500880D02*
X126198880Y-79500880D01*
X126198880Y-79500880D02*
X126198880Y-77501900D01*
X126198880Y-77501900D02*
X126699260Y-77501900D01*
X126699260Y-69998740D02*
X122200920Y-69998740D01*
X126699260Y-80001260D02*
X122200920Y-80001260D01*
X126699260Y-71698000D02*
X126899920Y-71698000D01*
X126899920Y-71698000D02*
X126899920Y-71398280D01*
X126899920Y-71398280D02*
X126699260Y-71398280D01*
X49410620Y-45786040D02*
X59809380Y-45786040D01*
X59809380Y-45786040D02*
X59809380Y-53583840D01*
X59809380Y-53583840D02*
X57409080Y-54884320D01*
X57409080Y-54884320D02*
X51810920Y-54884320D01*
X51810920Y-54884320D02*
X49410620Y-53583840D01*
X49410620Y-53583840D02*
X49410620Y-45786040D01*
X73540620Y-45786040D02*
X83939380Y-45786040D01*
X83939380Y-45786040D02*
X83939380Y-53583840D01*
X83939380Y-53583840D02*
X81539080Y-54884320D01*
X81539080Y-54884320D02*
X75940920Y-54884320D01*
X75940920Y-54884320D02*
X73540620Y-53583840D01*
X73540620Y-53583840D02*
X73540620Y-45786040D01*
X97670620Y-45786040D02*
X108069380Y-45786040D01*
X108069380Y-45786040D02*
X108069380Y-53583840D01*
X108069380Y-53583840D02*
X105669080Y-54884320D01*
X105669080Y-54884320D02*
X100070920Y-54884320D01*
X100070920Y-54884320D02*
X97670620Y-53583840D01*
X97670620Y-53583840D02*
X97670620Y-45786040D01*
D13*
X110553500Y-64904620D02*
X110553500Y-64198500D01*
X110553500Y-64198500D02*
X109156500Y-64198500D01*
X109156500Y-64198500D02*
X109156500Y-64904620D01*
X110553500Y-66611500D02*
X110553500Y-65905380D01*
X110553500Y-66611500D02*
X109156500Y-66611500D01*
X109156500Y-66611500D02*
X109156500Y-65905380D01*
X108648500Y-64904620D02*
X108648500Y-64198500D01*
X108648500Y-64198500D02*
X107251500Y-64198500D01*
X107251500Y-64198500D02*
X107251500Y-64904620D01*
X108648500Y-66611500D02*
X108648500Y-65905380D01*
X108648500Y-66611500D02*
X107251500Y-66611500D01*
X107251500Y-66611500D02*
X107251500Y-65905380D01*
X80581500Y-78605380D02*
X80581500Y-79311500D01*
X80581500Y-79311500D02*
X81978500Y-79311500D01*
X81978500Y-79311500D02*
X81978500Y-78605380D01*
X80581500Y-76898500D02*
X80581500Y-77604620D01*
X80581500Y-76898500D02*
X81978500Y-76898500D01*
X81978500Y-76898500D02*
X81978500Y-77604620D01*
X97726500Y-83050380D02*
X97726500Y-83756500D01*
X97726500Y-83756500D02*
X99123500Y-83756500D01*
X99123500Y-83756500D02*
X99123500Y-83050380D01*
X97726500Y-81343500D02*
X97726500Y-82049620D01*
X97726500Y-81343500D02*
X99123500Y-81343500D01*
X99123500Y-81343500D02*
X99123500Y-82049620D01*
X104076500Y-83050380D02*
X104076500Y-83756500D01*
X104076500Y-83756500D02*
X105473500Y-83756500D01*
X105473500Y-83756500D02*
X105473500Y-83050380D01*
X104076500Y-81343500D02*
X104076500Y-82049620D01*
X104076500Y-81343500D02*
X105473500Y-81343500D01*
X105473500Y-81343500D02*
X105473500Y-82049620D01*
X93281500Y-83050380D02*
X93281500Y-83756500D01*
X93281500Y-83756500D02*
X94678500Y-83756500D01*
X94678500Y-83756500D02*
X94678500Y-83050380D01*
X93281500Y-81343500D02*
X93281500Y-82049620D01*
X93281500Y-81343500D02*
X94678500Y-81343500D01*
X94678500Y-81343500D02*
X94678500Y-82049620D01*
D15*
X41850000Y-48980000D02*
X47050000Y-48980000D01*
X47050000Y-52620000D02*
X41850000Y-52620000D01*
X65980000Y-43900000D02*
X71180000Y-43900000D01*
X71180000Y-47540000D02*
X65980000Y-47540000D01*
D13*
X61729620Y-74231500D02*
X61023500Y-74231500D01*
X61023500Y-74231500D02*
X61023500Y-75628500D01*
X61023500Y-75628500D02*
X61729620Y-75628500D01*
X63436500Y-74231500D02*
X62730380Y-74231500D01*
X63436500Y-74231500D02*
X63436500Y-75628500D01*
X63436500Y-75628500D02*
X62730380Y-75628500D01*
X62730380Y-73723500D02*
X63436500Y-73723500D01*
X63436500Y-73723500D02*
X63436500Y-72326500D01*
X63436500Y-72326500D02*
X62730380Y-72326500D01*
X61023500Y-73723500D02*
X61729620Y-73723500D01*
X61023500Y-73723500D02*
X61023500Y-72326500D01*
X61023500Y-72326500D02*
X61729620Y-72326500D01*
X117340380Y-63563500D02*
X118046500Y-63563500D01*
X118046500Y-63563500D02*
X118046500Y-62166500D01*
X118046500Y-62166500D02*
X117340380Y-62166500D01*
X115633500Y-63563500D02*
X116339620Y-63563500D01*
X115633500Y-63563500D02*
X115633500Y-62166500D01*
X115633500Y-62166500D02*
X116339620Y-62166500D01*
X90035380Y-50228500D02*
X90741500Y-50228500D01*
X90741500Y-50228500D02*
X90741500Y-48831500D01*
X90741500Y-48831500D02*
X90035380Y-48831500D01*
X88328500Y-50228500D02*
X89034620Y-50228500D01*
X88328500Y-50228500D02*
X88328500Y-48831500D01*
X88328500Y-48831500D02*
X89034620Y-48831500D01*
X65905380Y-50228500D02*
X66611500Y-50228500D01*
X66611500Y-50228500D02*
X66611500Y-48831500D01*
X66611500Y-48831500D02*
X65905380Y-48831500D01*
X64198500Y-50228500D02*
X64904620Y-50228500D01*
X64198500Y-50228500D02*
X64198500Y-48831500D01*
X64198500Y-48831500D02*
X64904620Y-48831500D01*
X62293500Y-43949620D02*
X62293500Y-43243500D01*
X62293500Y-43243500D02*
X60896500Y-43243500D01*
X60896500Y-43243500D02*
X60896500Y-43949620D01*
X62293500Y-45656500D02*
X62293500Y-44950380D01*
X62293500Y-45656500D02*
X60896500Y-45656500D01*
X60896500Y-45656500D02*
X60896500Y-44950380D01*
X41409620Y-53276500D02*
X40703500Y-53276500D01*
X40703500Y-53276500D02*
X40703500Y-54673500D01*
X40703500Y-54673500D02*
X41409620Y-54673500D01*
X43116500Y-53276500D02*
X42410380Y-53276500D01*
X43116500Y-53276500D02*
X43116500Y-54673500D01*
X43116500Y-54673500D02*
X42410380Y-54673500D01*
X86423500Y-43949620D02*
X86423500Y-43243500D01*
X86423500Y-43243500D02*
X85026500Y-43243500D01*
X85026500Y-43243500D02*
X85026500Y-43949620D01*
X86423500Y-45656500D02*
X86423500Y-44950380D01*
X86423500Y-45656500D02*
X85026500Y-45656500D01*
X85026500Y-45656500D02*
X85026500Y-44950380D01*
X117340380Y-61658500D02*
X118046500Y-61658500D01*
X118046500Y-61658500D02*
X118046500Y-60261500D01*
X118046500Y-60261500D02*
X117340380Y-60261500D01*
X115633500Y-61658500D02*
X116339620Y-61658500D01*
X115633500Y-61658500D02*
X115633500Y-60261500D01*
X115633500Y-60261500D02*
X116339620Y-60261500D01*
X117340380Y-59753500D02*
X118046500Y-59753500D01*
X118046500Y-59753500D02*
X118046500Y-58356500D01*
X118046500Y-58356500D02*
X117340380Y-58356500D01*
X115633500Y-59753500D02*
X116339620Y-59753500D01*
X115633500Y-59753500D02*
X115633500Y-58356500D01*
X115633500Y-58356500D02*
X116339620Y-58356500D01*
D15*
X90110000Y-44535000D02*
X95310000Y-44535000D01*
X95310000Y-48175000D02*
X90110000Y-48175000D01*
D13*
X110553500Y-42679620D02*
X110553500Y-41973500D01*
X110553500Y-41973500D02*
X109156500Y-41973500D01*
X109156500Y-41973500D02*
X109156500Y-42679620D01*
X110553500Y-44386500D02*
X110553500Y-43680380D01*
X110553500Y-44386500D02*
X109156500Y-44386500D01*
X109156500Y-44386500D02*
X109156500Y-43680380D01*
X89400380Y-61658500D02*
X90106500Y-61658500D01*
X90106500Y-61658500D02*
X90106500Y-60261500D01*
X90106500Y-60261500D02*
X89400380Y-60261500D01*
X87693500Y-61658500D02*
X88399620Y-61658500D01*
X87693500Y-61658500D02*
X87693500Y-60261500D01*
X87693500Y-60261500D02*
X88399620Y-60261500D01*
X85590380Y-61658500D02*
X86296500Y-61658500D01*
X86296500Y-61658500D02*
X86296500Y-60261500D01*
X86296500Y-60261500D02*
X85590380Y-60261500D01*
X83883500Y-61658500D02*
X84589620Y-61658500D01*
X83883500Y-61658500D02*
X83883500Y-60261500D01*
X83883500Y-60261500D02*
X84589620Y-60261500D01*
X85788500Y-77604620D02*
X85788500Y-76898500D01*
X85788500Y-76898500D02*
X84391500Y-76898500D01*
X84391500Y-76898500D02*
X84391500Y-77604620D01*
X85788500Y-79311500D02*
X85788500Y-78605380D01*
X85788500Y-79311500D02*
X84391500Y-79311500D01*
X84391500Y-79311500D02*
X84391500Y-78605380D01*
X87693500Y-77604620D02*
X87693500Y-76898500D01*
X87693500Y-76898500D02*
X86296500Y-76898500D01*
X86296500Y-76898500D02*
X86296500Y-77604620D01*
X87693500Y-79311500D02*
X87693500Y-78605380D01*
X87693500Y-79311500D02*
X86296500Y-79311500D01*
X86296500Y-79311500D02*
X86296500Y-78605380D01*
X104698800Y-68529200D02*
X104698800Y-77520800D01*
X104190800Y-68021200D02*
X95199200Y-68021200D01*
X94691200Y-77520800D02*
X94691200Y-68529200D01*
X104190800Y-78028800D02*
X95199200Y-78028800D01*
X104063800Y-77012800D02*
G75*
G03X104063800Y-77012800I-381000J0D01*
G01*
X104698800Y-77520800D02*
X104190800Y-78028800D01*
X104190800Y-68021200D02*
X104698800Y-68529200D01*
X94691200Y-68529200D02*
X95199200Y-68021200D01*
X95199200Y-78028800D02*
X94691200Y-77520800D01*
D19*
X47244000Y-63881000D02*
X50292000Y-63881000D01*
X50292000Y-63881000D02*
X50292000Y-56769000D01*
X50292000Y-56769000D02*
X47244000Y-56769000D01*
X44196000Y-63881000D02*
X43434000Y-63881000D01*
X43434000Y-63881000D02*
X41148000Y-62357000D01*
X41148000Y-62357000D02*
X41148000Y-58293000D01*
X41148000Y-58293000D02*
X43434000Y-56769000D01*
X43434000Y-56769000D02*
X44196000Y-56769000D01*
D13*
X65628520Y-70944740D02*
X80627220Y-70944740D01*
X80627220Y-64945260D02*
X65628520Y-64945260D01*
X80627220Y-64945260D02*
X80627220Y-70944740D01*
X65628520Y-70944740D02*
X65628520Y-64945260D01*
X66550738Y-70302120D02*
G75*
G03X66550738Y-70302120I-406598J0D01*
G01*
D12*
X82560000Y-80855000D02*
X82560000Y-85855000D01*
X82560000Y-85855000D02*
X90160000Y-85855000D01*
X90160000Y-85855000D02*
X90160000Y-80855000D01*
X90160000Y-80855000D02*
X82560000Y-80855000D01*
D20*
X108254800Y-78699360D02*
X108254800Y-73700640D01*
X108254800Y-73700640D02*
X111455200Y-73700640D01*
X111455200Y-73700640D02*
X111455200Y-78699360D01*
X111455200Y-78699360D02*
X108254800Y-78699360D01*
D15*
X121315000Y-61460000D02*
X121315000Y-60460000D01*
X121315000Y-60460000D02*
X119215000Y-60460000D01*
X121315000Y-61460000D02*
X119215000Y-61460000D01*
X121315000Y-59555000D02*
X121315000Y-58555000D01*
X121315000Y-58555000D02*
X119215000Y-58555000D01*
X121315000Y-59555000D02*
X119215000Y-59555000D01*
X121315000Y-63365000D02*
X121315000Y-62365000D01*
X121315000Y-62365000D02*
X119215000Y-62365000D01*
X121315000Y-63365000D02*
X119215000Y-63365000D01*
D13*
X62293500Y-40774620D02*
X62293500Y-40068500D01*
X62293500Y-40068500D02*
X60896500Y-40068500D01*
X60896500Y-40068500D02*
X60896500Y-40774620D01*
X62293500Y-42481500D02*
X62293500Y-41775380D01*
X62293500Y-42481500D02*
X60896500Y-42481500D01*
X60896500Y-42481500D02*
X60896500Y-41775380D01*
X86423500Y-40774620D02*
X86423500Y-40068500D01*
X86423500Y-40068500D02*
X85026500Y-40068500D01*
X85026500Y-40068500D02*
X85026500Y-40774620D01*
X86423500Y-42481500D02*
X86423500Y-41775380D01*
X86423500Y-42481500D02*
X85026500Y-42481500D01*
X85026500Y-42481500D02*
X85026500Y-41775380D01*
X110553500Y-39504620D02*
X110553500Y-38798500D01*
X110553500Y-38798500D02*
X109156500Y-38798500D01*
X109156500Y-38798500D02*
X109156500Y-39504620D01*
X110553500Y-41211500D02*
X110553500Y-40505380D01*
X110553500Y-41211500D02*
X109156500Y-41211500D01*
X109156500Y-41211500D02*
X109156500Y-40505380D01*
D14*
X116705380Y-47005240D02*
X117403880Y-47005240D01*
X115704620Y-47005240D02*
X115006120Y-47005240D01*
X116705380Y-45704760D02*
X117403880Y-45704760D01*
X115006120Y-45704760D02*
X115704620Y-45704760D01*
X117403880Y-45720000D02*
X117403880Y-46990000D01*
X115006120Y-46990000D02*
X115006120Y-45720000D01*
X116705380Y-49545240D02*
X117403880Y-49545240D01*
X115704620Y-49545240D02*
X115006120Y-49545240D01*
X116705380Y-48244760D02*
X117403880Y-48244760D01*
X115006120Y-48244760D02*
X115704620Y-48244760D01*
X117403880Y-48260000D02*
X117403880Y-49530000D01*
X115006120Y-49530000D02*
X115006120Y-48260000D01*
D12*
X65371932Y-34925000D02*
G75*
G03X65371932Y-34925000I-1236932J0D01*
G01*
X62831932Y-34925000D02*
G75*
G03X62831932Y-34925000I-1236932J0D01*
G01*
X52671932Y-72390000D02*
G75*
G03X52671932Y-72390000I-1236932J0D01*
G01*
X50131932Y-72390000D02*
G75*
G03X50131932Y-72390000I-1236932J0D01*
G01*
D21*
G36*
X59492444Y-85146444D02*
X48203556Y-85146444D01*
X48203556Y-78090889D01*
X48379944Y-78090889D01*
X48379944Y-84264500D01*
X48909111Y-84264500D01*
X49329220Y-84185616D01*
X49349046Y-84151856D01*
X49608567Y-84151856D01*
X49819415Y-84574999D01*
X49826333Y-84582000D01*
X50170217Y-84758719D01*
X50408417Y-84793667D01*
X50813198Y-84698144D01*
X50990500Y-84582000D01*
X51206958Y-84160440D01*
X51186799Y-83999917D01*
X51378556Y-83999917D01*
X51536323Y-84209971D01*
X51907722Y-84264500D01*
X52327831Y-84185616D01*
X52436889Y-83999917D01*
X52613278Y-83999917D01*
X52761325Y-84490282D01*
X53159891Y-84761400D01*
X53407028Y-84793667D01*
X53811809Y-84698144D01*
X53989111Y-84582000D01*
X54165831Y-84238117D01*
X54200778Y-83999917D01*
X54105255Y-83595135D01*
X53989111Y-83417833D01*
X53567551Y-83201375D01*
X53119637Y-83257627D01*
X52762516Y-83537027D01*
X52613336Y-83990012D01*
X52613278Y-83999917D01*
X52436889Y-83999917D01*
X52279122Y-83789862D01*
X51907722Y-83735333D01*
X51487614Y-83814217D01*
X51378556Y-83999917D01*
X51186799Y-83999917D01*
X51150706Y-83712526D01*
X50871306Y-83355405D01*
X50418321Y-83206225D01*
X50408417Y-83206167D01*
X49952630Y-83350292D01*
X49669493Y-83704571D01*
X49608567Y-84151856D01*
X49349046Y-84151856D01*
X49438278Y-83999917D01*
X49297084Y-83766066D01*
X49173694Y-83735333D01*
X49068601Y-83686647D01*
X48994843Y-83507407D01*
X48947272Y-83147840D01*
X48920737Y-82558172D01*
X48910091Y-81688632D01*
X48909111Y-81177694D01*
X48909111Y-78620056D01*
X55082722Y-78620056D01*
X55082722Y-81177694D01*
X55080265Y-82174895D01*
X55067995Y-82872613D01*
X55038561Y-83324136D01*
X54984613Y-83582750D01*
X54898803Y-83701744D01*
X54773778Y-83734402D01*
X54729944Y-83735333D01*
X54442644Y-83845624D01*
X54377167Y-83999917D01*
X54511041Y-84195607D01*
X54938301Y-84264022D01*
X54994528Y-84264500D01*
X55611889Y-84264500D01*
X55611889Y-80824917D01*
X55788278Y-80824917D01*
X55788278Y-83558944D01*
X57463972Y-83558944D01*
X58262760Y-83549475D01*
X58768265Y-83514842D01*
X59039626Y-83445708D01*
X59135981Y-83332735D01*
X59139667Y-83294361D01*
X59073203Y-83158606D01*
X58832051Y-83077134D01*
X58353573Y-83038201D01*
X57728556Y-83029778D01*
X56317444Y-83029778D01*
X56317444Y-82551722D01*
X56551557Y-82551722D01*
X56680210Y-82797591D01*
X56846611Y-82853389D01*
X57072837Y-82724901D01*
X57120693Y-82661631D01*
X57129112Y-82551722D01*
X57609890Y-82551722D01*
X57738543Y-82797591D01*
X57904944Y-82853389D01*
X58131170Y-82724901D01*
X58179026Y-82661631D01*
X58190783Y-82508140D01*
X58609005Y-82508140D01*
X58731767Y-82739471D01*
X58987147Y-82810927D01*
X59194886Y-82637326D01*
X59227861Y-82488328D01*
X59081238Y-82249719D01*
X58919181Y-82181413D01*
X58671565Y-82257106D01*
X58609005Y-82508140D01*
X58190783Y-82508140D01*
X58199632Y-82392625D01*
X58013009Y-82212145D01*
X57757032Y-82233938D01*
X57708647Y-82273575D01*
X57609890Y-82551722D01*
X57129112Y-82551722D01*
X57141299Y-82392625D01*
X56954675Y-82212145D01*
X56698699Y-82233938D01*
X56650314Y-82273575D01*
X56551557Y-82551722D01*
X56317444Y-82551722D01*
X56317444Y-81493389D01*
X56551557Y-81493389D01*
X56680210Y-81739257D01*
X56846611Y-81795055D01*
X57072837Y-81666568D01*
X57120693Y-81603297D01*
X57129112Y-81493389D01*
X57609890Y-81493389D01*
X57738543Y-81739257D01*
X57904944Y-81795055D01*
X58131170Y-81666568D01*
X58179026Y-81603297D01*
X58187445Y-81493389D01*
X58668223Y-81493389D01*
X58796876Y-81739257D01*
X58963278Y-81795055D01*
X59189503Y-81666568D01*
X59237360Y-81603297D01*
X59257965Y-81334291D01*
X59071342Y-81153812D01*
X58815366Y-81175605D01*
X58766980Y-81215242D01*
X58668223Y-81493389D01*
X58187445Y-81493389D01*
X58199632Y-81334291D01*
X58013009Y-81153812D01*
X57757032Y-81175605D01*
X57708647Y-81215242D01*
X57609890Y-81493389D01*
X57129112Y-81493389D01*
X57141299Y-81334291D01*
X56954675Y-81153812D01*
X56698699Y-81175605D01*
X56650314Y-81215242D01*
X56551557Y-81493389D01*
X56317444Y-81493389D01*
X56317444Y-80560333D01*
X56316778Y-80435055D01*
X56551557Y-80435055D01*
X56680210Y-80680924D01*
X56846611Y-80736722D01*
X57072837Y-80608234D01*
X57120693Y-80544964D01*
X57129112Y-80435055D01*
X57609890Y-80435055D01*
X57738543Y-80680924D01*
X57904944Y-80736722D01*
X58131170Y-80608234D01*
X58179026Y-80544964D01*
X58187445Y-80435055D01*
X58668223Y-80435055D01*
X58796876Y-80680924D01*
X58963278Y-80736722D01*
X59189503Y-80608234D01*
X59237360Y-80544964D01*
X59257965Y-80275958D01*
X59071342Y-80095479D01*
X58815366Y-80117271D01*
X58766980Y-80156909D01*
X58668223Y-80435055D01*
X58187445Y-80435055D01*
X58199632Y-80275958D01*
X58013009Y-80095479D01*
X57757032Y-80117271D01*
X57708647Y-80156909D01*
X57609890Y-80435055D01*
X57129112Y-80435055D01*
X57141299Y-80275958D01*
X56954675Y-80095479D01*
X56698699Y-80117271D01*
X56650314Y-80156909D01*
X56551557Y-80435055D01*
X56316778Y-80435055D01*
X56312148Y-79564386D01*
X56292649Y-78870565D01*
X56253532Y-78428327D01*
X56189382Y-78187130D01*
X56094784Y-78096432D01*
X56052861Y-78090889D01*
X55950779Y-78138233D01*
X55878151Y-78312483D01*
X55830302Y-78661965D01*
X55802555Y-79235005D01*
X55790233Y-80079929D01*
X55788278Y-80824917D01*
X55611889Y-80824917D01*
X55611889Y-78090889D01*
X48379944Y-78090889D01*
X48203556Y-78090889D01*
X48203556Y-76583998D01*
X50341711Y-76583998D01*
X50359762Y-77089567D01*
X50398092Y-77333837D01*
X50556587Y-77504459D01*
X50728587Y-77400033D01*
X50839097Y-77087007D01*
X50849389Y-76933951D01*
X50938530Y-76587591D01*
X51159749Y-76522270D01*
X51443740Y-76729379D01*
X51643139Y-77032556D01*
X51893079Y-77403330D01*
X52117761Y-77562792D01*
X52249144Y-77473338D01*
X52260500Y-77373737D01*
X52183191Y-77076617D01*
X52075676Y-76840406D01*
X51994256Y-76484449D01*
X52163871Y-76222042D01*
X52187842Y-76178796D01*
X52917949Y-76178796D01*
X53042086Y-76861469D01*
X53371984Y-77324693D01*
X53843876Y-77531965D01*
X54393994Y-77446784D01*
X54750492Y-77227775D01*
X54892545Y-77033597D01*
X55618016Y-77033597D01*
X55712920Y-77225822D01*
X55920569Y-77371205D01*
X56494891Y-77545598D01*
X57043550Y-77444393D01*
X57284371Y-77275153D01*
X57519557Y-76850198D01*
X57421658Y-76419581D01*
X57006686Y-76028477D01*
X56802514Y-75915598D01*
X56330388Y-75634780D01*
X56163927Y-75420641D01*
X56307932Y-75301875D01*
X56699484Y-75299470D01*
X57126608Y-75272629D01*
X57326525Y-75132201D01*
X57259810Y-74950988D01*
X56960066Y-74818273D01*
X56354453Y-74784130D01*
X55894788Y-74985310D01*
X55694533Y-75286154D01*
X55702779Y-75720058D01*
X56037211Y-76088860D01*
X56499682Y-76329422D01*
X56862923Y-76554767D01*
X57022656Y-76802106D01*
X57023000Y-76811916D01*
X56950539Y-76975053D01*
X56678903Y-77009415D01*
X56317444Y-76964821D01*
X55828670Y-76937231D01*
X55618016Y-77033597D01*
X54892545Y-77033597D01*
X55088453Y-76765803D01*
X55191140Y-76196635D01*
X55086488Y-75616004D01*
X54802433Y-75119645D01*
X54366911Y-74803291D01*
X54024389Y-74739500D01*
X53469380Y-74893154D01*
X53092239Y-75327295D01*
X52923893Y-76001687D01*
X52917949Y-76178796D01*
X52187842Y-76178796D01*
X52402371Y-75791765D01*
X52395033Y-75323874D01*
X52151228Y-74959148D01*
X52076643Y-74911892D01*
X51658865Y-74795769D01*
X51119757Y-74769449D01*
X51062407Y-74773395D01*
X50408417Y-74827694D01*
X50355240Y-75955644D01*
X50341711Y-76583998D01*
X48203556Y-76583998D01*
X48203556Y-73857556D01*
X59492444Y-73857556D01*
X59492444Y-85146444D01*
X59492444Y-85146444D01*
G37*
X59492444Y-85146444D02*
X48203556Y-85146444D01*
X48203556Y-78090889D01*
X48379944Y-78090889D01*
X48379944Y-84264500D01*
X48909111Y-84264500D01*
X49329220Y-84185616D01*
X49349046Y-84151856D01*
X49608567Y-84151856D01*
X49819415Y-84574999D01*
X49826333Y-84582000D01*
X50170217Y-84758719D01*
X50408417Y-84793667D01*
X50813198Y-84698144D01*
X50990500Y-84582000D01*
X51206958Y-84160440D01*
X51186799Y-83999917D01*
X51378556Y-83999917D01*
X51536323Y-84209971D01*
X51907722Y-84264500D01*
X52327831Y-84185616D01*
X52436889Y-83999917D01*
X52613278Y-83999917D01*
X52761325Y-84490282D01*
X53159891Y-84761400D01*
X53407028Y-84793667D01*
X53811809Y-84698144D01*
X53989111Y-84582000D01*
X54165831Y-84238117D01*
X54200778Y-83999917D01*
X54105255Y-83595135D01*
X53989111Y-83417833D01*
X53567551Y-83201375D01*
X53119637Y-83257627D01*
X52762516Y-83537027D01*
X52613336Y-83990012D01*
X52613278Y-83999917D01*
X52436889Y-83999917D01*
X52279122Y-83789862D01*
X51907722Y-83735333D01*
X51487614Y-83814217D01*
X51378556Y-83999917D01*
X51186799Y-83999917D01*
X51150706Y-83712526D01*
X50871306Y-83355405D01*
X50418321Y-83206225D01*
X50408417Y-83206167D01*
X49952630Y-83350292D01*
X49669493Y-83704571D01*
X49608567Y-84151856D01*
X49349046Y-84151856D01*
X49438278Y-83999917D01*
X49297084Y-83766066D01*
X49173694Y-83735333D01*
X49068601Y-83686647D01*
X48994843Y-83507407D01*
X48947272Y-83147840D01*
X48920737Y-82558172D01*
X48910091Y-81688632D01*
X48909111Y-81177694D01*
X48909111Y-78620056D01*
X55082722Y-78620056D01*
X55082722Y-81177694D01*
X55080265Y-82174895D01*
X55067995Y-82872613D01*
X55038561Y-83324136D01*
X54984613Y-83582750D01*
X54898803Y-83701744D01*
X54773778Y-83734402D01*
X54729944Y-83735333D01*
X54442644Y-83845624D01*
X54377167Y-83999917D01*
X54511041Y-84195607D01*
X54938301Y-84264022D01*
X54994528Y-84264500D01*
X55611889Y-84264500D01*
X55611889Y-80824917D01*
X55788278Y-80824917D01*
X55788278Y-83558944D01*
X57463972Y-83558944D01*
X58262760Y-83549475D01*
X58768265Y-83514842D01*
X59039626Y-83445708D01*
X59135981Y-83332735D01*
X59139667Y-83294361D01*
X59073203Y-83158606D01*
X58832051Y-83077134D01*
X58353573Y-83038201D01*
X57728556Y-83029778D01*
X56317444Y-83029778D01*
X56317444Y-82551722D01*
X56551557Y-82551722D01*
X56680210Y-82797591D01*
X56846611Y-82853389D01*
X57072837Y-82724901D01*
X57120693Y-82661631D01*
X57129112Y-82551722D01*
X57609890Y-82551722D01*
X57738543Y-82797591D01*
X57904944Y-82853389D01*
X58131170Y-82724901D01*
X58179026Y-82661631D01*
X58190783Y-82508140D01*
X58609005Y-82508140D01*
X58731767Y-82739471D01*
X58987147Y-82810927D01*
X59194886Y-82637326D01*
X59227861Y-82488328D01*
X59081238Y-82249719D01*
X58919181Y-82181413D01*
X58671565Y-82257106D01*
X58609005Y-82508140D01*
X58190783Y-82508140D01*
X58199632Y-82392625D01*
X58013009Y-82212145D01*
X57757032Y-82233938D01*
X57708647Y-82273575D01*
X57609890Y-82551722D01*
X57129112Y-82551722D01*
X57141299Y-82392625D01*
X56954675Y-82212145D01*
X56698699Y-82233938D01*
X56650314Y-82273575D01*
X56551557Y-82551722D01*
X56317444Y-82551722D01*
X56317444Y-81493389D01*
X56551557Y-81493389D01*
X56680210Y-81739257D01*
X56846611Y-81795055D01*
X57072837Y-81666568D01*
X57120693Y-81603297D01*
X57129112Y-81493389D01*
X57609890Y-81493389D01*
X57738543Y-81739257D01*
X57904944Y-81795055D01*
X58131170Y-81666568D01*
X58179026Y-81603297D01*
X58187445Y-81493389D01*
X58668223Y-81493389D01*
X58796876Y-81739257D01*
X58963278Y-81795055D01*
X59189503Y-81666568D01*
X59237360Y-81603297D01*
X59257965Y-81334291D01*
X59071342Y-81153812D01*
X58815366Y-81175605D01*
X58766980Y-81215242D01*
X58668223Y-81493389D01*
X58187445Y-81493389D01*
X58199632Y-81334291D01*
X58013009Y-81153812D01*
X57757032Y-81175605D01*
X57708647Y-81215242D01*
X57609890Y-81493389D01*
X57129112Y-81493389D01*
X57141299Y-81334291D01*
X56954675Y-81153812D01*
X56698699Y-81175605D01*
X56650314Y-81215242D01*
X56551557Y-81493389D01*
X56317444Y-81493389D01*
X56317444Y-80560333D01*
X56316778Y-80435055D01*
X56551557Y-80435055D01*
X56680210Y-80680924D01*
X56846611Y-80736722D01*
X57072837Y-80608234D01*
X57120693Y-80544964D01*
X57129112Y-80435055D01*
X57609890Y-80435055D01*
X57738543Y-80680924D01*
X57904944Y-80736722D01*
X58131170Y-80608234D01*
X58179026Y-80544964D01*
X58187445Y-80435055D01*
X58668223Y-80435055D01*
X58796876Y-80680924D01*
X58963278Y-80736722D01*
X59189503Y-80608234D01*
X59237360Y-80544964D01*
X59257965Y-80275958D01*
X59071342Y-80095479D01*
X58815366Y-80117271D01*
X58766980Y-80156909D01*
X58668223Y-80435055D01*
X58187445Y-80435055D01*
X58199632Y-80275958D01*
X58013009Y-80095479D01*
X57757032Y-80117271D01*
X57708647Y-80156909D01*
X57609890Y-80435055D01*
X57129112Y-80435055D01*
X57141299Y-80275958D01*
X56954675Y-80095479D01*
X56698699Y-80117271D01*
X56650314Y-80156909D01*
X56551557Y-80435055D01*
X56316778Y-80435055D01*
X56312148Y-79564386D01*
X56292649Y-78870565D01*
X56253532Y-78428327D01*
X56189382Y-78187130D01*
X56094784Y-78096432D01*
X56052861Y-78090889D01*
X55950779Y-78138233D01*
X55878151Y-78312483D01*
X55830302Y-78661965D01*
X55802555Y-79235005D01*
X55790233Y-80079929D01*
X55788278Y-80824917D01*
X55611889Y-80824917D01*
X55611889Y-78090889D01*
X48379944Y-78090889D01*
X48203556Y-78090889D01*
X48203556Y-76583998D01*
X50341711Y-76583998D01*
X50359762Y-77089567D01*
X50398092Y-77333837D01*
X50556587Y-77504459D01*
X50728587Y-77400033D01*
X50839097Y-77087007D01*
X50849389Y-76933951D01*
X50938530Y-76587591D01*
X51159749Y-76522270D01*
X51443740Y-76729379D01*
X51643139Y-77032556D01*
X51893079Y-77403330D01*
X52117761Y-77562792D01*
X52249144Y-77473338D01*
X52260500Y-77373737D01*
X52183191Y-77076617D01*
X52075676Y-76840406D01*
X51994256Y-76484449D01*
X52163871Y-76222042D01*
X52187842Y-76178796D01*
X52917949Y-76178796D01*
X53042086Y-76861469D01*
X53371984Y-77324693D01*
X53843876Y-77531965D01*
X54393994Y-77446784D01*
X54750492Y-77227775D01*
X54892545Y-77033597D01*
X55618016Y-77033597D01*
X55712920Y-77225822D01*
X55920569Y-77371205D01*
X56494891Y-77545598D01*
X57043550Y-77444393D01*
X57284371Y-77275153D01*
X57519557Y-76850198D01*
X57421658Y-76419581D01*
X57006686Y-76028477D01*
X56802514Y-75915598D01*
X56330388Y-75634780D01*
X56163927Y-75420641D01*
X56307932Y-75301875D01*
X56699484Y-75299470D01*
X57126608Y-75272629D01*
X57326525Y-75132201D01*
X57259810Y-74950988D01*
X56960066Y-74818273D01*
X56354453Y-74784130D01*
X55894788Y-74985310D01*
X55694533Y-75286154D01*
X55702779Y-75720058D01*
X56037211Y-76088860D01*
X56499682Y-76329422D01*
X56862923Y-76554767D01*
X57022656Y-76802106D01*
X57023000Y-76811916D01*
X56950539Y-76975053D01*
X56678903Y-77009415D01*
X56317444Y-76964821D01*
X55828670Y-76937231D01*
X55618016Y-77033597D01*
X54892545Y-77033597D01*
X55088453Y-76765803D01*
X55191140Y-76196635D01*
X55086488Y-75616004D01*
X54802433Y-75119645D01*
X54366911Y-74803291D01*
X54024389Y-74739500D01*
X53469380Y-74893154D01*
X53092239Y-75327295D01*
X52923893Y-76001687D01*
X52917949Y-76178796D01*
X52187842Y-76178796D01*
X52402371Y-75791765D01*
X52395033Y-75323874D01*
X52151228Y-74959148D01*
X52076643Y-74911892D01*
X51658865Y-74795769D01*
X51119757Y-74769449D01*
X51062407Y-74773395D01*
X50408417Y-74827694D01*
X50355240Y-75955644D01*
X50341711Y-76583998D01*
X48203556Y-76583998D01*
X48203556Y-73857556D01*
X59492444Y-73857556D01*
X59492444Y-85146444D01*
G36*
X51765889Y-75324105D02*
X51902263Y-75530379D01*
X51907722Y-75621444D01*
X51824564Y-75879667D01*
X51515154Y-75970583D01*
X51378556Y-75974222D01*
X50991222Y-75918784D01*
X50854848Y-75712510D01*
X50849389Y-75621444D01*
X50932547Y-75363222D01*
X51241957Y-75272306D01*
X51378556Y-75268667D01*
X51765889Y-75324105D01*
X51765889Y-75324105D01*
G37*
X51765889Y-75324105D02*
X51902263Y-75530379D01*
X51907722Y-75621444D01*
X51824564Y-75879667D01*
X51515154Y-75970583D01*
X51378556Y-75974222D01*
X50991222Y-75918784D01*
X50854848Y-75712510D01*
X50849389Y-75621444D01*
X50932547Y-75363222D01*
X51241957Y-75272306D01*
X51378556Y-75268667D01*
X51765889Y-75324105D01*
G36*
X54503027Y-75511809D02*
X54700343Y-75933736D01*
X54631427Y-76449984D01*
X54360853Y-76870828D01*
X54001998Y-77013766D01*
X53650337Y-76866183D01*
X53468615Y-76603628D01*
X53364383Y-76100886D01*
X53471012Y-75649991D01*
X53742081Y-75354584D01*
X54052178Y-75300719D01*
X54503027Y-75511809D01*
X54503027Y-75511809D01*
G37*
X54503027Y-75511809D02*
X54700343Y-75933736D01*
X54631427Y-76449984D01*
X54360853Y-76870828D01*
X54001998Y-77013766D01*
X53650337Y-76866183D01*
X53468615Y-76603628D01*
X53364383Y-76100886D01*
X53471012Y-75649991D01*
X53742081Y-75354584D01*
X54052178Y-75300719D01*
X54503027Y-75511809D01*
G36*
X43808816Y-74396466D02*
X43885266Y-74396568D01*
X43942000Y-74396600D01*
X44024377Y-74396611D01*
X44094989Y-74396665D01*
X44154772Y-74396786D01*
X44204661Y-74397003D01*
X44245591Y-74397342D01*
X44278498Y-74397830D01*
X44304315Y-74398493D01*
X44323980Y-74399359D01*
X44338427Y-74400454D01*
X44348591Y-74401804D01*
X44355408Y-74403438D01*
X44359813Y-74405381D01*
X44362740Y-74407661D01*
X44363720Y-74408686D01*
X44371324Y-74422434D01*
X44379464Y-74446249D01*
X44387462Y-74477558D01*
X44394637Y-74513787D01*
X44399072Y-74542650D01*
X44403290Y-74570077D01*
X44408490Y-74598750D01*
X44410667Y-74609325D01*
X44415212Y-74631089D01*
X44420953Y-74659769D01*
X44426777Y-74689794D01*
X44427775Y-74695050D01*
X44433492Y-74724712D01*
X44439332Y-74754062D01*
X44444182Y-74777525D01*
X44444882Y-74780775D01*
X44449973Y-74806938D01*
X44454806Y-74836104D01*
X44456426Y-74847450D01*
X44458782Y-74864222D01*
X44461591Y-74881890D01*
X44465283Y-74902817D01*
X44470290Y-74929366D01*
X44477044Y-74963900D01*
X44484826Y-75003025D01*
X44497250Y-75066645D01*
X44506690Y-75118179D01*
X44513191Y-75157873D01*
X44513765Y-75161775D01*
X44520792Y-75196300D01*
X44530804Y-75226864D01*
X44542738Y-75251276D01*
X44555533Y-75267349D01*
X44567691Y-75272900D01*
X44579292Y-75275250D01*
X44595705Y-75280980D01*
X44597422Y-75281691D01*
X44614622Y-75288288D01*
X44638359Y-75296593D01*
X44659550Y-75303540D01*
X44683823Y-75311298D01*
X44705260Y-75318386D01*
X44727358Y-75326017D01*
X44753613Y-75335406D01*
X44787523Y-75347764D01*
X44796075Y-75350898D01*
X44820793Y-75360016D01*
X44841175Y-75367770D01*
X44859653Y-75375230D01*
X44878657Y-75383467D01*
X44900620Y-75393552D01*
X44927972Y-75406554D01*
X44963145Y-75423546D01*
X44983400Y-75433374D01*
X45028546Y-75455025D01*
X45063972Y-75471267D01*
X45091196Y-75482605D01*
X45111735Y-75489548D01*
X45127106Y-75492600D01*
X45138829Y-75492270D01*
X45148420Y-75489063D01*
X45149151Y-75488692D01*
X45159761Y-75482459D01*
X45177694Y-75471196D01*
X45200634Y-75456432D01*
X45226263Y-75439695D01*
X45252266Y-75422514D01*
X45276326Y-75406417D01*
X45296125Y-75392933D01*
X45309348Y-75383592D01*
X45313600Y-75380173D01*
X45319654Y-75375515D01*
X45334475Y-75364987D01*
X45356299Y-75349817D01*
X45383361Y-75331233D01*
X45408850Y-75313884D01*
X45474079Y-75269642D01*
X45529812Y-75231817D01*
X45577073Y-75199708D01*
X45616883Y-75172616D01*
X45650267Y-75149841D01*
X45678246Y-75130682D01*
X45701844Y-75114441D01*
X45722084Y-75100417D01*
X45739989Y-75087910D01*
X45756581Y-75076221D01*
X45766243Y-75069371D01*
X45796529Y-75048602D01*
X45819066Y-75035050D01*
X45835774Y-75027694D01*
X45848573Y-75025516D01*
X45848793Y-75025518D01*
X45855797Y-75026507D01*
X45863973Y-75029932D01*
X45874444Y-75036750D01*
X45888336Y-75047916D01*
X45906772Y-75064386D01*
X45930877Y-75087117D01*
X45961775Y-75117065D01*
X45996273Y-75150931D01*
X46066443Y-75220273D01*
X46132257Y-75285760D01*
X46193240Y-75346900D01*
X46248918Y-75403201D01*
X46298815Y-75454171D01*
X46342457Y-75499320D01*
X46379369Y-75538154D01*
X46409075Y-75570184D01*
X46431102Y-75594917D01*
X46444975Y-75611862D01*
X46450217Y-75620527D01*
X46450249Y-75620863D01*
X46446809Y-75631263D01*
X46437485Y-75649298D01*
X46423777Y-75672268D01*
X46410112Y-75693192D01*
X46393007Y-75718393D01*
X46370886Y-75750989D01*
X46345861Y-75787862D01*
X46320049Y-75825899D01*
X46301031Y-75853925D01*
X46277377Y-75888678D01*
X46254112Y-75922675D01*
X46232965Y-75953401D01*
X46215663Y-75978346D01*
X46204916Y-75993625D01*
X46193902Y-76009348D01*
X46177089Y-76033709D01*
X46155775Y-76064811D01*
X46131256Y-76100758D01*
X46104827Y-76139654D01*
X46082222Y-76173040D01*
X46050735Y-76220060D01*
X46026201Y-76257741D01*
X46008074Y-76286998D01*
X45995812Y-76308744D01*
X45988868Y-76323891D01*
X45986699Y-76333293D01*
X45989655Y-76345763D01*
X45998053Y-76367731D01*
X46011193Y-76397583D01*
X46028375Y-76433701D01*
X46042435Y-76461852D01*
X46077572Y-76532129D01*
X46107239Y-76594245D01*
X46132590Y-76650874D01*
X46154780Y-76704690D01*
X46174964Y-76758367D01*
X46192646Y-76809600D01*
X46205992Y-76849484D01*
X46216190Y-76879066D01*
X46224010Y-76900126D01*
X46230225Y-76914440D01*
X46235605Y-76923789D01*
X46240921Y-76929949D01*
X46246870Y-76934648D01*
X46263967Y-76942810D01*
X46291203Y-76951201D01*
X46326047Y-76959179D01*
X46365966Y-76966102D01*
X46377225Y-76967699D01*
X46404022Y-76971871D01*
X46430903Y-76976911D01*
X46443900Y-76979785D01*
X46463217Y-76983991D01*
X46490363Y-76989287D01*
X46520624Y-76994770D01*
X46532800Y-76996855D01*
X46565831Y-77002565D01*
X46600434Y-77008809D01*
X46630463Y-77014470D01*
X46637575Y-77015871D01*
X46700584Y-77028184D01*
X46751629Y-77037542D01*
X46791082Y-77044013D01*
X46796325Y-77044782D01*
X46824061Y-77049261D01*
X46860315Y-77055807D01*
X46901227Y-77063655D01*
X46942933Y-77072038D01*
X46981574Y-77080192D01*
X47013286Y-77087351D01*
X47022720Y-77089652D01*
X47042789Y-77096997D01*
X47059973Y-77106889D01*
X47060820Y-77107556D01*
X47075725Y-77119622D01*
X47077491Y-77525502D01*
X47077919Y-77610512D01*
X47078315Y-77683721D01*
X47078537Y-77746027D01*
X47078446Y-77798328D01*
X47077899Y-77841523D01*
X47076755Y-77876511D01*
X47074875Y-77904189D01*
X47072115Y-77925456D01*
X47068337Y-77941210D01*
X47063397Y-77952350D01*
X47057157Y-77959773D01*
X47049473Y-77964379D01*
X47040205Y-77967065D01*
X47029213Y-77968730D01*
X47016355Y-77970273D01*
X47007454Y-77971550D01*
X46977013Y-77976861D01*
X46944653Y-77983143D01*
X46922019Y-77988001D01*
X46898408Y-77992840D01*
X46877534Y-77996124D01*
X46866361Y-77997050D01*
X46851221Y-77998585D01*
X46829525Y-78002537D01*
X46813691Y-78006162D01*
X46788733Y-78011970D01*
X46757809Y-78018560D01*
X46727466Y-78024539D01*
X46726475Y-78024724D01*
X46695933Y-78030469D01*
X46664226Y-78036535D01*
X46638097Y-78041631D01*
X46637575Y-78041735D01*
X46610095Y-78046960D01*
X46581671Y-78052017D01*
X46567725Y-78054329D01*
X46544905Y-78058195D01*
X46516023Y-78063425D01*
X46488350Y-78068690D01*
X46457456Y-78074644D01*
X46424378Y-78080871D01*
X46399450Y-78085445D01*
X46352217Y-78094486D01*
X46316222Y-78102697D01*
X46290062Y-78110491D01*
X46272337Y-78118281D01*
X46262228Y-78125845D01*
X46249118Y-78144763D01*
X46237482Y-78170092D01*
X46229763Y-78195788D01*
X46228000Y-78210511D01*
X46225001Y-78228641D01*
X46219294Y-78243720D01*
X46212775Y-78259049D01*
X46204998Y-78281098D01*
X46199549Y-78298675D01*
X46172841Y-78379227D01*
X46138644Y-78463386D01*
X46131922Y-78478347D01*
X46122780Y-78499217D01*
X46116240Y-78515703D01*
X46113700Y-78524278D01*
X46113700Y-78524324D01*
X46110951Y-78531673D01*
X46103320Y-78548394D01*
X46091727Y-78572564D01*
X46077094Y-78602257D01*
X46062087Y-78632110D01*
X46043443Y-78669204D01*
X46029986Y-78697064D01*
X46020970Y-78717682D01*
X46015648Y-78733051D01*
X46013272Y-78745166D01*
X46013095Y-78756020D01*
X46013584Y-78761476D01*
X46015201Y-78770098D01*
X46018622Y-78780238D01*
X46024472Y-78792897D01*
X46033379Y-78809078D01*
X46045969Y-78829782D01*
X46062867Y-78856010D01*
X46084702Y-78888766D01*
X46112098Y-78929050D01*
X46145683Y-78977864D01*
X46178827Y-79025750D01*
X46230962Y-79100998D01*
X46276252Y-79166509D01*
X46315140Y-79222943D01*
X46348068Y-79270966D01*
X46375479Y-79311238D01*
X46397814Y-79344424D01*
X46415516Y-79371186D01*
X46429029Y-79392187D01*
X46438793Y-79408090D01*
X46445252Y-79419558D01*
X46448848Y-79427254D01*
X46450023Y-79431840D01*
X46450024Y-79432135D01*
X46446891Y-79444832D01*
X46441722Y-79456227D01*
X46435876Y-79463231D01*
X46421970Y-79478209D01*
X46400962Y-79500197D01*
X46373814Y-79528229D01*
X46341483Y-79561342D01*
X46304931Y-79598570D01*
X46265117Y-79638948D01*
X46223000Y-79681511D01*
X46179540Y-79725294D01*
X46135698Y-79769333D01*
X46092432Y-79812661D01*
X46050702Y-79854314D01*
X46011468Y-79893328D01*
X45975690Y-79928737D01*
X45944328Y-79959576D01*
X45918340Y-79984880D01*
X45898688Y-80003684D01*
X45886330Y-80015024D01*
X45884186Y-80016828D01*
X45874306Y-80024740D01*
X45865689Y-80030552D01*
X45857058Y-80033715D01*
X45847137Y-80033679D01*
X45834647Y-80029893D01*
X45818313Y-80021810D01*
X45796856Y-80008878D01*
X45769001Y-79990548D01*
X45733469Y-79966271D01*
X45688984Y-79935497D01*
X45678725Y-79928392D01*
X45649065Y-79907924D01*
X45616135Y-79885299D01*
X45586085Y-79864742D01*
X45580300Y-79860799D01*
X45559268Y-79846482D01*
X45530504Y-79826905D01*
X45496776Y-79803950D01*
X45460850Y-79779501D01*
X45431075Y-79759238D01*
X45395554Y-79735034D01*
X45360033Y-79710771D01*
X45327244Y-79688320D01*
X45299922Y-79669553D01*
X45283136Y-79657963D01*
X45249277Y-79635100D01*
X45223455Y-79619251D01*
X45203828Y-79609446D01*
X45188559Y-79604713D01*
X45180771Y-79603905D01*
X45168477Y-79606710D01*
X45148666Y-79614470D01*
X45124799Y-79625758D01*
X45114096Y-79631371D01*
X45085244Y-79646992D01*
X45055066Y-79663344D01*
X45029196Y-79677375D01*
X45024675Y-79679829D01*
X44980122Y-79703756D01*
X44944976Y-79721930D01*
X44917685Y-79735021D01*
X44896697Y-79743696D01*
X44880462Y-79748623D01*
X44867428Y-79750472D01*
X44860811Y-79750402D01*
X44857966Y-79750112D01*
X44855196Y-79749097D01*
X44852144Y-79746549D01*
X44848449Y-79741661D01*
X44843753Y-79733623D01*
X44837696Y-79721629D01*
X44829918Y-79704870D01*
X44820062Y-79682537D01*
X44807766Y-79653824D01*
X44792673Y-79617921D01*
X44774423Y-79574020D01*
X44752656Y-79521315D01*
X44727014Y-79458996D01*
X44697137Y-79386256D01*
X44675572Y-79333725D01*
X44657717Y-79290255D01*
X44641230Y-79250162D01*
X44626785Y-79215086D01*
X44615058Y-79186667D01*
X44606727Y-79166543D01*
X44602467Y-79156356D01*
X44602281Y-79155925D01*
X44597561Y-79144649D01*
X44589474Y-79124929D01*
X44579385Y-79100105D01*
X44573715Y-79086075D01*
X44562478Y-79058399D01*
X44551872Y-79032605D01*
X44543560Y-79012725D01*
X44540975Y-79006700D01*
X44526321Y-78972746D01*
X44514505Y-78944444D01*
X44503814Y-78917800D01*
X44495201Y-78896439D01*
X44484214Y-78869794D01*
X44475054Y-78847950D01*
X44465734Y-78825773D01*
X44453213Y-78795758D01*
X44439120Y-78761815D01*
X44425080Y-78727851D01*
X44424853Y-78727300D01*
X44412315Y-78696899D01*
X44401162Y-78669874D01*
X44392475Y-78648842D01*
X44387334Y-78636423D01*
X44386836Y-78635225D01*
X44382086Y-78623620D01*
X44374090Y-78603888D01*
X44364331Y-78579689D01*
X44361128Y-78571725D01*
X44349471Y-78543127D01*
X44335065Y-78508376D01*
X44320200Y-78472976D01*
X44312805Y-78455566D01*
X44301447Y-78427624D01*
X44292316Y-78402610D01*
X44286479Y-78383614D01*
X44284900Y-78374822D01*
X44287173Y-78365852D01*
X44295147Y-78355740D01*
X44310554Y-78342804D01*
X44335126Y-78325361D01*
X44337287Y-78323891D01*
X44383764Y-78292256D01*
X44421372Y-78266317D01*
X44451811Y-78244736D01*
X44476784Y-78226173D01*
X44497993Y-78209286D01*
X44517141Y-78192738D01*
X44535928Y-78175187D01*
X44556057Y-78155293D01*
X44571991Y-78139121D01*
X44632147Y-78070395D01*
X44685307Y-77994889D01*
X44730119Y-77915007D01*
X44765234Y-77833152D01*
X44789109Y-77752575D01*
X44799483Y-77705783D01*
X44807110Y-77668332D01*
X44812395Y-77637260D01*
X44815743Y-77609605D01*
X44817559Y-77582406D01*
X44818248Y-77552700D01*
X44818300Y-77539144D01*
X44812207Y-77435191D01*
X44794230Y-77333227D01*
X44764823Y-77234532D01*
X44724437Y-77140381D01*
X44673526Y-77052054D01*
X44620142Y-76979874D01*
X44584617Y-76938425D01*
X44551803Y-76903861D01*
X44518388Y-76873194D01*
X44481061Y-76843438D01*
X44436511Y-76811604D01*
X44424600Y-76803475D01*
X44402031Y-76789123D01*
X44375031Y-76773389D01*
X44346185Y-76757606D01*
X44318078Y-76743111D01*
X44293294Y-76731241D01*
X44274418Y-76723331D01*
X44264449Y-76720700D01*
X44252073Y-76716537D01*
X44249317Y-76714327D01*
X44240096Y-76709391D01*
X44222658Y-76703073D01*
X44205184Y-76697952D01*
X44179027Y-76691005D01*
X44147669Y-76682651D01*
X44119800Y-76675206D01*
X44088895Y-76669292D01*
X44048413Y-76664989D01*
X44001373Y-76662297D01*
X43950797Y-76661216D01*
X43899703Y-76661745D01*
X43851112Y-76663886D01*
X43808044Y-76667637D01*
X43773519Y-76672999D01*
X43764200Y-76675206D01*
X43734388Y-76683169D01*
X43703146Y-76691491D01*
X43678815Y-76697952D01*
X43657737Y-76704259D01*
X43641488Y-76710440D01*
X43634682Y-76714327D01*
X43622985Y-76720302D01*
X43619550Y-76720699D01*
X43604381Y-76724286D01*
X43580957Y-76734278D01*
X43551231Y-76749528D01*
X43517156Y-76768887D01*
X43480687Y-76791205D01*
X43443775Y-76815334D01*
X43408375Y-76840126D01*
X43380025Y-76861577D01*
X43319108Y-76916512D01*
X43261636Y-76981559D01*
X43209383Y-77054238D01*
X43164124Y-77132072D01*
X43127633Y-77212582D01*
X43126427Y-77215702D01*
X43093464Y-77318246D01*
X43073188Y-77420972D01*
X43065591Y-77523687D01*
X43070666Y-77626197D01*
X43088405Y-77728308D01*
X43118799Y-77829827D01*
X43154104Y-77914500D01*
X43195308Y-77989909D01*
X43246399Y-78063529D01*
X43304722Y-78131583D01*
X43312008Y-78139121D01*
X43336916Y-78164171D01*
X43359477Y-78185765D01*
X43381659Y-78205463D01*
X43405427Y-78224828D01*
X43432749Y-78245421D01*
X43465591Y-78268802D01*
X43505919Y-78296534D01*
X43535600Y-78316634D01*
X43563865Y-78336309D01*
X43582603Y-78351404D01*
X43593202Y-78363828D01*
X43597052Y-78375489D01*
X43595543Y-78388294D01*
X43593207Y-78395742D01*
X43586642Y-78413375D01*
X43576642Y-78439014D01*
X43564695Y-78468962D01*
X43552289Y-78499517D01*
X43540911Y-78526981D01*
X43532637Y-78546325D01*
X43524419Y-78566195D01*
X43516342Y-78587416D01*
X43516276Y-78587600D01*
X43508308Y-78608768D01*
X43500268Y-78628700D01*
X43500194Y-78628875D01*
X43493000Y-78645960D01*
X43481975Y-78672356D01*
X43468125Y-78705632D01*
X43452461Y-78743357D01*
X43435991Y-78783101D01*
X43419724Y-78822432D01*
X43404667Y-78858921D01*
X43397421Y-78876525D01*
X43381939Y-78914144D01*
X43370208Y-78942544D01*
X43361171Y-78964256D01*
X43353770Y-78981816D01*
X43346948Y-78997756D01*
X43343081Y-79006700D01*
X43336115Y-79023150D01*
X43326266Y-79046880D01*
X43315400Y-79073391D01*
X43312824Y-79079725D01*
X43300884Y-79108700D01*
X43288386Y-79138332D01*
X43277790Y-79162796D01*
X43276611Y-79165450D01*
X43265208Y-79191994D01*
X43252983Y-79221945D01*
X43246534Y-79238475D01*
X43237279Y-79262157D01*
X43224717Y-79293421D01*
X43210390Y-79328521D01*
X43195837Y-79363713D01*
X43182600Y-79395251D01*
X43172218Y-79419390D01*
X43170787Y-79422625D01*
X43164646Y-79436898D01*
X43155308Y-79459157D01*
X43144354Y-79485618D01*
X43138936Y-79498825D01*
X43127684Y-79526118D01*
X43117189Y-79551190D01*
X43109071Y-79570185D01*
X43106507Y-79575984D01*
X43100392Y-79590602D01*
X43097487Y-79599728D01*
X43097450Y-79600196D01*
X43094963Y-79607819D01*
X43088540Y-79623131D01*
X43082102Y-79637337D01*
X43070556Y-79663153D01*
X43058288Y-79692120D01*
X43052607Y-79706187D01*
X43041599Y-79729092D01*
X43030168Y-79744420D01*
X43024746Y-79748347D01*
X43016390Y-79750415D01*
X43005238Y-79749453D01*
X42989854Y-79744882D01*
X42968797Y-79736122D01*
X42940630Y-79722594D01*
X42903914Y-79703719D01*
X42871971Y-79686808D01*
X42839444Y-79669468D01*
X42806792Y-79652077D01*
X42777758Y-79636628D01*
X42756090Y-79625116D01*
X42755676Y-79624896D01*
X42732865Y-79614124D01*
X42711870Y-79606466D01*
X42697425Y-79603600D01*
X42681444Y-79607863D01*
X42657100Y-79620342D01*
X42625299Y-79640569D01*
X42623274Y-79641950D01*
X42595231Y-79661055D01*
X42561076Y-79684203D01*
X42525256Y-79708384D01*
X42494200Y-79729262D01*
X42467451Y-79747312D01*
X42444627Y-79762933D01*
X42427745Y-79774727D01*
X42418820Y-79781298D01*
X42418000Y-79782038D01*
X42411184Y-79787507D01*
X42397518Y-79797032D01*
X42389425Y-79802390D01*
X42372347Y-79813738D01*
X42349046Y-79829517D01*
X42323709Y-79846885D01*
X42315513Y-79852552D01*
X42253558Y-79895400D01*
X42201170Y-79931411D01*
X42157558Y-79961099D01*
X42121931Y-79984977D01*
X42093499Y-80003557D01*
X42071470Y-80017354D01*
X42055054Y-80026879D01*
X42043461Y-80032647D01*
X42035900Y-80035171D01*
X42033799Y-80035387D01*
X42022157Y-80031490D01*
X42005458Y-80021421D01*
X41992524Y-80011587D01*
X41982883Y-80002776D01*
X41965205Y-79985816D01*
X41940381Y-79961589D01*
X41909301Y-79930976D01*
X41872856Y-79894862D01*
X41831938Y-79854127D01*
X41787436Y-79809654D01*
X41740242Y-79762326D01*
X41698862Y-79720700D01*
X41641076Y-79662381D01*
X41591764Y-79612365D01*
X41550355Y-79570042D01*
X41516277Y-79534801D01*
X41488959Y-79506033D01*
X41467830Y-79483126D01*
X41452318Y-79465470D01*
X41441851Y-79452454D01*
X41435857Y-79443468D01*
X41433766Y-79437902D01*
X41433750Y-79437510D01*
X41437267Y-79425094D01*
X41446750Y-79405608D01*
X41460593Y-79382180D01*
X41467799Y-79371209D01*
X41501052Y-79322196D01*
X41528504Y-79281740D01*
X41551387Y-79248038D01*
X41570934Y-79219289D01*
X41588378Y-79193689D01*
X41604951Y-79169437D01*
X41621886Y-79144729D01*
X41640416Y-79117763D01*
X41661773Y-79086737D01*
X41687191Y-79049849D01*
X41717902Y-79005295D01*
X41737499Y-78976866D01*
X41759313Y-78944910D01*
X41778407Y-78916345D01*
X41793678Y-78892872D01*
X41804023Y-78876189D01*
X41808339Y-78867996D01*
X41808400Y-78867644D01*
X41813069Y-78858861D01*
X41816337Y-78856203D01*
X41830140Y-78842882D01*
X41844982Y-78821781D01*
X41858341Y-78797309D01*
X41867696Y-78773875D01*
X41870388Y-78761710D01*
X41871038Y-78750699D01*
X41869882Y-78739480D01*
X41866171Y-78726055D01*
X41859160Y-78708425D01*
X41848100Y-78684593D01*
X41832245Y-78652562D01*
X41821912Y-78632110D01*
X41805330Y-78599091D01*
X41790960Y-78569864D01*
X41779722Y-78546354D01*
X41772538Y-78530484D01*
X41770300Y-78524324D01*
X41767824Y-78515881D01*
X41761329Y-78499479D01*
X41752213Y-78478646D01*
X41752077Y-78478347D01*
X41740588Y-78452612D01*
X41729909Y-78427305D01*
X41718388Y-78398384D01*
X41704374Y-78361808D01*
X41703311Y-78359000D01*
X41692014Y-78327594D01*
X41680488Y-78292949D01*
X41669896Y-78258820D01*
X41661401Y-78228957D01*
X41656166Y-78207115D01*
X41656067Y-78206600D01*
X41645656Y-78167053D01*
X41630578Y-78138058D01*
X41609202Y-78117834D01*
X41579897Y-78104601D01*
X41557689Y-78099251D01*
X41533378Y-78094699D01*
X41504221Y-78089275D01*
X41484550Y-78085635D01*
X41456024Y-78080292D01*
X41422801Y-78073953D01*
X41395650Y-78068690D01*
X41366977Y-78063239D01*
X41338195Y-78058037D01*
X41316275Y-78054329D01*
X41291276Y-78050092D01*
X41262224Y-78044786D01*
X41246425Y-78041735D01*
X41220521Y-78036679D01*
X41188870Y-78030621D01*
X41158218Y-78024853D01*
X41157525Y-78024724D01*
X41127324Y-78018793D01*
X41096308Y-78012200D01*
X41071023Y-78006340D01*
X41070308Y-78006162D01*
X41047399Y-78001115D01*
X41027125Y-77997806D01*
X41017638Y-77997049D01*
X41002795Y-77995637D01*
X40980955Y-77991976D01*
X40961980Y-77988001D01*
X40934037Y-77982069D01*
X40901444Y-77975845D01*
X40876545Y-77971550D01*
X40862469Y-77969637D01*
X40850345Y-77968154D01*
X40840033Y-77966202D01*
X40831391Y-77962884D01*
X40824279Y-77957301D01*
X40818556Y-77948554D01*
X40814079Y-77935746D01*
X40810709Y-77917979D01*
X40808305Y-77894352D01*
X40806724Y-77863970D01*
X40805827Y-77825932D01*
X40805472Y-77779341D01*
X40805518Y-77723298D01*
X40805824Y-77656905D01*
X40806249Y-77579264D01*
X40806508Y-77525502D01*
X40808275Y-77119622D01*
X40823179Y-77107556D01*
X40839832Y-77097645D01*
X40859991Y-77089989D01*
X40861279Y-77089652D01*
X40889345Y-77083072D01*
X40925807Y-77075206D01*
X40966803Y-77066820D01*
X41008472Y-77058678D01*
X41046952Y-77051548D01*
X41078381Y-77046193D01*
X41087675Y-77044782D01*
X41118014Y-77040007D01*
X41156847Y-77033151D01*
X41205616Y-77023951D01*
X41246425Y-77015979D01*
X41273321Y-77010894D01*
X41306979Y-77004852D01*
X41341619Y-76998881D01*
X41354375Y-76996756D01*
X41386150Y-76991222D01*
X41417634Y-76985221D01*
X41443846Y-76979723D01*
X41452800Y-76977619D01*
X41477885Y-76971991D01*
X41502623Y-76967399D01*
X41513125Y-76965878D01*
X41544188Y-76961137D01*
X41575757Y-76954622D01*
X41604388Y-76947204D01*
X41626638Y-76939759D01*
X41637596Y-76934321D01*
X41643451Y-76929659D01*
X41648663Y-76923501D01*
X41653995Y-76914074D01*
X41660212Y-76899605D01*
X41668078Y-76878321D01*
X41678357Y-76848448D01*
X41691353Y-76809600D01*
X41710713Y-76753710D01*
X41731024Y-76700126D01*
X41753439Y-76646174D01*
X41779114Y-76589179D01*
X41809204Y-76526470D01*
X41841564Y-76461852D01*
X41858928Y-76427086D01*
X41874084Y-76395562D01*
X41886131Y-76369255D01*
X41894166Y-76350138D01*
X41897288Y-76340186D01*
X41897300Y-76339914D01*
X41896382Y-76331594D01*
X41893228Y-76321240D01*
X41887238Y-76307876D01*
X41877810Y-76290522D01*
X41864342Y-76268202D01*
X41846235Y-76239937D01*
X41822887Y-76204750D01*
X41793697Y-76161663D01*
X41758065Y-76109698D01*
X41737139Y-76079350D01*
X41723428Y-76059426D01*
X41711687Y-76042251D01*
X41705150Y-76032577D01*
X41694957Y-76017861D01*
X41687219Y-76007177D01*
X41680949Y-75998264D01*
X41668690Y-75980439D01*
X41651547Y-75955325D01*
X41630624Y-75924543D01*
X41607027Y-75889716D01*
X41589275Y-75863450D01*
X41554282Y-75811669D01*
X41525584Y-75769325D01*
X41502412Y-75735299D01*
X41483994Y-75708474D01*
X41469563Y-75687731D01*
X41458347Y-75671954D01*
X41449578Y-75660023D01*
X41445467Y-75654631D01*
X41438077Y-75643804D01*
X41434327Y-75633532D01*
X41435006Y-75622434D01*
X41440902Y-75609128D01*
X41452803Y-75592234D01*
X41471497Y-75570370D01*
X41497772Y-75542155D01*
X41526912Y-75511882D01*
X41550583Y-75487648D01*
X41580533Y-75457277D01*
X41615570Y-75421954D01*
X41654505Y-75382863D01*
X41696144Y-75341189D01*
X41739298Y-75298118D01*
X41782775Y-75254834D01*
X41825383Y-75212522D01*
X41865931Y-75172366D01*
X41903229Y-75135552D01*
X41936085Y-75103264D01*
X41963307Y-75076687D01*
X41983705Y-75057006D01*
X41994155Y-75047163D01*
X42009868Y-75034349D01*
X42024367Y-75027541D01*
X42039879Y-75027123D01*
X42058629Y-75033484D01*
X42082840Y-75047009D01*
X42114738Y-75068084D01*
X42114778Y-75068112D01*
X42191761Y-75120786D01*
X42266802Y-75172057D01*
X42337914Y-75220571D01*
X42403112Y-75264972D01*
X42460411Y-75303908D01*
X42475150Y-75313904D01*
X42505250Y-75334401D01*
X42531594Y-75352517D01*
X42552416Y-75367022D01*
X42565952Y-75376689D01*
X42570400Y-75380173D01*
X42576926Y-75385249D01*
X42591826Y-75395652D01*
X42612783Y-75409855D01*
X42637480Y-75426328D01*
X42663601Y-75443543D01*
X42688828Y-75459971D01*
X42710846Y-75474082D01*
X42727338Y-75484350D01*
X42734848Y-75488692D01*
X42744333Y-75492110D01*
X42755826Y-75492693D01*
X42770845Y-75489933D01*
X42790908Y-75483325D01*
X42817533Y-75472362D01*
X42852237Y-75456538D01*
X42896539Y-75435345D01*
X42900600Y-75433374D01*
X42940363Y-75414102D01*
X42971145Y-75399328D01*
X42995377Y-75387984D01*
X43015490Y-75378999D01*
X43033916Y-75371301D01*
X43053085Y-75363821D01*
X43075431Y-75355488D01*
X43087925Y-75350898D01*
X43123919Y-75337750D01*
X43151512Y-75327830D01*
X43174202Y-75319926D01*
X43195487Y-75312824D01*
X43218863Y-75305311D01*
X43224450Y-75303540D01*
X43249321Y-75295341D01*
X43272450Y-75287164D01*
X43286577Y-75281691D01*
X43303096Y-75275724D01*
X43315492Y-75272928D01*
X43316279Y-75272900D01*
X43329097Y-75266809D01*
X43341491Y-75249562D01*
X43352618Y-75222695D01*
X43360823Y-75191697D01*
X43371472Y-75140184D01*
X43382269Y-75086013D01*
X43392498Y-75032894D01*
X43401448Y-74984539D01*
X43408403Y-74944657D01*
X43408727Y-74942700D01*
X43412963Y-74917989D01*
X43418383Y-74887644D01*
X43423455Y-74860150D01*
X43429245Y-74829224D01*
X43435394Y-74796117D01*
X43439975Y-74771250D01*
X43445218Y-74743554D01*
X43450812Y-74715441D01*
X43454247Y-74699050D01*
X43459266Y-74673768D01*
X43464321Y-74644980D01*
X43466309Y-74632375D01*
X43472200Y-74597255D01*
X43480803Y-74552817D01*
X43492349Y-74497894D01*
X43499716Y-74464249D01*
X43502267Y-74450901D01*
X43504184Y-74439419D01*
X43506375Y-74429663D01*
X43509752Y-74421493D01*
X43515223Y-74414772D01*
X43523698Y-74409359D01*
X43536087Y-74405115D01*
X43553299Y-74401902D01*
X43576245Y-74399580D01*
X43605834Y-74398009D01*
X43642976Y-74397052D01*
X43688581Y-74396568D01*
X43743557Y-74396419D01*
X43808816Y-74396466D01*
X43808816Y-74396466D01*
G37*
X43808816Y-74396466D02*
X43885266Y-74396568D01*
X43942000Y-74396600D01*
X44024377Y-74396611D01*
X44094989Y-74396665D01*
X44154772Y-74396786D01*
X44204661Y-74397003D01*
X44245591Y-74397342D01*
X44278498Y-74397830D01*
X44304315Y-74398493D01*
X44323980Y-74399359D01*
X44338427Y-74400454D01*
X44348591Y-74401804D01*
X44355408Y-74403438D01*
X44359813Y-74405381D01*
X44362740Y-74407661D01*
X44363720Y-74408686D01*
X44371324Y-74422434D01*
X44379464Y-74446249D01*
X44387462Y-74477558D01*
X44394637Y-74513787D01*
X44399072Y-74542650D01*
X44403290Y-74570077D01*
X44408490Y-74598750D01*
X44410667Y-74609325D01*
X44415212Y-74631089D01*
X44420953Y-74659769D01*
X44426777Y-74689794D01*
X44427775Y-74695050D01*
X44433492Y-74724712D01*
X44439332Y-74754062D01*
X44444182Y-74777525D01*
X44444882Y-74780775D01*
X44449973Y-74806938D01*
X44454806Y-74836104D01*
X44456426Y-74847450D01*
X44458782Y-74864222D01*
X44461591Y-74881890D01*
X44465283Y-74902817D01*
X44470290Y-74929366D01*
X44477044Y-74963900D01*
X44484826Y-75003025D01*
X44497250Y-75066645D01*
X44506690Y-75118179D01*
X44513191Y-75157873D01*
X44513765Y-75161775D01*
X44520792Y-75196300D01*
X44530804Y-75226864D01*
X44542738Y-75251276D01*
X44555533Y-75267349D01*
X44567691Y-75272900D01*
X44579292Y-75275250D01*
X44595705Y-75280980D01*
X44597422Y-75281691D01*
X44614622Y-75288288D01*
X44638359Y-75296593D01*
X44659550Y-75303540D01*
X44683823Y-75311298D01*
X44705260Y-75318386D01*
X44727358Y-75326017D01*
X44753613Y-75335406D01*
X44787523Y-75347764D01*
X44796075Y-75350898D01*
X44820793Y-75360016D01*
X44841175Y-75367770D01*
X44859653Y-75375230D01*
X44878657Y-75383467D01*
X44900620Y-75393552D01*
X44927972Y-75406554D01*
X44963145Y-75423546D01*
X44983400Y-75433374D01*
X45028546Y-75455025D01*
X45063972Y-75471267D01*
X45091196Y-75482605D01*
X45111735Y-75489548D01*
X45127106Y-75492600D01*
X45138829Y-75492270D01*
X45148420Y-75489063D01*
X45149151Y-75488692D01*
X45159761Y-75482459D01*
X45177694Y-75471196D01*
X45200634Y-75456432D01*
X45226263Y-75439695D01*
X45252266Y-75422514D01*
X45276326Y-75406417D01*
X45296125Y-75392933D01*
X45309348Y-75383592D01*
X45313600Y-75380173D01*
X45319654Y-75375515D01*
X45334475Y-75364987D01*
X45356299Y-75349817D01*
X45383361Y-75331233D01*
X45408850Y-75313884D01*
X45474079Y-75269642D01*
X45529812Y-75231817D01*
X45577073Y-75199708D01*
X45616883Y-75172616D01*
X45650267Y-75149841D01*
X45678246Y-75130682D01*
X45701844Y-75114441D01*
X45722084Y-75100417D01*
X45739989Y-75087910D01*
X45756581Y-75076221D01*
X45766243Y-75069371D01*
X45796529Y-75048602D01*
X45819066Y-75035050D01*
X45835774Y-75027694D01*
X45848573Y-75025516D01*
X45848793Y-75025518D01*
X45855797Y-75026507D01*
X45863973Y-75029932D01*
X45874444Y-75036750D01*
X45888336Y-75047916D01*
X45906772Y-75064386D01*
X45930877Y-75087117D01*
X45961775Y-75117065D01*
X45996273Y-75150931D01*
X46066443Y-75220273D01*
X46132257Y-75285760D01*
X46193240Y-75346900D01*
X46248918Y-75403201D01*
X46298815Y-75454171D01*
X46342457Y-75499320D01*
X46379369Y-75538154D01*
X46409075Y-75570184D01*
X46431102Y-75594917D01*
X46444975Y-75611862D01*
X46450217Y-75620527D01*
X46450249Y-75620863D01*
X46446809Y-75631263D01*
X46437485Y-75649298D01*
X46423777Y-75672268D01*
X46410112Y-75693192D01*
X46393007Y-75718393D01*
X46370886Y-75750989D01*
X46345861Y-75787862D01*
X46320049Y-75825899D01*
X46301031Y-75853925D01*
X46277377Y-75888678D01*
X46254112Y-75922675D01*
X46232965Y-75953401D01*
X46215663Y-75978346D01*
X46204916Y-75993625D01*
X46193902Y-76009348D01*
X46177089Y-76033709D01*
X46155775Y-76064811D01*
X46131256Y-76100758D01*
X46104827Y-76139654D01*
X46082222Y-76173040D01*
X46050735Y-76220060D01*
X46026201Y-76257741D01*
X46008074Y-76286998D01*
X45995812Y-76308744D01*
X45988868Y-76323891D01*
X45986699Y-76333293D01*
X45989655Y-76345763D01*
X45998053Y-76367731D01*
X46011193Y-76397583D01*
X46028375Y-76433701D01*
X46042435Y-76461852D01*
X46077572Y-76532129D01*
X46107239Y-76594245D01*
X46132590Y-76650874D01*
X46154780Y-76704690D01*
X46174964Y-76758367D01*
X46192646Y-76809600D01*
X46205992Y-76849484D01*
X46216190Y-76879066D01*
X46224010Y-76900126D01*
X46230225Y-76914440D01*
X46235605Y-76923789D01*
X46240921Y-76929949D01*
X46246870Y-76934648D01*
X46263967Y-76942810D01*
X46291203Y-76951201D01*
X46326047Y-76959179D01*
X46365966Y-76966102D01*
X46377225Y-76967699D01*
X46404022Y-76971871D01*
X46430903Y-76976911D01*
X46443900Y-76979785D01*
X46463217Y-76983991D01*
X46490363Y-76989287D01*
X46520624Y-76994770D01*
X46532800Y-76996855D01*
X46565831Y-77002565D01*
X46600434Y-77008809D01*
X46630463Y-77014470D01*
X46637575Y-77015871D01*
X46700584Y-77028184D01*
X46751629Y-77037542D01*
X46791082Y-77044013D01*
X46796325Y-77044782D01*
X46824061Y-77049261D01*
X46860315Y-77055807D01*
X46901227Y-77063655D01*
X46942933Y-77072038D01*
X46981574Y-77080192D01*
X47013286Y-77087351D01*
X47022720Y-77089652D01*
X47042789Y-77096997D01*
X47059973Y-77106889D01*
X47060820Y-77107556D01*
X47075725Y-77119622D01*
X47077491Y-77525502D01*
X47077919Y-77610512D01*
X47078315Y-77683721D01*
X47078537Y-77746027D01*
X47078446Y-77798328D01*
X47077899Y-77841523D01*
X47076755Y-77876511D01*
X47074875Y-77904189D01*
X47072115Y-77925456D01*
X47068337Y-77941210D01*
X47063397Y-77952350D01*
X47057157Y-77959773D01*
X47049473Y-77964379D01*
X47040205Y-77967065D01*
X47029213Y-77968730D01*
X47016355Y-77970273D01*
X47007454Y-77971550D01*
X46977013Y-77976861D01*
X46944653Y-77983143D01*
X46922019Y-77988001D01*
X46898408Y-77992840D01*
X46877534Y-77996124D01*
X46866361Y-77997050D01*
X46851221Y-77998585D01*
X46829525Y-78002537D01*
X46813691Y-78006162D01*
X46788733Y-78011970D01*
X46757809Y-78018560D01*
X46727466Y-78024539D01*
X46726475Y-78024724D01*
X46695933Y-78030469D01*
X46664226Y-78036535D01*
X46638097Y-78041631D01*
X46637575Y-78041735D01*
X46610095Y-78046960D01*
X46581671Y-78052017D01*
X46567725Y-78054329D01*
X46544905Y-78058195D01*
X46516023Y-78063425D01*
X46488350Y-78068690D01*
X46457456Y-78074644D01*
X46424378Y-78080871D01*
X46399450Y-78085445D01*
X46352217Y-78094486D01*
X46316222Y-78102697D01*
X46290062Y-78110491D01*
X46272337Y-78118281D01*
X46262228Y-78125845D01*
X46249118Y-78144763D01*
X46237482Y-78170092D01*
X46229763Y-78195788D01*
X46228000Y-78210511D01*
X46225001Y-78228641D01*
X46219294Y-78243720D01*
X46212775Y-78259049D01*
X46204998Y-78281098D01*
X46199549Y-78298675D01*
X46172841Y-78379227D01*
X46138644Y-78463386D01*
X46131922Y-78478347D01*
X46122780Y-78499217D01*
X46116240Y-78515703D01*
X46113700Y-78524278D01*
X46113700Y-78524324D01*
X46110951Y-78531673D01*
X46103320Y-78548394D01*
X46091727Y-78572564D01*
X46077094Y-78602257D01*
X46062087Y-78632110D01*
X46043443Y-78669204D01*
X46029986Y-78697064D01*
X46020970Y-78717682D01*
X46015648Y-78733051D01*
X46013272Y-78745166D01*
X46013095Y-78756020D01*
X46013584Y-78761476D01*
X46015201Y-78770098D01*
X46018622Y-78780238D01*
X46024472Y-78792897D01*
X46033379Y-78809078D01*
X46045969Y-78829782D01*
X46062867Y-78856010D01*
X46084702Y-78888766D01*
X46112098Y-78929050D01*
X46145683Y-78977864D01*
X46178827Y-79025750D01*
X46230962Y-79100998D01*
X46276252Y-79166509D01*
X46315140Y-79222943D01*
X46348068Y-79270966D01*
X46375479Y-79311238D01*
X46397814Y-79344424D01*
X46415516Y-79371186D01*
X46429029Y-79392187D01*
X46438793Y-79408090D01*
X46445252Y-79419558D01*
X46448848Y-79427254D01*
X46450023Y-79431840D01*
X46450024Y-79432135D01*
X46446891Y-79444832D01*
X46441722Y-79456227D01*
X46435876Y-79463231D01*
X46421970Y-79478209D01*
X46400962Y-79500197D01*
X46373814Y-79528229D01*
X46341483Y-79561342D01*
X46304931Y-79598570D01*
X46265117Y-79638948D01*
X46223000Y-79681511D01*
X46179540Y-79725294D01*
X46135698Y-79769333D01*
X46092432Y-79812661D01*
X46050702Y-79854314D01*
X46011468Y-79893328D01*
X45975690Y-79928737D01*
X45944328Y-79959576D01*
X45918340Y-79984880D01*
X45898688Y-80003684D01*
X45886330Y-80015024D01*
X45884186Y-80016828D01*
X45874306Y-80024740D01*
X45865689Y-80030552D01*
X45857058Y-80033715D01*
X45847137Y-80033679D01*
X45834647Y-80029893D01*
X45818313Y-80021810D01*
X45796856Y-80008878D01*
X45769001Y-79990548D01*
X45733469Y-79966271D01*
X45688984Y-79935497D01*
X45678725Y-79928392D01*
X45649065Y-79907924D01*
X45616135Y-79885299D01*
X45586085Y-79864742D01*
X45580300Y-79860799D01*
X45559268Y-79846482D01*
X45530504Y-79826905D01*
X45496776Y-79803950D01*
X45460850Y-79779501D01*
X45431075Y-79759238D01*
X45395554Y-79735034D01*
X45360033Y-79710771D01*
X45327244Y-79688320D01*
X45299922Y-79669553D01*
X45283136Y-79657963D01*
X45249277Y-79635100D01*
X45223455Y-79619251D01*
X45203828Y-79609446D01*
X45188559Y-79604713D01*
X45180771Y-79603905D01*
X45168477Y-79606710D01*
X45148666Y-79614470D01*
X45124799Y-79625758D01*
X45114096Y-79631371D01*
X45085244Y-79646992D01*
X45055066Y-79663344D01*
X45029196Y-79677375D01*
X45024675Y-79679829D01*
X44980122Y-79703756D01*
X44944976Y-79721930D01*
X44917685Y-79735021D01*
X44896697Y-79743696D01*
X44880462Y-79748623D01*
X44867428Y-79750472D01*
X44860811Y-79750402D01*
X44857966Y-79750112D01*
X44855196Y-79749097D01*
X44852144Y-79746549D01*
X44848449Y-79741661D01*
X44843753Y-79733623D01*
X44837696Y-79721629D01*
X44829918Y-79704870D01*
X44820062Y-79682537D01*
X44807766Y-79653824D01*
X44792673Y-79617921D01*
X44774423Y-79574020D01*
X44752656Y-79521315D01*
X44727014Y-79458996D01*
X44697137Y-79386256D01*
X44675572Y-79333725D01*
X44657717Y-79290255D01*
X44641230Y-79250162D01*
X44626785Y-79215086D01*
X44615058Y-79186667D01*
X44606727Y-79166543D01*
X44602467Y-79156356D01*
X44602281Y-79155925D01*
X44597561Y-79144649D01*
X44589474Y-79124929D01*
X44579385Y-79100105D01*
X44573715Y-79086075D01*
X44562478Y-79058399D01*
X44551872Y-79032605D01*
X44543560Y-79012725D01*
X44540975Y-79006700D01*
X44526321Y-78972746D01*
X44514505Y-78944444D01*
X44503814Y-78917800D01*
X44495201Y-78896439D01*
X44484214Y-78869794D01*
X44475054Y-78847950D01*
X44465734Y-78825773D01*
X44453213Y-78795758D01*
X44439120Y-78761815D01*
X44425080Y-78727851D01*
X44424853Y-78727300D01*
X44412315Y-78696899D01*
X44401162Y-78669874D01*
X44392475Y-78648842D01*
X44387334Y-78636423D01*
X44386836Y-78635225D01*
X44382086Y-78623620D01*
X44374090Y-78603888D01*
X44364331Y-78579689D01*
X44361128Y-78571725D01*
X44349471Y-78543127D01*
X44335065Y-78508376D01*
X44320200Y-78472976D01*
X44312805Y-78455566D01*
X44301447Y-78427624D01*
X44292316Y-78402610D01*
X44286479Y-78383614D01*
X44284900Y-78374822D01*
X44287173Y-78365852D01*
X44295147Y-78355740D01*
X44310554Y-78342804D01*
X44335126Y-78325361D01*
X44337287Y-78323891D01*
X44383764Y-78292256D01*
X44421372Y-78266317D01*
X44451811Y-78244736D01*
X44476784Y-78226173D01*
X44497993Y-78209286D01*
X44517141Y-78192738D01*
X44535928Y-78175187D01*
X44556057Y-78155293D01*
X44571991Y-78139121D01*
X44632147Y-78070395D01*
X44685307Y-77994889D01*
X44730119Y-77915007D01*
X44765234Y-77833152D01*
X44789109Y-77752575D01*
X44799483Y-77705783D01*
X44807110Y-77668332D01*
X44812395Y-77637260D01*
X44815743Y-77609605D01*
X44817559Y-77582406D01*
X44818248Y-77552700D01*
X44818300Y-77539144D01*
X44812207Y-77435191D01*
X44794230Y-77333227D01*
X44764823Y-77234532D01*
X44724437Y-77140381D01*
X44673526Y-77052054D01*
X44620142Y-76979874D01*
X44584617Y-76938425D01*
X44551803Y-76903861D01*
X44518388Y-76873194D01*
X44481061Y-76843438D01*
X44436511Y-76811604D01*
X44424600Y-76803475D01*
X44402031Y-76789123D01*
X44375031Y-76773389D01*
X44346185Y-76757606D01*
X44318078Y-76743111D01*
X44293294Y-76731241D01*
X44274418Y-76723331D01*
X44264449Y-76720700D01*
X44252073Y-76716537D01*
X44249317Y-76714327D01*
X44240096Y-76709391D01*
X44222658Y-76703073D01*
X44205184Y-76697952D01*
X44179027Y-76691005D01*
X44147669Y-76682651D01*
X44119800Y-76675206D01*
X44088895Y-76669292D01*
X44048413Y-76664989D01*
X44001373Y-76662297D01*
X43950797Y-76661216D01*
X43899703Y-76661745D01*
X43851112Y-76663886D01*
X43808044Y-76667637D01*
X43773519Y-76672999D01*
X43764200Y-76675206D01*
X43734388Y-76683169D01*
X43703146Y-76691491D01*
X43678815Y-76697952D01*
X43657737Y-76704259D01*
X43641488Y-76710440D01*
X43634682Y-76714327D01*
X43622985Y-76720302D01*
X43619550Y-76720699D01*
X43604381Y-76724286D01*
X43580957Y-76734278D01*
X43551231Y-76749528D01*
X43517156Y-76768887D01*
X43480687Y-76791205D01*
X43443775Y-76815334D01*
X43408375Y-76840126D01*
X43380025Y-76861577D01*
X43319108Y-76916512D01*
X43261636Y-76981559D01*
X43209383Y-77054238D01*
X43164124Y-77132072D01*
X43127633Y-77212582D01*
X43126427Y-77215702D01*
X43093464Y-77318246D01*
X43073188Y-77420972D01*
X43065591Y-77523687D01*
X43070666Y-77626197D01*
X43088405Y-77728308D01*
X43118799Y-77829827D01*
X43154104Y-77914500D01*
X43195308Y-77989909D01*
X43246399Y-78063529D01*
X43304722Y-78131583D01*
X43312008Y-78139121D01*
X43336916Y-78164171D01*
X43359477Y-78185765D01*
X43381659Y-78205463D01*
X43405427Y-78224828D01*
X43432749Y-78245421D01*
X43465591Y-78268802D01*
X43505919Y-78296534D01*
X43535600Y-78316634D01*
X43563865Y-78336309D01*
X43582603Y-78351404D01*
X43593202Y-78363828D01*
X43597052Y-78375489D01*
X43595543Y-78388294D01*
X43593207Y-78395742D01*
X43586642Y-78413375D01*
X43576642Y-78439014D01*
X43564695Y-78468962D01*
X43552289Y-78499517D01*
X43540911Y-78526981D01*
X43532637Y-78546325D01*
X43524419Y-78566195D01*
X43516342Y-78587416D01*
X43516276Y-78587600D01*
X43508308Y-78608768D01*
X43500268Y-78628700D01*
X43500194Y-78628875D01*
X43493000Y-78645960D01*
X43481975Y-78672356D01*
X43468125Y-78705632D01*
X43452461Y-78743357D01*
X43435991Y-78783101D01*
X43419724Y-78822432D01*
X43404667Y-78858921D01*
X43397421Y-78876525D01*
X43381939Y-78914144D01*
X43370208Y-78942544D01*
X43361171Y-78964256D01*
X43353770Y-78981816D01*
X43346948Y-78997756D01*
X43343081Y-79006700D01*
X43336115Y-79023150D01*
X43326266Y-79046880D01*
X43315400Y-79073391D01*
X43312824Y-79079725D01*
X43300884Y-79108700D01*
X43288386Y-79138332D01*
X43277790Y-79162796D01*
X43276611Y-79165450D01*
X43265208Y-79191994D01*
X43252983Y-79221945D01*
X43246534Y-79238475D01*
X43237279Y-79262157D01*
X43224717Y-79293421D01*
X43210390Y-79328521D01*
X43195837Y-79363713D01*
X43182600Y-79395251D01*
X43172218Y-79419390D01*
X43170787Y-79422625D01*
X43164646Y-79436898D01*
X43155308Y-79459157D01*
X43144354Y-79485618D01*
X43138936Y-79498825D01*
X43127684Y-79526118D01*
X43117189Y-79551190D01*
X43109071Y-79570185D01*
X43106507Y-79575984D01*
X43100392Y-79590602D01*
X43097487Y-79599728D01*
X43097450Y-79600196D01*
X43094963Y-79607819D01*
X43088540Y-79623131D01*
X43082102Y-79637337D01*
X43070556Y-79663153D01*
X43058288Y-79692120D01*
X43052607Y-79706187D01*
X43041599Y-79729092D01*
X43030168Y-79744420D01*
X43024746Y-79748347D01*
X43016390Y-79750415D01*
X43005238Y-79749453D01*
X42989854Y-79744882D01*
X42968797Y-79736122D01*
X42940630Y-79722594D01*
X42903914Y-79703719D01*
X42871971Y-79686808D01*
X42839444Y-79669468D01*
X42806792Y-79652077D01*
X42777758Y-79636628D01*
X42756090Y-79625116D01*
X42755676Y-79624896D01*
X42732865Y-79614124D01*
X42711870Y-79606466D01*
X42697425Y-79603600D01*
X42681444Y-79607863D01*
X42657100Y-79620342D01*
X42625299Y-79640569D01*
X42623274Y-79641950D01*
X42595231Y-79661055D01*
X42561076Y-79684203D01*
X42525256Y-79708384D01*
X42494200Y-79729262D01*
X42467451Y-79747312D01*
X42444627Y-79762933D01*
X42427745Y-79774727D01*
X42418820Y-79781298D01*
X42418000Y-79782038D01*
X42411184Y-79787507D01*
X42397518Y-79797032D01*
X42389425Y-79802390D01*
X42372347Y-79813738D01*
X42349046Y-79829517D01*
X42323709Y-79846885D01*
X42315513Y-79852552D01*
X42253558Y-79895400D01*
X42201170Y-79931411D01*
X42157558Y-79961099D01*
X42121931Y-79984977D01*
X42093499Y-80003557D01*
X42071470Y-80017354D01*
X42055054Y-80026879D01*
X42043461Y-80032647D01*
X42035900Y-80035171D01*
X42033799Y-80035387D01*
X42022157Y-80031490D01*
X42005458Y-80021421D01*
X41992524Y-80011587D01*
X41982883Y-80002776D01*
X41965205Y-79985816D01*
X41940381Y-79961589D01*
X41909301Y-79930976D01*
X41872856Y-79894862D01*
X41831938Y-79854127D01*
X41787436Y-79809654D01*
X41740242Y-79762326D01*
X41698862Y-79720700D01*
X41641076Y-79662381D01*
X41591764Y-79612365D01*
X41550355Y-79570042D01*
X41516277Y-79534801D01*
X41488959Y-79506033D01*
X41467830Y-79483126D01*
X41452318Y-79465470D01*
X41441851Y-79452454D01*
X41435857Y-79443468D01*
X41433766Y-79437902D01*
X41433750Y-79437510D01*
X41437267Y-79425094D01*
X41446750Y-79405608D01*
X41460593Y-79382180D01*
X41467799Y-79371209D01*
X41501052Y-79322196D01*
X41528504Y-79281740D01*
X41551387Y-79248038D01*
X41570934Y-79219289D01*
X41588378Y-79193689D01*
X41604951Y-79169437D01*
X41621886Y-79144729D01*
X41640416Y-79117763D01*
X41661773Y-79086737D01*
X41687191Y-79049849D01*
X41717902Y-79005295D01*
X41737499Y-78976866D01*
X41759313Y-78944910D01*
X41778407Y-78916345D01*
X41793678Y-78892872D01*
X41804023Y-78876189D01*
X41808339Y-78867996D01*
X41808400Y-78867644D01*
X41813069Y-78858861D01*
X41816337Y-78856203D01*
X41830140Y-78842882D01*
X41844982Y-78821781D01*
X41858341Y-78797309D01*
X41867696Y-78773875D01*
X41870388Y-78761710D01*
X41871038Y-78750699D01*
X41869882Y-78739480D01*
X41866171Y-78726055D01*
X41859160Y-78708425D01*
X41848100Y-78684593D01*
X41832245Y-78652562D01*
X41821912Y-78632110D01*
X41805330Y-78599091D01*
X41790960Y-78569864D01*
X41779722Y-78546354D01*
X41772538Y-78530484D01*
X41770300Y-78524324D01*
X41767824Y-78515881D01*
X41761329Y-78499479D01*
X41752213Y-78478646D01*
X41752077Y-78478347D01*
X41740588Y-78452612D01*
X41729909Y-78427305D01*
X41718388Y-78398384D01*
X41704374Y-78361808D01*
X41703311Y-78359000D01*
X41692014Y-78327594D01*
X41680488Y-78292949D01*
X41669896Y-78258820D01*
X41661401Y-78228957D01*
X41656166Y-78207115D01*
X41656067Y-78206600D01*
X41645656Y-78167053D01*
X41630578Y-78138058D01*
X41609202Y-78117834D01*
X41579897Y-78104601D01*
X41557689Y-78099251D01*
X41533378Y-78094699D01*
X41504221Y-78089275D01*
X41484550Y-78085635D01*
X41456024Y-78080292D01*
X41422801Y-78073953D01*
X41395650Y-78068690D01*
X41366977Y-78063239D01*
X41338195Y-78058037D01*
X41316275Y-78054329D01*
X41291276Y-78050092D01*
X41262224Y-78044786D01*
X41246425Y-78041735D01*
X41220521Y-78036679D01*
X41188870Y-78030621D01*
X41158218Y-78024853D01*
X41157525Y-78024724D01*
X41127324Y-78018793D01*
X41096308Y-78012200D01*
X41071023Y-78006340D01*
X41070308Y-78006162D01*
X41047399Y-78001115D01*
X41027125Y-77997806D01*
X41017638Y-77997049D01*
X41002795Y-77995637D01*
X40980955Y-77991976D01*
X40961980Y-77988001D01*
X40934037Y-77982069D01*
X40901444Y-77975845D01*
X40876545Y-77971550D01*
X40862469Y-77969637D01*
X40850345Y-77968154D01*
X40840033Y-77966202D01*
X40831391Y-77962884D01*
X40824279Y-77957301D01*
X40818556Y-77948554D01*
X40814079Y-77935746D01*
X40810709Y-77917979D01*
X40808305Y-77894352D01*
X40806724Y-77863970D01*
X40805827Y-77825932D01*
X40805472Y-77779341D01*
X40805518Y-77723298D01*
X40805824Y-77656905D01*
X40806249Y-77579264D01*
X40806508Y-77525502D01*
X40808275Y-77119622D01*
X40823179Y-77107556D01*
X40839832Y-77097645D01*
X40859991Y-77089989D01*
X40861279Y-77089652D01*
X40889345Y-77083072D01*
X40925807Y-77075206D01*
X40966803Y-77066820D01*
X41008472Y-77058678D01*
X41046952Y-77051548D01*
X41078381Y-77046193D01*
X41087675Y-77044782D01*
X41118014Y-77040007D01*
X41156847Y-77033151D01*
X41205616Y-77023951D01*
X41246425Y-77015979D01*
X41273321Y-77010894D01*
X41306979Y-77004852D01*
X41341619Y-76998881D01*
X41354375Y-76996756D01*
X41386150Y-76991222D01*
X41417634Y-76985221D01*
X41443846Y-76979723D01*
X41452800Y-76977619D01*
X41477885Y-76971991D01*
X41502623Y-76967399D01*
X41513125Y-76965878D01*
X41544188Y-76961137D01*
X41575757Y-76954622D01*
X41604388Y-76947204D01*
X41626638Y-76939759D01*
X41637596Y-76934321D01*
X41643451Y-76929659D01*
X41648663Y-76923501D01*
X41653995Y-76914074D01*
X41660212Y-76899605D01*
X41668078Y-76878321D01*
X41678357Y-76848448D01*
X41691353Y-76809600D01*
X41710713Y-76753710D01*
X41731024Y-76700126D01*
X41753439Y-76646174D01*
X41779114Y-76589179D01*
X41809204Y-76526470D01*
X41841564Y-76461852D01*
X41858928Y-76427086D01*
X41874084Y-76395562D01*
X41886131Y-76369255D01*
X41894166Y-76350138D01*
X41897288Y-76340186D01*
X41897300Y-76339914D01*
X41896382Y-76331594D01*
X41893228Y-76321240D01*
X41887238Y-76307876D01*
X41877810Y-76290522D01*
X41864342Y-76268202D01*
X41846235Y-76239937D01*
X41822887Y-76204750D01*
X41793697Y-76161663D01*
X41758065Y-76109698D01*
X41737139Y-76079350D01*
X41723428Y-76059426D01*
X41711687Y-76042251D01*
X41705150Y-76032577D01*
X41694957Y-76017861D01*
X41687219Y-76007177D01*
X41680949Y-75998264D01*
X41668690Y-75980439D01*
X41651547Y-75955325D01*
X41630624Y-75924543D01*
X41607027Y-75889716D01*
X41589275Y-75863450D01*
X41554282Y-75811669D01*
X41525584Y-75769325D01*
X41502412Y-75735299D01*
X41483994Y-75708474D01*
X41469563Y-75687731D01*
X41458347Y-75671954D01*
X41449578Y-75660023D01*
X41445467Y-75654631D01*
X41438077Y-75643804D01*
X41434327Y-75633532D01*
X41435006Y-75622434D01*
X41440902Y-75609128D01*
X41452803Y-75592234D01*
X41471497Y-75570370D01*
X41497772Y-75542155D01*
X41526912Y-75511882D01*
X41550583Y-75487648D01*
X41580533Y-75457277D01*
X41615570Y-75421954D01*
X41654505Y-75382863D01*
X41696144Y-75341189D01*
X41739298Y-75298118D01*
X41782775Y-75254834D01*
X41825383Y-75212522D01*
X41865931Y-75172366D01*
X41903229Y-75135552D01*
X41936085Y-75103264D01*
X41963307Y-75076687D01*
X41983705Y-75057006D01*
X41994155Y-75047163D01*
X42009868Y-75034349D01*
X42024367Y-75027541D01*
X42039879Y-75027123D01*
X42058629Y-75033484D01*
X42082840Y-75047009D01*
X42114738Y-75068084D01*
X42114778Y-75068112D01*
X42191761Y-75120786D01*
X42266802Y-75172057D01*
X42337914Y-75220571D01*
X42403112Y-75264972D01*
X42460411Y-75303908D01*
X42475150Y-75313904D01*
X42505250Y-75334401D01*
X42531594Y-75352517D01*
X42552416Y-75367022D01*
X42565952Y-75376689D01*
X42570400Y-75380173D01*
X42576926Y-75385249D01*
X42591826Y-75395652D01*
X42612783Y-75409855D01*
X42637480Y-75426328D01*
X42663601Y-75443543D01*
X42688828Y-75459971D01*
X42710846Y-75474082D01*
X42727338Y-75484350D01*
X42734848Y-75488692D01*
X42744333Y-75492110D01*
X42755826Y-75492693D01*
X42770845Y-75489933D01*
X42790908Y-75483325D01*
X42817533Y-75472362D01*
X42852237Y-75456538D01*
X42896539Y-75435345D01*
X42900600Y-75433374D01*
X42940363Y-75414102D01*
X42971145Y-75399328D01*
X42995377Y-75387984D01*
X43015490Y-75378999D01*
X43033916Y-75371301D01*
X43053085Y-75363821D01*
X43075431Y-75355488D01*
X43087925Y-75350898D01*
X43123919Y-75337750D01*
X43151512Y-75327830D01*
X43174202Y-75319926D01*
X43195487Y-75312824D01*
X43218863Y-75305311D01*
X43224450Y-75303540D01*
X43249321Y-75295341D01*
X43272450Y-75287164D01*
X43286577Y-75281691D01*
X43303096Y-75275724D01*
X43315492Y-75272928D01*
X43316279Y-75272900D01*
X43329097Y-75266809D01*
X43341491Y-75249562D01*
X43352618Y-75222695D01*
X43360823Y-75191697D01*
X43371472Y-75140184D01*
X43382269Y-75086013D01*
X43392498Y-75032894D01*
X43401448Y-74984539D01*
X43408403Y-74944657D01*
X43408727Y-74942700D01*
X43412963Y-74917989D01*
X43418383Y-74887644D01*
X43423455Y-74860150D01*
X43429245Y-74829224D01*
X43435394Y-74796117D01*
X43439975Y-74771250D01*
X43445218Y-74743554D01*
X43450812Y-74715441D01*
X43454247Y-74699050D01*
X43459266Y-74673768D01*
X43464321Y-74644980D01*
X43466309Y-74632375D01*
X43472200Y-74597255D01*
X43480803Y-74552817D01*
X43492349Y-74497894D01*
X43499716Y-74464249D01*
X43502267Y-74450901D01*
X43504184Y-74439419D01*
X43506375Y-74429663D01*
X43509752Y-74421493D01*
X43515223Y-74414772D01*
X43523698Y-74409359D01*
X43536087Y-74405115D01*
X43553299Y-74401902D01*
X43576245Y-74399580D01*
X43605834Y-74398009D01*
X43642976Y-74397052D01*
X43688581Y-74396568D01*
X43743557Y-74396419D01*
X43808816Y-74396466D01*
D12*
X91606000Y-65499857D02*
X91570286Y-65535571D01*
X91463143Y-65571286D01*
X91391714Y-65571286D01*
X91284571Y-65535571D01*
X91213143Y-65464143D01*
X91177428Y-65392714D01*
X91141714Y-65249857D01*
X91141714Y-65142714D01*
X91177428Y-64999857D01*
X91213143Y-64928429D01*
X91284571Y-64857000D01*
X91391714Y-64821286D01*
X91463143Y-64821286D01*
X91570286Y-64857000D01*
X91606000Y-64892714D01*
X92320286Y-65571286D02*
X91891714Y-65571286D01*
X92106000Y-65571286D02*
X92106000Y-64821286D01*
X92034571Y-64928429D01*
X91963143Y-64999857D01*
X91891714Y-65035571D01*
X106047000Y-77991857D02*
X106011286Y-78027571D01*
X105904143Y-78063286D01*
X105832714Y-78063286D01*
X105725571Y-78027571D01*
X105654143Y-77956143D01*
X105618428Y-77884714D01*
X105582714Y-77741857D01*
X105582714Y-77634714D01*
X105618428Y-77491857D01*
X105654143Y-77420429D01*
X105725571Y-77349000D01*
X105832714Y-77313286D01*
X105904143Y-77313286D01*
X106011286Y-77349000D01*
X106047000Y-77384714D01*
X106689857Y-77563286D02*
X106689857Y-78063286D01*
X106511286Y-77277571D02*
X106332714Y-77813286D01*
X106797000Y-77813286D01*
X95633000Y-81039857D02*
X95597286Y-81075571D01*
X95490143Y-81111286D01*
X95418714Y-81111286D01*
X95311571Y-81075571D01*
X95240143Y-81004143D01*
X95204428Y-80932714D01*
X95168714Y-80789857D01*
X95168714Y-80682714D01*
X95204428Y-80539857D01*
X95240143Y-80468429D01*
X95311571Y-80397000D01*
X95418714Y-80361286D01*
X95490143Y-80361286D01*
X95597286Y-80397000D01*
X95633000Y-80432714D01*
X96311571Y-80361286D02*
X95954428Y-80361286D01*
X95918714Y-80718429D01*
X95954428Y-80682714D01*
X96025857Y-80647000D01*
X96204428Y-80647000D01*
X96275857Y-80682714D01*
X96311571Y-80718429D01*
X96347286Y-80789857D01*
X96347286Y-80968429D01*
X96311571Y-81039857D01*
X96275857Y-81075571D01*
X96204428Y-81111286D01*
X96025857Y-81111286D01*
X95954428Y-81075571D01*
X95918714Y-81039857D01*
X103391857Y-80643000D02*
X103427571Y-80678714D01*
X103463286Y-80785857D01*
X103463286Y-80857286D01*
X103427571Y-80964429D01*
X103356143Y-81035857D01*
X103284714Y-81071572D01*
X103141857Y-81107286D01*
X103034714Y-81107286D01*
X102891857Y-81071572D01*
X102820429Y-81035857D01*
X102749000Y-80964429D01*
X102713286Y-80857286D01*
X102713286Y-80785857D01*
X102749000Y-80678714D01*
X102784714Y-80643000D01*
X102713286Y-80000143D02*
X102713286Y-80143000D01*
X102749000Y-80214429D01*
X102784714Y-80250143D01*
X102891857Y-80321572D01*
X103034714Y-80357286D01*
X103320429Y-80357286D01*
X103391857Y-80321572D01*
X103427571Y-80285857D01*
X103463286Y-80214429D01*
X103463286Y-80071572D01*
X103427571Y-80000143D01*
X103391857Y-79964429D01*
X103320429Y-79928714D01*
X103141857Y-79928714D01*
X103070429Y-79964429D01*
X103034714Y-80000143D01*
X102999000Y-80071572D01*
X102999000Y-80214429D01*
X103034714Y-80285857D01*
X103070429Y-80321572D01*
X103141857Y-80357286D01*
X100459000Y-81039857D02*
X100423286Y-81075571D01*
X100316143Y-81111286D01*
X100244714Y-81111286D01*
X100137571Y-81075571D01*
X100066143Y-81004143D01*
X100030428Y-80932714D01*
X99994714Y-80789857D01*
X99994714Y-80682714D01*
X100030428Y-80539857D01*
X100066143Y-80468429D01*
X100137571Y-80397000D01*
X100244714Y-80361286D01*
X100316143Y-80361286D01*
X100423286Y-80397000D01*
X100459000Y-80432714D01*
X100709000Y-80361286D02*
X101209000Y-80361286D01*
X100887571Y-81111286D01*
X91606000Y-68674857D02*
X91570286Y-68710571D01*
X91463143Y-68746286D01*
X91391714Y-68746286D01*
X91284571Y-68710571D01*
X91213143Y-68639143D01*
X91177428Y-68567714D01*
X91141714Y-68424857D01*
X91141714Y-68317714D01*
X91177428Y-68174857D01*
X91213143Y-68103429D01*
X91284571Y-68032000D01*
X91391714Y-67996286D01*
X91463143Y-67996286D01*
X91570286Y-68032000D01*
X91606000Y-68067714D01*
X92034571Y-68317714D02*
X91963143Y-68282000D01*
X91927428Y-68246286D01*
X91891714Y-68174857D01*
X91891714Y-68139143D01*
X91927428Y-68067714D01*
X91963143Y-68032000D01*
X92034571Y-67996286D01*
X92177428Y-67996286D01*
X92248857Y-68032000D01*
X92284571Y-68067714D01*
X92320286Y-68139143D01*
X92320286Y-68174857D01*
X92284571Y-68246286D01*
X92248857Y-68282000D01*
X92177428Y-68317714D01*
X92034571Y-68317714D01*
X91963143Y-68353429D01*
X91927428Y-68389143D01*
X91891714Y-68460571D01*
X91891714Y-68603429D01*
X91927428Y-68674857D01*
X91963143Y-68710571D01*
X92034571Y-68746286D01*
X92177428Y-68746286D01*
X92248857Y-68710571D01*
X92284571Y-68674857D01*
X92320286Y-68603429D01*
X92320286Y-68460571D01*
X92284571Y-68389143D01*
X92248857Y-68353429D01*
X92177428Y-68317714D01*
X59195857Y-68705000D02*
X59231571Y-68740714D01*
X59267286Y-68847857D01*
X59267286Y-68919286D01*
X59231571Y-69026429D01*
X59160143Y-69097857D01*
X59088714Y-69133572D01*
X58945857Y-69169286D01*
X58838714Y-69169286D01*
X58695857Y-69133572D01*
X58624429Y-69097857D01*
X58553000Y-69026429D01*
X58517286Y-68919286D01*
X58517286Y-68847857D01*
X58553000Y-68740714D01*
X58588714Y-68705000D01*
X59267286Y-68347857D02*
X59267286Y-68205000D01*
X59231571Y-68133572D01*
X59195857Y-68097857D01*
X59088714Y-68026429D01*
X58945857Y-67990714D01*
X58660143Y-67990714D01*
X58588714Y-68026429D01*
X58553000Y-68062143D01*
X58517286Y-68133572D01*
X58517286Y-68276429D01*
X58553000Y-68347857D01*
X58588714Y-68383572D01*
X58660143Y-68419286D01*
X58838714Y-68419286D01*
X58910143Y-68383572D01*
X58945857Y-68347857D01*
X58981571Y-68276429D01*
X58981571Y-68133572D01*
X58945857Y-68062143D01*
X58910143Y-68026429D01*
X58838714Y-67990714D01*
X111785857Y-80023857D02*
X111750143Y-80059571D01*
X111643000Y-80095286D01*
X111571571Y-80095286D01*
X111464428Y-80059571D01*
X111393000Y-79988143D01*
X111357285Y-79916714D01*
X111321571Y-79773857D01*
X111321571Y-79666714D01*
X111357285Y-79523857D01*
X111393000Y-79452429D01*
X111464428Y-79381000D01*
X111571571Y-79345286D01*
X111643000Y-79345286D01*
X111750143Y-79381000D01*
X111785857Y-79416714D01*
X112500143Y-80095286D02*
X112071571Y-80095286D01*
X112285857Y-80095286D02*
X112285857Y-79345286D01*
X112214428Y-79452429D01*
X112143000Y-79523857D01*
X112071571Y-79559571D01*
X113178714Y-79345286D02*
X112821571Y-79345286D01*
X112785857Y-79702429D01*
X112821571Y-79666714D01*
X112893000Y-79631000D01*
X113071571Y-79631000D01*
X113143000Y-79666714D01*
X113178714Y-79702429D01*
X113214429Y-79773857D01*
X113214429Y-79952429D01*
X113178714Y-80023857D01*
X113143000Y-80059571D01*
X113071571Y-80095286D01*
X112893000Y-80095286D01*
X112821571Y-80059571D01*
X112785857Y-80023857D01*
X67335857Y-79515857D02*
X67300143Y-79551571D01*
X67193000Y-79587286D01*
X67121571Y-79587286D01*
X67014428Y-79551571D01*
X66943000Y-79480143D01*
X66907285Y-79408714D01*
X66871571Y-79265857D01*
X66871571Y-79158714D01*
X66907285Y-79015857D01*
X66943000Y-78944429D01*
X67014428Y-78873000D01*
X67121571Y-78837286D01*
X67193000Y-78837286D01*
X67300143Y-78873000D01*
X67335857Y-78908714D01*
X68050143Y-79587286D02*
X67621571Y-79587286D01*
X67835857Y-79587286D02*
X67835857Y-78837286D01*
X67764428Y-78944429D01*
X67693000Y-79015857D01*
X67621571Y-79051571D01*
X68478714Y-79158714D02*
X68407286Y-79123000D01*
X68371571Y-79087286D01*
X68335857Y-79015857D01*
X68335857Y-78980143D01*
X68371571Y-78908714D01*
X68407286Y-78873000D01*
X68478714Y-78837286D01*
X68621571Y-78837286D01*
X68693000Y-78873000D01*
X68728714Y-78908714D01*
X68764429Y-78980143D01*
X68764429Y-79015857D01*
X68728714Y-79087286D01*
X68693000Y-79123000D01*
X68621571Y-79158714D01*
X68478714Y-79158714D01*
X68407286Y-79194429D01*
X68371571Y-79230143D01*
X68335857Y-79301571D01*
X68335857Y-79444429D01*
X68371571Y-79515857D01*
X68407286Y-79551571D01*
X68478714Y-79587286D01*
X68621571Y-79587286D01*
X68693000Y-79551571D01*
X68728714Y-79515857D01*
X68764429Y-79444429D01*
X68764429Y-79301571D01*
X68728714Y-79230143D01*
X68693000Y-79194429D01*
X68621571Y-79158714D01*
X76479857Y-81547857D02*
X76444143Y-81583571D01*
X76337000Y-81619286D01*
X76265571Y-81619286D01*
X76158428Y-81583571D01*
X76087000Y-81512143D01*
X76051285Y-81440714D01*
X76015571Y-81297857D01*
X76015571Y-81190714D01*
X76051285Y-81047857D01*
X76087000Y-80976429D01*
X76158428Y-80905000D01*
X76265571Y-80869286D01*
X76337000Y-80869286D01*
X76444143Y-80905000D01*
X76479857Y-80940714D01*
X76765571Y-80940714D02*
X76801285Y-80905000D01*
X76872714Y-80869286D01*
X77051285Y-80869286D01*
X77122714Y-80905000D01*
X77158428Y-80940714D01*
X77194143Y-81012143D01*
X77194143Y-81083571D01*
X77158428Y-81190714D01*
X76729857Y-81619286D01*
X77194143Y-81619286D01*
X77658429Y-80869286D02*
X77729857Y-80869286D01*
X77801286Y-80905000D01*
X77837000Y-80940714D01*
X77872714Y-81012143D01*
X77908429Y-81155000D01*
X77908429Y-81333571D01*
X77872714Y-81476429D01*
X77837000Y-81547857D01*
X77801286Y-81583571D01*
X77729857Y-81619286D01*
X77658429Y-81619286D01*
X77587000Y-81583571D01*
X77551286Y-81547857D01*
X77515571Y-81476429D01*
X77479857Y-81333571D01*
X77479857Y-81155000D01*
X77515571Y-81012143D01*
X77551286Y-80940714D01*
X77587000Y-80905000D01*
X77658429Y-80869286D01*
X72923857Y-78499857D02*
X72888143Y-78535571D01*
X72781000Y-78571286D01*
X72709571Y-78571286D01*
X72602428Y-78535571D01*
X72531000Y-78464143D01*
X72495285Y-78392714D01*
X72459571Y-78249857D01*
X72459571Y-78142714D01*
X72495285Y-77999857D01*
X72531000Y-77928429D01*
X72602428Y-77857000D01*
X72709571Y-77821286D01*
X72781000Y-77821286D01*
X72888143Y-77857000D01*
X72923857Y-77892714D01*
X73209571Y-77892714D02*
X73245285Y-77857000D01*
X73316714Y-77821286D01*
X73495285Y-77821286D01*
X73566714Y-77857000D01*
X73602428Y-77892714D01*
X73638143Y-77964143D01*
X73638143Y-78035571D01*
X73602428Y-78142714D01*
X73173857Y-78571286D01*
X73638143Y-78571286D01*
X73923857Y-77892714D02*
X73959571Y-77857000D01*
X74031000Y-77821286D01*
X74209571Y-77821286D01*
X74281000Y-77857000D01*
X74316714Y-77892714D01*
X74352429Y-77964143D01*
X74352429Y-78035571D01*
X74316714Y-78142714D01*
X73888143Y-78571286D01*
X74352429Y-78571286D01*
X81559857Y-76467857D02*
X81524143Y-76503571D01*
X81417000Y-76539286D01*
X81345571Y-76539286D01*
X81238428Y-76503571D01*
X81167000Y-76432143D01*
X81131285Y-76360714D01*
X81095571Y-76217857D01*
X81095571Y-76110714D01*
X81131285Y-75967857D01*
X81167000Y-75896429D01*
X81238428Y-75825000D01*
X81345571Y-75789286D01*
X81417000Y-75789286D01*
X81524143Y-75825000D01*
X81559857Y-75860714D01*
X81845571Y-75860714D02*
X81881285Y-75825000D01*
X81952714Y-75789286D01*
X82131285Y-75789286D01*
X82202714Y-75825000D01*
X82238428Y-75860714D01*
X82274143Y-75932143D01*
X82274143Y-76003571D01*
X82238428Y-76110714D01*
X81809857Y-76539286D01*
X82274143Y-76539286D01*
X82524143Y-75789286D02*
X82988429Y-75789286D01*
X82738429Y-76075000D01*
X82845571Y-76075000D01*
X82917000Y-76110714D01*
X82952714Y-76146429D01*
X82988429Y-76217857D01*
X82988429Y-76396429D01*
X82952714Y-76467857D01*
X82917000Y-76503571D01*
X82845571Y-76539286D01*
X82631286Y-76539286D01*
X82559857Y-76503571D01*
X82524143Y-76467857D01*
X43701857Y-66522143D02*
X43737571Y-66557857D01*
X43773286Y-66665000D01*
X43773286Y-66736429D01*
X43737571Y-66843572D01*
X43666143Y-66915000D01*
X43594714Y-66950715D01*
X43451857Y-66986429D01*
X43344714Y-66986429D01*
X43201857Y-66950715D01*
X43130429Y-66915000D01*
X43059000Y-66843572D01*
X43023286Y-66736429D01*
X43023286Y-66665000D01*
X43059000Y-66557857D01*
X43094714Y-66522143D01*
X43094714Y-66236429D02*
X43059000Y-66200715D01*
X43023286Y-66129286D01*
X43023286Y-65950715D01*
X43059000Y-65879286D01*
X43094714Y-65843572D01*
X43166143Y-65807857D01*
X43237571Y-65807857D01*
X43344714Y-65843572D01*
X43773286Y-66272143D01*
X43773286Y-65807857D01*
X43273286Y-65165000D02*
X43773286Y-65165000D01*
X42987571Y-65343571D02*
X43523286Y-65522143D01*
X43523286Y-65057857D01*
X46507857Y-68911357D02*
X46472143Y-68947071D01*
X46365000Y-68982786D01*
X46293571Y-68982786D01*
X46186428Y-68947071D01*
X46115000Y-68875643D01*
X46079285Y-68804214D01*
X46043571Y-68661357D01*
X46043571Y-68554214D01*
X46079285Y-68411357D01*
X46115000Y-68339929D01*
X46186428Y-68268500D01*
X46293571Y-68232786D01*
X46365000Y-68232786D01*
X46472143Y-68268500D01*
X46507857Y-68304214D01*
X46793571Y-68304214D02*
X46829285Y-68268500D01*
X46900714Y-68232786D01*
X47079285Y-68232786D01*
X47150714Y-68268500D01*
X47186428Y-68304214D01*
X47222143Y-68375643D01*
X47222143Y-68447071D01*
X47186428Y-68554214D01*
X46757857Y-68982786D01*
X47222143Y-68982786D01*
X47900714Y-68232786D02*
X47543571Y-68232786D01*
X47507857Y-68589929D01*
X47543571Y-68554214D01*
X47615000Y-68518500D01*
X47793571Y-68518500D01*
X47865000Y-68554214D01*
X47900714Y-68589929D01*
X47936429Y-68661357D01*
X47936429Y-68839929D01*
X47900714Y-68911357D01*
X47865000Y-68947071D01*
X47793571Y-68982786D01*
X47615000Y-68982786D01*
X47543571Y-68947071D01*
X47507857Y-68911357D01*
X70383857Y-79769857D02*
X70348143Y-79805571D01*
X70241000Y-79841286D01*
X70169571Y-79841286D01*
X70062428Y-79805571D01*
X69991000Y-79734143D01*
X69955285Y-79662714D01*
X69919571Y-79519857D01*
X69919571Y-79412714D01*
X69955285Y-79269857D01*
X69991000Y-79198429D01*
X70062428Y-79127000D01*
X70169571Y-79091286D01*
X70241000Y-79091286D01*
X70348143Y-79127000D01*
X70383857Y-79162714D01*
X70669571Y-79162714D02*
X70705285Y-79127000D01*
X70776714Y-79091286D01*
X70955285Y-79091286D01*
X71026714Y-79127000D01*
X71062428Y-79162714D01*
X71098143Y-79234143D01*
X71098143Y-79305571D01*
X71062428Y-79412714D01*
X70633857Y-79841286D01*
X71098143Y-79841286D01*
X71741000Y-79091286D02*
X71598143Y-79091286D01*
X71526714Y-79127000D01*
X71491000Y-79162714D01*
X71419571Y-79269857D01*
X71383857Y-79412714D01*
X71383857Y-79698429D01*
X71419571Y-79769857D01*
X71455286Y-79805571D01*
X71526714Y-79841286D01*
X71669571Y-79841286D01*
X71741000Y-79805571D01*
X71776714Y-79769857D01*
X71812429Y-79698429D01*
X71812429Y-79519857D01*
X71776714Y-79448429D01*
X71741000Y-79412714D01*
X71669571Y-79377000D01*
X71526714Y-79377000D01*
X71455286Y-79412714D01*
X71419571Y-79448429D01*
X71383857Y-79519857D01*
X67069857Y-61950143D02*
X67105571Y-61985857D01*
X67141286Y-62093000D01*
X67141286Y-62164429D01*
X67105571Y-62271572D01*
X67034143Y-62343000D01*
X66962714Y-62378715D01*
X66819857Y-62414429D01*
X66712714Y-62414429D01*
X66569857Y-62378715D01*
X66498429Y-62343000D01*
X66427000Y-62271572D01*
X66391286Y-62164429D01*
X66391286Y-62093000D01*
X66427000Y-61985857D01*
X66462714Y-61950143D01*
X66462714Y-61664429D02*
X66427000Y-61628715D01*
X66391286Y-61557286D01*
X66391286Y-61378715D01*
X66427000Y-61307286D01*
X66462714Y-61271572D01*
X66534143Y-61235857D01*
X66605571Y-61235857D01*
X66712714Y-61271572D01*
X67141286Y-61700143D01*
X67141286Y-61235857D01*
X66391286Y-60985857D02*
X66391286Y-60485857D01*
X67141286Y-60807286D01*
X78257857Y-59957857D02*
X78222143Y-59993571D01*
X78115000Y-60029286D01*
X78043571Y-60029286D01*
X77936428Y-59993571D01*
X77865000Y-59922143D01*
X77829285Y-59850714D01*
X77793571Y-59707857D01*
X77793571Y-59600714D01*
X77829285Y-59457857D01*
X77865000Y-59386429D01*
X77936428Y-59315000D01*
X78043571Y-59279286D01*
X78115000Y-59279286D01*
X78222143Y-59315000D01*
X78257857Y-59350714D01*
X78507857Y-59279286D02*
X78972143Y-59279286D01*
X78722143Y-59565000D01*
X78829285Y-59565000D01*
X78900714Y-59600714D01*
X78936428Y-59636429D01*
X78972143Y-59707857D01*
X78972143Y-59886429D01*
X78936428Y-59957857D01*
X78900714Y-59993571D01*
X78829285Y-60029286D01*
X78615000Y-60029286D01*
X78543571Y-59993571D01*
X78507857Y-59957857D01*
X79615000Y-59529286D02*
X79615000Y-60029286D01*
X79436429Y-59243571D02*
X79257857Y-59779286D01*
X79722143Y-59779286D01*
X81559857Y-59703857D02*
X81524143Y-59739571D01*
X81417000Y-59775286D01*
X81345571Y-59775286D01*
X81238428Y-59739571D01*
X81167000Y-59668143D01*
X81131285Y-59596714D01*
X81095571Y-59453857D01*
X81095571Y-59346714D01*
X81131285Y-59203857D01*
X81167000Y-59132429D01*
X81238428Y-59061000D01*
X81345571Y-59025286D01*
X81417000Y-59025286D01*
X81524143Y-59061000D01*
X81559857Y-59096714D01*
X81809857Y-59025286D02*
X82274143Y-59025286D01*
X82024143Y-59311000D01*
X82131285Y-59311000D01*
X82202714Y-59346714D01*
X82238428Y-59382429D01*
X82274143Y-59453857D01*
X82274143Y-59632429D01*
X82238428Y-59703857D01*
X82202714Y-59739571D01*
X82131285Y-59775286D01*
X81917000Y-59775286D01*
X81845571Y-59739571D01*
X81809857Y-59703857D01*
X82917000Y-59025286D02*
X82774143Y-59025286D01*
X82702714Y-59061000D01*
X82667000Y-59096714D01*
X82595571Y-59203857D01*
X82559857Y-59346714D01*
X82559857Y-59632429D01*
X82595571Y-59703857D01*
X82631286Y-59739571D01*
X82702714Y-59775286D01*
X82845571Y-59775286D01*
X82917000Y-59739571D01*
X82952714Y-59703857D01*
X82988429Y-59632429D01*
X82988429Y-59453857D01*
X82952714Y-59382429D01*
X82917000Y-59346714D01*
X82845571Y-59311000D01*
X82702714Y-59311000D01*
X82631286Y-59346714D01*
X82595571Y-59382429D01*
X82559857Y-59453857D01*
X110007857Y-71133857D02*
X109972143Y-71169571D01*
X109865000Y-71205286D01*
X109793571Y-71205286D01*
X109686428Y-71169571D01*
X109615000Y-71098143D01*
X109579285Y-71026714D01*
X109543571Y-70883857D01*
X109543571Y-70776714D01*
X109579285Y-70633857D01*
X109615000Y-70562429D01*
X109686428Y-70491000D01*
X109793571Y-70455286D01*
X109865000Y-70455286D01*
X109972143Y-70491000D01*
X110007857Y-70526714D01*
X110257857Y-70455286D02*
X110722143Y-70455286D01*
X110472143Y-70741000D01*
X110579285Y-70741000D01*
X110650714Y-70776714D01*
X110686428Y-70812429D01*
X110722143Y-70883857D01*
X110722143Y-71062429D01*
X110686428Y-71133857D01*
X110650714Y-71169571D01*
X110579285Y-71205286D01*
X110365000Y-71205286D01*
X110293571Y-71169571D01*
X110257857Y-71133857D01*
X111150714Y-70776714D02*
X111079286Y-70741000D01*
X111043571Y-70705286D01*
X111007857Y-70633857D01*
X111007857Y-70598143D01*
X111043571Y-70526714D01*
X111079286Y-70491000D01*
X111150714Y-70455286D01*
X111293571Y-70455286D01*
X111365000Y-70491000D01*
X111400714Y-70526714D01*
X111436429Y-70598143D01*
X111436429Y-70633857D01*
X111400714Y-70705286D01*
X111365000Y-70741000D01*
X111293571Y-70776714D01*
X111150714Y-70776714D01*
X111079286Y-70812429D01*
X111043571Y-70848143D01*
X111007857Y-70919571D01*
X111007857Y-71062429D01*
X111043571Y-71133857D01*
X111079286Y-71169571D01*
X111150714Y-71205286D01*
X111293571Y-71205286D01*
X111365000Y-71169571D01*
X111400714Y-71133857D01*
X111436429Y-71062429D01*
X111436429Y-70919571D01*
X111400714Y-70848143D01*
X111365000Y-70812429D01*
X111293571Y-70776714D01*
X59195857Y-66014143D02*
X59231571Y-66049857D01*
X59267286Y-66157000D01*
X59267286Y-66228429D01*
X59231571Y-66335572D01*
X59160143Y-66407000D01*
X59088714Y-66442715D01*
X58945857Y-66478429D01*
X58838714Y-66478429D01*
X58695857Y-66442715D01*
X58624429Y-66407000D01*
X58553000Y-66335572D01*
X58517286Y-66228429D01*
X58517286Y-66157000D01*
X58553000Y-66049857D01*
X58588714Y-66014143D01*
X58767286Y-65371286D02*
X59267286Y-65371286D01*
X58481571Y-65549857D02*
X59017286Y-65728429D01*
X59017286Y-65264143D01*
X58517286Y-64835571D02*
X58517286Y-64764143D01*
X58553000Y-64692714D01*
X58588714Y-64657000D01*
X58660143Y-64621286D01*
X58803000Y-64585571D01*
X58981571Y-64585571D01*
X59124429Y-64621286D01*
X59195857Y-64657000D01*
X59231571Y-64692714D01*
X59267286Y-64764143D01*
X59267286Y-64835571D01*
X59231571Y-64907000D01*
X59195857Y-64942714D01*
X59124429Y-64978429D01*
X58981571Y-65014143D01*
X58803000Y-65014143D01*
X58660143Y-64978429D01*
X58588714Y-64942714D01*
X58553000Y-64907000D01*
X58517286Y-64835571D01*
X105181857Y-63767857D02*
X105146143Y-63803571D01*
X105039000Y-63839286D01*
X104967571Y-63839286D01*
X104860428Y-63803571D01*
X104789000Y-63732143D01*
X104753285Y-63660714D01*
X104717571Y-63517857D01*
X104717571Y-63410714D01*
X104753285Y-63267857D01*
X104789000Y-63196429D01*
X104860428Y-63125000D01*
X104967571Y-63089286D01*
X105039000Y-63089286D01*
X105146143Y-63125000D01*
X105181857Y-63160714D01*
X105824714Y-63339286D02*
X105824714Y-63839286D01*
X105646143Y-63053571D02*
X105467571Y-63589286D01*
X105931857Y-63589286D01*
X106610429Y-63839286D02*
X106181857Y-63839286D01*
X106396143Y-63839286D02*
X106396143Y-63089286D01*
X106324714Y-63196429D01*
X106253286Y-63267857D01*
X106181857Y-63303571D01*
X43967857Y-39383857D02*
X43932143Y-39419571D01*
X43825000Y-39455286D01*
X43753571Y-39455286D01*
X43646428Y-39419571D01*
X43575000Y-39348143D01*
X43539285Y-39276714D01*
X43503571Y-39133857D01*
X43503571Y-39026714D01*
X43539285Y-38883857D01*
X43575000Y-38812429D01*
X43646428Y-38741000D01*
X43753571Y-38705286D01*
X43825000Y-38705286D01*
X43932143Y-38741000D01*
X43967857Y-38776714D01*
X44610714Y-38955286D02*
X44610714Y-39455286D01*
X44432143Y-38669571D02*
X44253571Y-39205286D01*
X44717857Y-39205286D01*
X44967857Y-38776714D02*
X45003571Y-38741000D01*
X45075000Y-38705286D01*
X45253571Y-38705286D01*
X45325000Y-38741000D01*
X45360714Y-38776714D01*
X45396429Y-38848143D01*
X45396429Y-38919571D01*
X45360714Y-39026714D01*
X44932143Y-39455286D01*
X45396429Y-39455286D01*
X68097857Y-34557857D02*
X68062143Y-34593571D01*
X67955000Y-34629286D01*
X67883571Y-34629286D01*
X67776428Y-34593571D01*
X67705000Y-34522143D01*
X67669285Y-34450714D01*
X67633571Y-34307857D01*
X67633571Y-34200714D01*
X67669285Y-34057857D01*
X67705000Y-33986429D01*
X67776428Y-33915000D01*
X67883571Y-33879286D01*
X67955000Y-33879286D01*
X68062143Y-33915000D01*
X68097857Y-33950714D01*
X68740714Y-34129286D02*
X68740714Y-34629286D01*
X68562143Y-33843571D02*
X68383571Y-34379286D01*
X68847857Y-34379286D01*
X69455000Y-33879286D02*
X69312143Y-33879286D01*
X69240714Y-33915000D01*
X69205000Y-33950714D01*
X69133571Y-34057857D01*
X69097857Y-34200714D01*
X69097857Y-34486429D01*
X69133571Y-34557857D01*
X69169286Y-34593571D01*
X69240714Y-34629286D01*
X69383571Y-34629286D01*
X69455000Y-34593571D01*
X69490714Y-34557857D01*
X69526429Y-34486429D01*
X69526429Y-34307857D01*
X69490714Y-34236429D01*
X69455000Y-34200714D01*
X69383571Y-34165000D01*
X69240714Y-34165000D01*
X69169286Y-34200714D01*
X69133571Y-34236429D01*
X69097857Y-34307857D01*
X92227857Y-34557857D02*
X92192143Y-34593571D01*
X92085000Y-34629286D01*
X92013571Y-34629286D01*
X91906428Y-34593571D01*
X91835000Y-34522143D01*
X91799285Y-34450714D01*
X91763571Y-34307857D01*
X91763571Y-34200714D01*
X91799285Y-34057857D01*
X91835000Y-33986429D01*
X91906428Y-33915000D01*
X92013571Y-33879286D01*
X92085000Y-33879286D01*
X92192143Y-33915000D01*
X92227857Y-33950714D01*
X92870714Y-34129286D02*
X92870714Y-34629286D01*
X92692143Y-33843571D02*
X92513571Y-34379286D01*
X92977857Y-34379286D01*
X93370714Y-34200714D02*
X93299286Y-34165000D01*
X93263571Y-34129286D01*
X93227857Y-34057857D01*
X93227857Y-34022143D01*
X93263571Y-33950714D01*
X93299286Y-33915000D01*
X93370714Y-33879286D01*
X93513571Y-33879286D01*
X93585000Y-33915000D01*
X93620714Y-33950714D01*
X93656429Y-34022143D01*
X93656429Y-34057857D01*
X93620714Y-34129286D01*
X93585000Y-34165000D01*
X93513571Y-34200714D01*
X93370714Y-34200714D01*
X93299286Y-34236429D01*
X93263571Y-34272143D01*
X93227857Y-34343571D01*
X93227857Y-34486429D01*
X93263571Y-34557857D01*
X93299286Y-34593571D01*
X93370714Y-34629286D01*
X93513571Y-34629286D01*
X93585000Y-34593571D01*
X93620714Y-34557857D01*
X93656429Y-34486429D01*
X93656429Y-34343571D01*
X93620714Y-34272143D01*
X93585000Y-34236429D01*
X93513571Y-34200714D01*
X60985857Y-56909857D02*
X60950143Y-56945571D01*
X60843000Y-56981286D01*
X60771571Y-56981286D01*
X60664428Y-56945571D01*
X60593000Y-56874143D01*
X60557285Y-56802714D01*
X60521571Y-56659857D01*
X60521571Y-56552714D01*
X60557285Y-56409857D01*
X60593000Y-56338429D01*
X60664428Y-56267000D01*
X60771571Y-56231286D01*
X60843000Y-56231286D01*
X60950143Y-56267000D01*
X60985857Y-56302714D01*
X61664428Y-56231286D02*
X61307285Y-56231286D01*
X61271571Y-56588429D01*
X61307285Y-56552714D01*
X61378714Y-56517000D01*
X61557285Y-56517000D01*
X61628714Y-56552714D01*
X61664428Y-56588429D01*
X61700143Y-56659857D01*
X61700143Y-56838429D01*
X61664428Y-56909857D01*
X61628714Y-56945571D01*
X61557285Y-56981286D01*
X61378714Y-56981286D01*
X61307285Y-56945571D01*
X61271571Y-56909857D01*
X62414429Y-56981286D02*
X61985857Y-56981286D01*
X62200143Y-56981286D02*
X62200143Y-56231286D01*
X62128714Y-56338429D01*
X62057286Y-56409857D01*
X61985857Y-56445571D01*
X77495857Y-76975857D02*
X77460143Y-77011571D01*
X77353000Y-77047286D01*
X77281571Y-77047286D01*
X77174428Y-77011571D01*
X77103000Y-76940143D01*
X77067285Y-76868714D01*
X77031571Y-76725857D01*
X77031571Y-76618714D01*
X77067285Y-76475857D01*
X77103000Y-76404429D01*
X77174428Y-76333000D01*
X77281571Y-76297286D01*
X77353000Y-76297286D01*
X77460143Y-76333000D01*
X77495857Y-76368714D01*
X78174428Y-76297286D02*
X77817285Y-76297286D01*
X77781571Y-76654429D01*
X77817285Y-76618714D01*
X77888714Y-76583000D01*
X78067285Y-76583000D01*
X78138714Y-76618714D01*
X78174428Y-76654429D01*
X78210143Y-76725857D01*
X78210143Y-76904429D01*
X78174428Y-76975857D01*
X78138714Y-77011571D01*
X78067285Y-77047286D01*
X77888714Y-77047286D01*
X77817285Y-77011571D01*
X77781571Y-76975857D01*
X78495857Y-76368714D02*
X78531571Y-76333000D01*
X78603000Y-76297286D01*
X78781571Y-76297286D01*
X78853000Y-76333000D01*
X78888714Y-76368714D01*
X78924429Y-76440143D01*
X78924429Y-76511571D01*
X78888714Y-76618714D01*
X78460143Y-77047286D01*
X78924429Y-77047286D01*
X60465857Y-72364143D02*
X60501571Y-72399857D01*
X60537286Y-72507000D01*
X60537286Y-72578429D01*
X60501571Y-72685572D01*
X60430143Y-72757000D01*
X60358714Y-72792715D01*
X60215857Y-72828429D01*
X60108714Y-72828429D01*
X59965857Y-72792715D01*
X59894429Y-72757000D01*
X59823000Y-72685572D01*
X59787286Y-72578429D01*
X59787286Y-72507000D01*
X59823000Y-72399857D01*
X59858714Y-72364143D01*
X59787286Y-71685572D02*
X59787286Y-72042715D01*
X60144429Y-72078429D01*
X60108714Y-72042715D01*
X60073000Y-71971286D01*
X60073000Y-71792715D01*
X60108714Y-71721286D01*
X60144429Y-71685572D01*
X60215857Y-71649857D01*
X60394429Y-71649857D01*
X60465857Y-71685572D01*
X60501571Y-71721286D01*
X60537286Y-71792715D01*
X60537286Y-71971286D01*
X60501571Y-72042715D01*
X60465857Y-72078429D01*
X59787286Y-71007000D02*
X59787286Y-71149857D01*
X59823000Y-71221286D01*
X59858714Y-71257000D01*
X59965857Y-71328429D01*
X60108714Y-71364143D01*
X60394429Y-71364143D01*
X60465857Y-71328429D01*
X60501571Y-71292714D01*
X60537286Y-71221286D01*
X60537286Y-71078429D01*
X60501571Y-71007000D01*
X60465857Y-70971286D01*
X60394429Y-70935571D01*
X60215857Y-70935571D01*
X60144429Y-70971286D01*
X60108714Y-71007000D01*
X60073000Y-71078429D01*
X60073000Y-71221286D01*
X60108714Y-71292714D01*
X60144429Y-71328429D01*
X60215857Y-71364143D01*
X52083857Y-63982143D02*
X52119571Y-64017857D01*
X52155286Y-64125000D01*
X52155286Y-64196429D01*
X52119571Y-64303572D01*
X52048143Y-64375000D01*
X51976714Y-64410715D01*
X51833857Y-64446429D01*
X51726714Y-64446429D01*
X51583857Y-64410715D01*
X51512429Y-64375000D01*
X51441000Y-64303572D01*
X51405286Y-64196429D01*
X51405286Y-64125000D01*
X51441000Y-64017857D01*
X51476714Y-63982143D01*
X51405286Y-63303572D02*
X51405286Y-63660715D01*
X51762429Y-63696429D01*
X51726714Y-63660715D01*
X51691000Y-63589286D01*
X51691000Y-63410715D01*
X51726714Y-63339286D01*
X51762429Y-63303572D01*
X51833857Y-63267857D01*
X52012429Y-63267857D01*
X52083857Y-63303572D01*
X52119571Y-63339286D01*
X52155286Y-63410715D01*
X52155286Y-63589286D01*
X52119571Y-63660715D01*
X52083857Y-63696429D01*
X51726714Y-62839286D02*
X51691000Y-62910714D01*
X51655286Y-62946429D01*
X51583857Y-62982143D01*
X51548143Y-62982143D01*
X51476714Y-62946429D01*
X51441000Y-62910714D01*
X51405286Y-62839286D01*
X51405286Y-62696429D01*
X51441000Y-62625000D01*
X51476714Y-62589286D01*
X51548143Y-62553571D01*
X51583857Y-62553571D01*
X51655286Y-62589286D01*
X51691000Y-62625000D01*
X51726714Y-62696429D01*
X51726714Y-62839286D01*
X51762429Y-62910714D01*
X51798143Y-62946429D01*
X51869571Y-62982143D01*
X52012429Y-62982143D01*
X52083857Y-62946429D01*
X52119571Y-62910714D01*
X52155286Y-62839286D01*
X52155286Y-62696429D01*
X52119571Y-62625000D01*
X52083857Y-62589286D01*
X52012429Y-62553571D01*
X51869571Y-62553571D01*
X51798143Y-62589286D01*
X51762429Y-62625000D01*
X51726714Y-62696429D01*
X85623857Y-71133857D02*
X85588143Y-71169571D01*
X85481000Y-71205286D01*
X85409571Y-71205286D01*
X85302428Y-71169571D01*
X85231000Y-71098143D01*
X85195285Y-71026714D01*
X85159571Y-70883857D01*
X85159571Y-70776714D01*
X85195285Y-70633857D01*
X85231000Y-70562429D01*
X85302428Y-70491000D01*
X85409571Y-70455286D01*
X85481000Y-70455286D01*
X85588143Y-70491000D01*
X85623857Y-70526714D01*
X86302428Y-70455286D02*
X85945285Y-70455286D01*
X85909571Y-70812429D01*
X85945285Y-70776714D01*
X86016714Y-70741000D01*
X86195285Y-70741000D01*
X86266714Y-70776714D01*
X86302428Y-70812429D01*
X86338143Y-70883857D01*
X86338143Y-71062429D01*
X86302428Y-71133857D01*
X86266714Y-71169571D01*
X86195285Y-71205286D01*
X86016714Y-71205286D01*
X85945285Y-71169571D01*
X85909571Y-71133857D01*
X86695286Y-71205286D02*
X86838143Y-71205286D01*
X86909571Y-71169571D01*
X86945286Y-71133857D01*
X87016714Y-71026714D01*
X87052429Y-70883857D01*
X87052429Y-70598143D01*
X87016714Y-70526714D01*
X86981000Y-70491000D01*
X86909571Y-70455286D01*
X86766714Y-70455286D01*
X86695286Y-70491000D01*
X86659571Y-70526714D01*
X86623857Y-70598143D01*
X86623857Y-70776714D01*
X86659571Y-70848143D01*
X86695286Y-70883857D01*
X86766714Y-70919571D01*
X86909571Y-70919571D01*
X86981000Y-70883857D01*
X87016714Y-70848143D01*
X87052429Y-70776714D01*
X85623857Y-72403857D02*
X85588143Y-72439571D01*
X85481000Y-72475286D01*
X85409571Y-72475286D01*
X85302428Y-72439571D01*
X85231000Y-72368143D01*
X85195285Y-72296714D01*
X85159571Y-72153857D01*
X85159571Y-72046714D01*
X85195285Y-71903857D01*
X85231000Y-71832429D01*
X85302428Y-71761000D01*
X85409571Y-71725286D01*
X85481000Y-71725286D01*
X85588143Y-71761000D01*
X85623857Y-71796714D01*
X86266714Y-71725286D02*
X86123857Y-71725286D01*
X86052428Y-71761000D01*
X86016714Y-71796714D01*
X85945285Y-71903857D01*
X85909571Y-72046714D01*
X85909571Y-72332429D01*
X85945285Y-72403857D01*
X85981000Y-72439571D01*
X86052428Y-72475286D01*
X86195285Y-72475286D01*
X86266714Y-72439571D01*
X86302428Y-72403857D01*
X86338143Y-72332429D01*
X86338143Y-72153857D01*
X86302428Y-72082429D01*
X86266714Y-72046714D01*
X86195285Y-72011000D01*
X86052428Y-72011000D01*
X85981000Y-72046714D01*
X85945285Y-72082429D01*
X85909571Y-72153857D01*
X86802429Y-71725286D02*
X86873857Y-71725286D01*
X86945286Y-71761000D01*
X86981000Y-71796714D01*
X87016714Y-71868143D01*
X87052429Y-72011000D01*
X87052429Y-72189571D01*
X87016714Y-72332429D01*
X86981000Y-72403857D01*
X86945286Y-72439571D01*
X86873857Y-72475286D01*
X86802429Y-72475286D01*
X86731000Y-72439571D01*
X86695286Y-72403857D01*
X86659571Y-72332429D01*
X86623857Y-72189571D01*
X86623857Y-72011000D01*
X86659571Y-71868143D01*
X86695286Y-71796714D01*
X86731000Y-71761000D01*
X86802429Y-71725286D01*
X85623857Y-73673857D02*
X85588143Y-73709571D01*
X85481000Y-73745286D01*
X85409571Y-73745286D01*
X85302428Y-73709571D01*
X85231000Y-73638143D01*
X85195285Y-73566714D01*
X85159571Y-73423857D01*
X85159571Y-73316714D01*
X85195285Y-73173857D01*
X85231000Y-73102429D01*
X85302428Y-73031000D01*
X85409571Y-72995286D01*
X85481000Y-72995286D01*
X85588143Y-73031000D01*
X85623857Y-73066714D01*
X86266714Y-72995286D02*
X86123857Y-72995286D01*
X86052428Y-73031000D01*
X86016714Y-73066714D01*
X85945285Y-73173857D01*
X85909571Y-73316714D01*
X85909571Y-73602429D01*
X85945285Y-73673857D01*
X85981000Y-73709571D01*
X86052428Y-73745286D01*
X86195285Y-73745286D01*
X86266714Y-73709571D01*
X86302428Y-73673857D01*
X86338143Y-73602429D01*
X86338143Y-73423857D01*
X86302428Y-73352429D01*
X86266714Y-73316714D01*
X86195285Y-73281000D01*
X86052428Y-73281000D01*
X85981000Y-73316714D01*
X85945285Y-73352429D01*
X85909571Y-73423857D01*
X87052429Y-73745286D02*
X86623857Y-73745286D01*
X86838143Y-73745286D02*
X86838143Y-72995286D01*
X86766714Y-73102429D01*
X86695286Y-73173857D01*
X86623857Y-73209571D01*
X85623857Y-74943857D02*
X85588143Y-74979571D01*
X85481000Y-75015286D01*
X85409571Y-75015286D01*
X85302428Y-74979571D01*
X85231000Y-74908143D01*
X85195285Y-74836714D01*
X85159571Y-74693857D01*
X85159571Y-74586714D01*
X85195285Y-74443857D01*
X85231000Y-74372429D01*
X85302428Y-74301000D01*
X85409571Y-74265286D01*
X85481000Y-74265286D01*
X85588143Y-74301000D01*
X85623857Y-74336714D01*
X86266714Y-74265286D02*
X86123857Y-74265286D01*
X86052428Y-74301000D01*
X86016714Y-74336714D01*
X85945285Y-74443857D01*
X85909571Y-74586714D01*
X85909571Y-74872429D01*
X85945285Y-74943857D01*
X85981000Y-74979571D01*
X86052428Y-75015286D01*
X86195285Y-75015286D01*
X86266714Y-74979571D01*
X86302428Y-74943857D01*
X86338143Y-74872429D01*
X86338143Y-74693857D01*
X86302428Y-74622429D01*
X86266714Y-74586714D01*
X86195285Y-74551000D01*
X86052428Y-74551000D01*
X85981000Y-74586714D01*
X85945285Y-74622429D01*
X85909571Y-74693857D01*
X86623857Y-74336714D02*
X86659571Y-74301000D01*
X86731000Y-74265286D01*
X86909571Y-74265286D01*
X86981000Y-74301000D01*
X87016714Y-74336714D01*
X87052429Y-74408143D01*
X87052429Y-74479571D01*
X87016714Y-74586714D01*
X86588143Y-75015286D01*
X87052429Y-75015286D01*
X85623857Y-76213857D02*
X85588143Y-76249571D01*
X85481000Y-76285286D01*
X85409571Y-76285286D01*
X85302428Y-76249571D01*
X85231000Y-76178143D01*
X85195285Y-76106714D01*
X85159571Y-75963857D01*
X85159571Y-75856714D01*
X85195285Y-75713857D01*
X85231000Y-75642429D01*
X85302428Y-75571000D01*
X85409571Y-75535286D01*
X85481000Y-75535286D01*
X85588143Y-75571000D01*
X85623857Y-75606714D01*
X86266714Y-75535286D02*
X86123857Y-75535286D01*
X86052428Y-75571000D01*
X86016714Y-75606714D01*
X85945285Y-75713857D01*
X85909571Y-75856714D01*
X85909571Y-76142429D01*
X85945285Y-76213857D01*
X85981000Y-76249571D01*
X86052428Y-76285286D01*
X86195285Y-76285286D01*
X86266714Y-76249571D01*
X86302428Y-76213857D01*
X86338143Y-76142429D01*
X86338143Y-75963857D01*
X86302428Y-75892429D01*
X86266714Y-75856714D01*
X86195285Y-75821000D01*
X86052428Y-75821000D01*
X85981000Y-75856714D01*
X85945285Y-75892429D01*
X85909571Y-75963857D01*
X86588143Y-75535286D02*
X87052429Y-75535286D01*
X86802429Y-75821000D01*
X86909571Y-75821000D01*
X86981000Y-75856714D01*
X87016714Y-75892429D01*
X87052429Y-75963857D01*
X87052429Y-76142429D01*
X87016714Y-76213857D01*
X86981000Y-76249571D01*
X86909571Y-76285286D01*
X86695286Y-76285286D01*
X86623857Y-76249571D01*
X86588143Y-76213857D01*
X63585286Y-47543572D02*
X62835286Y-47543572D01*
X62835286Y-47365000D01*
X62871000Y-47257857D01*
X62942429Y-47186429D01*
X63013857Y-47150714D01*
X63156714Y-47115000D01*
X63263857Y-47115000D01*
X63406714Y-47150714D01*
X63478143Y-47186429D01*
X63549571Y-47257857D01*
X63585286Y-47365000D01*
X63585286Y-47543572D01*
X62835286Y-46472143D02*
X62835286Y-46615000D01*
X62871000Y-46686429D01*
X62906714Y-46722143D01*
X63013857Y-46793572D01*
X63156714Y-46829286D01*
X63442429Y-46829286D01*
X63513857Y-46793572D01*
X63549571Y-46757857D01*
X63585286Y-46686429D01*
X63585286Y-46543572D01*
X63549571Y-46472143D01*
X63513857Y-46436429D01*
X63442429Y-46400714D01*
X63263857Y-46400714D01*
X63192429Y-46436429D01*
X63156714Y-46472143D01*
X63121000Y-46543572D01*
X63121000Y-46686429D01*
X63156714Y-46757857D01*
X63192429Y-46793572D01*
X63263857Y-46829286D01*
X87715286Y-47797572D02*
X86965286Y-47797572D01*
X86965286Y-47619000D01*
X87001000Y-47511857D01*
X87072429Y-47440429D01*
X87143857Y-47404714D01*
X87286714Y-47369000D01*
X87393857Y-47369000D01*
X87536714Y-47404714D01*
X87608143Y-47440429D01*
X87679571Y-47511857D01*
X87715286Y-47619000D01*
X87715286Y-47797572D01*
X87286714Y-46940429D02*
X87251000Y-47011857D01*
X87215286Y-47047572D01*
X87143857Y-47083286D01*
X87108143Y-47083286D01*
X87036714Y-47047572D01*
X87001000Y-47011857D01*
X86965286Y-46940429D01*
X86965286Y-46797572D01*
X87001000Y-46726143D01*
X87036714Y-46690429D01*
X87108143Y-46654714D01*
X87143857Y-46654714D01*
X87215286Y-46690429D01*
X87251000Y-46726143D01*
X87286714Y-46797572D01*
X87286714Y-46940429D01*
X87322429Y-47011857D01*
X87358143Y-47047572D01*
X87429571Y-47083286D01*
X87572429Y-47083286D01*
X87643857Y-47047572D01*
X87679571Y-47011857D01*
X87715286Y-46940429D01*
X87715286Y-46797572D01*
X87679571Y-46726143D01*
X87643857Y-46690429D01*
X87572429Y-46654714D01*
X87429571Y-46654714D01*
X87358143Y-46690429D01*
X87322429Y-46726143D01*
X87286714Y-46797572D01*
X111591286Y-46376715D02*
X110841286Y-46376715D01*
X110841286Y-46198143D01*
X110877000Y-46091000D01*
X110948429Y-46019572D01*
X111019857Y-45983857D01*
X111162714Y-45948143D01*
X111269857Y-45948143D01*
X111412714Y-45983857D01*
X111484143Y-46019572D01*
X111555571Y-46091000D01*
X111591286Y-46198143D01*
X111591286Y-46376715D01*
X111591286Y-45233857D02*
X111591286Y-45662429D01*
X111591286Y-45448143D02*
X110841286Y-45448143D01*
X110948429Y-45519572D01*
X111019857Y-45591000D01*
X111055571Y-45662429D01*
X110841286Y-44769571D02*
X110841286Y-44698143D01*
X110877000Y-44626714D01*
X110912714Y-44591000D01*
X110984143Y-44555286D01*
X111127000Y-44519571D01*
X111305571Y-44519571D01*
X111448429Y-44555286D01*
X111519857Y-44591000D01*
X111555571Y-44626714D01*
X111591286Y-44698143D01*
X111591286Y-44769571D01*
X111555571Y-44841000D01*
X111519857Y-44876714D01*
X111448429Y-44912429D01*
X111305571Y-44948143D01*
X111127000Y-44948143D01*
X110984143Y-44912429D01*
X110912714Y-44876714D01*
X110877000Y-44841000D01*
X110841286Y-44769571D01*
X41233286Y-41296715D02*
X40483286Y-41296715D01*
X40483286Y-41118143D01*
X40519000Y-41011000D01*
X40590429Y-40939572D01*
X40661857Y-40903857D01*
X40804714Y-40868143D01*
X40911857Y-40868143D01*
X41054714Y-40903857D01*
X41126143Y-40939572D01*
X41197571Y-41011000D01*
X41233286Y-41118143D01*
X41233286Y-41296715D01*
X41233286Y-40153857D02*
X41233286Y-40582429D01*
X41233286Y-40368143D02*
X40483286Y-40368143D01*
X40590429Y-40439572D01*
X40661857Y-40511000D01*
X40697571Y-40582429D01*
X40554714Y-39868143D02*
X40519000Y-39832429D01*
X40483286Y-39761000D01*
X40483286Y-39582429D01*
X40519000Y-39511000D01*
X40554714Y-39475286D01*
X40626143Y-39439571D01*
X40697571Y-39439571D01*
X40804714Y-39475286D01*
X41233286Y-39903857D01*
X41233286Y-39439571D01*
X48091286Y-41550715D02*
X47341286Y-41550715D01*
X47341286Y-41372143D01*
X47377000Y-41265000D01*
X47448429Y-41193572D01*
X47519857Y-41157857D01*
X47662714Y-41122143D01*
X47769857Y-41122143D01*
X47912714Y-41157857D01*
X47984143Y-41193572D01*
X48055571Y-41265000D01*
X48091286Y-41372143D01*
X48091286Y-41550715D01*
X48091286Y-40407857D02*
X48091286Y-40836429D01*
X48091286Y-40622143D02*
X47341286Y-40622143D01*
X47448429Y-40693572D01*
X47519857Y-40765000D01*
X47555571Y-40836429D01*
X47341286Y-40157857D02*
X47341286Y-39693571D01*
X47627000Y-39943571D01*
X47627000Y-39836429D01*
X47662714Y-39765000D01*
X47698429Y-39729286D01*
X47769857Y-39693571D01*
X47948429Y-39693571D01*
X48019857Y-39729286D01*
X48055571Y-39765000D01*
X48091286Y-39836429D01*
X48091286Y-40050714D01*
X48055571Y-40122143D01*
X48019857Y-40157857D01*
X63839286Y-39772715D02*
X63089286Y-39772715D01*
X63089286Y-39594143D01*
X63125000Y-39487000D01*
X63196429Y-39415572D01*
X63267857Y-39379857D01*
X63410714Y-39344143D01*
X63517857Y-39344143D01*
X63660714Y-39379857D01*
X63732143Y-39415572D01*
X63803571Y-39487000D01*
X63839286Y-39594143D01*
X63839286Y-39772715D01*
X63839286Y-38629857D02*
X63839286Y-39058429D01*
X63839286Y-38844143D02*
X63089286Y-38844143D01*
X63196429Y-38915572D01*
X63267857Y-38987000D01*
X63303571Y-39058429D01*
X63089286Y-37987000D02*
X63089286Y-38129857D01*
X63125000Y-38201286D01*
X63160714Y-38237000D01*
X63267857Y-38308429D01*
X63410714Y-38344143D01*
X63696429Y-38344143D01*
X63767857Y-38308429D01*
X63803571Y-38272714D01*
X63839286Y-38201286D01*
X63839286Y-38058429D01*
X63803571Y-37987000D01*
X63767857Y-37951286D01*
X63696429Y-37915571D01*
X63517857Y-37915571D01*
X63446429Y-37951286D01*
X63410714Y-37987000D01*
X63375000Y-38058429D01*
X63375000Y-38201286D01*
X63410714Y-38272714D01*
X63446429Y-38308429D01*
X63517857Y-38344143D01*
X72729286Y-36470715D02*
X71979286Y-36470715D01*
X71979286Y-36292143D01*
X72015000Y-36185000D01*
X72086429Y-36113572D01*
X72157857Y-36077857D01*
X72300714Y-36042143D01*
X72407857Y-36042143D01*
X72550714Y-36077857D01*
X72622143Y-36113572D01*
X72693571Y-36185000D01*
X72729286Y-36292143D01*
X72729286Y-36470715D01*
X72729286Y-35327857D02*
X72729286Y-35756429D01*
X72729286Y-35542143D02*
X71979286Y-35542143D01*
X72086429Y-35613572D01*
X72157857Y-35685000D01*
X72193571Y-35756429D01*
X71979286Y-35077857D02*
X71979286Y-34577857D01*
X72729286Y-34899286D01*
X90509286Y-37232715D02*
X89759286Y-37232715D01*
X89759286Y-37054143D01*
X89795000Y-36947000D01*
X89866429Y-36875572D01*
X89937857Y-36839857D01*
X90080714Y-36804143D01*
X90187857Y-36804143D01*
X90330714Y-36839857D01*
X90402143Y-36875572D01*
X90473571Y-36947000D01*
X90509286Y-37054143D01*
X90509286Y-37232715D01*
X89830714Y-36518429D02*
X89795000Y-36482715D01*
X89759286Y-36411286D01*
X89759286Y-36232715D01*
X89795000Y-36161286D01*
X89830714Y-36125572D01*
X89902143Y-36089857D01*
X89973571Y-36089857D01*
X90080714Y-36125572D01*
X90509286Y-36554143D01*
X90509286Y-36089857D01*
X89759286Y-35625571D02*
X89759286Y-35554143D01*
X89795000Y-35482714D01*
X89830714Y-35447000D01*
X89902143Y-35411286D01*
X90045000Y-35375571D01*
X90223571Y-35375571D01*
X90366429Y-35411286D01*
X90437857Y-35447000D01*
X90473571Y-35482714D01*
X90509286Y-35554143D01*
X90509286Y-35625571D01*
X90473571Y-35697000D01*
X90437857Y-35732714D01*
X90366429Y-35768429D01*
X90223571Y-35804143D01*
X90045000Y-35804143D01*
X89902143Y-35768429D01*
X89830714Y-35732714D01*
X89795000Y-35697000D01*
X89759286Y-35625571D01*
X95589286Y-37232715D02*
X94839286Y-37232715D01*
X94839286Y-37054143D01*
X94875000Y-36947000D01*
X94946429Y-36875572D01*
X95017857Y-36839857D01*
X95160714Y-36804143D01*
X95267857Y-36804143D01*
X95410714Y-36839857D01*
X95482143Y-36875572D01*
X95553571Y-36947000D01*
X95589286Y-37054143D01*
X95589286Y-37232715D01*
X94910714Y-36518429D02*
X94875000Y-36482715D01*
X94839286Y-36411286D01*
X94839286Y-36232715D01*
X94875000Y-36161286D01*
X94910714Y-36125572D01*
X94982143Y-36089857D01*
X95053571Y-36089857D01*
X95160714Y-36125572D01*
X95589286Y-36554143D01*
X95589286Y-36089857D01*
X95589286Y-35375571D02*
X95589286Y-35804143D01*
X95589286Y-35589857D02*
X94839286Y-35589857D01*
X94946429Y-35661286D01*
X95017857Y-35732714D01*
X95053571Y-35804143D01*
X56219286Y-63140715D02*
X55469286Y-63140715D01*
X55469286Y-62962143D01*
X55505000Y-62855000D01*
X55576429Y-62783572D01*
X55647857Y-62747857D01*
X55790714Y-62712143D01*
X55897857Y-62712143D01*
X56040714Y-62747857D01*
X56112143Y-62783572D01*
X56183571Y-62855000D01*
X56219286Y-62962143D01*
X56219286Y-63140715D01*
X55540714Y-62426429D02*
X55505000Y-62390715D01*
X55469286Y-62319286D01*
X55469286Y-62140715D01*
X55505000Y-62069286D01*
X55540714Y-62033572D01*
X55612143Y-61997857D01*
X55683571Y-61997857D01*
X55790714Y-62033572D01*
X56219286Y-62462143D01*
X56219286Y-61997857D01*
X55719286Y-61355000D02*
X56219286Y-61355000D01*
X55433571Y-61533571D02*
X55969286Y-61712143D01*
X55969286Y-61247857D01*
X115401286Y-70657572D02*
X114651286Y-70657572D01*
X115401286Y-70229000D02*
X114972714Y-70550429D01*
X114651286Y-70229000D02*
X115079857Y-70657572D01*
X115401286Y-69514714D02*
X115401286Y-69943286D01*
X115401286Y-69729000D02*
X114651286Y-69729000D01*
X114758429Y-69800429D01*
X114829857Y-69871857D01*
X114865571Y-69943286D01*
X121366428Y-85429286D02*
X121366428Y-84679286D01*
X121652143Y-84679286D01*
X121723571Y-84715000D01*
X121759286Y-84750714D01*
X121795000Y-84822143D01*
X121795000Y-84929286D01*
X121759286Y-85000714D01*
X121723571Y-85036429D01*
X121652143Y-85072143D01*
X121366428Y-85072143D01*
X122509286Y-85429286D02*
X122080714Y-85429286D01*
X122295000Y-85429286D02*
X122295000Y-84679286D01*
X122223571Y-84786429D01*
X122152143Y-84857857D01*
X122080714Y-84893571D01*
X119973286Y-57957572D02*
X119223286Y-57957572D01*
X119223286Y-57671857D01*
X119259000Y-57600429D01*
X119294714Y-57564714D01*
X119366143Y-57529000D01*
X119473286Y-57529000D01*
X119544714Y-57564714D01*
X119580429Y-57600429D01*
X119616143Y-57671857D01*
X119616143Y-57957572D01*
X119294714Y-57243286D02*
X119259000Y-57207572D01*
X119223286Y-57136143D01*
X119223286Y-56957572D01*
X119259000Y-56886143D01*
X119294714Y-56850429D01*
X119366143Y-56814714D01*
X119437571Y-56814714D01*
X119544714Y-56850429D01*
X119973286Y-57279000D01*
X119973286Y-56814714D01*
X121751286Y-54147572D02*
X121001286Y-54147572D01*
X121001286Y-53861857D01*
X121037000Y-53790429D01*
X121072714Y-53754714D01*
X121144143Y-53719000D01*
X121251286Y-53719000D01*
X121322714Y-53754714D01*
X121358429Y-53790429D01*
X121394143Y-53861857D01*
X121394143Y-54147572D01*
X121001286Y-53469000D02*
X121001286Y-53004714D01*
X121287000Y-53254714D01*
X121287000Y-53147572D01*
X121322714Y-53076143D01*
X121358429Y-53040429D01*
X121429857Y-53004714D01*
X121608429Y-53004714D01*
X121679857Y-53040429D01*
X121715571Y-53076143D01*
X121751286Y-53147572D01*
X121751286Y-53361857D01*
X121715571Y-53433286D01*
X121679857Y-53469000D01*
X108158428Y-34121286D02*
X108158428Y-33371286D01*
X108444143Y-33371286D01*
X108515571Y-33407000D01*
X108551286Y-33442714D01*
X108587000Y-33514143D01*
X108587000Y-33621286D01*
X108551286Y-33692714D01*
X108515571Y-33728429D01*
X108444143Y-33764143D01*
X108158428Y-33764143D01*
X109229857Y-33621286D02*
X109229857Y-34121286D01*
X109051286Y-33335571D02*
X108872714Y-33871286D01*
X109337000Y-33871286D01*
X121874428Y-38693286D02*
X121874428Y-37943286D01*
X122160143Y-37943286D01*
X122231571Y-37979000D01*
X122267286Y-38014714D01*
X122303000Y-38086143D01*
X122303000Y-38193286D01*
X122267286Y-38264714D01*
X122231571Y-38300429D01*
X122160143Y-38336143D01*
X121874428Y-38336143D01*
X122981571Y-37943286D02*
X122624428Y-37943286D01*
X122588714Y-38300429D01*
X122624428Y-38264714D01*
X122695857Y-38229000D01*
X122874428Y-38229000D01*
X122945857Y-38264714D01*
X122981571Y-38300429D01*
X123017286Y-38371857D01*
X123017286Y-38550429D01*
X122981571Y-38621857D01*
X122945857Y-38657571D01*
X122874428Y-38693286D01*
X122695857Y-38693286D01*
X122624428Y-38657571D01*
X122588714Y-38621857D01*
X97490428Y-34121286D02*
X97490428Y-33371286D01*
X97776143Y-33371286D01*
X97847571Y-33407000D01*
X97883286Y-33442714D01*
X97919000Y-33514143D01*
X97919000Y-33621286D01*
X97883286Y-33692714D01*
X97847571Y-33728429D01*
X97776143Y-33764143D01*
X97490428Y-33764143D01*
X98561857Y-33371286D02*
X98419000Y-33371286D01*
X98347571Y-33407000D01*
X98311857Y-33442714D01*
X98240428Y-33549857D01*
X98204714Y-33692714D01*
X98204714Y-33978429D01*
X98240428Y-34049857D01*
X98276143Y-34085571D01*
X98347571Y-34121286D01*
X98490428Y-34121286D01*
X98561857Y-34085571D01*
X98597571Y-34049857D01*
X98633286Y-33978429D01*
X98633286Y-33799857D01*
X98597571Y-33728429D01*
X98561857Y-33692714D01*
X98490428Y-33657000D01*
X98347571Y-33657000D01*
X98276143Y-33692714D01*
X98240428Y-33728429D01*
X98204714Y-33799857D01*
X73614428Y-34121286D02*
X73614428Y-33371286D01*
X73900143Y-33371286D01*
X73971571Y-33407000D01*
X74007286Y-33442714D01*
X74043000Y-33514143D01*
X74043000Y-33621286D01*
X74007286Y-33692714D01*
X73971571Y-33728429D01*
X73900143Y-33764143D01*
X73614428Y-33764143D01*
X74293000Y-33371286D02*
X74793000Y-33371286D01*
X74471571Y-34121286D01*
X49484428Y-34121286D02*
X49484428Y-33371286D01*
X49770143Y-33371286D01*
X49841571Y-33407000D01*
X49877286Y-33442714D01*
X49913000Y-33514143D01*
X49913000Y-33621286D01*
X49877286Y-33692714D01*
X49841571Y-33728429D01*
X49770143Y-33764143D01*
X49484428Y-33764143D01*
X50270143Y-34121286D02*
X50413000Y-34121286D01*
X50484428Y-34085571D01*
X50520143Y-34049857D01*
X50591571Y-33942714D01*
X50627286Y-33799857D01*
X50627286Y-33514143D01*
X50591571Y-33442714D01*
X50555857Y-33407000D01*
X50484428Y-33371286D01*
X50341571Y-33371286D01*
X50270143Y-33407000D01*
X50234428Y-33442714D01*
X50198714Y-33514143D01*
X50198714Y-33692714D01*
X50234428Y-33764143D01*
X50270143Y-33799857D01*
X50341571Y-33835571D01*
X50484428Y-33835571D01*
X50555857Y-33799857D01*
X50591571Y-33764143D01*
X50627286Y-33692714D01*
X119719286Y-80007858D02*
X118969286Y-80007858D01*
X118969286Y-79722143D01*
X119005000Y-79650715D01*
X119040714Y-79615000D01*
X119112143Y-79579286D01*
X119219286Y-79579286D01*
X119290714Y-79615000D01*
X119326429Y-79650715D01*
X119362143Y-79722143D01*
X119362143Y-80007858D01*
X119719286Y-78865000D02*
X119719286Y-79293572D01*
X119719286Y-79079286D02*
X118969286Y-79079286D01*
X119076429Y-79150715D01*
X119147857Y-79222143D01*
X119183571Y-79293572D01*
X118969286Y-78400714D02*
X118969286Y-78329286D01*
X119005000Y-78257857D01*
X119040714Y-78222143D01*
X119112143Y-78186429D01*
X119255000Y-78150714D01*
X119433571Y-78150714D01*
X119576429Y-78186429D01*
X119647857Y-78222143D01*
X119683571Y-78257857D01*
X119719286Y-78329286D01*
X119719286Y-78400714D01*
X119683571Y-78472143D01*
X119647857Y-78507857D01*
X119576429Y-78543572D01*
X119433571Y-78579286D01*
X119255000Y-78579286D01*
X119112143Y-78543572D01*
X119040714Y-78507857D01*
X119005000Y-78472143D01*
X118969286Y-78400714D01*
X119719286Y-77436428D02*
X119719286Y-77865000D01*
X119719286Y-77650714D02*
X118969286Y-77650714D01*
X119076429Y-77722143D01*
X119147857Y-77793571D01*
X119183571Y-77865000D01*
X109603000Y-63839286D02*
X109353000Y-63482143D01*
X109174428Y-63839286D02*
X109174428Y-63089286D01*
X109460143Y-63089286D01*
X109531571Y-63125000D01*
X109567286Y-63160714D01*
X109603000Y-63232143D01*
X109603000Y-63339286D01*
X109567286Y-63410714D01*
X109531571Y-63446429D01*
X109460143Y-63482143D01*
X109174428Y-63482143D01*
X110317286Y-63839286D02*
X109888714Y-63839286D01*
X110103000Y-63839286D02*
X110103000Y-63089286D01*
X110031571Y-63196429D01*
X109960143Y-63267857D01*
X109888714Y-63303571D01*
X108079000Y-67649286D02*
X107829000Y-67292143D01*
X107650428Y-67649286D02*
X107650428Y-66899286D01*
X107936143Y-66899286D01*
X108007571Y-66935000D01*
X108043286Y-66970714D01*
X108079000Y-67042143D01*
X108079000Y-67149286D01*
X108043286Y-67220714D01*
X108007571Y-67256429D01*
X107936143Y-67292143D01*
X107650428Y-67292143D01*
X108364714Y-66970714D02*
X108400428Y-66935000D01*
X108471857Y-66899286D01*
X108650428Y-66899286D01*
X108721857Y-66935000D01*
X108757571Y-66970714D01*
X108793286Y-67042143D01*
X108793286Y-67113571D01*
X108757571Y-67220714D01*
X108329000Y-67649286D01*
X108793286Y-67649286D01*
X81155000Y-80349286D02*
X80905000Y-79992143D01*
X80726428Y-80349286D02*
X80726428Y-79599286D01*
X81012143Y-79599286D01*
X81083571Y-79635000D01*
X81119286Y-79670714D01*
X81155000Y-79742143D01*
X81155000Y-79849286D01*
X81119286Y-79920714D01*
X81083571Y-79956429D01*
X81012143Y-79992143D01*
X80726428Y-79992143D01*
X81797857Y-79599286D02*
X81655000Y-79599286D01*
X81583571Y-79635000D01*
X81547857Y-79670714D01*
X81476428Y-79777857D01*
X81440714Y-79920714D01*
X81440714Y-80206429D01*
X81476428Y-80277857D01*
X81512143Y-80313571D01*
X81583571Y-80349286D01*
X81726428Y-80349286D01*
X81797857Y-80313571D01*
X81833571Y-80277857D01*
X81869286Y-80206429D01*
X81869286Y-80027857D01*
X81833571Y-79956429D01*
X81797857Y-79920714D01*
X81726428Y-79885000D01*
X81583571Y-79885000D01*
X81512143Y-79920714D01*
X81476428Y-79956429D01*
X81440714Y-80027857D01*
X98173000Y-81111286D02*
X97923000Y-80754143D01*
X97744428Y-81111286D02*
X97744428Y-80361286D01*
X98030143Y-80361286D01*
X98101571Y-80397000D01*
X98137286Y-80432714D01*
X98173000Y-80504143D01*
X98173000Y-80611286D01*
X98137286Y-80682714D01*
X98101571Y-80718429D01*
X98030143Y-80754143D01*
X97744428Y-80754143D01*
X98601571Y-80682714D02*
X98530143Y-80647000D01*
X98494428Y-80611286D01*
X98458714Y-80539857D01*
X98458714Y-80504143D01*
X98494428Y-80432714D01*
X98530143Y-80397000D01*
X98601571Y-80361286D01*
X98744428Y-80361286D01*
X98815857Y-80397000D01*
X98851571Y-80432714D01*
X98887286Y-80504143D01*
X98887286Y-80539857D01*
X98851571Y-80611286D01*
X98815857Y-80647000D01*
X98744428Y-80682714D01*
X98601571Y-80682714D01*
X98530143Y-80718429D01*
X98494428Y-80754143D01*
X98458714Y-80825571D01*
X98458714Y-80968429D01*
X98494428Y-81039857D01*
X98530143Y-81075571D01*
X98601571Y-81111286D01*
X98744428Y-81111286D01*
X98815857Y-81075571D01*
X98851571Y-81039857D01*
X98887286Y-80968429D01*
X98887286Y-80825571D01*
X98851571Y-80754143D01*
X98815857Y-80718429D01*
X98744428Y-80682714D01*
X104523000Y-81111286D02*
X104273000Y-80754143D01*
X104094428Y-81111286D02*
X104094428Y-80361286D01*
X104380143Y-80361286D01*
X104451571Y-80397000D01*
X104487286Y-80432714D01*
X104523000Y-80504143D01*
X104523000Y-80611286D01*
X104487286Y-80682714D01*
X104451571Y-80718429D01*
X104380143Y-80754143D01*
X104094428Y-80754143D01*
X104880143Y-81111286D02*
X105023000Y-81111286D01*
X105094428Y-81075571D01*
X105130143Y-81039857D01*
X105201571Y-80932714D01*
X105237286Y-80789857D01*
X105237286Y-80504143D01*
X105201571Y-80432714D01*
X105165857Y-80397000D01*
X105094428Y-80361286D01*
X104951571Y-80361286D01*
X104880143Y-80397000D01*
X104844428Y-80432714D01*
X104808714Y-80504143D01*
X104808714Y-80682714D01*
X104844428Y-80754143D01*
X104880143Y-80789857D01*
X104951571Y-80825571D01*
X105094428Y-80825571D01*
X105165857Y-80789857D01*
X105201571Y-80754143D01*
X105237286Y-80682714D01*
X93243857Y-81111286D02*
X92993857Y-80754143D01*
X92815285Y-81111286D02*
X92815285Y-80361286D01*
X93101000Y-80361286D01*
X93172428Y-80397000D01*
X93208143Y-80432714D01*
X93243857Y-80504143D01*
X93243857Y-80611286D01*
X93208143Y-80682714D01*
X93172428Y-80718429D01*
X93101000Y-80754143D01*
X92815285Y-80754143D01*
X93958143Y-81111286D02*
X93529571Y-81111286D01*
X93743857Y-81111286D02*
X93743857Y-80361286D01*
X93672428Y-80468429D01*
X93601000Y-80539857D01*
X93529571Y-80575571D01*
X94422429Y-80361286D02*
X94493857Y-80361286D01*
X94565286Y-80397000D01*
X94601000Y-80432714D01*
X94636714Y-80504143D01*
X94672429Y-80647000D01*
X94672429Y-80825571D01*
X94636714Y-80968429D01*
X94601000Y-81039857D01*
X94565286Y-81075571D01*
X94493857Y-81111286D01*
X94422429Y-81111286D01*
X94351000Y-81075571D01*
X94315286Y-81039857D01*
X94279571Y-80968429D01*
X94243857Y-80825571D01*
X94243857Y-80647000D01*
X94279571Y-80504143D01*
X94315286Y-80432714D01*
X94351000Y-80397000D01*
X94422429Y-80361286D01*
X45999857Y-53679286D02*
X45749857Y-53322143D01*
X45571285Y-53679286D02*
X45571285Y-52929286D01*
X45857000Y-52929286D01*
X45928428Y-52965000D01*
X45964143Y-53000714D01*
X45999857Y-53072143D01*
X45999857Y-53179286D01*
X45964143Y-53250714D01*
X45928428Y-53286429D01*
X45857000Y-53322143D01*
X45571285Y-53322143D01*
X46714143Y-53679286D02*
X46285571Y-53679286D01*
X46499857Y-53679286D02*
X46499857Y-52929286D01*
X46428428Y-53036429D01*
X46357000Y-53107857D01*
X46285571Y-53143571D01*
X47357000Y-53179286D02*
X47357000Y-53679286D01*
X47178429Y-52893571D02*
X46999857Y-53429286D01*
X47464143Y-53429286D01*
X68097857Y-48659286D02*
X67847857Y-48302143D01*
X67669285Y-48659286D02*
X67669285Y-47909286D01*
X67955000Y-47909286D01*
X68026428Y-47945000D01*
X68062143Y-47980714D01*
X68097857Y-48052143D01*
X68097857Y-48159286D01*
X68062143Y-48230714D01*
X68026428Y-48266429D01*
X67955000Y-48302143D01*
X67669285Y-48302143D01*
X68812143Y-48659286D02*
X68383571Y-48659286D01*
X68597857Y-48659286D02*
X68597857Y-47909286D01*
X68526428Y-48016429D01*
X68455000Y-48087857D01*
X68383571Y-48123571D01*
X69455000Y-47909286D02*
X69312143Y-47909286D01*
X69240714Y-47945000D01*
X69205000Y-47980714D01*
X69133571Y-48087857D01*
X69097857Y-48230714D01*
X69097857Y-48516429D01*
X69133571Y-48587857D01*
X69169286Y-48623571D01*
X69240714Y-48659286D01*
X69383571Y-48659286D01*
X69455000Y-48623571D01*
X69490714Y-48587857D01*
X69526429Y-48516429D01*
X69526429Y-48337857D01*
X69490714Y-48266429D01*
X69455000Y-48230714D01*
X69383571Y-48195000D01*
X69240714Y-48195000D01*
X69169286Y-48230714D01*
X69133571Y-48266429D01*
X69097857Y-48337857D01*
X60791286Y-75412143D02*
X60434143Y-75662143D01*
X60791286Y-75840715D02*
X60041286Y-75840715D01*
X60041286Y-75555000D01*
X60077000Y-75483572D01*
X60112714Y-75447857D01*
X60184143Y-75412143D01*
X60291286Y-75412143D01*
X60362714Y-75447857D01*
X60398429Y-75483572D01*
X60434143Y-75555000D01*
X60434143Y-75840715D01*
X60791286Y-74697857D02*
X60791286Y-75126429D01*
X60791286Y-74912143D02*
X60041286Y-74912143D01*
X60148429Y-74983572D01*
X60219857Y-75055000D01*
X60255571Y-75126429D01*
X60041286Y-74447857D02*
X60041286Y-73947857D01*
X60791286Y-74269286D01*
X64601286Y-73380143D02*
X64244143Y-73630143D01*
X64601286Y-73808715D02*
X63851286Y-73808715D01*
X63851286Y-73523000D01*
X63887000Y-73451572D01*
X63922714Y-73415857D01*
X63994143Y-73380143D01*
X64101286Y-73380143D01*
X64172714Y-73415857D01*
X64208429Y-73451572D01*
X64244143Y-73523000D01*
X64244143Y-73808715D01*
X64601286Y-72665857D02*
X64601286Y-73094429D01*
X64601286Y-72880143D02*
X63851286Y-72880143D01*
X63958429Y-72951572D01*
X64029857Y-73023000D01*
X64065571Y-73094429D01*
X64172714Y-72237286D02*
X64137000Y-72308714D01*
X64101286Y-72344429D01*
X64029857Y-72380143D01*
X63994143Y-72380143D01*
X63922714Y-72344429D01*
X63887000Y-72308714D01*
X63851286Y-72237286D01*
X63851286Y-72094429D01*
X63887000Y-72023000D01*
X63922714Y-71987286D01*
X63994143Y-71951571D01*
X64029857Y-71951571D01*
X64101286Y-71987286D01*
X64137000Y-72023000D01*
X64172714Y-72094429D01*
X64172714Y-72237286D01*
X64208429Y-72308714D01*
X64244143Y-72344429D01*
X64315571Y-72380143D01*
X64458429Y-72380143D01*
X64529857Y-72344429D01*
X64565571Y-72308714D01*
X64601286Y-72237286D01*
X64601286Y-72094429D01*
X64565571Y-72023000D01*
X64529857Y-71987286D01*
X64458429Y-71951571D01*
X64315571Y-71951571D01*
X64244143Y-71987286D01*
X64208429Y-72023000D01*
X64172714Y-72094429D01*
X112039857Y-66887286D02*
X111789857Y-66530143D01*
X111611285Y-66887286D02*
X111611285Y-66137286D01*
X111897000Y-66137286D01*
X111968428Y-66173000D01*
X112004143Y-66208714D01*
X112039857Y-66280143D01*
X112039857Y-66387286D01*
X112004143Y-66458714D01*
X111968428Y-66494429D01*
X111897000Y-66530143D01*
X111611285Y-66530143D01*
X112325571Y-66208714D02*
X112361285Y-66173000D01*
X112432714Y-66137286D01*
X112611285Y-66137286D01*
X112682714Y-66173000D01*
X112718428Y-66208714D01*
X112754143Y-66280143D01*
X112754143Y-66351571D01*
X112718428Y-66458714D01*
X112289857Y-66887286D01*
X112754143Y-66887286D01*
X113039857Y-66208714D02*
X113075571Y-66173000D01*
X113147000Y-66137286D01*
X113325571Y-66137286D01*
X113397000Y-66173000D01*
X113432714Y-66208714D01*
X113468429Y-66280143D01*
X113468429Y-66351571D01*
X113432714Y-66458714D01*
X113004143Y-66887286D01*
X113468429Y-66887286D01*
X87969286Y-50266143D02*
X87612143Y-50516143D01*
X87969286Y-50694715D02*
X87219286Y-50694715D01*
X87219286Y-50409000D01*
X87255000Y-50337572D01*
X87290714Y-50301857D01*
X87362143Y-50266143D01*
X87469286Y-50266143D01*
X87540714Y-50301857D01*
X87576429Y-50337572D01*
X87612143Y-50409000D01*
X87612143Y-50694715D01*
X87290714Y-49980429D02*
X87255000Y-49944715D01*
X87219286Y-49873286D01*
X87219286Y-49694715D01*
X87255000Y-49623286D01*
X87290714Y-49587572D01*
X87362143Y-49551857D01*
X87433571Y-49551857D01*
X87540714Y-49587572D01*
X87969286Y-50016143D01*
X87969286Y-49551857D01*
X87469286Y-48909000D02*
X87969286Y-48909000D01*
X87183571Y-49087571D02*
X87719286Y-49266143D01*
X87719286Y-48801857D01*
X63839286Y-50266143D02*
X63482143Y-50516143D01*
X63839286Y-50694715D02*
X63089286Y-50694715D01*
X63089286Y-50409000D01*
X63125000Y-50337572D01*
X63160714Y-50301857D01*
X63232143Y-50266143D01*
X63339286Y-50266143D01*
X63410714Y-50301857D01*
X63446429Y-50337572D01*
X63482143Y-50409000D01*
X63482143Y-50694715D01*
X63160714Y-49980429D02*
X63125000Y-49944715D01*
X63089286Y-49873286D01*
X63089286Y-49694715D01*
X63125000Y-49623286D01*
X63160714Y-49587572D01*
X63232143Y-49551857D01*
X63303571Y-49551857D01*
X63410714Y-49587572D01*
X63839286Y-50016143D01*
X63839286Y-49551857D01*
X63089286Y-49301857D02*
X63089286Y-48801857D01*
X63839286Y-49123286D01*
X63331286Y-44424143D02*
X62974143Y-44674143D01*
X63331286Y-44852715D02*
X62581286Y-44852715D01*
X62581286Y-44567000D01*
X62617000Y-44495572D01*
X62652714Y-44459857D01*
X62724143Y-44424143D01*
X62831286Y-44424143D01*
X62902714Y-44459857D01*
X62938429Y-44495572D01*
X62974143Y-44567000D01*
X62974143Y-44852715D01*
X62652714Y-44138429D02*
X62617000Y-44102715D01*
X62581286Y-44031286D01*
X62581286Y-43852715D01*
X62617000Y-43781286D01*
X62652714Y-43745572D01*
X62724143Y-43709857D01*
X62795571Y-43709857D01*
X62902714Y-43745572D01*
X63331286Y-44174143D01*
X63331286Y-43709857D01*
X62902714Y-43281286D02*
X62867000Y-43352714D01*
X62831286Y-43388429D01*
X62759857Y-43424143D01*
X62724143Y-43424143D01*
X62652714Y-43388429D01*
X62617000Y-43352714D01*
X62581286Y-43281286D01*
X62581286Y-43138429D01*
X62617000Y-43067000D01*
X62652714Y-43031286D01*
X62724143Y-42995571D01*
X62759857Y-42995571D01*
X62831286Y-43031286D01*
X62867000Y-43067000D01*
X62902714Y-43138429D01*
X62902714Y-43281286D01*
X62938429Y-43352714D01*
X62974143Y-43388429D01*
X63045571Y-43424143D01*
X63188429Y-43424143D01*
X63259857Y-43388429D01*
X63295571Y-43352714D01*
X63331286Y-43281286D01*
X63331286Y-43138429D01*
X63295571Y-43067000D01*
X63259857Y-43031286D01*
X63188429Y-42995571D01*
X63045571Y-42995571D01*
X62974143Y-43031286D01*
X62938429Y-43067000D01*
X62902714Y-43138429D01*
X41935857Y-55711286D02*
X41685857Y-55354143D01*
X41507285Y-55711286D02*
X41507285Y-54961286D01*
X41793000Y-54961286D01*
X41864428Y-54997000D01*
X41900143Y-55032714D01*
X41935857Y-55104143D01*
X41935857Y-55211286D01*
X41900143Y-55282714D01*
X41864428Y-55318429D01*
X41793000Y-55354143D01*
X41507285Y-55354143D01*
X42185857Y-54961286D02*
X42650143Y-54961286D01*
X42400143Y-55247000D01*
X42507285Y-55247000D01*
X42578714Y-55282714D01*
X42614428Y-55318429D01*
X42650143Y-55389857D01*
X42650143Y-55568429D01*
X42614428Y-55639857D01*
X42578714Y-55675571D01*
X42507285Y-55711286D01*
X42293000Y-55711286D01*
X42221571Y-55675571D01*
X42185857Y-55639857D01*
X42900143Y-54961286D02*
X43364429Y-54961286D01*
X43114429Y-55247000D01*
X43221571Y-55247000D01*
X43293000Y-55282714D01*
X43328714Y-55318429D01*
X43364429Y-55389857D01*
X43364429Y-55568429D01*
X43328714Y-55639857D01*
X43293000Y-55675571D01*
X43221571Y-55711286D01*
X43007286Y-55711286D01*
X42935857Y-55675571D01*
X42900143Y-55639857D01*
X87715286Y-42900143D02*
X87358143Y-43150143D01*
X87715286Y-43328715D02*
X86965286Y-43328715D01*
X86965286Y-43043000D01*
X87001000Y-42971572D01*
X87036714Y-42935857D01*
X87108143Y-42900143D01*
X87215286Y-42900143D01*
X87286714Y-42935857D01*
X87322429Y-42971572D01*
X87358143Y-43043000D01*
X87358143Y-43328715D01*
X86965286Y-42650143D02*
X86965286Y-42185857D01*
X87251000Y-42435857D01*
X87251000Y-42328715D01*
X87286714Y-42257286D01*
X87322429Y-42221572D01*
X87393857Y-42185857D01*
X87572429Y-42185857D01*
X87643857Y-42221572D01*
X87679571Y-42257286D01*
X87715286Y-42328715D01*
X87715286Y-42543000D01*
X87679571Y-42614429D01*
X87643857Y-42650143D01*
X87215286Y-41543000D02*
X87715286Y-41543000D01*
X86929571Y-41721571D02*
X87465286Y-41900143D01*
X87465286Y-41435857D01*
X112039857Y-65617286D02*
X111789857Y-65260143D01*
X111611285Y-65617286D02*
X111611285Y-64867286D01*
X111897000Y-64867286D01*
X111968428Y-64903000D01*
X112004143Y-64938714D01*
X112039857Y-65010143D01*
X112039857Y-65117286D01*
X112004143Y-65188714D01*
X111968428Y-65224429D01*
X111897000Y-65260143D01*
X111611285Y-65260143D01*
X112289857Y-64867286D02*
X112754143Y-64867286D01*
X112504143Y-65153000D01*
X112611285Y-65153000D01*
X112682714Y-65188714D01*
X112718428Y-65224429D01*
X112754143Y-65295857D01*
X112754143Y-65474429D01*
X112718428Y-65545857D01*
X112682714Y-65581571D01*
X112611285Y-65617286D01*
X112397000Y-65617286D01*
X112325571Y-65581571D01*
X112289857Y-65545857D01*
X113004143Y-64867286D02*
X113504143Y-64867286D01*
X113182714Y-65617286D01*
X112039857Y-64347286D02*
X111789857Y-63990143D01*
X111611285Y-64347286D02*
X111611285Y-63597286D01*
X111897000Y-63597286D01*
X111968428Y-63633000D01*
X112004143Y-63668714D01*
X112039857Y-63740143D01*
X112039857Y-63847286D01*
X112004143Y-63918714D01*
X111968428Y-63954429D01*
X111897000Y-63990143D01*
X111611285Y-63990143D01*
X112289857Y-63597286D02*
X112754143Y-63597286D01*
X112504143Y-63883000D01*
X112611285Y-63883000D01*
X112682714Y-63918714D01*
X112718428Y-63954429D01*
X112754143Y-64025857D01*
X112754143Y-64204429D01*
X112718428Y-64275857D01*
X112682714Y-64311571D01*
X112611285Y-64347286D01*
X112397000Y-64347286D01*
X112325571Y-64311571D01*
X112289857Y-64275857D01*
X113182714Y-63918714D02*
X113111286Y-63883000D01*
X113075571Y-63847286D01*
X113039857Y-63775857D01*
X113039857Y-63740143D01*
X113075571Y-63668714D01*
X113111286Y-63633000D01*
X113182714Y-63597286D01*
X113325571Y-63597286D01*
X113397000Y-63633000D01*
X113432714Y-63668714D01*
X113468429Y-63740143D01*
X113468429Y-63775857D01*
X113432714Y-63847286D01*
X113397000Y-63883000D01*
X113325571Y-63918714D01*
X113182714Y-63918714D01*
X113111286Y-63954429D01*
X113075571Y-63990143D01*
X113039857Y-64061571D01*
X113039857Y-64204429D01*
X113075571Y-64275857D01*
X113111286Y-64311571D01*
X113182714Y-64347286D01*
X113325571Y-64347286D01*
X113397000Y-64311571D01*
X113432714Y-64275857D01*
X113468429Y-64204429D01*
X113468429Y-64061571D01*
X113432714Y-63990143D01*
X113397000Y-63954429D01*
X113325571Y-63918714D01*
X92227857Y-49294286D02*
X91977857Y-48937143D01*
X91799285Y-49294286D02*
X91799285Y-48544286D01*
X92085000Y-48544286D01*
X92156428Y-48580000D01*
X92192143Y-48615714D01*
X92227857Y-48687143D01*
X92227857Y-48794286D01*
X92192143Y-48865714D01*
X92156428Y-48901429D01*
X92085000Y-48937143D01*
X91799285Y-48937143D01*
X92477857Y-48544286D02*
X92942143Y-48544286D01*
X92692143Y-48830000D01*
X92799285Y-48830000D01*
X92870714Y-48865714D01*
X92906428Y-48901429D01*
X92942143Y-48972857D01*
X92942143Y-49151429D01*
X92906428Y-49222857D01*
X92870714Y-49258571D01*
X92799285Y-49294286D01*
X92585000Y-49294286D01*
X92513571Y-49258571D01*
X92477857Y-49222857D01*
X93299286Y-49294286D02*
X93442143Y-49294286D01*
X93513571Y-49258571D01*
X93549286Y-49222857D01*
X93620714Y-49115714D01*
X93656429Y-48972857D01*
X93656429Y-48687143D01*
X93620714Y-48615714D01*
X93585000Y-48580000D01*
X93513571Y-48544286D01*
X93370714Y-48544286D01*
X93299286Y-48580000D01*
X93263571Y-48615714D01*
X93227857Y-48687143D01*
X93227857Y-48865714D01*
X93263571Y-48937143D01*
X93299286Y-48972857D01*
X93370714Y-49008571D01*
X93513571Y-49008571D01*
X93585000Y-48972857D01*
X93620714Y-48937143D01*
X93656429Y-48865714D01*
X108797286Y-42392143D02*
X108440143Y-42642143D01*
X108797286Y-42820715D02*
X108047286Y-42820715D01*
X108047286Y-42535000D01*
X108083000Y-42463572D01*
X108118714Y-42427857D01*
X108190143Y-42392143D01*
X108297286Y-42392143D01*
X108368714Y-42427857D01*
X108404429Y-42463572D01*
X108440143Y-42535000D01*
X108440143Y-42820715D01*
X108297286Y-41749286D02*
X108797286Y-41749286D01*
X108011571Y-41927857D02*
X108547286Y-42106429D01*
X108547286Y-41642143D01*
X108118714Y-41392143D02*
X108083000Y-41356429D01*
X108047286Y-41285000D01*
X108047286Y-41106429D01*
X108083000Y-41035000D01*
X108118714Y-40999286D01*
X108190143Y-40963571D01*
X108261571Y-40963571D01*
X108368714Y-40999286D01*
X108797286Y-41427857D01*
X108797286Y-40963571D01*
X88417857Y-60029286D02*
X88167857Y-59672143D01*
X87989285Y-60029286D02*
X87989285Y-59279286D01*
X88275000Y-59279286D01*
X88346428Y-59315000D01*
X88382143Y-59350714D01*
X88417857Y-59422143D01*
X88417857Y-59529286D01*
X88382143Y-59600714D01*
X88346428Y-59636429D01*
X88275000Y-59672143D01*
X87989285Y-59672143D01*
X89060714Y-59529286D02*
X89060714Y-60029286D01*
X88882143Y-59243571D02*
X88703571Y-59779286D01*
X89167857Y-59779286D01*
X89560714Y-59600714D02*
X89489286Y-59565000D01*
X89453571Y-59529286D01*
X89417857Y-59457857D01*
X89417857Y-59422143D01*
X89453571Y-59350714D01*
X89489286Y-59315000D01*
X89560714Y-59279286D01*
X89703571Y-59279286D01*
X89775000Y-59315000D01*
X89810714Y-59350714D01*
X89846429Y-59422143D01*
X89846429Y-59457857D01*
X89810714Y-59529286D01*
X89775000Y-59565000D01*
X89703571Y-59600714D01*
X89560714Y-59600714D01*
X89489286Y-59636429D01*
X89453571Y-59672143D01*
X89417857Y-59743571D01*
X89417857Y-59886429D01*
X89453571Y-59957857D01*
X89489286Y-59993571D01*
X89560714Y-60029286D01*
X89703571Y-60029286D01*
X89775000Y-59993571D01*
X89810714Y-59957857D01*
X89846429Y-59886429D01*
X89846429Y-59743571D01*
X89810714Y-59672143D01*
X89775000Y-59636429D01*
X89703571Y-59600714D01*
X84607857Y-60029286D02*
X84357857Y-59672143D01*
X84179285Y-60029286D02*
X84179285Y-59279286D01*
X84465000Y-59279286D01*
X84536428Y-59315000D01*
X84572143Y-59350714D01*
X84607857Y-59422143D01*
X84607857Y-59529286D01*
X84572143Y-59600714D01*
X84536428Y-59636429D01*
X84465000Y-59672143D01*
X84179285Y-59672143D01*
X85250714Y-59529286D02*
X85250714Y-60029286D01*
X85072143Y-59243571D02*
X84893571Y-59779286D01*
X85357857Y-59779286D01*
X85679286Y-60029286D02*
X85822143Y-60029286D01*
X85893571Y-59993571D01*
X85929286Y-59957857D01*
X86000714Y-59850714D01*
X86036429Y-59707857D01*
X86036429Y-59422143D01*
X86000714Y-59350714D01*
X85965000Y-59315000D01*
X85893571Y-59279286D01*
X85750714Y-59279286D01*
X85679286Y-59315000D01*
X85643571Y-59350714D01*
X85607857Y-59422143D01*
X85607857Y-59600714D01*
X85643571Y-59672143D01*
X85679286Y-59707857D01*
X85750714Y-59743571D01*
X85893571Y-59743571D01*
X85965000Y-59707857D01*
X86000714Y-59672143D01*
X86036429Y-59600714D01*
X83488714Y-80349286D02*
X83238714Y-79992143D01*
X83060142Y-80349286D02*
X83060142Y-79599286D01*
X83345857Y-79599286D01*
X83417285Y-79635000D01*
X83453000Y-79670714D01*
X83488714Y-79742143D01*
X83488714Y-79849286D01*
X83453000Y-79920714D01*
X83417285Y-79956429D01*
X83345857Y-79992143D01*
X83060142Y-79992143D01*
X84203000Y-80349286D02*
X83774428Y-80349286D01*
X83988714Y-80349286D02*
X83988714Y-79599286D01*
X83917285Y-79706429D01*
X83845857Y-79777857D01*
X83774428Y-79813571D01*
X84667286Y-79599286D02*
X84738714Y-79599286D01*
X84810143Y-79635000D01*
X84845857Y-79670714D01*
X84881571Y-79742143D01*
X84917286Y-79885000D01*
X84917286Y-80063571D01*
X84881571Y-80206429D01*
X84845857Y-80277857D01*
X84810143Y-80313571D01*
X84738714Y-80349286D01*
X84667286Y-80349286D01*
X84595857Y-80313571D01*
X84560143Y-80277857D01*
X84524428Y-80206429D01*
X84488714Y-80063571D01*
X84488714Y-79885000D01*
X84524428Y-79742143D01*
X84560143Y-79670714D01*
X84595857Y-79635000D01*
X84667286Y-79599286D01*
X85167286Y-79599286D02*
X85631572Y-79599286D01*
X85381572Y-79885000D01*
X85488714Y-79885000D01*
X85560143Y-79920714D01*
X85595857Y-79956429D01*
X85631572Y-80027857D01*
X85631572Y-80206429D01*
X85595857Y-80277857D01*
X85560143Y-80313571D01*
X85488714Y-80349286D01*
X85274429Y-80349286D01*
X85203000Y-80313571D01*
X85167286Y-80277857D01*
X86790714Y-80349286D02*
X86540714Y-79992143D01*
X86362142Y-80349286D02*
X86362142Y-79599286D01*
X86647857Y-79599286D01*
X86719285Y-79635000D01*
X86755000Y-79670714D01*
X86790714Y-79742143D01*
X86790714Y-79849286D01*
X86755000Y-79920714D01*
X86719285Y-79956429D01*
X86647857Y-79992143D01*
X86362142Y-79992143D01*
X87505000Y-80349286D02*
X87076428Y-80349286D01*
X87290714Y-80349286D02*
X87290714Y-79599286D01*
X87219285Y-79706429D01*
X87147857Y-79777857D01*
X87076428Y-79813571D01*
X87969286Y-79599286D02*
X88040714Y-79599286D01*
X88112143Y-79635000D01*
X88147857Y-79670714D01*
X88183571Y-79742143D01*
X88219286Y-79885000D01*
X88219286Y-80063571D01*
X88183571Y-80206429D01*
X88147857Y-80277857D01*
X88112143Y-80313571D01*
X88040714Y-80349286D01*
X87969286Y-80349286D01*
X87897857Y-80313571D01*
X87862143Y-80277857D01*
X87826428Y-80206429D01*
X87790714Y-80063571D01*
X87790714Y-79885000D01*
X87826428Y-79742143D01*
X87862143Y-79670714D01*
X87897857Y-79635000D01*
X87969286Y-79599286D01*
X88862143Y-79849286D02*
X88862143Y-80349286D01*
X88683572Y-79563571D02*
X88505000Y-80099286D01*
X88969286Y-80099286D01*
X104237286Y-79565429D02*
X104844429Y-79565429D01*
X104915857Y-79529714D01*
X104951571Y-79494000D01*
X104987286Y-79422571D01*
X104987286Y-79279714D01*
X104951571Y-79208286D01*
X104915857Y-79172571D01*
X104844429Y-79136857D01*
X104237286Y-79136857D01*
X104987286Y-78386857D02*
X104987286Y-78815429D01*
X104987286Y-78601143D02*
X104237286Y-78601143D01*
X104344429Y-78672572D01*
X104415857Y-78744000D01*
X104451571Y-78815429D01*
X44848571Y-64050286D02*
X44848571Y-64657429D01*
X44884286Y-64728857D01*
X44920000Y-64764571D01*
X44991429Y-64800286D01*
X45134286Y-64800286D01*
X45205714Y-64764571D01*
X45241429Y-64728857D01*
X45277143Y-64657429D01*
X45277143Y-64050286D01*
X45598571Y-64121714D02*
X45634285Y-64086000D01*
X45705714Y-64050286D01*
X45884285Y-64050286D01*
X45955714Y-64086000D01*
X45991428Y-64121714D01*
X46027143Y-64193143D01*
X46027143Y-64264571D01*
X45991428Y-64371714D01*
X45562857Y-64800286D01*
X46027143Y-64800286D01*
X65976571Y-73249286D02*
X65976571Y-73856429D01*
X66012286Y-73927857D01*
X66048000Y-73963571D01*
X66119429Y-73999286D01*
X66262286Y-73999286D01*
X66333714Y-73963571D01*
X66369429Y-73927857D01*
X66405143Y-73856429D01*
X66405143Y-73249286D01*
X66690857Y-73249286D02*
X67155143Y-73249286D01*
X66905143Y-73535000D01*
X67012285Y-73535000D01*
X67083714Y-73570714D01*
X67119428Y-73606429D01*
X67155143Y-73677857D01*
X67155143Y-73856429D01*
X67119428Y-73927857D01*
X67083714Y-73963571D01*
X67012285Y-73999286D01*
X66798000Y-73999286D01*
X66726571Y-73963571D01*
X66690857Y-73927857D01*
X91086857Y-84679286D02*
X91586857Y-85429286D01*
X91586857Y-84679286D02*
X91086857Y-85429286D01*
X92265429Y-85429286D02*
X91836857Y-85429286D01*
X92051143Y-85429286D02*
X92051143Y-84679286D01*
X91979714Y-84786429D01*
X91908286Y-84857857D01*
X91836857Y-84893571D01*
X112365286Y-78331143D02*
X113115286Y-77831143D01*
X112365286Y-77831143D02*
X113115286Y-78331143D01*
X112436714Y-77581143D02*
X112401000Y-77545429D01*
X112365286Y-77474000D01*
X112365286Y-77295429D01*
X112401000Y-77224000D01*
X112436714Y-77188286D01*
X112508143Y-77152571D01*
X112579571Y-77152571D01*
X112686714Y-77188286D01*
X113115286Y-77616857D01*
X113115286Y-77152571D01*
X114000428Y-65617286D02*
X114000428Y-64867286D01*
X114179000Y-64867286D01*
X114286143Y-64903000D01*
X114357571Y-64974429D01*
X114393286Y-65045857D01*
X114429000Y-65188714D01*
X114429000Y-65295857D01*
X114393286Y-65438714D01*
X114357571Y-65510143D01*
X114286143Y-65581571D01*
X114179000Y-65617286D01*
X114000428Y-65617286D01*
X115143286Y-65617286D02*
X114714714Y-65617286D01*
X114929000Y-65617286D02*
X114929000Y-64867286D01*
X114857571Y-64974429D01*
X114786143Y-65045857D01*
X114714714Y-65081571D01*
X114000428Y-64347286D02*
X114000428Y-63597286D01*
X114179000Y-63597286D01*
X114286143Y-63633000D01*
X114357571Y-63704429D01*
X114393286Y-63775857D01*
X114429000Y-63918714D01*
X114429000Y-64025857D01*
X114393286Y-64168714D01*
X114357571Y-64240143D01*
X114286143Y-64311571D01*
X114179000Y-64347286D01*
X114000428Y-64347286D01*
X114714714Y-63668714D02*
X114750428Y-63633000D01*
X114821857Y-63597286D01*
X115000428Y-63597286D01*
X115071857Y-63633000D01*
X115107571Y-63668714D01*
X115143286Y-63740143D01*
X115143286Y-63811571D01*
X115107571Y-63918714D01*
X114679000Y-64347286D01*
X115143286Y-64347286D01*
X114000428Y-66887286D02*
X114000428Y-66137286D01*
X114179000Y-66137286D01*
X114286143Y-66173000D01*
X114357571Y-66244429D01*
X114393286Y-66315857D01*
X114429000Y-66458714D01*
X114429000Y-66565857D01*
X114393286Y-66708714D01*
X114357571Y-66780143D01*
X114286143Y-66851571D01*
X114179000Y-66887286D01*
X114000428Y-66887286D01*
X114679000Y-66137286D02*
X115143286Y-66137286D01*
X114893286Y-66423000D01*
X115000428Y-66423000D01*
X115071857Y-66458714D01*
X115107571Y-66494429D01*
X115143286Y-66565857D01*
X115143286Y-66744429D01*
X115107571Y-66815857D01*
X115071857Y-66851571D01*
X115000428Y-66887286D01*
X114786143Y-66887286D01*
X114714714Y-66851571D01*
X114679000Y-66815857D01*
X63331286Y-41884143D02*
X62974143Y-42134143D01*
X63331286Y-42312715D02*
X62581286Y-42312715D01*
X62581286Y-42027000D01*
X62617000Y-41955572D01*
X62652714Y-41919857D01*
X62724143Y-41884143D01*
X62831286Y-41884143D01*
X62902714Y-41919857D01*
X62938429Y-41955572D01*
X62974143Y-42027000D01*
X62974143Y-42312715D01*
X62831286Y-41241286D02*
X63331286Y-41241286D01*
X62545571Y-41419857D02*
X63081286Y-41598429D01*
X63081286Y-41134143D01*
X63331286Y-40455571D02*
X63331286Y-40884143D01*
X63331286Y-40669857D02*
X62581286Y-40669857D01*
X62688429Y-40741286D01*
X62759857Y-40812714D01*
X62795571Y-40884143D01*
X87461286Y-40106143D02*
X87104143Y-40356143D01*
X87461286Y-40534715D02*
X86711286Y-40534715D01*
X86711286Y-40249000D01*
X86747000Y-40177572D01*
X86782714Y-40141857D01*
X86854143Y-40106143D01*
X86961286Y-40106143D01*
X87032714Y-40141857D01*
X87068429Y-40177572D01*
X87104143Y-40249000D01*
X87104143Y-40534715D01*
X86961286Y-39463286D02*
X87461286Y-39463286D01*
X86675571Y-39641857D02*
X87211286Y-39820429D01*
X87211286Y-39356143D01*
X86711286Y-38713286D02*
X86711286Y-39070429D01*
X87068429Y-39106143D01*
X87032714Y-39070429D01*
X86997000Y-38999000D01*
X86997000Y-38820429D01*
X87032714Y-38749000D01*
X87068429Y-38713286D01*
X87139857Y-38677571D01*
X87318429Y-38677571D01*
X87389857Y-38713286D01*
X87425571Y-38749000D01*
X87461286Y-38820429D01*
X87461286Y-38999000D01*
X87425571Y-39070429D01*
X87389857Y-39106143D01*
X108797286Y-39852143D02*
X108440143Y-40102143D01*
X108797286Y-40280715D02*
X108047286Y-40280715D01*
X108047286Y-39995000D01*
X108083000Y-39923572D01*
X108118714Y-39887857D01*
X108190143Y-39852143D01*
X108297286Y-39852143D01*
X108368714Y-39887857D01*
X108404429Y-39923572D01*
X108440143Y-39995000D01*
X108440143Y-40280715D01*
X108047286Y-39173572D02*
X108047286Y-39530715D01*
X108404429Y-39566429D01*
X108368714Y-39530715D01*
X108333000Y-39459286D01*
X108333000Y-39280715D01*
X108368714Y-39209286D01*
X108404429Y-39173572D01*
X108475857Y-39137857D01*
X108654429Y-39137857D01*
X108725857Y-39173572D01*
X108761571Y-39209286D01*
X108797286Y-39280715D01*
X108797286Y-39459286D01*
X108761571Y-39530715D01*
X108725857Y-39566429D01*
X108118714Y-38852143D02*
X108083000Y-38816429D01*
X108047286Y-38745000D01*
X108047286Y-38566429D01*
X108083000Y-38495000D01*
X108118714Y-38459286D01*
X108190143Y-38423571D01*
X108261571Y-38423571D01*
X108368714Y-38459286D01*
X108797286Y-38887857D01*
X108797286Y-38423571D01*
X115849857Y-45479857D02*
X115814143Y-45515571D01*
X115707000Y-45551286D01*
X115635571Y-45551286D01*
X115528428Y-45515571D01*
X115457000Y-45444143D01*
X115421285Y-45372714D01*
X115385571Y-45229857D01*
X115385571Y-45122714D01*
X115421285Y-44979857D01*
X115457000Y-44908429D01*
X115528428Y-44837000D01*
X115635571Y-44801286D01*
X115707000Y-44801286D01*
X115814143Y-44837000D01*
X115849857Y-44872714D01*
X116099857Y-44801286D02*
X116599857Y-44801286D01*
X116278428Y-45551286D01*
X117028429Y-44801286D02*
X117099857Y-44801286D01*
X117171286Y-44837000D01*
X117207000Y-44872714D01*
X117242714Y-44944143D01*
X117278429Y-45087000D01*
X117278429Y-45265571D01*
X117242714Y-45408429D01*
X117207000Y-45479857D01*
X117171286Y-45515571D01*
X117099857Y-45551286D01*
X117028429Y-45551286D01*
X116957000Y-45515571D01*
X116921286Y-45479857D01*
X116885571Y-45408429D01*
X116849857Y-45265571D01*
X116849857Y-45087000D01*
X116885571Y-44944143D01*
X116921286Y-44872714D01*
X116957000Y-44837000D01*
X117028429Y-44801286D01*
X115849857Y-48019857D02*
X115814143Y-48055571D01*
X115707000Y-48091286D01*
X115635571Y-48091286D01*
X115528428Y-48055571D01*
X115457000Y-47984143D01*
X115421285Y-47912714D01*
X115385571Y-47769857D01*
X115385571Y-47662714D01*
X115421285Y-47519857D01*
X115457000Y-47448429D01*
X115528428Y-47377000D01*
X115635571Y-47341286D01*
X115707000Y-47341286D01*
X115814143Y-47377000D01*
X115849857Y-47412714D01*
X116099857Y-47341286D02*
X116599857Y-47341286D01*
X116278428Y-48091286D01*
X117278429Y-48091286D02*
X116849857Y-48091286D01*
X117064143Y-48091286D02*
X117064143Y-47341286D01*
X116992714Y-47448429D01*
X116921286Y-47519857D01*
X116849857Y-47555571D01*
X62615000Y-36165286D02*
X62615000Y-36701000D01*
X62579286Y-36808143D01*
X62507857Y-36879571D01*
X62400714Y-36915286D01*
X62329286Y-36915286D01*
X63365001Y-36915286D02*
X62936429Y-36915286D01*
X63150715Y-36915286D02*
X63150715Y-36165286D01*
X63079286Y-36272429D01*
X63007858Y-36343857D01*
X62936429Y-36379571D01*
X60202000Y-36165286D02*
X60202000Y-36701000D01*
X60166286Y-36808143D01*
X60094857Y-36879571D01*
X59987714Y-36915286D01*
X59916286Y-36915286D01*
X60523429Y-36236714D02*
X60559143Y-36201000D01*
X60630572Y-36165286D01*
X60809143Y-36165286D01*
X60880572Y-36201000D01*
X60916286Y-36236714D01*
X60952001Y-36308143D01*
X60952001Y-36379571D01*
X60916286Y-36486714D01*
X60487715Y-36915286D01*
X60952001Y-36915286D01*
X51312000Y-70201286D02*
X51312000Y-70737000D01*
X51276286Y-70844143D01*
X51204857Y-70915571D01*
X51097714Y-70951286D01*
X51026286Y-70951286D01*
X51597715Y-70201286D02*
X52097715Y-70201286D01*
X51776286Y-70951286D01*
X47756000Y-70201286D02*
X47756000Y-70737000D01*
X47720286Y-70844143D01*
X47648857Y-70915571D01*
X47541714Y-70951286D01*
X47470286Y-70951286D01*
X48220286Y-70522714D02*
X48148858Y-70487000D01*
X48113143Y-70451286D01*
X48077429Y-70379857D01*
X48077429Y-70344143D01*
X48113143Y-70272714D01*
X48148858Y-70237000D01*
X48220286Y-70201286D01*
X48363143Y-70201286D01*
X48434572Y-70237000D01*
X48470286Y-70272714D01*
X48506001Y-70344143D01*
X48506001Y-70379857D01*
X48470286Y-70451286D01*
X48434572Y-70487000D01*
X48363143Y-70522714D01*
X48220286Y-70522714D01*
X48148858Y-70558429D01*
X48113143Y-70594143D01*
X48077429Y-70665571D01*
X48077429Y-70808429D01*
X48113143Y-70879857D01*
X48148858Y-70915571D01*
X48220286Y-70951286D01*
X48363143Y-70951286D01*
X48434572Y-70915571D01*
X48470286Y-70879857D01*
X48506001Y-70808429D01*
X48506001Y-70665571D01*
X48470286Y-70594143D01*
X48434572Y-70558429D01*
X48363143Y-70522714D01*
X121425857Y-40106143D02*
X121461571Y-40141857D01*
X121497286Y-40249000D01*
X121497286Y-40320429D01*
X121461571Y-40427572D01*
X121390143Y-40499000D01*
X121318714Y-40534715D01*
X121175857Y-40570429D01*
X121068714Y-40570429D01*
X120925857Y-40534715D01*
X120854429Y-40499000D01*
X120783000Y-40427572D01*
X120747286Y-40320429D01*
X120747286Y-40249000D01*
X120783000Y-40141857D01*
X120818714Y-40106143D01*
X120747286Y-39463286D02*
X120747286Y-39606143D01*
X120783000Y-39677572D01*
X120818714Y-39713286D01*
X120925857Y-39784715D01*
X121068714Y-39820429D01*
X121354429Y-39820429D01*
X121425857Y-39784715D01*
X121461571Y-39749000D01*
X121497286Y-39677572D01*
X121497286Y-39534715D01*
X121461571Y-39463286D01*
X121425857Y-39427572D01*
X121354429Y-39391857D01*
X121175857Y-39391857D01*
X121104429Y-39427572D01*
X121068714Y-39463286D01*
X121033000Y-39534715D01*
X121033000Y-39677572D01*
X121068714Y-39749000D01*
X121104429Y-39784715D01*
X121175857Y-39820429D01*
X121068714Y-38963286D02*
X121033000Y-39034714D01*
X120997286Y-39070429D01*
X120925857Y-39106143D01*
X120890143Y-39106143D01*
X120818714Y-39070429D01*
X120783000Y-39034714D01*
X120747286Y-38963286D01*
X120747286Y-38820429D01*
X120783000Y-38749000D01*
X120818714Y-38713286D01*
X120890143Y-38677571D01*
X120925857Y-38677571D01*
X120997286Y-38713286D01*
X121033000Y-38749000D01*
X121068714Y-38820429D01*
X121068714Y-38963286D01*
X121104429Y-39034714D01*
X121140143Y-39070429D01*
X121211571Y-39106143D01*
X121354429Y-39106143D01*
X121425857Y-39070429D01*
X121461571Y-39034714D01*
X121497286Y-38963286D01*
X121497286Y-38820429D01*
X121461571Y-38749000D01*
X121425857Y-38713286D01*
X121354429Y-38677571D01*
X121211571Y-38677571D01*
X121140143Y-38713286D01*
X121104429Y-38749000D01*
X121068714Y-38820429D01*
X110871048Y-40203429D02*
X111632953Y-40203429D01*
X111252001Y-40584381D02*
X111252001Y-39822476D01*
X121425857Y-42392143D02*
X121461571Y-42427857D01*
X121497286Y-42535000D01*
X121497286Y-42606429D01*
X121461571Y-42713572D01*
X121390143Y-42785000D01*
X121318714Y-42820715D01*
X121175857Y-42856429D01*
X121068714Y-42856429D01*
X120925857Y-42820715D01*
X120854429Y-42785000D01*
X120783000Y-42713572D01*
X120747286Y-42606429D01*
X120747286Y-42535000D01*
X120783000Y-42427857D01*
X120818714Y-42392143D01*
X120747286Y-41749286D02*
X120747286Y-41892143D01*
X120783000Y-41963572D01*
X120818714Y-41999286D01*
X120925857Y-42070715D01*
X121068714Y-42106429D01*
X121354429Y-42106429D01*
X121425857Y-42070715D01*
X121461571Y-42035000D01*
X121497286Y-41963572D01*
X121497286Y-41820715D01*
X121461571Y-41749286D01*
X121425857Y-41713572D01*
X121354429Y-41677857D01*
X121175857Y-41677857D01*
X121104429Y-41713572D01*
X121068714Y-41749286D01*
X121033000Y-41820715D01*
X121033000Y-41963572D01*
X121068714Y-42035000D01*
X121104429Y-42070715D01*
X121175857Y-42106429D01*
X121497286Y-41320714D02*
X121497286Y-41177857D01*
X121461571Y-41106429D01*
X121425857Y-41070714D01*
X121318714Y-40999286D01*
X121175857Y-40963571D01*
X120890143Y-40963571D01*
X120818714Y-40999286D01*
X120783000Y-41035000D01*
X120747286Y-41106429D01*
X120747286Y-41249286D01*
X120783000Y-41320714D01*
X120818714Y-41356429D01*
X120890143Y-41392143D01*
X121068714Y-41392143D01*
X121140143Y-41356429D01*
X121175857Y-41320714D01*
X121211571Y-41249286D01*
X121211571Y-41106429D01*
X121175857Y-41035000D01*
X121140143Y-40999286D01*
X121068714Y-40963571D01*
X110871048Y-42997429D02*
X111632953Y-42997429D01*
X111252001Y-43378381D02*
X111252001Y-42616476D01*
%LPC*%
D22*
X89916000Y-65405000D03*
X86614000Y-65405000D03*
D23*
X106045000Y-78613000D03*
X106045000Y-80137000D03*
X95885000Y-81788000D03*
X95885000Y-83312000D03*
X102870000Y-81788000D03*
X102870000Y-83312000D03*
X100330000Y-81788000D03*
X100330000Y-83312000D03*
D22*
X89916000Y-68580000D03*
X86614000Y-68580000D03*
X60579000Y-68580000D03*
X63881000Y-68580000D03*
D24*
X110490000Y-80264000D03*
X108966000Y-80264000D03*
D23*
X68580000Y-76708000D03*
X68580000Y-78232000D03*
D24*
X77597000Y-80010000D03*
X76073000Y-80010000D03*
X72263000Y-76835000D03*
X73787000Y-76835000D03*
X82677000Y-74930000D03*
X81153000Y-74930000D03*
D23*
X41910000Y-65278000D03*
X41910000Y-66802000D03*
D25*
X45466000Y-66675000D03*
X48514000Y-66675000D03*
D23*
X70485000Y-76708000D03*
X70485000Y-78232000D03*
D24*
X69342000Y-61595000D03*
X67818000Y-61595000D03*
X77978000Y-60960000D03*
X79502000Y-60960000D03*
X81153000Y-60960000D03*
X82677000Y-60960000D03*
X108966000Y-72136000D03*
X110490000Y-72136000D03*
D22*
X60579000Y-65405000D03*
X63881000Y-65405000D03*
D23*
X106045000Y-64643000D03*
X106045000Y-66167000D03*
D24*
X43688000Y-40640000D03*
X45212000Y-40640000D03*
X67818000Y-35560000D03*
X69342000Y-35560000D03*
X91948000Y-35560000D03*
X93472000Y-35560000D03*
D26*
X59019440Y-60325000D03*
X64170560Y-60325000D03*
D24*
X77597000Y-78105000D03*
X76073000Y-78105000D03*
X62992000Y-71120000D03*
X61468000Y-71120000D03*
D27*
X52705000Y-58166000D03*
X52705000Y-61214000D03*
D24*
X83947000Y-64770000D03*
X82423000Y-64770000D03*
X83947000Y-66675000D03*
X82423000Y-66675000D03*
X83947000Y-68580000D03*
X82423000Y-68580000D03*
X83947000Y-70485000D03*
X82423000Y-70485000D03*
X83947000Y-72390000D03*
X82423000Y-72390000D03*
D28*
X61595000Y-47010000D03*
D29*
X61595000Y-48910000D03*
D28*
X85725000Y-47010000D03*
D29*
X85725000Y-48910000D03*
D28*
X109855000Y-45740000D03*
D29*
X109855000Y-47640000D03*
D30*
X46990000Y-47117000D03*
X46990000Y-43053000D03*
X41910000Y-43053000D03*
X41910000Y-47117000D03*
X71120000Y-42037000D03*
X71120000Y-37973000D03*
X66040000Y-37973000D03*
X66040000Y-42037000D03*
X95250000Y-42672000D03*
X95250000Y-38608000D03*
X90170000Y-38608000D03*
X90170000Y-42672000D03*
D28*
X55880000Y-60305000D03*
D29*
X55880000Y-58405000D03*
D31*
X119380000Y-69850000D03*
X119380000Y-67310000D03*
X119380000Y-64770000D03*
D32*
X112999240Y-84000000D03*
X115000760Y-84000000D03*
X116999740Y-84000000D03*
X119001260Y-84000000D03*
X111000260Y-84000000D03*
X108998740Y-84000000D03*
X125000000Y-63500760D03*
X125000000Y-61499240D03*
X125000000Y-59500260D03*
X125000000Y-57498740D03*
X125000000Y-65499740D03*
X125000000Y-67501260D03*
D33*
X125000000Y-40995440D03*
D34*
X125000000Y-44998480D03*
X125000000Y-42996960D03*
X125000000Y-46997460D03*
X125000000Y-48998980D03*
X125000000Y-51000500D03*
X125000000Y-52999480D03*
D35*
X112395000Y-35560000D03*
X119380000Y-35560000D03*
X102870000Y-35560000D03*
X78740000Y-35560000D03*
X54610000Y-35560000D03*
D36*
X125000000Y-71997720D03*
D37*
X125000000Y-76000760D03*
X125000000Y-73999240D03*
X125000000Y-77999740D03*
D38*
X54610000Y-50985420D03*
D39*
X58420000Y-40383460D03*
X57150000Y-40383460D03*
X55880000Y-40383460D03*
X53340000Y-40383460D03*
X52070000Y-40383460D03*
X50800000Y-40383460D03*
D38*
X78740000Y-50985420D03*
D39*
X82550000Y-40383460D03*
X81280000Y-40383460D03*
X80010000Y-40383460D03*
X77470000Y-40383460D03*
X76200000Y-40383460D03*
X74930000Y-40383460D03*
D38*
X102870000Y-50985420D03*
D39*
X106680000Y-40383460D03*
X105410000Y-40383460D03*
X104140000Y-40383460D03*
X101600000Y-40383460D03*
X100330000Y-40383460D03*
X99060000Y-40383460D03*
D23*
X109855000Y-64643000D03*
X109855000Y-66167000D03*
X107950000Y-64643000D03*
X107950000Y-66167000D03*
X81280000Y-78867000D03*
X81280000Y-77343000D03*
X98425000Y-83312000D03*
X98425000Y-81788000D03*
X104775000Y-83312000D03*
X104775000Y-81788000D03*
X93980000Y-83312000D03*
X93980000Y-81788000D03*
D40*
X47550000Y-50800000D03*
X41350000Y-50800000D03*
X71680000Y-45720000D03*
X65480000Y-45720000D03*
D24*
X61468000Y-74930000D03*
X62992000Y-74930000D03*
X62992000Y-73025000D03*
X61468000Y-73025000D03*
X117602000Y-62865000D03*
X116078000Y-62865000D03*
X90297000Y-49530000D03*
X88773000Y-49530000D03*
X66167000Y-49530000D03*
X64643000Y-49530000D03*
D23*
X61595000Y-43688000D03*
X61595000Y-45212000D03*
D24*
X41148000Y-53975000D03*
X42672000Y-53975000D03*
D23*
X85725000Y-43688000D03*
X85725000Y-45212000D03*
D24*
X117602000Y-60960000D03*
X116078000Y-60960000D03*
X117602000Y-59055000D03*
X116078000Y-59055000D03*
D40*
X95810000Y-46355000D03*
X89610000Y-46355000D03*
D23*
X109855000Y-42418000D03*
X109855000Y-43942000D03*
D24*
X89662000Y-60960000D03*
X88138000Y-60960000D03*
X85852000Y-60960000D03*
X84328000Y-60960000D03*
D23*
X85090000Y-77343000D03*
X85090000Y-78867000D03*
X86995000Y-77343000D03*
X86995000Y-78867000D03*
D41*
X105445560Y-75275440D03*
X105445560Y-74775060D03*
X105445560Y-74274680D03*
X105445560Y-73774300D03*
X105445560Y-73273920D03*
X105445560Y-76774040D03*
X105445560Y-76276200D03*
X105445560Y-75775820D03*
D42*
X103444040Y-67274440D03*
X102946200Y-67274440D03*
X102445820Y-67274440D03*
X101945440Y-67274440D03*
X101445060Y-67274440D03*
X100944680Y-67274440D03*
X100444300Y-67274440D03*
X99943920Y-67274440D03*
D41*
X93944440Y-69275960D03*
X93944440Y-69773800D03*
X93944440Y-70274180D03*
X93944440Y-70774560D03*
X93944440Y-71274940D03*
X93944440Y-71775320D03*
X93944440Y-72275700D03*
X93944440Y-72776080D03*
D42*
X95945960Y-78775560D03*
X96443800Y-78775560D03*
X96944180Y-78775560D03*
X97444560Y-78775560D03*
X97944940Y-78775560D03*
X98445320Y-78775560D03*
X98945700Y-78775560D03*
X99446080Y-78775560D03*
D41*
X105445560Y-72776080D03*
X105445560Y-72275700D03*
X105445560Y-71775320D03*
D42*
X99446080Y-67274440D03*
X98945700Y-67274440D03*
X98445320Y-67274440D03*
D41*
X93944440Y-73273920D03*
X93944440Y-73774300D03*
X93944440Y-74274680D03*
D42*
X99943920Y-78775560D03*
X100444300Y-78775560D03*
X100944680Y-78775560D03*
D41*
X105445560Y-71274940D03*
X105445560Y-70774560D03*
X105445560Y-70274180D03*
X105445560Y-69773800D03*
X105445560Y-69275960D03*
D42*
X97944940Y-67274440D03*
X97444560Y-67274440D03*
X96944180Y-67274440D03*
X96443800Y-67274440D03*
X95945960Y-67274440D03*
D41*
X93944440Y-74775060D03*
X93944440Y-75275440D03*
X93944440Y-75775820D03*
X93944440Y-76276200D03*
X93944440Y-76774040D03*
D42*
X101445060Y-78775560D03*
X101945440Y-78775560D03*
X102445820Y-78775560D03*
X102946200Y-78775560D03*
X103444040Y-78775560D03*
D43*
X42418000Y-60325000D03*
D44*
X49022000Y-60325000D03*
X49022000Y-58039000D03*
X49022000Y-62611000D03*
D45*
X75328780Y-63944500D03*
X74828400Y-63944500D03*
X74328020Y-63944500D03*
X73827640Y-63944500D03*
X73327260Y-63944500D03*
X72829420Y-63944500D03*
X72329040Y-63944500D03*
X71828660Y-63944500D03*
X71328280Y-63944500D03*
X70827900Y-63944500D03*
X70327520Y-63944500D03*
X79827120Y-63944500D03*
X79329280Y-63944500D03*
X78828900Y-63944500D03*
X74328020Y-71945500D03*
X77828140Y-63944500D03*
X77327760Y-63944500D03*
X76827380Y-63944500D03*
X76329540Y-63944500D03*
X75829160Y-63944500D03*
X71828660Y-71945500D03*
X72329040Y-71945500D03*
X72829420Y-71945500D03*
X73327260Y-71945500D03*
X73827640Y-71945500D03*
X78328520Y-63944500D03*
X74828400Y-71945500D03*
X75328780Y-71945500D03*
X75829160Y-71945500D03*
X76329540Y-71945500D03*
X76827380Y-71945500D03*
X77327760Y-71945500D03*
X77828140Y-71945500D03*
X66329560Y-71945500D03*
X66827400Y-71945500D03*
X67327780Y-71945500D03*
X67828160Y-71945500D03*
X68328540Y-71945500D03*
X68828920Y-71945500D03*
X69329300Y-71945500D03*
X69827140Y-71945500D03*
X70327520Y-71945500D03*
X70827900Y-71945500D03*
X71328280Y-71945500D03*
X78328520Y-71945500D03*
X78828900Y-71945500D03*
X79329280Y-71945500D03*
X79827120Y-71945500D03*
X69827140Y-63944500D03*
X69329300Y-63944500D03*
X68828920Y-63944500D03*
X68328540Y-63944500D03*
X67828160Y-63944500D03*
X67327780Y-63944500D03*
X66827400Y-63944500D03*
X66329560Y-63944500D03*
D46*
X73025000Y-67945000D03*
D47*
X85060000Y-81555000D03*
X85710000Y-81555000D03*
X86360000Y-81555000D03*
X87010000Y-81555000D03*
X87660000Y-81555000D03*
D48*
X83935000Y-81455000D03*
X88785000Y-81455000D03*
D49*
X82760000Y-84455000D03*
X89960000Y-84455000D03*
D50*
X86360000Y-84455000D03*
D51*
X108605320Y-78099920D03*
X111104680Y-78099920D03*
X111104680Y-74300080D03*
X108605320Y-74300080D03*
D52*
X119215000Y-60960000D03*
X120815000Y-60960000D03*
X119215000Y-59055000D03*
X120815000Y-59055000D03*
X119215000Y-62865000D03*
X120815000Y-62865000D03*
D23*
X61595000Y-40513000D03*
X61595000Y-42037000D03*
X85725000Y-40513000D03*
X85725000Y-42037000D03*
X109855000Y-39243000D03*
X109855000Y-40767000D03*
D53*
X125010000Y-36000000D03*
X42010000Y-36000000D03*
X125010000Y-83000000D03*
X42010000Y-83000000D03*
D24*
X115443000Y-46355000D03*
X116967000Y-46355000D03*
X115443000Y-48895000D03*
X116967000Y-48895000D03*
D54*
X64135000Y-34925000D03*
X61595000Y-34925000D03*
X51435000Y-72390000D03*
X48895000Y-72390000D03*
D55*
X113665000Y-40005000D03*
D56*
X118665000Y-40005000D03*
D55*
X113665000Y-43180000D03*
D56*
X118665000Y-43180000D03*
D57*
G36*
X115697000Y-44371510D02*
X115259204Y-44590408D01*
X115219485Y-44621454D01*
X115194974Y-44665507D01*
X115189000Y-44704000D01*
X115189000Y-50239394D01*
X110437394Y-54991000D01*
X108712000Y-54991000D01*
X108662590Y-55001006D01*
X108622197Y-55028197D01*
X108405394Y-55245000D01*
X92000606Y-55245000D01*
X91783803Y-55028197D01*
X91741789Y-55000334D01*
X91694000Y-54991000D01*
X77470000Y-54991000D01*
X77420590Y-55001006D01*
X77380197Y-55028197D01*
X77163394Y-55245000D01*
X73712606Y-55245000D01*
X73495803Y-55028197D01*
X73453789Y-55000334D01*
X73406000Y-54991000D01*
X70104000Y-54991000D01*
X70054590Y-55001006D01*
X70014197Y-55028197D01*
X69797394Y-55245000D01*
X49149000Y-55245000D01*
X49149000Y-49403000D01*
X59891394Y-49403000D01*
X61632197Y-51143803D01*
X61674211Y-51171666D01*
X61722000Y-51181000D01*
X69850000Y-51181000D01*
X69899410Y-51170994D01*
X69939803Y-51143803D01*
X73204606Y-47879000D01*
X84201000Y-47879000D01*
X84201000Y-49784000D01*
X84211006Y-49833410D01*
X84238197Y-49873803D01*
X85508197Y-51143803D01*
X85550211Y-51171666D01*
X85598000Y-51181000D01*
X94488000Y-51181000D01*
X94537410Y-51170994D01*
X94577803Y-51143803D01*
X97371803Y-48349803D01*
X97399666Y-48307789D01*
X97409000Y-48260000D01*
X97409000Y-48133000D01*
X108405394Y-48133000D01*
X109384197Y-49111803D01*
X109426211Y-49139666D01*
X109474000Y-49149000D01*
X110236000Y-49149000D01*
X110285410Y-49138994D01*
X110325803Y-49111803D01*
X111341803Y-48095803D01*
X111369666Y-48053789D01*
X111379000Y-48006000D01*
X111379000Y-47042606D01*
X111849803Y-46571803D01*
X111877666Y-46529789D01*
X111887000Y-46482000D01*
X111887000Y-39878000D01*
X111876994Y-39828590D01*
X111849803Y-39788197D01*
X109855000Y-37793394D01*
X109855000Y-33655000D01*
X115697000Y-33655000D01*
X115697000Y-44371510D01*
X115697000Y-44371510D01*
G37*
X115697000Y-44371510D02*
X115259204Y-44590408D01*
X115219485Y-44621454D01*
X115194974Y-44665507D01*
X115189000Y-44704000D01*
X115189000Y-50239394D01*
X110437394Y-54991000D01*
X108712000Y-54991000D01*
X108662590Y-55001006D01*
X108622197Y-55028197D01*
X108405394Y-55245000D01*
X92000606Y-55245000D01*
X91783803Y-55028197D01*
X91741789Y-55000334D01*
X91694000Y-54991000D01*
X77470000Y-54991000D01*
X77420590Y-55001006D01*
X77380197Y-55028197D01*
X77163394Y-55245000D01*
X73712606Y-55245000D01*
X73495803Y-55028197D01*
X73453789Y-55000334D01*
X73406000Y-54991000D01*
X70104000Y-54991000D01*
X70054590Y-55001006D01*
X70014197Y-55028197D01*
X69797394Y-55245000D01*
X49149000Y-55245000D01*
X49149000Y-49403000D01*
X59891394Y-49403000D01*
X61632197Y-51143803D01*
X61674211Y-51171666D01*
X61722000Y-51181000D01*
X69850000Y-51181000D01*
X69899410Y-51170994D01*
X69939803Y-51143803D01*
X73204606Y-47879000D01*
X84201000Y-47879000D01*
X84201000Y-49784000D01*
X84211006Y-49833410D01*
X84238197Y-49873803D01*
X85508197Y-51143803D01*
X85550211Y-51171666D01*
X85598000Y-51181000D01*
X94488000Y-51181000D01*
X94537410Y-51170994D01*
X94577803Y-51143803D01*
X97371803Y-48349803D01*
X97399666Y-48307789D01*
X97409000Y-48260000D01*
X97409000Y-48133000D01*
X108405394Y-48133000D01*
X109384197Y-49111803D01*
X109426211Y-49139666D01*
X109474000Y-49149000D01*
X110236000Y-49149000D01*
X110285410Y-49138994D01*
X110325803Y-49111803D01*
X111341803Y-48095803D01*
X111369666Y-48053789D01*
X111379000Y-48006000D01*
X111379000Y-47042606D01*
X111849803Y-46571803D01*
X111877666Y-46529789D01*
X111887000Y-46482000D01*
X111887000Y-39878000D01*
X111876994Y-39828590D01*
X111849803Y-39788197D01*
X109855000Y-37793394D01*
X109855000Y-33655000D01*
X115697000Y-33655000D01*
X115697000Y-44371510D01*
G36*
X108055566Y-37320244D02*
X107126961Y-38481000D01*
X105918000Y-38481000D01*
X105868590Y-38491006D01*
X105826965Y-38519447D01*
X105799685Y-38561841D01*
X105791000Y-38608000D01*
X105791000Y-42037000D01*
X97409000Y-42037000D01*
X97409000Y-38126952D01*
X99396534Y-33655000D01*
X106345119Y-33655000D01*
X108055566Y-37320244D01*
X108055566Y-37320244D01*
G37*
X108055566Y-37320244D02*
X107126961Y-38481000D01*
X105918000Y-38481000D01*
X105868590Y-38491006D01*
X105826965Y-38519447D01*
X105799685Y-38561841D01*
X105791000Y-38608000D01*
X105791000Y-42037000D01*
X97409000Y-42037000D01*
X97409000Y-38126952D01*
X99396534Y-33655000D01*
X106345119Y-33655000D01*
X108055566Y-37320244D01*
G36*
X83921297Y-37311097D02*
X82995387Y-38237007D01*
X81763093Y-38483466D01*
X81716605Y-38502968D01*
X81681366Y-38539020D01*
X81661000Y-38608000D01*
X81661000Y-42037000D01*
X73279000Y-42037000D01*
X73279000Y-38126952D01*
X75266534Y-33655000D01*
X82215119Y-33655000D01*
X83921297Y-37311097D01*
X83921297Y-37311097D01*
G37*
X83921297Y-37311097D02*
X82995387Y-38237007D01*
X81763093Y-38483466D01*
X81716605Y-38502968D01*
X81681366Y-38539020D01*
X81661000Y-38608000D01*
X81661000Y-42037000D01*
X73279000Y-42037000D01*
X73279000Y-38126952D01*
X75266534Y-33655000D01*
X82215119Y-33655000D01*
X83921297Y-37311097D01*
G36*
X59795566Y-37320244D02*
X58866961Y-38481000D01*
X57658000Y-38481000D01*
X57608590Y-38491006D01*
X57566965Y-38519447D01*
X57539685Y-38561841D01*
X57531000Y-38608000D01*
X57531000Y-42037000D01*
X49149000Y-42037000D01*
X49149000Y-38126952D01*
X51136534Y-33655000D01*
X58085119Y-33655000D01*
X59795566Y-37320244D01*
X59795566Y-37320244D01*
G37*
X59795566Y-37320244D02*
X58866961Y-38481000D01*
X57658000Y-38481000D01*
X57608590Y-38491006D01*
X57566965Y-38519447D01*
X57539685Y-38561841D01*
X57531000Y-38608000D01*
X57531000Y-42037000D01*
X49149000Y-42037000D01*
X49149000Y-38126952D01*
X51136534Y-33655000D01*
X58085119Y-33655000D01*
X59795566Y-37320244D01*
G36*
X121793000Y-37465000D02*
X121412000Y-37465000D01*
X121362590Y-37475006D01*
X121320965Y-37503447D01*
X121293685Y-37545841D01*
X121285000Y-37592000D01*
X121285000Y-37793394D01*
X120306197Y-38772197D01*
X120278334Y-38814211D01*
X120269000Y-38862000D01*
X120269000Y-53287394D01*
X113231394Y-60325000D01*
X100584000Y-60325000D01*
X100534590Y-60335006D01*
X100494197Y-60362197D01*
X99515394Y-61341000D01*
X99112606Y-61341000D01*
X98895803Y-61124197D01*
X98853789Y-61096334D01*
X98806000Y-61087000D01*
X98552000Y-61087000D01*
X98495204Y-61100408D01*
X98014020Y-61341000D01*
X95302606Y-61341000D01*
X94361000Y-60399394D01*
X94361000Y-57277000D01*
X96467394Y-57277000D01*
X96684197Y-57493803D01*
X96726211Y-57521666D01*
X96774000Y-57531000D01*
X97536000Y-57531000D01*
X97585410Y-57520994D01*
X97625803Y-57493803D01*
X98096606Y-57023000D01*
X109982000Y-57023000D01*
X110031410Y-57012994D01*
X110071803Y-56985803D01*
X117437803Y-49619803D01*
X117465666Y-49577789D01*
X117475000Y-49530000D01*
X117475000Y-44704000D01*
X117464994Y-44654590D01*
X117436553Y-44612965D01*
X117388161Y-44583517D01*
X116713000Y-44358463D01*
X116713000Y-33655000D01*
X121793000Y-33655000D01*
X121793000Y-37465000D01*
X121793000Y-37465000D01*
G37*
X121793000Y-37465000D02*
X121412000Y-37465000D01*
X121362590Y-37475006D01*
X121320965Y-37503447D01*
X121293685Y-37545841D01*
X121285000Y-37592000D01*
X121285000Y-37793394D01*
X120306197Y-38772197D01*
X120278334Y-38814211D01*
X120269000Y-38862000D01*
X120269000Y-53287394D01*
X113231394Y-60325000D01*
X100584000Y-60325000D01*
X100534590Y-60335006D01*
X100494197Y-60362197D01*
X99515394Y-61341000D01*
X99112606Y-61341000D01*
X98895803Y-61124197D01*
X98853789Y-61096334D01*
X98806000Y-61087000D01*
X98552000Y-61087000D01*
X98495204Y-61100408D01*
X98014020Y-61341000D01*
X95302606Y-61341000D01*
X94361000Y-60399394D01*
X94361000Y-57277000D01*
X96467394Y-57277000D01*
X96684197Y-57493803D01*
X96726211Y-57521666D01*
X96774000Y-57531000D01*
X97536000Y-57531000D01*
X97585410Y-57520994D01*
X97625803Y-57493803D01*
X98096606Y-57023000D01*
X109982000Y-57023000D01*
X110031410Y-57012994D01*
X110071803Y-56985803D01*
X117437803Y-49619803D01*
X117465666Y-49577789D01*
X117475000Y-49530000D01*
X117475000Y-44704000D01*
X117464994Y-44654590D01*
X117436553Y-44612965D01*
X117388161Y-44583517D01*
X116713000Y-44358463D01*
X116713000Y-33655000D01*
X121793000Y-33655000D01*
X121793000Y-37465000D01*
M02*
